<?xml version="1.0" encoding="utf-8"?>
<!-- Generator: Adobe Illustrator 25.4.1, SVG Export Plug-In . SVG Version: 6.00 Build 0)  -->
<svg version="1.1" id="Layer_1" xmlns="http://www.w3.org/2000/svg" xmlns:xlink="http://www.w3.org/1999/xlink" x="0px" y="0px"
	 viewBox="0 0 1920 90" style="enable-background:new 0 0 1920 90;" xml:space="preserve">
<style type="text/css">
	.st0{fill:#F15F5D;}
	.st1{fill:none;stroke:#F15F5D;stroke-width:2;stroke-miterlimit:10;}
	.st2{fill:none;stroke:#F15F5D;stroke-width:2;stroke-miterlimit:10;stroke-dasharray:11.863,11.863;}
	.st3{fill:#E5DFBD;stroke:#50514F;stroke-width:2;stroke-miterlimit:10;}
	.st4{fill:#AB9EBB;stroke:#50514F;stroke-width:2;stroke-miterlimit:10;}
	.st5{fill:#7F6B94;stroke:#50514F;stroke-width:2;stroke-miterlimit:10;}
	.st6{opacity:0.79;}
	.st7{fill:#8E8D8D;}
	.st8{fill:#E5DFBD;}
	.st9{fill:#68B0AC;}
	.st10{fill:#AB9EBB;}
	.st11{fill:#E3E41A;}
	.st12{fill:#D0BCDB;}
	.st13{fill:#7F6B94;}
	.st14{fill:#A5CDCB;}
	.st15{opacity:0.5;}
	.st16{fill:#078BA8;}
	.st17{fill:#C3D34D;}
	.st18{fill:#68B1AB;}
	.st19{fill:#EAE7AF;}
	.st20{fill:none;stroke:#50504E;stroke-miterlimit:10;}
	.st21{fill:#FFFFFF;stroke:#50504E;stroke-width:3;stroke-miterlimit:10;}
	.st22{fill:#AB9EBA;stroke:#7F6B94;stroke-width:2;stroke-miterlimit:10;}
	.st23{clip-path:url(#SVGID_00000095332917562431713590000003017037792910398604_);}
	.st24{fill:#68B0AB;}
	.st25{clip-path:url(#SVGID_00000019678794237372355590000001653719469404861571_);fill:#078BA8;}
	.st26{clip-path:url(#SVGID_00000019678794237372355590000001653719469404861571_);fill:#F15F5C;}
	.st27{clip-path:url(#SVGID_00000019678794237372355590000001653719469404861571_);fill:#D0BBDB;}
	.st28{clip-path:url(#SVGID_00000019678794237372355590000001653719469404861571_);fill:#E2E419;}
	.st29{clip-path:url(#SVGID_00000050622742553091989270000005563878411800671911_);}
	.st30{clip-path:url(#SVGID_00000005959947650922073790000004514378691625760700_);fill:#078BA8;}
	.st31{clip-path:url(#SVGID_00000005959947650922073790000004514378691625760700_);fill:#F15F5C;}
	.st32{clip-path:url(#SVGID_00000005959947650922073790000004514378691625760700_);fill:#D0BBDB;}
	.st33{clip-path:url(#SVGID_00000005959947650922073790000004514378691625760700_);fill:#E2E419;}
</style>
<g>
	<rect x="0" y="0" class="st24" width="1920" height="90"/>
	<g>
		<defs>
			<rect id="SVGID_00000013159448388708426370000012413147067523647650_" x="0" y="0" width="1920" height="90"/>
		</defs>
		<clipPath id="SVGID_00000135675527700252936850000010798592118373120130_">
			<use xlink:href="#SVGID_00000013159448388708426370000012413147067523647650_"  style="overflow:visible;"/>
		</clipPath>
		<g style="clip-path:url(#SVGID_00000135675527700252936850000010798592118373120130_);">
			<defs>
				<rect id="SVGID_00000096038898753908298010000012090052217430840193_" x="0" y="0" width="1920" height="90"/>
			</defs>
			<clipPath id="SVGID_00000132798560068084526820000006514173862666327444_">
				<use xlink:href="#SVGID_00000096038898753908298010000012090052217430840193_"  style="overflow:visible;"/>
			</clipPath>
			<path style="clip-path:url(#SVGID_00000132798560068084526820000006514173862666327444_);fill:#078BA8;" d="M18.63-4.7l0.34-1.42
				c0.19-0.78,0.97-1.26,1.75-1.08l15.37,3.68c0.78,0.19,1.26,0.97,1.08,1.75l-0.34,1.42c-0.19,0.78-0.97,1.26-1.75,1.08L19.7-2.95
				C18.92-3.14,18.44-3.92,18.63-4.7z"/>
			<path style="clip-path:url(#SVGID_00000132798560068084526820000006514173862666327444_);fill:#F15F5C;" d="M50.82-8.83
				l1.91-0.31c1.05-0.17,2.05,0.54,2.22,1.6l3.39,20.73c0.17,1.05-0.54,2.05-1.6,2.22l-1.91,0.31c-1.05,0.17-2.05-0.54-2.22-1.6
				L49.23-6.61C49.05-7.66,49.77-8.66,50.82-8.83z"/>
			<path style="clip-path:url(#SVGID_00000132798560068084526820000006514173862666327444_);fill:#D0BBDB;" d="M97.9-9.79l1.27-0.2
				c0.7-0.11,1.35,0.37,1.46,1.07l2.12,13.74c0.11,0.7-0.37,1.35-1.07,1.46l-1.27,0.2c-0.7,0.11-1.35-0.37-1.46-1.07L96.83-8.33
				C96.72-9.03,97.2-9.68,97.9-9.79z"/>
			<path style="clip-path:url(#SVGID_00000132798560068084526820000006514173862666327444_);fill:#078BA8;" d="M130.12-0.81
				l11.95-5.05c0.61-0.26,1.31,0.03,1.57,0.64l0.47,1.1c0.26,0.61-0.03,1.31-0.64,1.57l-11.95,5.05c-0.61,0.26-1.31-0.03-1.57-0.64
				l-0.47-1.1C129.23,0.14,129.51-0.56,130.12-0.81z"/>
			<path style="clip-path:url(#SVGID_00000132798560068084526820000006514173862666327444_);fill:#F15F5C;" d="M167.59,7.49
				l3.73-13.33c0.19-0.68,0.89-1.07,1.57-0.88l1.23,0.34c0.68,0.19,1.07,0.89,0.88,1.57l-3.73,13.33c-0.19,0.68-0.89,1.07-1.57,0.88
				l-1.23-0.34C167.8,8.87,167.4,8.17,167.59,7.49z"/>
			<path style="clip-path:url(#SVGID_00000132798560068084526820000006514173862666327444_);fill:#D0BBDB;" d="M188.28,4.39
				l21.05-12.95c1.07-0.66,2.47-0.32,3.13,0.75l1.19,1.94c0.66,1.07,0.32,2.47-0.75,3.13l-21.05,12.95
				c-1.07,0.66-2.47,0.32-3.13-0.75l-1.19-1.94C186.87,6.46,187.21,5.05,188.28,4.39z"/>
			<path style="clip-path:url(#SVGID_00000132798560068084526820000006514173862666327444_);fill:#D0BBDB;" d="M232.11-0.08
				l18.62-10.3c0.95-0.52,2.14-0.18,2.66,0.77l0.95,1.72c0.52,0.95,0.18,2.14-0.77,2.66l-18.62,10.3c-0.95,0.52-2.14,0.18-2.66-0.77
				l-0.95-1.71C230.81,1.63,231.16,0.44,232.11-0.08z"/>
			<path style="clip-path:url(#SVGID_00000132798560068084526820000006514173862666327444_);fill:#F15F5C;" d="M272.25,12.51
				l4.45-13.65c0.23-0.69,0.97-1.07,1.67-0.85l1.26,0.41c0.69,0.23,1.07,0.97,0.85,1.67l-4.45,13.65c-0.23,0.69-0.97,1.07-1.67,0.85
				l-1.26-0.41C272.41,13.95,272.03,13.2,272.25,12.51z"/>
			<path style="clip-path:url(#SVGID_00000132798560068084526820000006514173862666327444_);fill:#F15F5C;" d="M315.25-7.42
				l0.81-0.92c0.45-0.51,1.23-0.56,1.73-0.11l10,8.82c0.51,0.45,0.56,1.23,0.11,1.73l-0.81,0.92c-0.45,0.51-1.22,0.56-1.73,0.11
				l-10-8.82C314.85-6.13,314.8-6.91,315.25-7.42z"/>
			<path style="clip-path:url(#SVGID_00000132798560068084526820000006514173862666327444_);fill:#E2E419;" d="M344.74,0.54
				l16.13-12.68c0.82-0.65,2.01-0.5,2.65,0.32l1.17,1.48c0.65,0.82,0.5,2.01-0.32,2.65L348.25,5c-0.82,0.65-2.01,0.5-2.65-0.32
				l-1.17-1.48C343.78,2.38,343.92,1.19,344.74,0.54z"/>
			<path style="clip-path:url(#SVGID_00000132798560068084526820000006514173862666327444_);fill:#D0BBDB;" d="M381.42,13.7
				l0.54-21.63c0.03-1.1,0.94-1.97,2.04-1.94L386-9.82c1.1,0.03,1.97,0.94,1.94,2.04l-0.54,21.63c-0.03,1.1-0.94,1.97-2.04,1.94
				l-1.99-0.05C382.26,15.71,381.39,14.8,381.42,13.7z"/>
			<path style="clip-path:url(#SVGID_00000132798560068084526820000006514173862666327444_);fill:#D0BBDB;" d="M413.42,6.23
				l15.11-9.62c0.77-0.49,1.79-0.26,2.28,0.51l0.89,1.39c0.49,0.77,0.26,1.79-0.51,2.28l-15.11,9.62c-0.77,0.49-1.79,0.26-2.28-0.51
				l-0.89-1.39C412.42,7.74,412.65,6.72,413.42,6.23z"/>
			<path style="clip-path:url(#SVGID_00000132798560068084526820000006514173862666327444_);fill:#D0BBDB;" d="M458.38-0.45
				l13.26-3.81c0.67-0.19,1.38,0.2,1.57,0.87l0.35,1.22c0.19,0.67-0.2,1.38-0.87,1.57l-13.26,3.81c-0.67,0.19-1.38-0.2-1.57-0.87
				l-0.35-1.22C457.31,0.44,457.7-0.26,458.38-0.45z"/>
			<path style="clip-path:url(#SVGID_00000132798560068084526820000006514173862666327444_);fill:#D0BBDB;" d="M-11.82,37.41
				l22.37-9.55c1.14-0.49,2.45,0.04,2.94,1.18l0.88,2.06c0.49,1.14-0.04,2.45-1.18,2.94l-22.37,9.55c-1.14,0.49-2.45-0.04-2.94-1.18
				L-13,40.35C-13.49,39.21-12.96,37.89-11.82,37.41z"/>
			<path style="clip-path:url(#SVGID_00000132798560068084526820000006514173862666327444_);fill:#D0BBDB;" d="M33.86,43.89
				l9.43-12.36c0.48-0.63,1.38-0.75,2.01-0.27l1.14,0.87c0.63,0.48,0.75,1.38,0.27,2.01l-9.43,12.36c-0.48,0.63-1.38,0.75-2.01,0.27
				l-1.14-0.87C33.5,45.42,33.38,44.52,33.86,43.89z"/>
			<path style="clip-path:url(#SVGID_00000132798560068084526820000006514173862666327444_);fill:#E2E419;" d="M70.53,45.86
				l7.79-20.79c0.4-1.06,1.57-1.59,2.63-1.2l1.92,0.72c1.06,0.4,1.59,1.57,1.2,2.63l-7.79,20.79c-0.4,1.06-1.57,1.59-2.63,1.2
				l-1.92-0.72C70.67,48.09,70.13,46.92,70.53,45.86z"/>
			<path style="clip-path:url(#SVGID_00000132798560068084526820000006514173862666327444_);fill:#D0BBDB;" d="M108.36,33.47
				l0.15-1.54c0.08-0.85,0.84-1.48,1.69-1.4l16.76,1.62c0.85,0.08,1.48,0.84,1.4,1.69l-0.15,1.54c-0.08,0.85-0.84,1.48-1.69,1.4
				l-16.76-1.62C108.9,35.08,108.28,34.33,108.36,33.47z"/>
			<path style="clip-path:url(#SVGID_00000132798560068084526820000006514173862666327444_);fill:#F15F5C;" d="M140.39,30.32
				l0.6-1.99c0.33-1.1,1.49-1.72,2.59-1.39l21.59,6.48c1.1,0.33,1.72,1.49,1.39,2.59l-0.6,1.99c-0.33,1.1-1.49,1.72-2.59,1.39
				l-21.59-6.48C140.68,32.57,140.06,31.42,140.39,30.32z"/>
			<path style="clip-path:url(#SVGID_00000132798560068084526820000006514173862666327444_);fill:#D0BBDB;" d="M183.61,45.08
				l4.64-18.05c0.24-0.92,1.17-1.47,2.09-1.23l1.66,0.43c0.92,0.24,1.47,1.17,1.23,2.09l-4.64,18.05c-0.24,0.92-1.17,1.47-2.09,1.23
				l-1.66-0.43C183.93,46.94,183.38,46,183.61,45.08z"/>
			<path style="clip-path:url(#SVGID_00000132798560068084526820000006514173862666327444_);fill:#E2E419;" d="M214.77,36.27
				l17.76-7.04c0.9-0.36,1.93,0.08,2.28,0.99l0.65,1.64c0.36,0.9-0.08,1.93-0.99,2.28l-17.76,7.04c-0.9,0.36-1.93-0.08-2.28-0.99
				l-0.65-1.64C213.43,37.65,213.87,36.63,214.77,36.27z"/>
			<path style="clip-path:url(#SVGID_00000132798560068084526820000006514173862666327444_);fill:#E2E419;" d="M253.34,46.27
				l7.62-22.7c0.39-1.15,1.64-1.78,2.79-1.39l2.09,0.7c1.15,0.39,1.78,1.64,1.39,2.79l-7.62,22.7c-0.39,1.15-1.64,1.78-2.79,1.39
				l-2.09-0.7C253.57,48.68,252.95,47.43,253.34,46.27z"/>
			<path style="clip-path:url(#SVGID_00000132798560068084526820000006514173862666327444_);fill:#F15F5C;" d="M289.94,48.75
				l5.9-14.73c0.3-0.75,1.15-1.11,1.9-0.81l1.36,0.54c0.75,0.3,1.11,1.15,0.81,1.9l-5.9,14.73c-0.3,0.75-1.15,1.11-1.9,0.81
				l-1.36-0.54C290.01,50.35,289.64,49.5,289.94,48.75z"/>
			<path style="clip-path:url(#SVGID_00000132798560068084526820000006514173862666327444_);fill:#F15F5C;" d="M326.19,41.21
				l13.04-15.92c0.66-0.81,1.86-0.93,2.67-0.26l1.47,1.2c0.81,0.66,0.93,1.86,0.26,2.67l-13.04,15.92
				c-0.66,0.81-1.86,0.93-2.67,0.26l-1.47-1.2C325.65,43.22,325.53,42.02,326.19,41.21z"/>
			<path style="clip-path:url(#SVGID_00000132798560068084526820000006514173862666327444_);fill:#F15F5C;" d="M361.75,43.37
				l11.8-8.69c0.6-0.44,1.45-0.31,1.89,0.29l0.8,1.09c0.44,0.6,0.31,1.45-0.29,1.89l-11.8,8.69c-0.6,0.44-1.45,0.31-1.89-0.29
				l-0.8-1.09C361.02,44.66,361.15,43.81,361.75,43.37z"/>
			<path style="clip-path:url(#SVGID_00000132798560068084526820000006514173862666327444_);fill:#078BA8;" d="M398.38,38.91
				l15.4-6.14c0.78-0.31,1.67,0.07,1.98,0.85l0.57,1.42c0.31,0.78-0.07,1.67-0.85,1.98l-15.4,6.14c-0.78,0.31-1.67-0.07-1.98-0.85
				l-0.57-1.42C397.22,40.11,397.6,39.23,398.38,38.91z"/>
			<path style="clip-path:url(#SVGID_00000132798560068084526820000006514173862666327444_);fill:#E2E419;" d="M435.27,44.42
				l10.92-10.59c0.56-0.54,1.44-0.53,1.98,0.03l0.98,1.01c0.54,0.56,0.53,1.44-0.03,1.98L438.2,47.44
				c-0.56,0.54-1.44,0.53-1.98-0.03l-0.98-1.01C434.7,45.85,434.71,44.96,435.27,44.42z"/>
			<path style="clip-path:url(#SVGID_00000132798560068084526820000006514173862666327444_);fill:#F15F5C;" d="M473.12,45.48
				l9.2-15.93c0.47-0.81,1.5-1.09,2.31-0.62l1.47,0.85c0.81,0.47,1.09,1.5,0.62,2.31l-9.2,15.93c-0.47,0.81-1.5,1.09-2.31,0.62
				l-1.47-0.85C472.93,47.32,472.65,46.29,473.12,45.48z"/>
			<path style="clip-path:url(#SVGID_00000132798560068084526820000006514173862666327444_);fill:#078BA8;" d="M9.66,72.33
				l20.54-3.32c1.05-0.17,2.03,0.54,2.2,1.59l0.31,1.89c0.17,1.05-0.54,2.03-1.59,2.2l-20.54,3.32c-1.05,0.17-2.03-0.54-2.2-1.59
				l-0.31-1.89C7.91,73.48,8.62,72.5,9.66,72.33z"/>
			<path style="clip-path:url(#SVGID_00000132798560068084526820000006514173862666327444_);fill:#078BA8;" d="M56.88,74.3
				l10.6-7.81c0.54-0.4,1.3-0.28,1.7,0.26l0.72,0.98c0.4,0.54,0.28,1.3-0.26,1.7l-10.6,7.81c-0.54,0.4-1.3,0.28-1.7-0.26L56.62,76
				C56.22,75.46,56.34,74.7,56.88,74.3z"/>
			<path style="clip-path:url(#SVGID_00000132798560068084526820000006514173862666327444_);fill:#F15F5C;" d="M92.85,83.92
				l0.83-12.17c0.04-0.62,0.58-1.09,1.2-1.04L96,70.79c0.62,0.04,1.09,0.58,1.04,1.2l-0.83,12.17c-0.04,0.62-0.58,1.09-1.2,1.04
				l-1.12-0.08C93.27,85.07,92.8,84.54,92.85,83.92z"/>
			<path style="clip-path:url(#SVGID_00000132798560068084526820000006514173862666327444_);fill:#E2E419;" d="M129.47,71.6
				l0.08-1.23c0.04-0.68,0.63-1.2,1.31-1.15l13.37,0.86c0.68,0.04,1.2,0.63,1.15,1.31l-0.08,1.23c-0.04,0.68-0.63,1.2-1.31,1.15
				l-13.37-0.86C129.95,72.86,129.43,72.28,129.47,71.6z"/>
			<path style="clip-path:url(#SVGID_00000132798560068084526820000006514173862666327444_);fill:#F15F5C;" d="M162.82,58.29
				l2.09-0.57c1.15-0.31,2.34,0.37,2.65,1.52l6.15,22.65c0.31,1.15-0.37,2.34-1.52,2.65l-2.09,0.57c-1.15,0.31-2.34-0.37-2.65-1.52
				l-6.15-22.65C160.98,59.79,161.66,58.6,162.82,58.29z"/>
			<path style="clip-path:url(#SVGID_00000132798560068084526820000006514173862666327444_);fill:#F15F5C;" d="M192.37,75.61
				l19.3-10.98c0.98-0.56,2.23-0.22,2.79,0.77l0,0l1.01,1.78c0.56,0.98,0.22,2.23-0.77,2.79l-19.3,10.98
				c-0.98,0.56-2.23,0.22-2.79-0.77l-1.01-1.78C191.04,77.42,191.38,76.17,192.37,75.61z"/>
			<path style="clip-path:url(#SVGID_00000132798560068084526820000006514173862666327444_);fill:#F15F5C;" d="M235.82,76.17
				l13.3-14.69c0.68-0.75,1.83-0.8,2.58-0.13l1.35,1.23c0.75,0.68,0.8,1.83,0.13,2.58l-13.3,14.69c-0.68,0.75-1.83,0.8-2.58,0.13
				l-1.35-1.23C235.2,78.07,235.14,76.92,235.82,76.17z"/>
			<path style="clip-path:url(#SVGID_00000132798560068084526820000006514173862666327444_);fill:#E2E419;" d="M273.54,73.02
				l14.6-6.68c0.74-0.34,1.62-0.01,1.96,0.73l0.61,1.34c0.34,0.74,0.01,1.62-0.73,1.96l-14.6,6.68c-0.74,0.34-1.62,0.01-1.96-0.73
				l-0.62-1.34C272.47,74.23,272.8,73.36,273.54,73.02z"/>
			<path style="clip-path:url(#SVGID_00000132798560068084526820000006514173862666327444_);fill:#078BA8;" d="M309.59,65.03
				l0.85-1.57c0.47-0.87,1.55-1.2,2.42-0.73l17.1,9.2c0.87,0.47,1.2,1.55,0.73,2.42l-0.85,1.57c-0.47,0.87-1.55,1.2-2.42,0.73
				l-17.1-9.2C309.45,66.99,309.12,65.9,309.59,65.03z"/>
			<path style="clip-path:url(#SVGID_00000132798560068084526820000006514173862666327444_);fill:#F15F5C;" d="M349.4,83.54
				l2.27-12.48c0.12-0.63,0.72-1.06,1.36-0.94l1.15,0.21c0.63,0.12,1.06,0.72,0.94,1.36l-2.27,12.48c-0.12,0.63-0.72,1.06-1.36,0.94
				l-1.15-0.21C349.7,84.78,349.28,84.17,349.4,83.54z"/>
			<path style="clip-path:url(#SVGID_00000132798560068084526820000006514173862666327444_);fill:#D0BBDB;" d="M379.86,85.03
				l7.98-16.35c0.41-0.83,1.41-1.18,2.24-0.77l1.51,0.74c0.83,0.41,1.18,1.41,0.77,2.24l-7.98,16.35c-0.41,0.83-1.41,1.18-2.24,0.77
				l-1.51-0.74C379.8,86.87,379.46,85.86,379.86,85.03z"/>
			<path style="clip-path:url(#SVGID_00000132798560068084526820000006514173862666327444_);fill:#F15F5C;" d="M423.44,68.54
				l0.15-1.42c0.09-0.79,0.79-1.35,1.58-1.27l15.46,1.68c0.79,0.09,1.35,0.79,1.27,1.58l-0.15,1.42c-0.09,0.79-0.79,1.35-1.58,1.27
				l-15.46-1.68C423.92,70.03,423.35,69.32,423.44,68.54z"/>
			<path style="clip-path:url(#SVGID_00000132798560068084526820000006514173862666327444_);fill:#D0BBDB;" d="M451.52,74.14
				l18.46-8.5c0.94-0.43,2.05-0.02,2.48,0.92l0.78,1.7c0.43,0.94,0.02,2.05-0.92,2.48l-18.46,8.5c-0.94,0.43-2.05,0.02-2.48-0.92
				l-0.78-1.7C450.17,75.69,450.58,74.57,451.52,74.14z"/>
			<path style="clip-path:url(#SVGID_00000132798560068084526820000006514173862666327444_);fill:#F15F5C;" d="M903.98,14.8
				l0.97-1.33c0.53-0.73,1.56-0.9,2.29-0.36l14.42,10.48c0.73,0.53,0.9,1.56,0.36,2.29l-0.97,1.33c-0.53,0.73-1.56,0.9-2.29,0.36
				l-14.42-10.48C903.61,16.56,903.45,15.54,903.98,14.8z"/>
			<path style="clip-path:url(#SVGID_00000132798560068084526820000006514173862666327444_);fill:#F15F5C;" d="M916.05,71.93
				l2.84-14.35c0.14-0.73,0.85-1.2,1.58-1.06l1.32,0.26c0.73,0.14,1.2,0.85,1.06,1.58l-2.84,14.35c-0.14,0.73-0.85,1.2-1.58,1.06
				l-1.32-0.26C916.38,73.36,915.91,72.66,916.05,71.93z"/>
			<path style="clip-path:url(#SVGID_00000132798560068084526820000006514173862666327444_);fill:#078BA8;" d="M907.56,87.07
				l1.29-1.28c0.71-0.7,1.87-0.7,2.57,0.02l13.86,14.06c0.7,0.72,0.7,1.87-0.02,2.57l-1.29,1.28c-0.72,0.7-1.87,0.7-2.57-0.02
				l-13.86-14.06C906.84,88.93,906.85,87.78,907.56,87.07z"/>
			<path style="clip-path:url(#SVGID_00000132798560068084526820000006514173862666327444_);fill:#E2E419;" d="M868.64-1.71
				l1.02-1.51c0.56-0.83,1.69-1.05,2.53-0.49l16.35,11.08c0.83,0.56,1.05,1.69,0.49,2.53L888,11.41c-0.56,0.83-1.69,1.05-2.53,0.49
				L869.12,0.81C868.29,0.25,868.07-0.88,868.64-1.71z"/>
			<path style="clip-path:url(#SVGID_00000132798560068084526820000006514173862666327444_);fill:#078BA8;" d="M875,33.12l1.69-1.48
				c0.93-0.82,2.35-0.72,3.17,0.21l16.07,18.36c0.82,0.93,0.73,2.35-0.2,3.17l0,0l-1.69,1.48c-0.93,0.82-2.35,0.72-3.17-0.21l0,0
				l-16.07-18.36C873.98,35.35,874.07,33.93,875,33.12z"/>
			<path style="clip-path:url(#SVGID_00000132798560068084526820000006514173862666327444_);fill:#078BA8;" d="M868.5,72.68
				l0.86-1.53c0.48-0.84,1.55-1.14,2.39-0.66l16.58,9.37c0.84,0.48,1.14,1.55,0.66,2.39l-0.86,1.53c-0.48,0.84-1.55,1.14-2.39,0.66
				l-16.58-9.37C868.32,74.59,868.02,73.52,868.5,72.68z"/>
			<path style="clip-path:url(#SVGID_00000132798560068084526820000006514173862666327444_);fill:#F15F5C;" d="M831.85,14.14
				l1.36-1.87c0.75-1.03,2.19-1.26,3.23-0.51l20.31,14.73c1.03,0.75,1.26,2.19,0.51,3.23l-1.36,1.87c-0.75,1.03-2.19,1.26-3.23,0.51
				l-20.31-14.73C831.33,16.61,831.1,15.17,831.85,14.14z"/>
			<path style="clip-path:url(#SVGID_00000132798560068084526820000006514173862666327444_);fill:#078BA8;" d="M841.59,73.87
				l13.15-20.93c0.67-1.06,2.07-1.39,3.14-0.72l1.93,1.21c1.06,0.67,1.39,2.07,0.72,3.14L847.38,77.5
				c-0.67,1.06-2.07,1.39-3.14,0.72l-1.93-1.21C841.24,76.34,840.92,74.94,841.59,73.87z"/>
			<path style="clip-path:url(#SVGID_00000132798560068084526820000006514173862666327444_);fill:#E2E419;" d="M800.76-10.35
				l2.12-0.95c1.17-0.53,2.54,0,3.07,1.16l10.33,22.98c0.53,1.17,0,2.54-1.16,3.07L813,16.86c-1.17,0.53-2.54,0-3.07-1.16
				L799.6-7.28C799.07-8.45,799.59-9.83,800.76-10.35z"/>
			<path style="clip-path:url(#SVGID_00000132798560068084526820000006514173862666327444_);fill:#F15F5C;" d="M806.24,57.08
				l7.14-17.5c0.36-0.89,1.38-1.32,2.27-0.95l1.61,0.66c0.89,0.36,1.32,1.38,0.95,2.27l-7.14,17.5c-0.36,0.89-1.38,1.32-2.27,0.95
				l-1.61-0.66C806.31,58.98,805.88,57.97,806.24,57.08z"/>
			<path style="clip-path:url(#SVGID_00000132798560068084526820000006514173862666327444_);fill:#E2E419;" d="M799.79,79.98
				l16.45-1.75c0.84-0.09,1.59,0.52,1.68,1.35l0.16,1.51c0.09,0.84-0.52,1.59-1.35,1.68l-16.45,1.75c-0.84,0.09-1.59-0.52-1.68-1.35
				l-0.16-1.51C798.34,80.82,798.95,80.07,799.79,79.98z"/>
			<path style="clip-path:url(#SVGID_00000132798560068084526820000006514173862666327444_);fill:#D0BBDB;" d="M764.88,33.45
				l8.06-13.6c0.41-0.69,1.3-0.92,2-0.51l1.25,0.74c0.69,0.41,0.92,1.3,0.51,2l-8.06,13.6c-0.41,0.69-1.3,0.92-2,0.51l-1.25-0.74
				C764.7,35.04,764.47,34.14,764.88,33.45z"/>
			<path style="clip-path:url(#SVGID_00000132798560068084526820000006514173862666327444_);fill:#F15F5C;" d="M762.43,67.68
				l16.97-18.6c0.86-0.95,2.33-1.01,3.28-0.15l1.71,1.56c0.95,0.86,1.01,2.33,0.15,3.28l-16.97,18.6c-0.86,0.95-2.33,1.01-3.28,0.15
				l-1.71-1.56C761.64,70.1,761.57,68.63,762.43,67.68z"/>
			<path style="clip-path:url(#SVGID_00000132798560068084526820000006514173862666327444_);fill:#F15F5C;" d="M763.71,104.51
				l18.52-17.02c0.94-0.87,2.41-0.8,3.27,0.14l1.57,1.71c0.87,0.94,0.8,2.41-0.14,3.27l-18.52,17.02c-0.94,0.87-2.41,0.8-3.27-0.14
				l-1.57-1.71C762.71,106.84,762.77,105.38,763.71,104.51z"/>
			<path style="clip-path:url(#SVGID_00000132798560068084526820000006514173862666327444_);fill:#078BA8;" d="M730.38-1.75
				l1.39-0.08c0.77-0.04,1.43,0.54,1.47,1.31l0.88,15.11c0.04,0.77-0.54,1.43-1.31,1.47l-1.39,0.08c-0.77,0.04-1.43-0.54-1.47-1.31
				l-0.88-15.11C729.02-1.04,729.61-1.7,730.38-1.75z"/>
			<path style="clip-path:url(#SVGID_00000132798560068084526820000006514173862666327444_);fill:#E2E419;" d="M732.49,58.21
				l7.32-21.43c0.37-1.09,1.56-1.67,2.65-1.3l1.97,0.67c1.09,0.37,1.67,1.56,1.3,2.65l-7.32,21.43c-0.37,1.09-1.56,1.67-2.65,1.3
				l-1.97-0.67C732.7,60.49,732.12,59.3,732.49,58.21z"/>
			<path style="clip-path:url(#SVGID_00000132798560068084526820000006514173862666327444_);fill:#F15F5C;" d="M724.21,80.97
				l0.28-1.27c0.15-0.7,0.85-1.14,1.55-0.99l13.74,3.02c0.7,0.15,1.14,0.85,0.99,1.55l-0.28,1.27c-0.15,0.7-0.85,1.14-1.55,0.99
				l-13.74-3.02C724.5,82.36,724.06,81.67,724.21,80.97z"/>
			<path style="clip-path:url(#SVGID_00000132798560068084526820000006514173862666327444_);fill:#F15F5C;" d="M693.07,32.48
				l11.38-5.45c0.58-0.28,1.27-0.03,1.55,0.55l0.5,1.05c0.28,0.58,0.03,1.27-0.55,1.55l-11.38,5.45c-0.58,0.28-1.27,0.03-1.55-0.55
				l-0.5-1.05C692.25,33.45,692.49,32.75,693.07,32.48z"/>
			<path style="clip-path:url(#SVGID_00000132798560068084526820000006514173862666327444_);fill:#078BA8;" d="M693.39,45.84
				l2.2-0.69c1.22-0.38,2.51,0.3,2.89,1.51l7.45,23.88c0.38,1.22-0.3,2.51-1.51,2.89l-2.2,0.69c-1.22,0.38-2.51-0.3-2.89-1.51
				l-7.45-23.88C691.49,47.52,692.17,46.22,693.39,45.84z"/>
			<path style="clip-path:url(#SVGID_00000132798560068084526820000006514173862666327444_);fill:#F15F5C;" d="M645.88,3.65
				l0.4-1.26c0.22-0.7,0.96-1.08,1.66-0.86l13.7,4.31c0.7,0.22,1.08,0.96,0.86,1.66l-0.4,1.26c-0.22,0.7-0.96,1.08-1.66,0.86
				l-13.7-4.31C646.05,5.09,645.66,4.34,645.88,3.65z"/>
			<path style="clip-path:url(#SVGID_00000132798560068084526820000006514173862666327444_);fill:#F15F5C;" d="M657.84,54.53
				l8.72-10.1c0.44-0.51,1.22-0.57,1.73-0.13l0.93,0.8c0.51,0.44,0.57,1.22,0.13,1.73l-8.72,10.1c-0.44,0.51-1.22,0.57-1.73,0.13
				l-0.93-0.8C657.45,55.82,657.39,55.05,657.84,54.53z"/>
			<path style="clip-path:url(#SVGID_00000132798560068084526820000006514173862666327444_);fill:#E2E419;" d="M656.49,74.78
				l1.47-1.18c0.81-0.65,2-0.52,2.66,0.29l12.84,16c0.65,0.81,0.52,2-0.29,2.66l-1.47,1.18c-0.81,0.65-2,0.52-2.66-0.29l-12.84-16
				C655.55,76.62,655.68,75.43,656.49,74.78z"/>
			<path style="clip-path:url(#SVGID_00000132798560068084526820000006514173862666327444_);fill:#F15F5C;" d="M609.45,21.76
				l0.53-1.36c0.29-0.75,1.14-1.13,1.89-0.83l14.79,5.75c0.75,0.29,1.13,1.14,0.83,1.89l-0.53,1.36c-0.29,0.75-1.14,1.13-1.89,0.83
				l-14.79-5.75C609.53,23.36,609.16,22.52,609.45,21.76z"/>
			<path style="clip-path:url(#SVGID_00000132798560068084526820000006514173862666327444_);fill:#F15F5C;" d="M615.92,57.51
				l1.19-1.48c0.66-0.82,1.85-0.95,2.66-0.29l16.05,12.88c0.82,0.66,0.95,1.85,0.29,2.66l-1.19,1.48c-0.66,0.82-1.85,0.95-2.66,0.29
				l-16.05-12.88C615.39,59.52,615.26,58.33,615.92,57.51z"/>
			<path style="clip-path:url(#SVGID_00000132798560068084526820000006514173862666327444_);fill:#E2E419;" d="M584.14,3.33
				l1.34-0.63c0.74-0.35,1.62-0.03,1.97,0.71l6.82,14.53c0.35,0.74,0.03,1.62-0.71,1.97l0,0l-1.34,0.63
				c-0.74,0.35-1.62,0.03-1.97-0.71l-6.82-14.53C583.08,4.55,583.4,3.67,584.14,3.33z"/>
			<path style="clip-path:url(#SVGID_00000132798560068084526820000006514173862666327444_);fill:#078BA8;" d="M584.34,57.33
				l9.03-17.19c0.46-0.87,1.54-1.21,2.42-0.75l1.58,0.83c0.87,0.46,1.21,1.54,0.75,2.42l-9.03,17.19c-0.46,0.87-1.54,1.21-2.42,0.75
				l-1.58-0.83C584.22,59.28,583.89,58.2,584.34,57.33z"/>
			<path style="clip-path:url(#SVGID_00000132798560068084526820000006514173862666327444_);fill:#F15F5C;" d="M576.13,81.47
				l0.2-1.15c0.11-0.64,0.71-1.06,1.35-0.95l12.5,2.14c0.64,0.11,1.06,0.71,0.95,1.35l-0.2,1.15c-0.11,0.64-0.71,1.06-1.35,0.95
				l-12.5-2.14C576.45,82.71,576.02,82.11,576.13,81.47z"/>
			<path style="clip-path:url(#SVGID_00000132798560068084526820000006514173862666327444_);fill:#D0BBDB;" d="M548.31,3.38
				L554-11.05c0.29-0.73,1.12-1.09,1.85-0.8l1.33,0.52c0.73,0.29,1.09,1.12,0.8,1.85L552.3,4.95c-0.29,0.73-1.12,1.09-1.85,0.8
				l-1.33-0.52C548.38,4.94,548.02,4.11,548.31,3.38z"/>
			<path style="clip-path:url(#SVGID_00000132798560068084526820000006514173862666327444_);fill:#078BA8;" d="M548.01,19.8
				l1.55-0.6c0.86-0.33,1.82,0.09,2.15,0.95l6.55,16.83c0.33,0.86-0.09,1.82-0.95,2.15l-1.55,0.6c-0.86,0.33-1.82-0.09-2.15-0.95
				l-6.55-16.83C546.73,21.09,547.15,20.13,548.01,19.8z"/>
			<path style="clip-path:url(#SVGID_00000132798560068084526820000006514173862666327444_);fill:#D0BBDB;" d="M547.34,74.89
				l4.13-18.8c0.21-0.96,1.16-1.56,2.11-1.35l1.73,0.38c0.96,0.21,1.56,1.16,1.35,2.11l-4.13,18.8c-0.21,0.96-1.16,1.56-2.11,1.35
				L548.69,77C547.73,76.79,547.13,75.84,547.34,74.89z"/>
			<path style="clip-path:url(#SVGID_00000132798560068084526820000006514173862666327444_);fill:#F15F5C;" d="M516.91,0.42
				l1.94-0.08c1.07-0.04,1.97,0.79,2.02,1.86l0.84,21.06c0.04,1.07-0.79,1.97-1.86,2.02l-1.94,0.08c-1.07,0.04-1.97-0.79-2.02-1.86
				l-0.84-21.06C515,1.36,515.84,0.46,516.91,0.42z"/>
			<path style="clip-path:url(#SVGID_00000132798560068084526820000006514173862666327444_);fill:#F15F5C;" d="M499.28,41.78
				l0.45-1.79c0.25-0.99,1.25-1.59,2.24-1.34l19.41,4.9c0.99,0.25,1.59,1.25,1.34,2.24l-0.45,1.79c-0.25,0.99-1.25,1.59-2.24,1.34
				l-19.41-4.9C499.63,43.77,499.03,42.77,499.28,41.78z"/>
			<path style="clip-path:url(#SVGID_00000132798560068084526820000006514173862666327444_);fill:#F15F5C;" d="M509.06,94.34
				l8.61-23.15c0.44-1.18,1.75-1.78,2.93-1.34l2.13,0.79c1.18,0.44,1.78,1.75,1.34,2.93l-8.61,23.15c-0.44,1.18-1.75,1.78-2.93,1.34
				l-2.13-0.79C509.22,96.82,508.62,95.51,509.06,94.34z"/>
			<path style="clip-path:url(#SVGID_00000132798560068084526820000006514173862666327444_);fill:#D0BBDB;" d="M471.23,33.19
				l14.17-7.2c0.72-0.37,1.6-0.08,1.97,0.64l0.66,1.3c0.37,0.72,0.08,1.6-0.64,1.97l-14.17,7.2c-0.72,0.37-1.6,0.08-1.97-0.64
				l-0.66-1.3C470.22,34.43,470.51,33.55,471.23,33.19z"/>
			<path style="clip-path:url(#SVGID_00000132798560068084526820000006514173862666327444_);fill:#F15F5C;" d="M468.79,55.39
				l1.27-0.84c0.7-0.46,1.65-0.27,2.11,0.43l9.1,13.82c0.46,0.7,0.27,1.65-0.43,2.11l-1.27,0.84c-0.7,0.46-1.65,0.27-2.11-0.43
				l-9.1-13.82C467.89,56.8,468.09,55.85,468.79,55.39z"/>
			<path style="clip-path:url(#SVGID_00000132798560068084526820000006514173862666327444_);fill:#E2E419;" d="M1381.52-4.9
				l0.82-0.9c0.46-0.5,1.23-0.53,1.72-0.07l9.76,8.95c0.5,0.46,0.53,1.23,0.07,1.72l-0.82,0.9c-0.46,0.5-1.23,0.53-1.72,0.07
				l-9.76-8.95C1381.09-3.63,1381.06-4.4,1381.52-4.9z"/>
			<path style="clip-path:url(#SVGID_00000132798560068084526820000006514173862666327444_);fill:#F15F5C;" d="M1377.41,30.24
				l0.79-1.64c0.43-0.91,1.52-1.29,2.43-0.85l17.81,8.55c0.91,0.43,1.29,1.52,0.85,2.43l-0.79,1.64c-0.43,0.91-1.52,1.29-2.43,0.85
				l-17.81-8.55C1377.35,32.23,1376.97,31.14,1377.41,30.24z"/>
			<path style="clip-path:url(#SVGID_00000132798560068084526820000006514173862666327444_);fill:#D0BBDB;" d="M1377.4,70.76
				l0.08-1.52c0.04-0.84,0.76-1.48,1.6-1.44l16.5,0.88c0.84,0.04,1.48,0.76,1.44,1.6l-0.08,1.52c-0.04,0.84-0.76,1.48-1.6,1.44
				l-16.5-0.88C1378,72.32,1377.35,71.6,1377.4,70.76z"/>
			<path style="clip-path:url(#SVGID_00000132798560068084526820000006514173862666327444_);fill:#E2E419;" d="M1344.36,19.51
				l13.22-6.73c0.67-0.34,1.49-0.07,1.84,0.6l0.62,1.22c0.34,0.67,0.07,1.49-0.6,1.84l-13.22,6.73c-0.67,0.34-1.49,0.07-1.84-0.6
				l-0.62-1.22C1343.42,20.67,1343.68,19.85,1344.36,19.51z"/>
			<path style="clip-path:url(#SVGID_00000132798560068084526820000006514173862666327444_);fill:#F15F5C;" d="M1352.67,66.56
				l9.37-12.29c0.48-0.63,1.37-0.75,2-0.27l1.13,0.86c0.63,0.48,0.75,1.37,0.27,2l-9.37,12.29c-0.48,0.63-1.37,0.75-1.99,0.27
				l-1.13-0.86C1352.31,68.08,1352.19,67.19,1352.67,66.56z"/>
			<path style="clip-path:url(#SVGID_00000132798560068084526820000006514173862666327444_);fill:#E2E419;" d="M1343.72,85.06
				l1.02-1.51c0.56-0.83,1.69-1.05,2.53-0.49l16.35,11.08c0.83,0.56,1.05,1.69,0.49,2.53l-1.02,1.51c-0.56,0.83-1.69,1.05-2.53,0.49
				l-16.35-11.08C1343.38,87.02,1343.16,85.89,1343.72,85.06z"/>
			<path style="clip-path:url(#SVGID_00000132798560068084526820000006514173862666327444_);fill:#D0BBDB;" d="M1313.85,11.22
				l4.11-19.28c0.21-0.98,1.17-1.61,2.16-1.4l1.78,0.38c0.98,0.21,1.61,1.17,1.4,2.15l-4.11,19.28c-0.21,0.98-1.17,1.61-2.15,1.4
				l-1.78-0.38C1314.26,13.17,1313.64,12.2,1313.85,11.22z"/>
			<path style="clip-path:url(#SVGID_00000132798560068084526820000006514173862666327444_);fill:#F15F5C;" d="M1319.56,35.25
				l1.33-0.34c0.73-0.19,1.48,0.26,1.67,0.99l3.65,14.43c0.19,0.73-0.26,1.48-0.99,1.67l-1.33,0.34c-0.73,0.19-1.48-0.26-1.67-0.99
				l-3.65-14.43C1318.38,36.18,1318.83,35.43,1319.56,35.25z"/>
			<path style="clip-path:url(#SVGID_00000132798560068084526820000006514173862666327444_);fill:#D0BBDB;" d="M1306.29,70.38
				l23.2-5.18c1.18-0.26,2.35,0.48,2.61,1.66l0.48,2.14c0.26,1.18-0.48,2.35-1.66,2.61l-23.2,5.18c-1.18,0.26-2.35-0.48-2.61-1.66
				l-0.48-2.14C1304.36,71.82,1305.11,70.65,1306.29,70.38z"/>
			<path style="clip-path:url(#SVGID_00000132798560068084526820000006514173862666327444_);fill:#078BA8;" d="M1273.52,23.11
				l0.14-1.35c0.08-0.75,0.74-1.29,1.49-1.22l14.71,1.48c0.75,0.08,1.29,0.74,1.22,1.49l-0.14,1.35c-0.08,0.75-0.74,1.29-1.49,1.22
				l-14.71-1.48C1273.99,24.53,1273.44,23.86,1273.52,23.11z"/>
			<path style="clip-path:url(#SVGID_00000132798560068084526820000006514173862666327444_);fill:#078BA8;" d="M1281.41,51.73
				l1.35-0.24c0.74-0.13,1.46,0.36,1.59,1.1l2.65,14.64c0.13,0.74-0.36,1.46-1.1,1.59l-1.35,0.24c-0.74,0.13-1.46-0.36-1.59-1.1
				l-2.65-14.64C1280.17,52.58,1280.67,51.86,1281.41,51.73z"/>
			<path style="clip-path:url(#SVGID_00000132798560068084526820000006514173862666327444_);fill:#E2E419;" d="M1275.85,76.42
				l2.12-0.95c1.17-0.53,2.54,0,3.07,1.16l10.33,22.98c0.53,1.17,0,2.54-1.16,3.07l-2.12,0.95c-1.17,0.53-2.54,0-3.07-1.16
				l-10.33-22.98C1274.16,78.32,1274.68,76.95,1275.85,76.42z"/>
			<path style="clip-path:url(#SVGID_00000132798560068084526820000006514173862666327444_);fill:#E2E419;" d="M1237.9,0.9l0.81-1.2
				c0.45-0.66,1.34-0.84,2.01-0.39l13.04,8.77c0.66,0.45,0.84,1.34,0.39,2.01l-0.81,1.2c-0.45,0.66-1.34,0.84-2.01,0.39l-13.04-8.77
				C1237.63,2.46,1237.45,1.56,1237.9,0.9z"/>
			<path style="clip-path:url(#SVGID_00000132798560068084526820000006514173862666327444_);fill:#E2E419;" d="M1231.95,24.71
				l1.49-1.52c0.82-0.84,2.17-0.85,3.01-0.03l16.53,16.19c0.84,0.82,0.85,2.17,0.03,3.01l-1.49,1.52c-0.82,0.84-2.17,0.85-3.01,0.03
				l0,0l-16.53-16.18C1231.14,26.9,1231.13,25.55,1231.95,24.71z"/>
			<path style="clip-path:url(#SVGID_00000132798560068084526820000006514173862666327444_);fill:#E2E419;" d="M1236.1,72.95
				l0.8-1.53c0.44-0.85,1.49-1.17,2.34-0.73l16.65,8.7c0.85,0.44,1.17,1.49,0.73,2.34l-0.8,1.53c-0.44,0.85-1.49,1.17-2.34,0.73
				l-16.65-8.7C1235.98,74.84,1235.65,73.79,1236.1,72.95z"/>
			<path style="clip-path:url(#SVGID_00000132798560068084526820000006514173862666327444_);fill:#F15F5C;" d="M1208.16,35.3
				l5.57-16.21c0.28-0.82,1.18-1.26,2.01-0.98l1.49,0.51c0.82,0.28,1.26,1.18,0.98,2.01l-5.57,16.21c-0.28,0.82-1.18,1.26-2.01,0.98
				l-1.49-0.51C1208.31,37.02,1207.87,36.12,1208.16,35.3z"/>
			<path style="clip-path:url(#SVGID_00000132798560068084526820000006514173862666327444_);fill:#D0BBDB;" d="M1201.16,42.65
				l1.91-1.1c1.05-0.61,2.4-0.25,3.01,0.81l11.93,20.68c0.61,1.05,0.25,2.4-0.81,3.01l-1.91,1.1c-1.05,0.61-2.4,0.25-3.01-0.81
				l-11.93-20.68C1199.75,44.61,1200.11,43.26,1201.16,42.65z"/>
			<path style="clip-path:url(#SVGID_00000132798560068084526820000006514173862666327444_);fill:#078BA8;" d="M1205.46,85.03
				l1.39-0.08c0.77-0.04,1.43,0.54,1.47,1.31l0.88,15.11c0.04,0.77-0.54,1.43-1.31,1.47l-1.39,0.08c-0.77,0.04-1.43-0.54-1.47-1.31
				l-0.88-15.11C1204.11,85.73,1204.69,85.07,1205.46,85.03z"/>
			<path style="clip-path:url(#SVGID_00000132798560068084526820000006514173862666327444_);fill:#E2E419;" d="M1171.36,17.4
				l5.04-19.58c0.26-1,1.27-1.6,2.27-1.34l1.8,0.46c1,0.26,1.6,1.27,1.34,2.27l-5.04,19.58c-0.26,1-1.27,1.6-2.27,1.34l-1.8-0.46
				C1171.71,19.41,1171.11,18.4,1171.36,17.4z"/>
			<path style="clip-path:url(#SVGID_00000132798560068084526820000006514173862666327444_);fill:#F15F5C;" d="M1165.11,45.4
				l19.86-14.91c1.01-0.76,2.44-0.55,3.2,0.46l1.37,1.83c0.76,1.01,0.55,2.44-0.46,3.2l-19.86,14.91c-1.01,0.76-2.44,0.55-3.2-0.46
				l-1.37-1.83C1163.89,47.59,1164.1,46.16,1165.11,45.4z"/>
			<path style="clip-path:url(#SVGID_00000132798560068084526820000006514173862666327444_);fill:#E2E419;" d="M1162.84,79.08
				l12.61-9.93c0.64-0.51,1.57-0.39,2.08,0.25l0.92,1.16c0.51,0.64,0.39,1.57-0.25,2.08l-12.61,9.93c-0.64,0.51-1.57,0.39-2.08-0.25
				l-0.92-1.16C1162.09,80.51,1162.2,79.58,1162.84,79.08z"/>
			<path style="clip-path:url(#SVGID_00000132798560068084526820000006514173862666327444_);fill:#D0BBDB;" d="M1125.24,4.74
				l1.93-1.21c1.06-0.67,2.47-0.35,3.14,0.72l13.15,20.93c0.67,1.06,0.35,2.47-0.72,3.14l-1.93,1.21c-1.06,0.67-2.47,0.35-3.14-0.72
				l-13.15-20.93C1123.85,6.82,1124.17,5.41,1125.24,4.74z"/>
			<path style="clip-path:url(#SVGID_00000132798560068084526820000006514173862666327444_);fill:#D0BBDB;" d="M1130.84,48.25
				l1.71-0.97c0.94-0.53,2.14-0.2,2.67,0.74l10.49,18.52c0.53,0.94,0.2,2.14-0.74,2.67l-1.71,0.97c-0.94,0.53-2.14,0.2-2.67-0.74
				l-10.49-18.52C1129.57,49.98,1129.9,48.79,1130.84,48.25z"/>
			<path style="clip-path:url(#SVGID_00000132798560068084526820000006514173862666327444_);fill:#F15F5C;" d="M1120.97,90.42
				l0.4-1.26c0.22-0.7,0.96-1.08,1.66-0.86l13.7,4.31c0.7,0.22,1.08,0.96,0.86,1.66l-0.4,1.26c-0.22,0.7-0.96,1.08-1.66,0.86
				l-13.7-4.31C1121.14,91.86,1120.75,91.12,1120.97,90.42z"/>
			<path style="clip-path:url(#SVGID_00000132798560068084526820000006514173862666327444_);fill:#D0BBDB;" d="M1087.08,2.91
				l0.41-1.67c0.23-0.92,1.16-1.48,2.08-1.26l18.09,4.46c0.92,0.23,1.48,1.16,1.26,2.08l-0.41,1.67c-0.23,0.92-1.16,1.48-2.08,1.26
				l-18.09-4.46C1087.41,4.76,1086.85,3.83,1087.08,2.91z"/>
			<path style="clip-path:url(#SVGID_00000132798560068084526820000006514173862666327444_);fill:#E2E419;" d="M1094.77,30.76
				l1.63-0.66c0.9-0.37,1.93,0.06,2.29,0.96l7.22,17.69c0.37,0.9-0.06,1.93-0.96,2.29l-1.63,0.66c-0.9,0.37-1.93-0.06-2.29-0.96
				l-7.22-17.69C1093.44,32.15,1093.87,31.12,1094.77,30.76z"/>
			<path style="clip-path:url(#SVGID_00000132798560068084526820000006514173862666327444_);fill:#E2E419;" d="M1085.61,73.23
				l0.68-2.1c0.38-1.16,1.62-1.79,2.78-1.42l22.77,7.4c1.16,0.38,1.79,1.62,1.42,2.78l-0.68,2.1c-0.38,1.16-1.62,1.79-2.78,1.42
				l-22.77-7.4C1085.87,75.63,1085.23,74.39,1085.61,73.23z"/>
			<path style="clip-path:url(#SVGID_00000132798560068084526820000006514173862666327444_);fill:#F15F5C;" d="M1054.56,9.33
				l1.77-1.03c0.98-0.57,2.23-0.24,2.8,0.74l11.17,19.19c0.57,0.98,0.24,2.23-0.74,2.8l-1.77,1.03c-0.98,0.57-2.23,0.24-2.8-0.74
				l-11.17-19.19C1053.26,11.15,1053.59,9.9,1054.56,9.33z"/>
			<path style="clip-path:url(#SVGID_00000132798560068084526820000006514173862666327444_);fill:#F15F5C;" d="M1055.21,54.01
				l1.21-1.37c0.67-0.75,1.82-0.82,2.58-0.15l14.82,13.16c0.75,0.67,0.82,1.82,0.15,2.58l-1.21,1.37c-0.67,0.75-1.82,0.82-2.58,0.15
				l-14.82-13.16C1054.61,55.92,1054.54,54.77,1055.21,54.01z"/>
			<path style="clip-path:url(#SVGID_00000132798560068084526820000006514173862666327444_);fill:#E2E419;" d="M1059.23,90.1
				l1.34-0.63c0.74-0.35,1.62-0.03,1.97,0.71l6.82,14.53c0.35,0.74,0.03,1.62-0.71,1.97l0,0l-1.34,0.63
				c-0.74,0.35-1.62,0.03-1.97-0.71l-6.82-14.53C1058.17,91.33,1058.49,90.45,1059.23,90.1z"/>
			<path style="clip-path:url(#SVGID_00000132798560068084526820000006514173862666327444_);fill:#F15F5C;" d="M1010.25-7.55
				l1.2-1.52c0.66-0.84,1.88-0.98,2.72-0.32l16.5,13.01c0.84,0.66,0.98,1.88,0.32,2.72l-1.2,1.52c-0.66,0.84-1.88,0.98-2.72,0.32
				l-16.5-13.01C1009.73-5.5,1009.59-6.71,1010.25-7.55z"/>
			<path style="clip-path:url(#SVGID_00000132798560068084526820000006514173862666327444_);fill:#F15F5C;" d="M1011.61,33.62
				l24.92-0.76c1.27-0.04,2.33,0.96,2.37,2.22l0.07,2.29c0.04,1.27-0.96,2.33-2.22,2.37l-24.92,0.76c-1.27,0.04-2.33-0.96-2.37-2.22
				l-0.07-2.29C1009.35,34.72,1010.34,33.66,1011.61,33.62z"/>
			<path style="clip-path:url(#SVGID_00000132798560068084526820000006514173862666327444_);fill:#D0BBDB;" d="M1023.39,90.15
				l5.69-14.43c0.29-0.73,1.12-1.09,1.85-0.8l1.33,0.52c0.73,0.29,1.09,1.12,0.8,1.85l-5.69,14.43c-0.29,0.73-1.12,1.09-1.85,0.8
				l-1.33-0.52C1023.47,91.72,1023.1,90.89,1023.39,90.15z"/>
			<path style="clip-path:url(#SVGID_00000132798560068084526820000006514173862666327444_);fill:#E2E419;" d="M987.93,0.19
				l3.25-18.73c0.17-0.95,1.07-1.59,2.02-1.43l1.72,0.3c0.95,0.17,1.59,1.07,1.43,2.02L993.1,1.09c-0.17,0.95-1.07,1.59-2.02,1.43
				l-1.72-0.3C988.4,2.05,987.76,1.15,987.93,0.19z"/>
			<path style="clip-path:url(#SVGID_00000132798560068084526820000006514173862666327444_);fill:#D0BBDB;" d="M983.56,15.25
				l1.45-0.8c0.8-0.44,1.81-0.15,2.25,0.66l8.65,15.76c0.44,0.8,0.15,1.81-0.66,2.25l-1.45,0.8c-0.8,0.44-1.81,0.15-2.25-0.66
				l-8.65-15.76C982.47,16.7,982.76,15.69,983.56,15.25z"/>
			<path style="clip-path:url(#SVGID_00000132798560068084526820000006514173862666327444_);fill:#D0BBDB;" d="M979.64,51.12
				l1.19-0.88c0.66-0.49,1.59-0.35,2.08,0.31l0,0l9.6,12.97c0.49,0.66,0.35,1.59-0.31,2.08l-1.19,0.88
				c-0.66,0.49-1.59,0.35-2.08-0.31l-9.6-12.97C978.84,52.53,978.98,51.6,979.64,51.12z"/>
			<path style="clip-path:url(#SVGID_00000132798560068084526820000006514173862666327444_);fill:#F15F5C;" d="M992,87.19l1.94-0.08
				c1.07-0.04,1.97,0.79,2.02,1.86l0.84,21.06c0.04,1.07-0.79,1.97-1.86,2.02l-1.94,0.08c-1.07,0.04-1.97-0.79-2.02-1.86
				l-0.84-21.06C990.09,88.14,990.92,87.23,992,87.19z"/>
			<path style="clip-path:url(#SVGID_00000132798560068084526820000006514173862666327444_);fill:#E2E419;" d="M947.76,13.16
				l11.2-7.9c0.57-0.4,1.36-0.27,1.76,0.3l0.73,1.03c0.4,0.57,0.27,1.36-0.3,1.76l-11.2,7.9c-0.57,0.4-1.36,0.27-1.76-0.3
				l-0.73-1.03C947.06,14.35,947.19,13.57,947.76,13.16z"/>
			<path style="clip-path:url(#SVGID_00000132798560068084526820000006514173862666327444_);fill:#F15F5C;" d="M948.15,31.3
				l1.88-1.13c1.04-0.62,2.39-0.29,3.01,0.75l12.29,20.4c0.62,1.04,0.29,2.39-0.75,3.01l-1.88,1.13c-1.04,0.62-2.39,0.29-3.01-0.75
				l-12.29-20.4C946.77,33.28,947.11,31.93,948.15,31.3z"/>
			<path style="clip-path:url(#SVGID_00000132798560068084526820000006514173862666327444_);fill:#F15F5C;" d="M941.99,81.26
				l11.53-11.21c0.59-0.57,1.53-0.56,2.1,0.03l1.03,1.06c0.57,0.59,0.56,1.53-0.03,2.1l-11.53,11.21c-0.59,0.57-1.53,0.56-2.1-0.03
				l-1.03-1.06C941.39,82.77,941.4,81.83,941.99,81.26z"/>
			<path style="clip-path:url(#SVGID_00000132798560068084526820000006514173862666327444_);fill:#F15F5C;" d="M1848.39-8.52
				l1.61-0.22c0.89-0.12,1.71,0.5,1.83,1.39l2.42,17.5c0.12,0.89-0.5,1.71-1.39,1.83l-1.61,0.22c-0.89,0.12-1.71-0.5-1.83-1.39
				L1847-6.69C1846.88-7.58,1847.5-8.4,1848.39-8.52z"/>
			<path style="clip-path:url(#SVGID_00000132798560068084526820000006514173862666327444_);fill:#E2E419;" d="M1843.82,33.22
				l0.95-0.7c0.53-0.39,1.27-0.28,1.66,0.25l7.62,10.36c0.39,0.53,0.28,1.27-0.25,1.66l-0.95,0.7c-0.53,0.39-1.27,0.28-1.66-0.25
				l-7.62-10.36C1843.18,34.35,1843.3,33.6,1843.82,33.22z"/>
			<path style="clip-path:url(#SVGID_00000132798560068084526820000006514173862666327444_);fill:#E2E419;" d="M1842.3,70.26
				l0.82-0.9c0.46-0.5,1.23-0.53,1.72-0.07l9.76,8.95c0.5,0.46,0.53,1.23,0.07,1.72l-0.82,0.9c-0.46,0.5-1.23,0.53-1.72,0.07
				l-9.76-8.95C1841.88,71.53,1841.84,70.76,1842.3,70.26z"/>
			<path style="clip-path:url(#SVGID_00000132798560068084526820000006514173862666327444_);fill:#D0BBDB;" d="M1805.25,16.23
				l0.79-0.91c0.44-0.5,1.19-0.56,1.7-0.12l9.87,8.55c0.5,0.44,0.56,1.19,0.12,1.7l-0.79,0.91c-0.44,0.5-1.19,0.56-1.7,0.12
				l-9.87-8.55C1804.87,17.49,1804.82,16.73,1805.25,16.23z"/>
			<path style="clip-path:url(#SVGID_00000132798560068084526820000006514173862666327444_);fill:#F15F5C;" d="M1807.98,61.1
				l12.54-6.34c0.64-0.32,1.42-0.07,1.74,0.57l0.58,1.16c0.32,0.64,0.07,1.42-0.57,1.74l-12.54,6.34c-0.64,0.32-1.42,0.07-1.74-0.57
				l-0.58-1.16C1807.09,62.2,1807.34,61.42,1807.98,61.1z"/>
			<path style="clip-path:url(#SVGID_00000132798560068084526820000006514173862666327444_);fill:#E2E419;" d="M1805.14,94.67
				l13.22-6.73c0.67-0.34,1.49-0.07,1.84,0.6l0.62,1.22c0.34,0.67,0.07,1.49-0.6,1.84L1807,98.32c-0.67,0.34-1.49,0.07-1.84-0.6
				l-0.62-1.22C1804.2,95.84,1804.47,95.01,1805.14,94.67z"/>
			<path style="clip-path:url(#SVGID_00000132798560068084526820000006514173862666327444_);fill:#F15F5C;" d="M1767.48-8.13
				l1.31-1.07c0.72-0.59,1.79-0.48,2.38,0.25l11.58,14.25c0.59,0.72,0.48,1.79-0.25,2.38l-1.31,1.07c-0.72,0.59-1.79,0.48-2.38-0.25
				l-11.58-14.25C1766.65-6.47,1766.76-7.54,1767.48-8.13z"/>
			<path style="clip-path:url(#SVGID_00000132798560068084526820000006514173862666327444_);fill:#078BA8;" d="M1772.16,29.76
				l1.46-0.72c0.81-0.4,1.78-0.07,2.18,0.74l7.84,15.84c0.4,0.81,0.07,1.78-0.74,2.18l-1.46,0.72c-0.81,0.4-1.78,0.07-2.18-0.74
				l-7.84-15.84C1771.02,31.14,1771.35,30.16,1772.16,29.76z"/>
			<path style="clip-path:url(#SVGID_00000132798560068084526820000006514173862666327444_);fill:#D0BBDB;" d="M1774.63,86.38
				l4.11-19.28c0.21-0.98,1.17-1.61,2.16-1.4l1.78,0.38c0.98,0.21,1.61,1.17,1.4,2.15l-4.11,19.28c-0.21,0.98-1.17,1.61-2.16,1.4
				l-1.78-0.38C1775.05,88.33,1774.42,87.36,1774.63,86.38z"/>
			<path style="clip-path:url(#SVGID_00000132798560068084526820000006514173862666327444_);fill:#078BA8;" d="M1732.3,23.63
				l13.99-8.1c0.71-0.41,1.62-0.17,2.04,0.54l0.75,1.29c0.41,0.71,0.17,1.62-0.54,2.03l-13.99,8.1c-0.71,0.41-1.62,0.17-2.03-0.54
				l-0.75-1.29C1731.34,24.95,1731.59,24.04,1732.3,23.63z"/>
			<path style="clip-path:url(#SVGID_00000132798560068084526820000006514173862666327444_);fill:#F15F5C;" d="M1741.19,46.86
				l2.06-0.75c1.14-0.41,2.39,0.17,2.81,1.31l8.13,22.36c0.41,1.14-0.17,2.39-1.31,2.81l-2.06,0.75c-1.14,0.41-2.39-0.17-2.81-1.31
				l-8.13-22.36C1739.47,48.53,1740.05,47.28,1741.19,46.86z"/>
			<path style="clip-path:url(#SVGID_00000132798560068084526820000006514173862666327444_);fill:#D0BBDB;" d="M1696.9,0.29
				l0.83-0.89c0.46-0.49,1.24-0.52,1.73-0.06l9.72,9.07c0.49,0.46,0.52,1.24,0.06,1.73l-0.83,0.89c-0.46,0.49-1.24,0.52-1.73,0.06
				l-9.72-9.07C1696.46,1.56,1696.44,0.78,1696.9,0.29z"/>
			<path style="clip-path:url(#SVGID_00000132798560068084526820000006514173862666327444_);fill:#D0BBDB;" d="M1703.96,39.94
				l1.01-0.48c0.56-0.27,1.23-0.03,1.5,0.53l5.24,11c0.27,0.56,0.03,1.23-0.53,1.5l-1.01,0.48c-0.56,0.27-1.23,0.03-1.5-0.53
				l-5.24-11C1703.16,40.88,1703.4,40.21,1703.96,39.94z"/>
			<path style="clip-path:url(#SVGID_00000132798560068084526820000006514173862666327444_);fill:#E2E419;" d="M1698.68,76.06
				l0.81-1.2c0.45-0.66,1.34-0.84,2.01-0.39l13.04,8.77c0.66,0.45,0.84,1.34,0.39,2.01l-0.81,1.2c-0.45,0.66-1.34,0.84-2.01,0.39
				l-13.04-8.77C1698.41,77.62,1698.23,76.72,1698.68,76.06z"/>
			<path style="clip-path:url(#SVGID_00000132798560068084526820000006514173862666327444_);fill:#D0BBDB;" d="M1660.85,26.5
				l14.99-9.22c0.76-0.47,1.76-0.23,2.23,0.53l0.85,1.38c0.47,0.76,0.23,1.76-0.53,2.23l-14.99,9.22c-0.76,0.47-1.76,0.23-2.23-0.53
				l-0.85-1.38C1659.85,27.96,1660.09,26.96,1660.85,26.5z"/>
			<path style="clip-path:url(#SVGID_00000132798560068084526820000006514173862666327444_);fill:#F15F5C;" d="M1661.01,62.46
				l21.81-11.3c1.11-0.57,2.47-0.14,3.05,0.97l1.04,2.01c0.57,1.11,0.14,2.47-0.97,3.05l-21.81,11.3c-1.11,0.57-2.47,0.14-3.05-0.97
				l-1.04-2.01C1659.47,64.4,1659.9,63.03,1661.01,62.46z"/>
			<path style="clip-path:url(#SVGID_00000132798560068084526820000006514173862666327444_);fill:#F15F5C;" d="M1619.83-0.56
				l24.21-1.6c1.23-0.08,2.3,0.85,2.38,2.08l0.15,2.23c0.08,1.23-0.85,2.3-2.08,2.38l-24.21,1.6c-1.23,0.08-2.3-0.85-2.38-2.08
				l-0.15-2.23C1617.67,0.58,1618.6-0.48,1619.83-0.56z"/>
			<path style="clip-path:url(#SVGID_00000132798560068084526820000006514173862666327444_);fill:#D0BBDB;" d="M1626.77,35.19
				l1.39-1.19c0.77-0.66,1.92-0.57,2.58,0.2l12.92,15.11c0.66,0.77,0.57,1.92-0.2,2.58l-1.39,1.19c-0.77,0.66-1.92,0.57-2.58-0.2
				l-12.92-15.11C1625.91,37.01,1626,35.85,1626.77,35.19z"/>
			<path style="clip-path:url(#SVGID_00000132798560068084526820000006514173862666327444_);fill:#E2E419;" d="M1632.15,92.56
				l5.04-19.58c0.26-1,1.27-1.6,2.27-1.34l1.8,0.46c1,0.26,1.6,1.27,1.34,2.27l-5.04,19.58c-0.26,1-1.27,1.6-2.27,1.34l-1.8-0.46
				C1632.49,94.57,1631.89,93.56,1632.15,92.56z"/>
			<path style="clip-path:url(#SVGID_00000132798560068084526820000006514173862666327444_);fill:#078BA8;" d="M1593.04,21.06
				l1.1-0.48c0.61-0.26,1.31,0.01,1.57,0.62l5.17,11.9c0.26,0.61-0.01,1.31-0.62,1.57l-1.1,0.48c-0.61,0.26-1.31-0.01-1.57-0.62
				l-5.17-11.9C1592.16,22.02,1592.44,21.32,1593.04,21.06z"/>
			<path style="clip-path:url(#SVGID_00000132798560068084526820000006514173862666327444_);fill:#F15F5C;" d="M1585.89,60.88
				l0.33-1.23c0.18-0.68,0.88-1.08,1.56-0.9l13.37,3.6c0.68,0.18,1.08,0.88,0.9,1.56l-0.33,1.23c-0.18,0.68-0.88,1.08-1.56,0.9
				l-13.37-3.6C1586.11,62.26,1585.7,61.56,1585.89,60.88z"/>
			<path style="clip-path:url(#SVGID_00000132798560068084526820000006514173862666327444_);fill:#D0BBDB;" d="M1586.02,79.9
				l1.93-1.21c1.06-0.67,2.47-0.35,3.14,0.72l13.15,20.93c0.67,1.06,0.35,2.47-0.72,3.14l-1.93,1.21c-1.06,0.67-2.47,0.35-3.14-0.72
				l-13.15-20.93C1584.63,81.98,1584.95,80.57,1586.02,79.9z"/>
			<path style="clip-path:url(#SVGID_00000132798560068084526820000006514173862666327444_);fill:#D0BBDB;" d="M1558.08,17.98
				l1.45-16.78c0.07-0.85,0.83-1.49,1.68-1.41l1.55,0.13c0.85,0.07,1.49,0.83,1.41,1.68l-1.45,16.78c-0.07,0.85-0.83,1.49-1.68,1.41
				l-1.55-0.13C1558.64,19.58,1558.01,18.83,1558.08,17.98z"/>
			<path style="clip-path:url(#SVGID_00000132798560068084526820000006514173862666327444_);fill:#F15F5C;" d="M1555.84,54.85
				l6.27-21.66c0.32-1.1,1.47-1.74,2.57-1.42l0,0l1.99,0.58c1.1,0.32,1.74,1.47,1.42,2.57l0,0l-6.27,21.66
				c-0.32,1.1-1.47,1.74-2.57,1.42l-2-0.58C1556.16,57.1,1555.52,55.95,1555.84,54.85z"/>
			<path style="clip-path:url(#SVGID_00000132798560068084526820000006514173862666327444_);fill:#D0BBDB;" d="M1547.86,78.07
				l0.41-1.67c0.23-0.92,1.16-1.48,2.08-1.26l18.09,4.46c0.92,0.23,1.48,1.16,1.26,2.08l-0.41,1.67c-0.23,0.92-1.16,1.48-2.08,1.26
				l-18.09-4.46C1548.2,79.92,1547.63,78.99,1547.86,78.07z"/>
			<path style="clip-path:url(#SVGID_00000132798560068084526820000006514173862666327444_);fill:#E2E419;" d="M1521.27,35.81
				l0.73-13.37c0.04-0.68,0.62-1.2,1.3-1.16l1.23,0.07c0.68,0.04,1.2,0.62,1.16,1.3l-0.73,13.37c-0.04,0.68-0.62,1.2-1.3,1.16
				l-1.23-0.07C1521.76,37.07,1521.24,36.49,1521.27,35.81z"/>
			<path style="clip-path:url(#SVGID_00000132798560068084526820000006514173862666327444_);fill:#F15F5C;" d="M1511.68,59.36
				l22.59-6.37c1.15-0.32,2.34,0.34,2.67,1.49l0.59,2.08c0.32,1.15-0.34,2.34-1.49,2.67l-22.59,6.37c-1.15,0.32-2.34-0.34-2.67-1.49
				l-0.59-2.08C1509.86,60.88,1510.53,59.68,1511.68,59.36z"/>
			<path style="clip-path:url(#SVGID_00000132798560068084526820000006514173862666327444_);fill:#F15F5C;" d="M1515.35,84.49
				l1.77-1.03c0.98-0.57,2.23-0.24,2.8,0.74l0,0l11.17,19.19c0.57,0.98,0.24,2.23-0.74,2.8l-1.77,1.03
				c-0.98,0.57-2.23,0.24-2.8-0.74l-11.17-19.19C1514.04,86.31,1514.37,85.06,1515.35,84.49z"/>
			<path style="clip-path:url(#SVGID_00000132798560068084526820000006514173862666327444_);fill:#E2E419;" d="M1477.7-8.53
				l1.87-0.92c1.03-0.51,2.28-0.08,2.79,0.95l9.99,20.26c0.51,1.03,0.08,2.28-0.95,2.79l-1.87,0.92c-1.03,0.51-2.28,0.08-2.79-0.95
				l-9.99-20.26C1476.25-6.77,1476.67-8.02,1477.7-8.53z"/>
			<path style="clip-path:url(#SVGID_00000132798560068084526820000006514173862666327444_);fill:#D0BBDB;" d="M1479.14,32.91
				l1.74-1.49c0.96-0.82,2.4-0.71,3.23,0.25l16.18,18.86c0.82,0.96,0.71,2.4-0.25,3.23l-1.74,1.49c-0.96,0.82-2.4,0.71-3.23-0.25
				l-16.18-18.86C1478.07,35.18,1478.18,33.73,1479.14,32.91z"/>
			<path style="clip-path:url(#SVGID_00000132798560068084526820000006514173862666327444_);fill:#F15F5C;" d="M1471.04,67.61
				l1.2-1.52c0.66-0.84,1.88-0.98,2.72-0.32l16.5,13.01c0.84,0.66,0.98,1.88,0.32,2.72l-1.2,1.52c-0.66,0.84-1.88,0.98-2.72,0.32
				l-16.5-13.01C1470.52,69.67,1470.37,68.45,1471.04,67.61z"/>
			<path style="clip-path:url(#SVGID_00000132798560068084526820000006514173862666327444_);fill:#F15F5C;" d="M1442.71-20.72
				l1.66-1.31c0.92-0.73,2.25-0.57,2.97,0.35l14.25,18.02c0.73,0.92,0.57,2.25-0.35,2.97l-1.66,1.31c-0.92,0.73-2.25,0.57-2.97-0.35
				l-14.25-18.02C1441.63-18.66,1441.79-19.99,1442.71-20.72z"/>
			<path style="clip-path:url(#SVGID_00000132798560068084526820000006514173862666327444_);fill:#E2E419;" d="M1435.71,21.94
				l0.57-1.72c0.32-0.95,1.34-1.46,2.29-1.14l18.66,6.24c0.95,0.32,1.46,1.34,1.14,2.29l-0.57,1.72c-0.32,0.95-1.34,1.46-2.29,1.14
				l-18.66-6.24C1435.91,23.91,1435.4,22.88,1435.71,21.94z"/>
			<path style="clip-path:url(#SVGID_00000132798560068084526820000006514173862666327444_);fill:#E2E419;" d="M1448.71,75.35
				l3.25-18.73c0.17-0.95,1.07-1.59,2.02-1.43l1.72,0.3c0.95,0.17,1.59,1.07,1.43,2.02l-3.25,18.73c-0.17,0.95-1.07,1.59-2.02,1.43
				l-1.72-0.3C1449.18,77.21,1448.54,76.31,1448.71,75.35z"/>
			<path style="clip-path:url(#SVGID_00000132798560068084526820000006514173862666327444_);fill:#D0BBDB;" d="M1444.34,90.41
				l1.45-0.8c0.8-0.44,1.81-0.15,2.25,0.66l8.65,15.76c0.44,0.8,0.15,1.81-0.66,2.25l-1.45,0.8c-0.8,0.44-1.81,0.15-2.25-0.66
				l-8.65-15.76C1443.25,91.86,1443.54,90.85,1444.34,90.41z"/>
			<path style="clip-path:url(#SVGID_00000132798560068084526820000006514173862666327444_);fill:#F15F5C;" d="M1395.69-4.16
				l1.1-1.81c0.61-1,1.91-1.32,2.91-0.72l19.66,11.9c1,0.61,1.32,1.91,0.72,2.91l-1.1,1.81c-0.61,1-1.91,1.32-2.91,0.72l-19.66-11.9
				C1395.4-1.86,1395.08-3.16,1395.69-4.16z"/>
			<path style="clip-path:url(#SVGID_00000132798560068084526820000006514173862666327444_);fill:#F15F5C;" d="M1400.94,32.8
				l1.27-1.07c0.7-0.59,1.75-0.5,2.34,0.2l11.61,13.83c0.59,0.7,0.5,1.75-0.2,2.34l-1.27,1.07c-0.7,0.59-1.75,0.5-2.34-0.2
				l-11.61-13.83C1400.15,34.44,1400.24,33.39,1400.94,32.8z"/>
			<path style="clip-path:url(#SVGID_00000132798560068084526820000006514173862666327444_);fill:#E2E419;" d="M1408.55,88.32
				l11.2-7.9c0.57-0.4,1.36-0.27,1.76,0.3l0.73,1.03c0.4,0.57,0.27,1.36-0.3,1.76l-11.2,7.9c-0.57,0.4-1.36,0.27-1.76-0.3
				l-0.73-1.03C1407.84,89.51,1407.98,88.73,1408.55,88.32z"/>
			<path style="clip-path:url(#SVGID_00000132798560068084526820000006514173862666327444_);fill:#E2E419;" d="M1903.43,1.55
				l0.57-1.72c0.32-0.95,1.34-1.46,2.29-1.14l18.66,6.24c0.95,0.32,1.46,1.34,1.14,2.29l-0.57,1.72c-0.32,0.95-1.34,1.46-2.29,1.14
				l-18.66-6.24C1903.62,3.53,1903.11,2.5,1903.43,1.55z"/>
			<path style="clip-path:url(#SVGID_00000132798560068084526820000006514173862666327444_);fill:#E2E419;" d="M1916.42,54.97
				l3.25-18.73c0.17-0.95,1.07-1.59,2.02-1.43l1.72,0.3c0.95,0.17,1.59,1.07,1.43,2.02l-3.25,18.73c-0.17,0.95-1.07,1.59-2.02,1.43
				l-1.72-0.3C1916.89,56.83,1916.26,55.92,1916.42,54.97z"/>
			<path style="clip-path:url(#SVGID_00000132798560068084526820000006514173862666327444_);fill:#D0BBDB;" d="M1912.05,70.03
				l1.45-0.8c0.8-0.44,1.81-0.15,2.25,0.66l8.65,15.76c0.44,0.8,0.15,1.81-0.66,2.25l-1.45,0.8c-0.8,0.44-1.81,0.15-2.25-0.66
				l-8.65-15.76C1910.96,71.47,1911.25,70.47,1912.05,70.03z"/>
			<path style="clip-path:url(#SVGID_00000132798560068084526820000006514173862666327444_);fill:#F15F5C;" d="M1868.65,12.42
				l1.27-1.07c0.7-0.59,1.75-0.5,2.34,0.2l11.61,13.83c0.59,0.7,0.5,1.75-0.2,2.34l-1.27,1.07c-0.7,0.59-1.75,0.5-2.34-0.2
				l-11.61-13.83C1867.86,14.06,1867.95,13.01,1868.65,12.42z"/>
			<path style="clip-path:url(#SVGID_00000132798560068084526820000006514173862666327444_);fill:#E2E419;" d="M1876.26,67.94
				l11.2-7.9c0.57-0.4,1.36-0.27,1.76,0.3l0.73,1.03c0.4,0.57,0.27,1.36-0.3,1.76l-11.2,7.9c-0.57,0.4-1.36,0.27-1.76-0.3
				l-0.73-1.03C1875.55,69.13,1875.69,68.34,1876.26,67.94z"/>
			<path style="clip-path:url(#SVGID_00000132798560068084526820000006514173862666327444_);fill:#F15F5C;" d="M1876.64,86.08
				l1.88-1.13c1.04-0.62,2.39-0.29,3.01,0.75l12.29,20.4c0.62,1.04,0.29,2.39-0.75,3.01l-1.88,1.13c-1.04,0.62-2.39,0.29-3.01-0.75
				l-12.29-20.4C1875.27,88.05,1875.6,86.7,1876.64,86.08z"/>
		</g>
	</g>
</g>
</svg>
