<?xml version="1.0" encoding="utf-8"?>
<!-- Generator: Adobe Illustrator 25.4.1, SVG Export Plug-In . SVG Version: 6.00 Build 0)  -->
<svg version="1.1" id="Layer_1" xmlns="http://www.w3.org/2000/svg" xmlns:xlink="http://www.w3.org/1999/xlink" x="0px" y="0px"
	 viewBox="0 0 86.1 140.9" style="enable-background:new 0 0 86.1 140.9;" xml:space="preserve">
<style type="text/css">
	.st0{fill:#393E40;}
	.st1{fill:#E79B31;}
	.st2{fill:none;}
	.st3{fill:#3F88C5;}
	.st4{fill:#FBFBF2;}
	.st5{enable-background:new    ;}
	.st6{fill:#393E41;}
	.st7{fill:#E3322E;}
	.st8{fill:#DCDCC3;}
</style>
<g id="Group_397">
	<g id="Group_377" transform="translate(427.53 1671.564)">
		<g id="Group_370">
			<g id="Group_366-2">
				<g id="Group_362-2" transform="translate(0 69.431)">
					<g id="Ellipse_3">
						<circle class="st3" cx="-419.2" cy="-1660.4" r="6.4"/>
					</g>
					<g id="Path_614-2">
						<path class="st6" d="M-419.2-1652.8c-4.2,0-7.6-3.4-7.6-7.6c0-4.2,3.4-7.6,7.6-7.6c4.2,0,7.6,3.4,7.6,7.6l0,0
							C-411.5-1656.2-414.9-1652.8-419.2-1652.8z M-419.2-1665.6c-2.9,0-5.2,2.3-5.2,5.2c0,2.9,2.3,5.2,5.2,5.2
							c2.9,0,5.2-2.3,5.2-5.2C-414-1663.3-416.3-1665.6-419.2-1665.6z"/>
					</g>
				</g>
				<g id="Group_363-2" transform="translate(8.042 0)">
					<g id="Path_615-2">
						<path class="st4" d="M-380.2-1670.3h-31.2c-8.5,0-15.4,6.9-15.4,15.4v73.9c0,8.5,6.9,15.4,15.4,15.4h44.5
							c8.5,0,15.4-6.9,15.4-15.4v-60.6L-380.2-1670.3z"/>
					</g>
					<g id="Path_616-2">
						<path class="st2" d="M-366.9-1564.4h-44.5c-9.2,0-16.6-7.5-16.6-16.6v-73.9c0-9.2,7.5-16.6,16.6-16.6h31.2
							c0.3,0,0.6,0.1,0.9,0.4l28.7,28.7c0.2,0.2,0.4,0.5,0.4,0.9v60.6C-350.2-1571.8-357.7-1564.4-366.9-1564.4z M-411.4-1669.1
							c-7.8,0-14.2,6.4-14.2,14.2v73.9c0,7.8,6.4,14.2,14.2,14.2h44.5c7.8,0,14.2-6.4,14.2-14.2v-60.1l-28-28H-411.4z"/>
					</g>
				</g>
				<g id="Group_364-2" transform="translate(53.287 0)">
					<g id="Path_617-2">
						<path class="st8" d="M-425.4-1670.3l28.7,28.7h-22.6c-3.4,0-6.1-2.7-6.1-6.1c0,0,0,0,0,0L-425.4-1670.3z"/>
					</g>
					<g id="Path_618-2">
						<path class="st2" d="M-396.7-1640.4h-22.6c-4.1,0-7.3-3.3-7.3-7.3v-22.6c0-0.7,0.5-1.2,1.2-1.2c0.3,0,0.6,0.1,0.9,0.4
							l28.7,28.7c0.5,0.4,0.6,1.2,0.1,1.7C-396-1640.6-396.3-1640.4-396.7-1640.4L-396.7-1640.4z M-424.2-1667.4v19.6
							c0,2.7,2.2,4.9,4.9,4.9h19.6L-424.2-1667.4z"/>
					</g>
				</g>
				<g id="Group_365-2" transform="translate(1.486 41.157)">
					<g id="Path_619-2">
						<path class="st3" d="M-420.1-1669.1c-3.8,0-6.9,3.1-6.9,6.9v28.9h0.1c0.6-3.2,3.5-5.6,6.8-5.6h69.4v-30.2L-420.1-1669.1z"/>
					</g>
					<g id="Path_620-2">
						<path class="st2" d="M-426.8-1632.1h-0.1c-0.7,0-1.2-0.5-1.2-1.2v-28.9c0-4.5,3.6-8.1,8.1-8.1h69.4c0.7,0,1.2,0.5,1.2,1.2
							c0,0,0,0,0,0v30.2c0,0.7-0.5,1.2-1.2,1.2h-69.4c-2.7,0-5,1.9-5.6,4.6C-425.7-1632.5-426.2-1632.1-426.8-1632.1z
							 M-420.1-1667.9c-3.1,0-5.7,2.5-5.7,5.7v24.4c1.5-1.5,3.5-2.3,5.7-2.3h68.2v-27.7L-420.1-1667.9z"/>
					</g>
				</g>
			</g>
		</g>
		<g class="st5">
			<path class="st4" d="M-383.4-1605.9l-1.1-2.5h-6.4l-1.1,2.5h-2.3l6.6-13.9l6.6,13.9H-383.4z M-390.1-1610.2h4.7l-2.4-5.2
				L-390.1-1610.2z"/>
			<path class="st4" d="M-379.9-1605.9v-13.6h2v13.6H-379.9z"/>
		</g>
	</g>
	<g class="st5">
		<path class="st4" d="M6.9,140.5v-13.6h0.8v13.6H6.9z"/>
		<path class="st4" d="M11.1,140.5v-14.2h0.8v14.2H11.1z"/>
		<path class="st4" d="M15.2,140.5v-14.2h0.8v14.2H15.2z"/>
		<path class="st4" d="M19.3,137.2v-5.5h0.8v5.5c0,1.8,1.2,2.8,2.5,2.8c1.4,0,3.2-1.3,3.2-4v-4.3h0.8v8.9h-0.7v-2
			c-0.5,1-1.6,2.2-3.3,2.2C20.9,140.7,19.3,139.4,19.3,137.2z"/>
		<path class="st4" d="M29.3,140v-0.9c0.9,0.5,2.1,0.9,3,0.9c1.3,0,2.1-0.7,2.1-1.6s-0.6-1.5-2.3-2c-2.1-0.6-2.9-1.4-2.9-2.7
			c0-1.4,1.2-2.3,2.9-2.3c1.1,0,2.1,0.3,2.7,0.6v0.9c-1-0.5-1.7-0.7-2.7-0.7c-1.3,0-2.1,0.5-2.1,1.5c0,0.9,0.6,1.4,2.3,1.9
			c2,0.6,2.9,1.4,2.9,2.8c0,1.4-1.2,2.4-3,2.4C31.1,140.8,29.9,140.3,29.3,140z"/>
		<path class="st4" d="M38.5,137.7v-5.3h-2.2v-0.8h2.2v-2.1h0.8v2.1h3.1v0.8h-3.1v5.3c0,1.5,0.7,2.1,2,2.1c0.4,0,0.7-0.1,1-0.2v0.8
			c-0.3,0.1-0.7,0.1-1,0.1C39.7,140.6,38.5,139.8,38.5,137.7z"/>
		<path class="st4" d="M44.7,140.5v-8.9h0.7v2c0.4-1,1.4-2.2,3.1-2.2c0.5,0,0.8,0.1,1,0.1v0.8c-0.3-0.1-0.6-0.2-1.1-0.2
			c-1.9,0-3,1.9-3,4.4v3.9H44.7z"/>
		<path class="st4" d="M50,136.1c0-2.6,2.1-4.6,4.6-4.6c1.7,0,3.1,1,3.8,2.2v-2h0.7v8.9h-0.7v-2c-0.7,1.2-2.1,2.2-3.8,2.2
			C52.1,140.7,50,138.7,50,136.1z M58.4,136.1c0-2.1-1.7-3.9-3.7-3.9c-2.1,0-3.7,1.8-3.7,3.9c0,2.1,1.7,3.9,3.7,3.9
			C56.7,140,58.4,138.2,58.4,136.1z"/>
		<path class="st4" d="M63.1,137.7v-5.3h-2.2v-0.8h2.2v-2.1H64v2.1H67v0.8H64v5.3c0,1.5,0.7,2.1,2,2.1c0.4,0,0.7-0.1,1-0.2v0.8
			c-0.3,0.1-0.7,0.1-1,0.1C64.3,140.6,63.1,139.8,63.1,137.7z"/>
		<path class="st4" d="M67.9,136.1c0-2.6,2.1-4.6,4.6-4.6c2.5,0,4.6,2.1,4.6,4.6c0,2.6-2.1,4.6-4.6,4.6
			C70,140.7,67.9,138.7,67.9,136.1z M76.2,136.1c0-2.1-1.7-3.9-3.7-3.9c-2.1,0-3.7,1.8-3.7,3.9c0,2.1,1.7,3.9,3.7,3.9
			C74.6,140,76.2,138.2,76.2,136.1z"/>
		<path class="st4" d="M79.5,140.5v-8.9h0.7v2c0.4-1,1.4-2.2,3.1-2.2c0.5,0,0.8,0.1,1,0.1v0.8c-0.3-0.1-0.6-0.2-1.1-0.2
			c-1.9,0-3,1.9-3,4.4v3.9H79.5z"/>
	</g>
</g>
</svg>
