<?xml version="1.0" encoding="utf-8"?>
<!-- Generator: Adobe Illustrator 25.4.1, SVG Export Plug-In . SVG Version: 6.00 Build 0)  -->
<svg version="1.1" id="Layer_1" xmlns="http://www.w3.org/2000/svg" xmlns:xlink="http://www.w3.org/1999/xlink" x="0px" y="0px"
	 viewBox="0 0 86.1 140.9" style="enable-background:new 0 0 86.1 140.9;" xml:space="preserve">
<style type="text/css">
	.st0{fill:#393E40;}
	.st1{fill:#E79B31;}
	.st2{fill:none;}
	.st3{fill:#3F88C5;}
	.st4{fill:#FBFBF2;}
	.st5{enable-background:new    ;}
	.st6{fill:#393E41;}
	.st7{fill:#E3322E;}
	.st8{fill:#DCDCC3;}
</style>
<g id="Group_402">
	<g id="Group_379" transform="translate(1104.53 1671.564)">
		<g id="Group_370-3">
			<g id="Group_366-7">
				<g id="Group_362-7" transform="translate(0 69.431)">
					<g id="Ellipse_3-6">
						<circle class="st1" cx="-1095.1" cy="-1660.7" r="6.2"/>
					</g>
					<g id="Path_614-7">
						<path class="st6" d="M-1095.1-1653.3c-4.1,0-7.4-3.3-7.4-7.4s3.3-7.4,7.4-7.4s7.4,3.3,7.4,7.4l0,0
							C-1087.7-1656.6-1091-1653.3-1095.1-1653.3z M-1095.1-1665.7c-2.8,0-5,2.3-5,5c0,2.8,2.3,5,5,5c2.8,0,5-2.3,5-5
							C-1090.1-1663.5-1092.3-1665.7-1095.1-1665.7z"/>
					</g>
				</g>
				<g id="Group_363-7" transform="translate(8.042 0)">
					<g id="Path_615-7">
						<path class="st4" d="M-1057.5-1668.3h-30.3c-8.3,0-15,6.7-15,15v71.8c0,8.3,6.7,15,15,15h43.2c8.3,0,15-6.7,15-15v-58.9
							L-1057.5-1668.3z"/>
					</g>
					<g id="Path_616-7">
						<path class="st2" d="M-1044.6-1565.4h-43.2c-8.9,0-16.1-7.2-16.2-16.2v-71.8c0-8.9,7.2-16.1,16.2-16.2h30.3
							c0.3,0,0.6,0.1,0.8,0.3l27.9,27.9c0.2,0.2,0.3,0.5,0.3,0.8v58.9C-1028.4-1572.6-1035.7-1565.4-1044.6-1565.4z M-1087.8-1667.1
							c-7.6,0-13.8,6.2-13.8,13.8v71.8c0,7.6,6.2,13.8,13.8,13.8h43.2c7.6,0,13.8-6.2,13.8-13.8v-58.4l-27.2-27.2L-1087.8-1667.1z"
							/>
					</g>
				</g>
				<g id="Group_364-7" transform="translate(53.287 0)">
					<g id="Path_617-7">
						<path class="st8" d="M-1102.7-1668.3l27.9,27.9h-21.9c-3.3,0-5.9-2.7-5.9-5.9c0,0,0,0,0,0L-1102.7-1668.3z"/>
					</g>
					<g id="Path_618-7">
						<path class="st2" d="M-1074.9-1639.2h-21.9c-3.9,0-7.1-3.2-7.1-7.1v-21.9c0-0.7,0.5-1.2,1.2-1.2c0.3,0,0.6,0.1,0.8,0.3
							l27.8,27.8c0.5,0.4,0.5,1.2,0.1,1.7C-1074.2-1639.4-1074.5-1639.2-1074.9-1639.2L-1074.9-1639.2z M-1101.6-1665.4v19.1
							c0,2.6,2.1,4.8,4.8,4.8h19.1L-1101.6-1665.4z"/>
					</g>
				</g>
				<g id="Group_365-7" transform="translate(1.486 41.157)">
					<g id="Path_619-7">
						<path class="st1" d="M-1096-1668.3c-3.7,0-6.7,3-6.7,6.7v28h0.1c0.6-3.1,3.4-5.4,6.6-5.4h67.4v-29.3L-1096-1668.3z"/>
					</g>
					<g id="Path_620-7">
						<path class="st2" d="M-1102.6-1632.4h-0.1c-0.7,0-1.2-0.5-1.2-1.2v-28c0-4.4,3.5-7.9,7.9-7.9h67.4c0.7,0,1.2,0.5,1.2,1.2
							c0,0,0,0,0,0v29.3c0,0.7-0.5,1.2-1.2,1.2h-67.4c-2.6,0-4.9,1.9-5.4,4.5C-1101.5-1632.8-1102-1632.4-1102.6-1632.4z
							 M-1096-1667.1c-3,0-5.5,2.5-5.5,5.5v23.7c1.5-1.4,3.4-2.2,5.5-2.2h66.2v-26.9L-1096-1667.1z"/>
					</g>
				</g>
			</g>
		</g>
		<g class="st5">
			<path class="st4" d="M-1078-1612.3c0-3.9,3.1-6.8,7.1-6.8c1.9,0,3.4,0.6,4.3,1.2v2.3c-1-1-2.7-1.7-4.3-1.7c-2.9,0-5,2.2-5,5
				s2.1,5,5,5c1.6,0,3.2-0.7,4.3-1.7v2.3c-0.9,0.6-2.4,1.2-4.3,1.2C-1074.8-1605.4-1078-1608.4-1078-1612.3z"/>
			<path class="st4" d="M-1065-1606.7v-2.2c1.2,0.8,2.6,1.6,4.3,1.6c1.4,0,2.3-0.8,2.3-2c0-1.3-0.8-1.7-2.6-2.3
				c-1.8-0.6-3.8-1.5-3.8-4.1c0-2.4,2.1-3.5,4.2-3.5c1.8,0,3.1,0.5,3.9,0.8v2.2c-1.3-0.8-2.6-1.2-3.9-1.2c-1.2,0-2.1,0.6-2.1,1.7
				c0,1.2,0.8,1.7,2.6,2.3c1.8,0.6,3.9,1.4,3.9,4.1c0,2.4-2.2,3.8-4.4,3.8C-1062.6-1605.4-1064.1-1606.1-1065-1606.7z"/>
			<path class="st4" d="M-1055.2-1606.7v-2.2c1.2,0.8,2.6,1.6,4.3,1.6c1.4,0,2.3-0.8,2.3-2c0-1.3-0.8-1.7-2.6-2.3
				c-1.8-0.6-3.8-1.5-3.8-4.1c0-2.4,2.1-3.5,4.2-3.5c1.8,0,3.1,0.5,3.9,0.8v2.2c-1.3-0.8-2.6-1.2-3.9-1.2c-1.2,0-2.1,0.6-2.1,1.7
				c0,1.2,0.8,1.7,2.6,2.3c1.8,0.6,3.9,1.4,3.9,4.1c0,2.4-2.2,3.8-4.4,3.8C-1052.7-1605.4-1054.2-1606.1-1055.2-1606.7z"/>
		</g>
	</g>
	<g class="st5">
		<path class="st4" d="M31.8,131.9c0-3.8,3.1-6.9,6.8-6.9c1.5,0,3,0.5,4.2,1.4v1.1c-1.1-1.1-2.6-1.8-4.2-1.8c-3.3,0-6,2.8-6,6.1
			s2.7,6.1,6,6.1c1.6,0,3.1-0.7,4.2-1.8v1.1c-1.2,0.9-2.7,1.4-4.2,1.4C34.9,138.8,31.8,135.7,31.8,131.9z"/>
		<path class="st4" d="M44.6,137.3v-1.1c0.9,0.9,2.3,1.8,4,1.8c1.8,0,3.3-1.1,3.3-2.9c0-1.9-1.5-2.6-3.4-3.2
			c-1.9-0.6-3.7-1.5-3.7-3.7c0-2.1,1.9-3.2,3.8-3.2c1.8,0,2.9,0.7,3.6,1.2v1c-0.9-0.9-2-1.5-3.6-1.5c-1.5,0-3,0.8-3,2.5
			c0,1.7,1.4,2.3,3.2,3s3.9,1.5,3.9,3.9c0,2.3-2.1,3.6-4.1,3.6C46.7,138.8,45.3,137.9,44.6,137.3z"/>
		<path class="st4" d="M54.3,137.3v-1.1c0.9,0.9,2.3,1.8,4,1.8c1.8,0,3.3-1.1,3.3-2.9c0-1.9-1.5-2.6-3.4-3.2
			c-1.9-0.6-3.7-1.5-3.7-3.7c0-2.1,1.9-3.2,3.8-3.2c1.8,0,2.9,0.7,3.6,1.2v1c-0.9-0.9-2-1.5-3.6-1.5c-1.5,0-3,0.8-3,2.5
			c0,1.7,1.4,2.3,3.2,3c1.9,0.7,3.9,1.5,3.9,3.9c0,2.3-2.1,3.6-4.1,3.6C56.4,138.8,55,137.9,54.3,137.3z"/>
	</g>
</g>
</svg>
