<?xml version="1.0" encoding="utf-8"?>
<!-- Generator: Adobe Illustrator 25.4.1, SVG Export Plug-In . SVG Version: 6.00 Build 0)  -->
<svg version="1.1" id="Layer_1" xmlns="http://www.w3.org/2000/svg" xmlns:xlink="http://www.w3.org/1999/xlink" x="0px" y="0px"
	 viewBox="0 0 86.1 140.9" style="enable-background:new 0 0 86.1 140.9;" xml:space="preserve">
<style type="text/css">
	.st0{fill:#393E40;}
	.st1{fill:#E79B31;}
	.st2{fill:none;}
	.st3{fill:#3F88C5;}
	.st4{fill:#FBFBF2;}
	.st5{enable-background:new    ;}
	.st6{fill:#393E41;}
	.st7{fill:#E3322E;}
	.st8{fill:#DCDCC3;}
</style>
<g id="Group_401">
	<g id="Group_378" transform="translate(969.53 1671.564)">
		<g id="Group_370-2">
			<g id="Group_366-6">
				<g id="Group_362-6" transform="translate(0 69.431)">
					<g id="Ellipse_3-5">
						<circle class="st3" cx="-960.1" cy="-1660.7" r="6.2"/>
					</g>
					<g id="Path_614-6">
						<path class="st6" d="M-960.1-1653.3c-4.1,0-7.4-3.3-7.4-7.4s3.3-7.4,7.4-7.4s7.4,3.3,7.4,7.4l0,0
							C-952.7-1656.7-956-1653.3-960.1-1653.3z M-960.1-1665.8c-2.8,0-5,2.3-5,5c0,2.8,2.3,5,5,5c2.8,0,5-2.3,5-5
							C-955.1-1663.5-957.3-1665.8-960.1-1665.8z"/>
					</g>
				</g>
				<g id="Group_363-6" transform="translate(8.042 0)">
					<g id="Path_615-6">
						<path class="st4" d="M-922.5-1668.4h-30.3c-8.3,0-15,6.7-15,15v71.8c0,8.3,6.7,15,15,15h43.2c8.3,0,15-6.7,15-15v-58.9
							L-922.5-1668.4z"/>
					</g>
					<g id="Path_616-6">
						<path class="st2" d="M-909.6-1565.5h-43.2c-8.9,0-16.1-7.2-16.2-16.2v-71.8c0-8.9,7.2-16.1,16.2-16.2h30.3
							c0.3,0,0.6,0.1,0.8,0.3l27.9,27.9c0.2,0.2,0.3,0.5,0.3,0.8v58.9C-893.4-1572.7-900.7-1565.5-909.6-1565.5z M-952.8-1667.2
							c-7.6,0-13.8,6.2-13.8,13.8v71.8c0,7.6,6.2,13.8,13.8,13.8h43.2c7.6,0,13.8-6.2,13.8-13.8v-58.4l-27.2-27.2L-952.8-1667.2z"/>
					</g>
				</g>
				<g id="Group_364-6" transform="translate(53.287 0)">
					<g id="Path_617-6">
						<path class="st8" d="M-967.7-1668.4l27.9,27.9h-21.9c-3.3,0-5.9-2.7-5.9-5.9c0,0,0,0,0,0L-967.7-1668.4z"/>
					</g>
					<g id="Path_618-6">
						<path class="st2" d="M-939.9-1639.3h-21.9c-3.9,0-7.1-3.2-7.1-7.1v-21.9c0-0.7,0.5-1.2,1.2-1.2c0.3,0,0.6,0.1,0.8,0.3
							l27.8,27.8c0.5,0.4,0.5,1.2,0.1,1.7C-939.2-1639.4-939.5-1639.3-939.9-1639.3L-939.9-1639.3z M-966.6-1665.5v19.1
							c0,2.6,2.1,4.8,4.8,4.8h19.1L-966.6-1665.5z"/>
					</g>
				</g>
				<g id="Group_365-6" transform="translate(1.486 41.157)">
					<g id="Path_619-6">
						<path class="st3" d="M-961-1668.4c-3.7,0-6.7,3-6.7,6.7v28h0.1c0.6-3.1,3.4-5.4,6.6-5.4h67.4v-29.3L-961-1668.4z"/>
					</g>
					<g id="Path_620-6">
						<path class="st2" d="M-967.6-1632.4h-0.1c-0.7,0-1.2-0.5-1.2-1.2v-28c0-4.4,3.5-7.9,7.9-7.9h67.4c0.7,0,1.2,0.5,1.2,1.2
							c0,0,0,0,0,0v29.3c0,0.7-0.5,1.2-1.2,1.2H-961c-2.6,0-4.9,1.9-5.4,4.5C-966.5-1632.9-967-1632.4-967.6-1632.4z M-961-1667.2
							c-3,0-5.5,2.5-5.5,5.5v23.7c1.5-1.4,3.4-2.2,5.5-2.2h66.2v-26.9L-961-1667.2z"/>
					</g>
				</g>
			</g>
		</g>
		<g class="st5">
			<path class="st4" d="M-949.6-1605.8v-13.2h2v5.6h6.5v-5.6h2v13.2h-2v-5.8h-6.5v5.8H-949.6z"/>
			<path class="st4" d="M-933.8-1605.8v-11.3h-3.8v-1.8h9.6v1.8h-3.8v11.3H-933.8z"/>
			<path class="st4" d="M-928.1-1605.8l2.1-13.5l5.2,9.9l5.2-9.9l2.1,13.5h-2.1l-1.1-7.6l-4.1,7.9l-4.1-7.9l-1.2,7.6H-928.1z"/>
			<path class="st4" d="M-911.6-1605.8v-13.2h2v11.3h5.4v1.8H-911.6z"/>
		</g>
	</g>
	<g class="st5">
		<path class="st4" d="M27.3,138.5v-13.2h0.8v6.1h8.2v-6.1h0.8v13.2h-0.8v-6.4h-8.2v6.4H27.3z"/>
		<path class="st4" d="M43.1,138.5V126h-4.2v-0.7h9.3v0.7h-4.2v12.5H43.1z"/>
		<path class="st4" d="M48.6,138.5l1.4-13.6l5.6,12.3l5.6-12.3l1.4,13.6h-0.8l-1-10.9l-5.1,11.3l-5.2-11.3l-1,10.9H48.6z"/>
		<path class="st4" d="M65.3,138.5v-13.2h0.8v12.5h6.1v0.7H65.3z"/>
	</g>
</g>
</svg>
