<?xml version="1.0" encoding="utf-8"?>
<!-- Generator: Adobe Illustrator 25.4.1, SVG Export Plug-In . SVG Version: 6.00 Build 0)  -->
<svg version="1.1" id="Layer_1" xmlns="http://www.w3.org/2000/svg" xmlns:xlink="http://www.w3.org/1999/xlink" x="0px" y="0px"
	 viewBox="0 0 86.1 140.9" style="enable-background:new 0 0 86.1 140.9;" xml:space="preserve">
<style type="text/css">
	.st0{fill:#393E40;}
	.st1{fill:#E79B31;}
	.st2{fill:none;}
	.st3{fill:#3F88C5;}
	.st4{fill:#FBFBF2;}
	.st5{enable-background:new    ;}
	.st6{fill:#393E41;}
	.st7{fill:#E3322E;}
	.st8{fill:#DCDCC3;}
</style>
<g id="Group_398">
	<g id="Group_376" transform="translate(562.53 1671.564)">
		<g id="Group_371">
			<g id="Group_366-3">
				<g id="Group_362-3" transform="translate(0 69.431)">
					<g id="Ellipse_3-2">
						<circle class="st1" cx="-553.1" cy="-1662.8" r="6.2"/>
					</g>
					<g id="Path_614-3">
						<path class="st6" d="M-553.1-1655.4c-4.1,0-7.4-3.3-7.4-7.4s3.3-7.4,7.4-7.4s7.4,3.3,7.4,7.4l0,0
							C-545.7-1658.7-549-1655.4-553.1-1655.4z M-553.1-1667.8c-2.8,0-5,2.3-5,5c0,2.8,2.3,5,5,5c2.8,0,5-2.3,5-5
							C-548.1-1665.5-550.3-1667.8-553.1-1667.8z"/>
					</g>
				</g>
				<g id="Group_363-3" transform="translate(8.042 0)">
					<g id="Path_615-3">
						<path class="st4" d="M-515.5-1670.4h-30.3c-8.3,0-15,6.7-15,15v71.8c0,8.3,6.7,15,15,15h43.2c8.3,0,15-6.7,15-15v-58.9
							L-515.5-1670.4z"/>
					</g>
					<g id="Path_616-3">
						<path class="st2" d="M-502.6-1567.5h-43.2c-8.9,0-16.1-7.2-16.2-16.2v-71.8c0-8.9,7.2-16.1,16.2-16.2h30.3
							c0.3,0,0.6,0.1,0.8,0.3l27.9,27.9c0.2,0.2,0.3,0.5,0.3,0.8v58.9C-486.4-1574.7-493.7-1567.5-502.6-1567.5z M-545.8-1669.2
							c-7.6,0-13.8,6.2-13.8,13.8v71.8c0,7.6,6.2,13.8,13.8,13.8h43.2c7.6,0,13.8-6.2,13.8-13.8v-58.4l-27.2-27.2L-545.8-1669.2z"/>
					</g>
				</g>
				<g id="Group_364-3" transform="translate(53.287 0)">
					<g id="Path_617-3">
						<path class="st8" d="M-560.7-1670.4l27.9,27.9h-21.9c-3.3,0-5.9-2.7-5.9-5.9c0,0,0,0,0,0L-560.7-1670.4z"/>
					</g>
					<g id="Path_618-3">
						<path class="st2" d="M-532.9-1641.3h-21.9c-3.9,0-7.1-3.2-7.1-7.1v-21.9c0-0.7,0.5-1.2,1.2-1.2c0.3,0,0.6,0.1,0.8,0.3
							l27.8,27.8c0.5,0.4,0.5,1.2,0.1,1.7C-532.2-1641.5-532.5-1641.3-532.9-1641.3L-532.9-1641.3z M-559.6-1667.5v19.1
							c0,2.6,2.1,4.8,4.8,4.8h19.1L-559.6-1667.5z"/>
					</g>
				</g>
				<g id="Group_365-3" transform="translate(1.486 41.157)">
					<g id="Path_619-3">
						<path class="st1" d="M-554-1670.4c-3.7,0-6.7,3-6.7,6.7v28h0.1c0.6-3.1,3.4-5.4,6.6-5.4h67.4v-29.3L-554-1670.4z"/>
					</g>
					<g id="Path_620-3">
						<path class="st2" d="M-560.6-1634.5h-0.1c-0.7,0-1.2-0.5-1.2-1.2v-28c0-4.4,3.5-7.9,7.9-7.9h67.4c0.7,0,1.2,0.5,1.2,1.2
							c0,0,0,0,0,0v29.3c0,0.7-0.5,1.2-1.2,1.2H-554c-2.6,0-4.9,1.9-5.4,4.5C-559.5-1634.9-560-1634.5-560.6-1634.5z M-554-1669.2
							c-3,0-5.5,2.5-5.5,5.5v23.7c1.5-1.4,3.4-2.2,5.5-2.2h66.2v-26.9L-554-1669.2z"/>
					</g>
				</g>
			</g>
		</g>
		<g class="st5">
			<path class="st4" d="M-540.9-1607.8v-13.2h2v13.2H-540.9z"/>
			<path class="st4" d="M-536.4-1607.8v-13.5l9.2,9.3c0-1.3,0-2.5,0-4v-5h1.9v13.5l-9.1-9.3c0,1.3,0,2.6,0,4v5H-536.4z"/>
			<path class="st4" d="M-522.8-1607.8v-13.2h4c4.6,0,7.2,3.1,7.2,6.6c0,3.5-2.6,6.6-7.2,6.6H-522.8z M-520.8-1609.6h2.1
				c3.4,0,5.1-2.3,5.1-4.8c0-2.5-1.7-4.8-5.1-4.8h-2.1V-1609.6z"/>
			<path class="st4" d="M-509.5-1607.8v-13.2h4c4.6,0,7.2,3.1,7.2,6.6c0,3.5-2.6,6.6-7.2,6.6H-509.5z M-507.5-1609.6h2.1
				c3.4,0,5.1-2.3,5.1-4.8c0-2.5-1.7-4.8-5.1-4.8h-2.1V-1609.6z"/>
		</g>
	</g>
	<g class="st5">
		<path class="st4" d="M14.5,136.4v-13.2h0.8v13.2H14.5z"/>
		<path class="st4" d="M18.5,136.4v-8.6h0.7v1.9c0.5-1,1.5-2.1,3.2-2.1c1.8,0,3.3,1.2,3.3,3.4v5.4h-0.8v-5.4c0-1.8-1.2-2.7-2.5-2.7
			c-1.4,0-3.1,1.3-3.1,3.9v4.2H18.5z"/>
		<path class="st4" d="M28.9,136.4v-13.2h3.6c5.1,0,7.1,3.5,7.1,6.6c0,3.1-1.9,6.6-7.1,6.6H28.9z M29.7,135.7h2.8
			c4.7,0,6.2-3.2,6.2-5.9c0-2.6-1.6-5.9-6.2-5.9h-2.8V135.7z"/>
		<path class="st4" d="M42.1,132v0.2c0,2,1.3,3.7,3.5,3.7c1.5,0,2.5-0.7,3.3-1.4v1c-0.3,0.3-1.5,1.2-3.4,1.2c-2.6,0-4.3-2-4.3-4.5
			c0-2.5,1.7-4.6,4.2-4.6c2.5,0,4,2,4,3.7c0,0.3,0,0.5,0,0.7H42.1z M42.1,131.2h6.5c0-1.4-1.3-2.9-3.2-2.9
			C43.9,128.4,42.5,129.5,42.1,131.2z"/>
		<path class="st4" d="M51.2,136v-0.9c0.9,0.5,2,0.9,3,0.9c1.3,0,2.1-0.6,2.1-1.6s-0.6-1.5-2.2-2c-2-0.6-2.8-1.3-2.8-2.6
			c0-1.4,1.1-2.2,2.8-2.2c1.1,0,2,0.3,2.6,0.5v0.9c-0.9-0.5-1.7-0.7-2.6-0.7c-1.2,0-2,0.5-2,1.5c0,0.9,0.6,1.4,2.2,1.9
			c2,0.6,2.8,1.3,2.8,2.7c0,1.4-1.1,2.3-2.9,2.3C52.9,136.7,51.8,136.2,51.2,136z"/>
		<path class="st4" d="M59.3,124.9c0-0.4,0.3-0.7,0.7-0.7c0.4,0,0.8,0.3,0.8,0.7c0,0.4-0.3,0.7-0.8,0.7
			C59.6,125.7,59.3,125.3,59.3,124.9z M59.6,136.4v-8.6h0.8v8.6H59.6z"/>
		<path class="st4" d="M63.6,139.6v-1c0.8,0.8,2,1.5,3.6,1.5s3.7-0.8,3.7-3.9l0-1.7c-0.6,1.1-2,2.1-3.7,2.1c-2.4,0-4.4-2-4.4-4.5
			s2-4.5,4.4-4.5c1.6,0,3,1.1,3.7,2.1v-1.9h0.7v8.3c0,4-2.9,4.8-4.5,4.8C65.6,140.9,64.3,140.1,63.6,139.6z M70.9,132.1
			c0-2.1-1.6-3.8-3.6-3.8c-2,0-3.6,1.7-3.6,3.8s1.6,3.8,3.6,3.8C69.3,135.9,70.9,134.2,70.9,132.1z"/>
		<path class="st4" d="M74.8,136.4v-8.6h0.7v1.9c0.5-1,1.5-2.1,3.2-2.1c1.8,0,3.3,1.2,3.3,3.4v5.4h-0.8v-5.4c0-1.8-1.2-2.7-2.5-2.7
			c-1.4,0-3.1,1.3-3.1,3.9v4.2H74.8z"/>
	</g>
</g>
</svg>
