<?xml version="1.0" encoding="utf-8"?>
<!-- Generator: Adobe Illustrator 25.4.1, SVG Export Plug-In . SVG Version: 6.00 Build 0)  -->
<svg version="1.1" id="Layer_1" xmlns="http://www.w3.org/2000/svg" xmlns:xlink="http://www.w3.org/1999/xlink" x="0px" y="0px"
	 viewBox="0 0 86.1 140.9" style="enable-background:new 0 0 86.1 140.9;" xml:space="preserve">
<style type="text/css">
	.st0{fill:#393E40;}
	.st1{fill:#E79B31;}
	.st2{fill:none;}
	.st3{fill:#3F88C5;}
	.st4{fill:#FBFBF2;}
	.st5{enable-background:new    ;}
	.st6{fill:#393E41;}
	.st7{fill:#E3322E;}
	.st8{fill:#DCDCC3;}
</style>
<g id="Group_400">
	<g id="Group_374" transform="translate(833.53 1671.595)">
		<g id="Group_373">
			<g id="Group_366-5">
				<g id="Group_362-5" transform="translate(0 69.431)">
					<g id="Ellipse_3-4">
						<circle class="st7" cx="-825" cy="-1661.2" r="6.3"/>
					</g>
					<g id="Path_614-5">
						<path class="st6" d="M-825-1653.7c-4.2,0-7.6-3.4-7.6-7.6c0-4.2,3.4-7.6,7.6-7.6c4.2,0,7.6,3.4,7.6,7.6l0,0
							C-817.4-1657.1-820.8-1653.7-825-1653.7z M-825-1666.4c-2.8,0-5.1,2.3-5.1,5.1c0,2.8,2.3,5.1,5.1,5.1c2.8,0,5.1-2.3,5.1-5.1
							C-819.8-1664.1-822.1-1666.4-825-1666.4z"/>
					</g>
				</g>
				<g id="Group_363-5" transform="translate(8.042 0)">
					<g id="Path_615-5">
						<path class="st4" d="M-786.4-1670.4h-30.9c-8.4,0-15.3,6.8-15.3,15.3v73.2c0,8.4,6.8,15.3,15.3,15.3h44.1
							c8.4,0,15.3-6.8,15.3-15.3v-60L-786.4-1670.4z"/>
					</g>
					<g id="Path_616-5">
						<path class="st2" d="M-773.3-1565.4h-44.1c-9.1,0-16.5-7.4-16.5-16.5v-73.2c0-9.1,7.4-16.5,16.5-16.5h30.9
							c0.3,0,0.6,0.1,0.9,0.4l28.4,28.4c0.2,0.2,0.4,0.5,0.4,0.9v60C-756.8-1572.8-764.2-1565.4-773.3-1565.4z M-817.3-1669.2
							c-7.8,0-14,6.3-14.1,14.1v73.2c0,7.8,6.3,14,14.1,14.1h44.1c7.8,0,14-6.3,14.1-14.1v-59.5l-27.7-27.7H-817.3z"/>
					</g>
				</g>
				<g id="Group_364-5" transform="translate(53.287 0)">
					<g id="Path_617-5">
						<path class="st8" d="M-831.7-1670.4l28.4,28.4h-22.4c-3.3,0-6.1-2.7-6.1-6.1c0,0,0,0,0,0L-831.7-1670.4z"/>
					</g>
					<g id="Path_618-5">
						<path class="st2" d="M-803.2-1640.7h-22.4c-4,0-7.3-3.3-7.3-7.3v-22.4c0-0.7,0.5-1.2,1.2-1.2c0.3,0,0.6,0.1,0.9,0.4l28.4,28.4
							c0.5,0.4,0.6,1.2,0.1,1.7C-802.6-1640.9-802.9-1640.7-803.2-1640.7L-803.2-1640.7z M-830.5-1667.5v19.4c0,2.7,2.2,4.9,4.9,4.9
							h19.4L-830.5-1667.5z"/>
					</g>
				</g>
				<g id="Group_365-5" transform="translate(1.486 41.157)">
					<g id="Path_619-5">
						<path class="st7" d="M-825.9-1669.6c-3.8,0-6.8,3.1-6.8,6.8v28.6h0.1c0.6-3.2,3.4-5.5,6.7-5.5h68.7v-29.9L-825.9-1669.6z"/>
					</g>
					<g id="Path_620-5">
						<path class="st2" d="M-832.6-1632.9h-0.1c-0.7,0-1.2-0.5-1.2-1.2v-28.6c0-4.4,3.6-8,8-8h68.7c0.7,0,1.2,0.5,1.2,1.2
							c0,0,0,0,0,0v29.9c0,0.7-0.5,1.2-1.2,1.2h-68.7c-2.7,0-5,1.9-5.5,4.5C-831.5-1633.3-832-1632.9-832.6-1632.9z M-825.9-1668.3
							c-3.1,0-5.6,2.5-5.6,5.6v24.1c1.5-1.5,3.5-2.3,5.6-2.3h67.5v-27.5L-825.9-1668.3z"/>
					</g>
				</g>
			</g>
		</g>
		<g class="st5">
			<path class="st4" d="M-825-1606.5v-13.5h4c3.1,0,5,1.9,5,4.3c0,2.4-1.9,4.3-5,4.3h-2v4.9H-825z M-823-1613.3h2
				c1.9,0,2.9-1.1,2.9-2.4c0-1.3-0.9-2.4-2.9-2.4h-2V-1613.3z"/>
			<path class="st4" d="M-804-1606.5h-2.6l-4.3-5.1h-1v5.1h-2v-13.5h3.8c3,0,4.9,1.8,4.9,4.2c0,1.9-1.3,3.5-3.4,4L-804-1606.5z
				 M-811.9-1618.2v4.8h1.8c1.8,0,2.8-1.1,2.8-2.4c0-1.3-1-2.4-2.8-2.4H-811.9z"/>
			<path class="st4" d="M-802.8-1606.5v-13.5h4c3.1,0,5,1.9,5,4.3c0,2.4-1.9,4.3-5,4.3h-2v4.9H-802.8z M-800.8-1613.3h2
				c1.9,0,2.9-1.1,2.9-2.4c0-1.3-0.9-2.4-2.9-2.4h-2V-1613.3z"/>
			<path class="st4" d="M-781.8-1606.5h-2.6l-4.3-5.1h-1v5.1h-2v-13.5h3.8c3,0,4.9,1.8,4.9,4.2c0,1.9-1.3,3.5-3.4,4L-781.8-1606.5z
				 M-789.7-1618.2v4.8h1.8c1.8,0,2.8-1.1,2.8-2.4c0-1.3-1-2.4-2.8-2.4H-789.7z"/>
			<path class="st4" d="M-781.4-1613.3c0-3.9,3.2-7,7-7c3.9,0,7.1,3.1,7.1,7c0,3.9-3.2,7-7.1,7
				C-778.2-1606.3-781.4-1609.4-781.4-1613.3z M-769.4-1613.3c0-2.9-2.2-5.1-5-5.1c-2.8,0-4.9,2.2-4.9,5.1c0,2.9,2.1,5.1,4.9,5.1
				C-771.6-1608.1-769.4-1610.4-769.4-1613.3z"/>
			<path class="st4" d="M-766.9-1607.1v-2.3c0.6,0.5,1.4,1.1,2.3,1.1c1,0,1.7-0.7,1.7-1.8v-9.8h2v9.8c0,2.3-1.5,3.8-3.6,3.8
				C-765.6-1606.4-766.5-1606.8-766.9-1607.1z"/>
		</g>
	</g>
	<g class="st5">
		<path class="st4" d="M0.8,138.4v-11.6H4c2.5,0,4,1.6,4,3.5c0,1.9-1.6,3.5-4,3.5H1.5v4.7H0.8z M1.5,133.1H4c2.1,0,3.3-1.3,3.3-2.8
			c0-1.5-1.2-2.8-3.3-2.8H1.5V133.1z"/>
		<path class="st4" d="M9.7,138.4v-7.6h0.6v1.7c0.4-0.9,1.2-1.9,2.7-1.9c0.4,0,0.7,0.1,0.9,0.1v0.7c-0.2-0.1-0.5-0.2-0.9-0.2
			c-1.6,0-2.6,1.6-2.6,3.8v3.3H9.7z"/>
		<path class="st4" d="M14.9,134.5v0.2c0,1.8,1.2,3.3,3.1,3.3c1.3,0,2.2-0.6,2.9-1.2v0.8c-0.3,0.2-1.3,1-3,1c-2.3,0-3.8-1.8-3.8-3.9
			c0-2.2,1.5-4,3.7-4c2.2,0,3.5,1.8,3.5,3.2c0,0.2,0,0.4,0,0.6H14.9z M15,133.8h5.7c0-1.3-1.2-2.5-2.8-2.5
			C16.5,131.3,15.3,132.3,15,133.8z"/>
		<path class="st4" d="M23.5,138.4v-7.6h0.6v1.7c0.4-0.9,1.4-1.8,2.8-1.8c1.6,0,2.2,1.1,2.5,1.7c0.2-0.5,0.9-1.7,2.8-1.7
			c1.9,0,3,1.3,3,3.3v4.5h-0.7V134c0-1.6-0.7-2.7-2.3-2.7c-1.6,0-2.5,1.1-2.5,2.7v4.4h-0.7V134c0-1.3-0.6-2.7-2.1-2.7
			c-1.5,0-2.8,1.6-2.8,3.4v3.7H23.5z"/>
		<path class="st4" d="M37.7,128.3c0-0.3,0.3-0.6,0.6-0.6c0.4,0,0.7,0.3,0.7,0.6c0,0.4-0.3,0.6-0.7,0.6
			C38,128.9,37.7,128.6,37.7,128.3z M38,138.4v-7.6h0.7v7.6H38z"/>
		<path class="st4" d="M41.5,134.5v0.2c0,1.8,1.2,3.3,3.1,3.3c1.3,0,2.2-0.6,2.9-1.2v0.8c-0.3,0.2-1.3,1-3,1c-2.3,0-3.8-1.8-3.8-3.9
			c0-2.2,1.5-4,3.7-4c2.2,0,3.5,1.8,3.5,3.2c0,0.2,0,0.4,0,0.6H41.5z M41.6,133.8h5.7c0-1.3-1.2-2.5-2.8-2.5
			C43.2,131.3,42,132.3,41.6,133.8z"/>
		<path class="st4" d="M50.2,138.4v-7.6h0.6v1.7c0.4-0.9,1.2-1.9,2.7-1.9c0.4,0,0.7,0.1,0.9,0.1v0.7c-0.2-0.1-0.5-0.2-0.9-0.2
			c-1.6,0-2.6,1.6-2.6,3.8v3.3H50.2z"/>
		<path class="st4" d="M55.4,134.5v0.2c0,1.8,1.2,3.3,3.1,3.3c1.3,0,2.2-0.6,2.9-1.2v0.8c-0.3,0.2-1.3,1-3,1c-2.3,0-3.8-1.8-3.8-3.9
			c0-2.2,1.5-4,3.7-4c2.2,0,3.5,1.8,3.5,3.2c0,0.2,0,0.4,0,0.6H55.4z M55.5,133.8h5.7c0-1.3-1.2-2.5-2.8-2.5
			C57,131.3,55.8,132.3,55.5,133.8z"/>
		<path class="st4" d="M64.1,138.4v-11.6h3.2c2.5,0,4,1.6,4,3.5c0,1.9-1.6,3.5-4,3.5h-2.5v4.7H64.1z M64.8,133.1h2.5
			c2.1,0,3.3-1.3,3.3-2.8c0-1.5-1.2-2.8-3.3-2.8h-2.5V133.1z"/>
		<path class="st4" d="M73,138.4v-7.6h0.6v1.7c0.4-0.9,1.2-1.9,2.7-1.9c0.4,0,0.7,0.1,0.9,0.1v0.7c-0.2-0.1-0.5-0.2-0.9-0.2
			c-1.6,0-2.6,1.6-2.6,3.8v3.3H73z"/>
		<path class="st4" d="M77.6,134.6c0-2.2,1.8-4,3.9-4c2.1,0,3.9,1.8,3.9,4s-1.8,4-3.9,4C79.3,138.6,77.6,136.8,77.6,134.6z
			 M84.7,134.6c0-1.8-1.4-3.3-3.2-3.3c-1.8,0-3.2,1.5-3.2,3.3s1.4,3.3,3.2,3.3C83.3,138,84.7,136.5,84.7,134.6z"/>
	</g>
</g>
</svg>
