<?xml version="1.0" encoding="utf-8"?>
<!-- Generator: Adobe Illustrator 25.4.1, SVG Export Plug-In . SVG Version: 6.00 Build 0)  -->
<svg version="1.1" id="Layer_1" xmlns="http://www.w3.org/2000/svg" xmlns:xlink="http://www.w3.org/1999/xlink" x="0px" y="0px"
	 viewBox="0 0 86.1 140.9" style="enable-background:new 0 0 86.1 140.9;" xml:space="preserve">
<style type="text/css">
	.st0{fill:#393E40;}
	.st1{fill:#E79B31;}
	.st2{fill:none;}
	.st3{fill:#3F88C5;}
	.st4{fill:#FBFBF2;}
	.st5{enable-background:new    ;}
	.st6{fill:#393E41;}
	.st7{fill:#E3322E;}
	.st8{fill:#DCDCC3;}
</style>
<g id="Group_396">
	<g id="Group_369" transform="translate(292.53 1671.564)">
		<g id="Group_367">
			<g id="Group_366" transform="translate(0 0)">
				<g id="Group_362" transform="translate(0 69.431)">
					<g id="Path_621">
						<path class="st7" d="M-289.5-1667.1c2.4-2.4,6.4-2.4,8.8,0c2.4,2.4,2.4,6.4,0,8.8c-2.4,2.4-6.4,2.4-8.8,0c0,0,0,0,0,0
							C-291.9-1660.7-291.9-1664.6-289.5-1667.1z"/>
					</g>
					<g id="Path_614">
						<path class="st6" d="M-285.1-1655.2c-4.1,0-7.4-3.3-7.4-7.4s3.3-7.4,7.4-7.4s7.4,3.3,7.4,7.4l0,0
							C-277.7-1658.6-281-1655.3-285.1-1655.2z M-285.1-1667.7c-2.8,0-5,2.3-5,5c0,2.8,2.3,5,5,5c2.8,0,5-2.3,5-5
							C-280.1-1665.4-282.3-1667.7-285.1-1667.7z"/>
					</g>
				</g>
				<g id="Group_363" transform="translate(8.042)">
					<g id="Path_615">
						<path class="st4" d="M-247.5-1670.3h-30.3c-8.3,0-15,6.7-15,15v71.8c0,8.3,6.7,15,15,15h43.2c8.3,0,15-6.7,15-15v-58.9
							L-247.5-1670.3z"/>
					</g>
					<g id="Path_616">
						<path class="st4" d="M-234.6-1567.4h-43.2c-8.9,0-16.1-7.2-16.2-16.2v-71.8c0-8.9,7.2-16.1,16.2-16.2h30.3
							c0.3,0,0.6,0.1,0.8,0.3l27.9,27.9c0.2,0.2,0.3,0.5,0.3,0.8v58.9C-218.4-1574.6-225.6-1567.4-234.6-1567.4z M-277.8-1669.1
							c-7.6,0-13.8,6.2-13.8,13.8v71.8c0,7.6,6.2,13.8,13.8,13.8h43.2c7.6,0,13.8-6.2,13.8-13.8v-58.4l-27.2-27.2L-277.8-1669.1z"/>
					</g>
				</g>
				<g id="Group_364" transform="translate(53.287 0)">
					<g id="Path_617">
						<path class="st8" d="M-292.7-1670.3l27.9,27.9h-21.9c-3.3,0-5.9-2.7-5.9-5.9c0,0,0,0,0,0L-292.7-1670.3z"/>
					</g>
					<g id="Path_618">
						<path class="st8" d="M-264.8-1641.2h-21.9c-3.9,0-7.1-3.2-7.1-7.1v-21.9c0-0.7,0.5-1.2,1.2-1.2c0.3,0,0.6,0.1,0.8,0.3
							l27.8,27.8c0.5,0.4,0.5,1.2,0.1,1.7C-264.2-1641.3-264.5-1641.2-264.8-1641.2L-264.8-1641.2z M-291.5-1667.4v19.1
							c0,2.6,2.1,4.8,4.8,4.8h19.1L-291.5-1667.4z"/>
					</g>
				</g>
				<g id="Group_365" transform="translate(1.486 41.157)">
					<g id="Path_619">
						<path class="st7" d="M-286-1670.3c-3.7,0-6.7,3-6.7,6.7v28h0.1c0.6-3.1,3.4-5.4,6.6-5.4h67.4v-29.3L-286-1670.3z"/>
					</g>
					<g id="Path_620">
						<path class="st2" d="M-292.6-1634.4h-0.1c-0.7,0-1.2-0.5-1.2-1.2v-28c0-4.4,3.5-7.9,7.9-7.9h67.4c0.7,0,1.2,0.5,1.2,1.2
							c0,0,0,0,0,0v29.3c0,0.7-0.5,1.2-1.2,1.2H-286c-0.6,0-1.2,0.1-1.8,0.3c-1.9,0.6-3.2,2.2-3.6,4.1
							C-291.5-1634.8-292-1634.4-292.6-1634.4z M-286-1669.1c-3,0-5.5,2.5-5.5,5.5v23.7c1.5-1.4,3.4-2.2,5.5-2.2h66.2v-26.9
							L-286-1669.1z"/>
					</g>
				</g>
			</g>
		</g>
		<g class="st5">
			<path class="st4" d="M-266.7-1607.7v-13.2h4c3.1,0,4.9,1.9,4.9,4.2c0,2.3-1.8,4.2-4.9,4.2h-2v4.8H-266.7z M-264.7-1614.3h2
				c1.9,0,2.8-1.1,2.8-2.4s-0.9-2.4-2.8-2.4h-2V-1614.3z"/>
			<path class="st4" d="M-256.4-1608.7v-2.2c1.2,0.8,2.6,1.6,4.3,1.6c1.4,0,2.3-0.8,2.3-2c0-1.3-0.8-1.7-2.6-2.3
				c-1.8-0.6-3.8-1.5-3.8-4.1c0-2.4,2.1-3.5,4.2-3.5c1.8,0,3.1,0.5,3.9,0.8v2.2c-1.3-0.8-2.6-1.2-3.9-1.2c-1.2,0-2.1,0.6-2.1,1.7
				c0,1.2,0.8,1.7,2.6,2.3c1.8,0.6,3.9,1.4,3.9,4.1c0,2.4-2.2,3.8-4.4,3.8C-254-1607.4-255.5-1608.1-256.4-1608.7z"/>
			<path class="st4" d="M-246-1607.7v-13.2h4c4.6,0,7.2,3.1,7.2,6.6c0,3.5-2.6,6.6-7.2,6.6H-246z M-244-1609.5h2.1
				c3.4,0,5.1-2.3,5.1-4.8c0-2.5-1.7-4.8-5.1-4.8h-2.1V-1609.5z"/>
		</g>
	</g>
	<g class="st5">
		<path class="st4" d="M1.1,136.5v-13.2h3.6c2.8,0,4.5,1.8,4.5,3.9c0,2.2-1.8,3.9-4.5,3.9H1.9v5.3H1.1z M1.9,130.5h2.8
			c2.4,0,3.7-1.5,3.7-3.2c0-1.7-1.4-3.2-3.7-3.2H1.9V130.5z"/>
		<path class="st4" d="M11.9,136.5v-13.8h0.8v4.8c0,0.8-0.1,1.6-0.1,2.3c0.5-1,1.5-2.1,3.2-2.1c1.8,0,3.3,1.2,3.3,3.4v5.4h-0.8v-5.4
			c0-1.8-1.2-2.7-2.5-2.7c-1.4,0-3.1,1.3-3.1,3.9v4.2H11.9z"/>
		<path class="st4" d="M21.3,132.2c0-2.5,2-4.5,4.4-4.5c2.4,0,4.4,2,4.4,4.5s-2,4.5-4.4,4.5C23.3,136.7,21.3,134.7,21.3,132.2z
			 M29.4,132.2c0-2.1-1.6-3.8-3.6-3.8c-2,0-3.6,1.7-3.6,3.8s1.6,3.8,3.6,3.8C27.8,136,29.4,134.3,29.4,132.2z"/>
		<path class="st4" d="M33,133.8v-5.2h-2.1v-0.7H33v-2h0.8v2h3v0.7h-3v5.2c0,1.4,0.6,2.1,2,2.1c0.4,0,0.7-0.1,1-0.2v0.8
			c-0.3,0.1-0.7,0.1-1,0.1C34.1,136.6,33,135.8,33,133.8z"/>
		<path class="st4" d="M37.6,132.2c0-2.5,2-4.5,4.4-4.5c2.4,0,4.4,2,4.4,4.5s-2,4.5-4.4,4.5C39.6,136.7,37.6,134.7,37.6,132.2z
			 M45.7,132.2c0-2.1-1.6-3.8-3.6-3.8c-2,0-3.6,1.7-3.6,3.8s1.6,3.8,3.6,3.8C44.1,136,45.7,134.3,45.7,132.2z"/>
		<path class="st4" d="M48.2,136.1v-0.9c0.9,0.5,2,0.9,3,0.9c1.3,0,2.1-0.6,2.1-1.6s-0.6-1.5-2.2-2c-2-0.6-2.8-1.3-2.8-2.6
			c0-1.4,1.1-2.2,2.8-2.2c1.1,0,2,0.3,2.6,0.5v0.9c-0.9-0.5-1.7-0.7-2.6-0.7c-1.2,0-2,0.5-2,1.5c0,0.9,0.6,1.4,2.2,1.9
			c2,0.6,2.8,1.3,2.8,2.7c0,1.4-1.1,2.3-2.9,2.3C49.9,136.8,48.8,136.3,48.2,136.1z"/>
		<path class="st4" d="M56.6,136.5v-13.8h0.8v4.8c0,0.8-0.1,1.6-0.1,2.3c0.5-1,1.5-2.1,3.2-2.1c1.8,0,3.3,1.2,3.3,3.4v5.4h-0.8v-5.4
			c0-1.8-1.2-2.7-2.5-2.7c-1.4,0-3.1,1.3-3.1,3.9v4.2H56.6z"/>
		<path class="st4" d="M66.1,132.2c0-2.5,2-4.5,4.4-4.5c2.4,0,4.4,2,4.4,4.5s-2,4.5-4.4,4.5C68.1,136.7,66.1,134.7,66.1,132.2z
			 M74.1,132.2c0-2.1-1.6-3.8-3.6-3.8c-2,0-3.6,1.7-3.6,3.8s1.6,3.8,3.6,3.8C72.5,136,74.1,134.3,74.1,132.2z"/>
		<path class="st4" d="M77.3,140.8v-12.8h0.7v1.9c0.6-1.1,2-2.1,3.6-2.1c2.4,0,4.4,2,4.4,4.5s-2,4.5-4.4,4.5c-1.6,0-3-1-3.6-2.1
			c0,0.7,0.1,1.4,0.1,2.3v3.9H77.3z M85.3,132.2c0-2.1-1.6-3.8-3.6-3.8c-2,0-3.6,1.7-3.6,3.8s1.6,3.8,3.6,3.8
			C83.7,136,85.3,134.3,85.3,132.2z"/>
	</g>
</g>
</svg>
