<?xml version="1.0" encoding="utf-8"?>
<!-- Generator: Adobe Illustrator 25.4.1, SVG Export Plug-In . SVG Version: 6.00 Build 0)  -->
<svg version="1.1" id="Layer_1" xmlns="http://www.w3.org/2000/svg" xmlns:xlink="http://www.w3.org/1999/xlink" x="0px" y="0px"
	 viewBox="0 0 723 142.3" style="enable-background:new 0 0 723 142.3;" xml:space="preserve">
<style type="text/css">
	.st0{fill:#393E40;}
	.st1{fill:#E79B31;}
	.st2{fill:none;}
	.st3{fill:#3F88C5;}
	.st4{fill:#FBFBF2;}
	.st5{enable-background:new    ;}
	.st6{fill:#393E41;}
	.st7{fill:#E3322E;}
	.st8{fill:#DCDCC3;}
</style>
<g id="Group_396_00000175289822824573402950000013701961640563362720_">
	<g id="Group_369_00000010284787703945927450000010430917639728779401_" transform="translate(292.53 1671.564)">
		<g id="Group_367_00000110435599574706811170000015763166880700442028_">
			<g id="Group_366_00000168079504814892338330000016916775351134716044_" transform="translate(0 0)">
				<g id="Group_362_00000173857811362694561830000009775776656865855884_" transform="translate(0 69.431)">
					<g id="Path_621_00000011717986648456211710000014819310676137013677_">
						<path class="st7" d="M-288.9-1667c2.4-2.4,6.4-2.4,8.8,0c2.4,2.4,2.4,6.4,0,8.8s-6.4,2.4-8.8,0c0,0,0,0,0,0
							C-291.4-1660.6-291.4-1664.5-288.9-1667z"/>
					</g>
					<g id="Path_614_00000016036900036154182770000000649764746191471246_">
						<path class="st6" d="M-284.5-1655.1c-4.1,0-7.4-3.3-7.4-7.4s3.3-7.4,7.4-7.4s7.4,3.3,7.4,7.4l0,0
							C-277.1-1658.5-280.5-1655.1-284.5-1655.1z M-284.5-1667.6c-2.8,0-5,2.3-5,5c0,2.8,2.3,5,5,5c2.8,0,5-2.3,5-5
							C-279.5-1665.3-281.8-1667.6-284.5-1667.6z"/>
					</g>
				</g>
				<g id="Group_363_00000153679773417669476480000017741231559543476138_" transform="translate(8.042)">
					<g id="Path_615_00000070835744904186729110000004360249411863322767_">
						<path class="st4" d="M-246.9-1670.2h-30.3c-8.3,0-15,6.7-15,15v71.8c0,8.3,6.7,15,15,15h43.2c8.3,0,15-6.7,15-15v-58.9
							L-246.9-1670.2z"/>
					</g>
					<g id="Path_616_00000012465362715675507420000002959759693975794061_">
						<path class="st4" d="M-234-1567.3h-43.2c-8.9,0-16.1-7.2-16.2-16.2v-71.8c0-8.9,7.2-16.1,16.2-16.2h30.3
							c0.3,0,0.6,0.1,0.8,0.3l27.9,27.9c0.2,0.2,0.3,0.5,0.3,0.8v58.9C-217.9-1574.5-225.1-1567.3-234-1567.3z M-277.2-1669
							c-7.6,0-13.8,6.2-13.8,13.8v71.8c0,7.6,6.2,13.8,13.8,13.8h43.2c7.6,0,13.8-6.2,13.8-13.8v-58.4l-27.2-27.2L-277.2-1669z"/>
					</g>
				</g>
				<g id="Group_364_00000102518842401266419530000003147777333739641745_" transform="translate(53.287 0)">
					<g id="Path_617_00000125604057699343234970000005371145398163768977_">
						<path class="st8" d="M-292.2-1670.2l27.9,27.9h-21.9c-3.3,0-5.9-2.7-5.9-5.9c0,0,0,0,0,0L-292.2-1670.2z"/>
					</g>
					<g id="Path_618_00000000901716904583719430000000800072293768391580_">
						<path class="st8" d="M-264.3-1641.1h-21.9c-3.9,0-7.1-3.2-7.1-7.1v-21.9c0-0.7,0.5-1.2,1.2-1.2c0.3,0,0.6,0.1,0.8,0.3
							l27.8,27.8c0.5,0.4,0.5,1.2,0.1,1.7C-263.6-1641.2-263.9-1641.1-264.3-1641.1L-264.3-1641.1z M-291-1667.3v19.1
							c0,2.6,2.1,4.8,4.8,4.8h19.1L-291-1667.3z"/>
					</g>
				</g>
				<g id="Group_365_00000029035726058654899340000002732353571993127581_" transform="translate(1.486 41.157)">
					<g id="Path_619_00000080197139348613061990000000600540397810741951_">
						<path class="st7" d="M-285.5-1670.2c-3.7,0-6.7,3-6.7,6.7v28h0.1c0.6-3.1,3.4-5.4,6.6-5.4h67.4v-29.3L-285.5-1670.2z"/>
					</g>
					<g id="Path_620_00000037665103719787193690000016188509265175787425_">
						<path class="st2" d="M-292-1634.3h-0.1c-0.7,0-1.2-0.5-1.2-1.2v-28c0-4.4,3.5-7.9,7.9-7.9h67.4c0.7,0,1.2,0.5,1.2,1.2
							c0,0,0,0,0,0v29.3c0,0.7-0.5,1.2-1.2,1.2h-67.4c-0.6,0-1.2,0.1-1.8,0.3c-1.9,0.6-3.2,2.2-3.6,4.1
							C-291-1634.7-291.5-1634.3-292-1634.3z M-285.5-1669c-3,0-5.5,2.5-5.5,5.5v23.7c1.5-1.4,3.4-2.2,5.5-2.2h66.2v-26.9
							L-285.5-1669z"/>
					</g>
				</g>
			</g>
		</g>
		<g class="st5">
			<path class="st4" d="M-266.1-1607.6v-13.2h4c3.1,0,4.9,1.9,4.9,4.2c0,2.3-1.8,4.2-4.9,4.2h-2v4.8H-266.1z M-264.1-1614.2h2
				c1.9,0,2.8-1.1,2.8-2.4s-0.9-2.4-2.8-2.4h-2V-1614.2z"/>
			<path class="st4" d="M-255.9-1608.6v-2.2c1.2,0.8,2.6,1.6,4.3,1.6c1.4,0,2.3-0.8,2.3-2c0-1.3-0.8-1.7-2.6-2.3
				c-1.8-0.6-3.8-1.5-3.8-4.1c0-2.4,2.1-3.5,4.2-3.5c1.8,0,3.1,0.5,3.9,0.8v2.2c-1.3-0.8-2.6-1.2-3.9-1.2c-1.2,0-2.1,0.6-2.1,1.7
				c0,1.2,0.8,1.7,2.6,2.3c1.8,0.6,3.9,1.4,3.9,4.1c0,2.4-2.2,3.8-4.4,3.8C-253.4-1607.3-254.9-1608-255.9-1608.6z"/>
			<path class="st4" d="M-245.4-1607.6v-13.2h4c4.6,0,7.2,3.1,7.2,6.6c0,3.5-2.6,6.6-7.2,6.6H-245.4z M-243.4-1609.4h2.1
				c3.4,0,5.1-2.3,5.1-4.8c0-2.5-1.7-4.8-5.1-4.8h-2.1V-1609.4z"/>
		</g>
	</g>
	<g class="st5">
		<path class="st4" d="M1.7,136.6v-13.2h3.6c2.8,0,4.5,1.8,4.5,3.9c0,2.2-1.8,3.9-4.5,3.9H2.5v5.3H1.7z M2.5,130.6h2.8
			c2.4,0,3.7-1.5,3.7-3.2c0-1.7-1.4-3.2-3.7-3.2H2.5V130.6z"/>
		<path class="st4" d="M12.4,136.6v-13.8h0.8v4.8c0,0.8-0.1,1.6-0.1,2.3c0.5-1,1.5-2.1,3.2-2.1c1.8,0,3.3,1.2,3.3,3.4v5.4h-0.8v-5.4
			c0-1.8-1.2-2.7-2.5-2.7c-1.4,0-3.1,1.3-3.1,3.9v4.2H12.4z"/>
		<path class="st4" d="M21.9,132.3c0-2.5,2-4.5,4.4-4.5c2.4,0,4.4,2,4.4,4.5s-2,4.5-4.4,4.5C23.9,136.9,21.9,134.8,21.9,132.3z
			 M30,132.3c0-2.1-1.6-3.8-3.6-3.8c-2,0-3.6,1.7-3.6,3.8s1.6,3.8,3.6,3.8C28.3,136.1,30,134.4,30,132.3z"/>
		<path class="st4" d="M33.5,133.9v-5.2h-2.1V128h2.1v-2h0.8v2h3v0.7h-3v5.2c0,1.4,0.6,2.1,2,2.1c0.4,0,0.7-0.1,1-0.2v0.8
			c-0.3,0.1-0.7,0.1-1,0.1C34.7,136.7,33.5,135.9,33.5,133.9z"/>
		<path class="st4" d="M38.2,132.3c0-2.5,2-4.5,4.4-4.5c2.4,0,4.4,2,4.4,4.5s-2,4.5-4.4,4.5C40.2,136.9,38.2,134.8,38.2,132.3z
			 M46.3,132.3c0-2.1-1.6-3.8-3.6-3.8c-2,0-3.6,1.7-3.6,3.8s1.6,3.8,3.6,3.8C44.6,136.1,46.3,134.4,46.3,132.3z"/>
		<path class="st4" d="M48.8,136.2v-0.9c0.9,0.5,2,0.9,3,0.9c1.3,0,2.1-0.6,2.1-1.6s-0.6-1.5-2.2-2c-2-0.6-2.8-1.3-2.8-2.6
			c0-1.4,1.1-2.2,2.8-2.2c1.1,0,2,0.3,2.6,0.5v0.9c-0.9-0.5-1.7-0.7-2.6-0.7c-1.2,0-2,0.5-2,1.5c0,0.9,0.6,1.4,2.2,1.9
			c2,0.6,2.8,1.3,2.8,2.7c0,1.4-1.1,2.3-2.9,2.3C50.5,136.9,49.4,136.4,48.8,136.2z"/>
		<path class="st4" d="M57.2,136.6v-13.8H58v4.8c0,0.8-0.1,1.6-0.1,2.3c0.5-1,1.5-2.1,3.2-2.1c1.8,0,3.3,1.2,3.3,3.4v5.4h-0.8v-5.4
			c0-1.8-1.2-2.7-2.5-2.7c-1.4,0-3.1,1.3-3.1,3.9v4.2H57.2z"/>
		<path class="st4" d="M66.7,132.3c0-2.5,2-4.5,4.4-4.5c2.4,0,4.4,2,4.4,4.5s-2,4.5-4.4,4.5C68.7,136.9,66.7,134.8,66.7,132.3z
			 M74.7,132.3c0-2.1-1.6-3.8-3.6-3.8c-2,0-3.6,1.7-3.6,3.8s1.6,3.8,3.6,3.8C73.1,136.1,74.7,134.4,74.7,132.3z"/>
		<path class="st4" d="M77.9,140.9V128h0.7v1.9c0.6-1.1,2-2.1,3.6-2.1c2.4,0,4.4,2,4.4,4.5s-2,4.5-4.4,4.5c-1.6,0-3-1-3.6-2.1
			c0,0.7,0.1,1.4,0.1,2.3v3.9H77.9z M85.9,132.3c0-2.1-1.6-3.8-3.6-3.8c-2,0-3.6,1.7-3.6,3.8s1.6,3.8,3.6,3.8
			C84.3,136.1,85.9,134.4,85.9,132.3z"/>
	</g>
</g>
<g id="Group_397_00000048498611372978793640000007049542427344781186_">
	<g id="Group_377_00000008839958613289077260000004995036976439969453_" transform="translate(427.53 1671.564)">
		<g id="Group_370_00000141415146367219186020000011512368210336625578_">
			<g id="Group_366-2_00000180325451407594593380000014073549762129374348_">
				<g id="Group_362-2_00000170250596624330240870000014924883278283263929_" transform="translate(0 69.431)">
					<g id="Ellipse_3_00000065049281073071657670000000625186745381971373_">
						<circle class="st3" cx="-312.4" cy="-1660.3" r="6.4"/>
					</g>
					<g id="Path_614-2_00000093871150063536434430000000115508340936031619_">
						<path class="st6" d="M-312.4-1652.7c-4.2,0-7.6-3.4-7.6-7.6c0-4.2,3.4-7.6,7.6-7.6s7.6,3.4,7.6,7.6l0,0
							C-304.8-1656.1-308.2-1652.7-312.4-1652.7z M-312.4-1665.5c-2.9,0-5.2,2.3-5.2,5.2c0,2.9,2.3,5.2,5.2,5.2
							c2.9,0,5.2-2.3,5.2-5.2C-307.3-1663.2-309.6-1665.5-312.4-1665.5z"/>
					</g>
				</g>
				<g id="Group_363-2_00000018959959561905433690000010312962395300496266_" transform="translate(8.042 0)">
					<g id="Path_615-2_00000169554512361586445690000003666794246834635656_">
						<path class="st4" d="M-273.4-1670.2h-31.2c-8.5,0-15.4,6.9-15.4,15.4v73.9c0,8.5,6.9,15.4,15.4,15.4h44.5
							c8.5,0,15.4-6.9,15.4-15.4v-60.6L-273.4-1670.2z"/>
					</g>
					<g id="Path_616-2_00000027580924111563720580000016965995547133590177_">
						<path class="st2" d="M-260.1-1564.2h-44.5c-9.2,0-16.6-7.5-16.6-16.6v-73.9c0-9.2,7.5-16.6,16.6-16.6h31.2
							c0.3,0,0.6,0.1,0.9,0.4l28.7,28.7c0.2,0.2,0.4,0.5,0.4,0.9v60.6C-243.5-1571.7-251-1564.3-260.1-1564.2z M-304.6-1669
							c-7.8,0-14.2,6.4-14.2,14.2v73.9c0,7.8,6.4,14.2,14.2,14.2h44.5c7.8,0,14.2-6.4,14.2-14.2v-60.1l-28-28L-304.6-1669z"/>
					</g>
				</g>
				<g id="Group_364-2_00000056415388599864145160000001042703770388470917_" transform="translate(53.287 0)">
					<g id="Path_617-2_00000141431889879885395100000010020814434264044933_">
						<path class="st8" d="M-318.7-1670.2l28.7,28.7h-22.6c-3.4,0-6.1-2.7-6.1-6.1c0,0,0,0,0,0L-318.7-1670.2z"/>
					</g>
					<g id="Path_618-2_00000127003189811100214390000016179811331665682356_">
						<path class="st2" d="M-290-1640.3h-22.6c-4.1,0-7.3-3.3-7.3-7.3v-22.6c0-0.7,0.5-1.2,1.2-1.2c0.3,0,0.6,0.1,0.9,0.4l28.7,28.7
							c0.5,0.4,0.6,1.2,0.1,1.7C-289.3-1640.4-289.6-1640.3-290-1640.3L-290-1640.3z M-317.5-1667.3v19.6c0,2.7,2.2,4.9,4.9,4.9
							h19.6L-317.5-1667.3z"/>
					</g>
				</g>
				<g id="Group_365-2_00000160880497312309274300000011594777711895142838_" transform="translate(1.486 41.157)">
					<g id="Path_619-2_00000119112422786178981640000013814224967552391096_">
						<path class="st3" d="M-313.3-1669c-3.8,0-6.9,3.1-6.9,6.9v28.9h0.1c0.6-3.2,3.5-5.6,6.8-5.6h69.4v-30.2L-313.3-1669z"/>
					</g>
					<g id="Path_620-2_00000000216290720091797350000011184667411756650633_">
						<path class="st2" d="M-320.1-1632h-0.1c-0.7,0-1.2-0.5-1.2-1.2v-28.9c0-4.5,3.6-8.1,8.1-8.1h69.4c0.7,0,1.2,0.5,1.2,1.2
							c0,0,0,0,0,0v30.2c0,0.7-0.5,1.2-1.2,1.2h-69.4c-2.7,0-5,1.9-5.6,4.6C-319-1632.4-319.5-1632-320.1-1632z M-313.3-1667.8
							c-3.1,0-5.7,2.5-5.7,5.7v24.4c1.5-1.5,3.5-2.3,5.7-2.3h68.2v-27.7L-313.3-1667.8z"/>
					</g>
				</g>
			</g>
		</g>
		<g class="st5">
			<path class="st4" d="M-276.7-1605.8l-1.1-2.5h-6.4l-1.1,2.5h-2.3l6.6-13.9l6.6,13.9H-276.7z M-283.4-1610.1h4.7l-2.4-5.2
				L-283.4-1610.1z"/>
			<path class="st4" d="M-273.2-1605.8v-13.6h2v13.6H-273.2z"/>
		</g>
	</g>
	<g class="st5">
		<path class="st4" d="M113.6,140.6V127h0.8v13.6H113.6z"/>
		<path class="st4" d="M117.8,140.6v-14.2h0.8v14.2H117.8z"/>
		<path class="st4" d="M121.9,140.6v-14.2h0.8v14.2H121.9z"/>
		<path class="st4" d="M126.1,137.3v-5.5h0.8v5.5c0,1.8,1.2,2.8,2.5,2.8c1.4,0,3.2-1.3,3.2-4v-4.3h0.8v8.9h-0.7v-2
			c-0.5,1-1.6,2.2-3.3,2.2C127.6,140.8,126.1,139.5,126.1,137.3z"/>
		<path class="st4" d="M136,140.1v-0.9c0.9,0.5,2.1,0.9,3,0.9c1.3,0,2.1-0.7,2.1-1.6s-0.6-1.5-2.3-2c-2.1-0.6-2.9-1.4-2.9-2.7
			c0-1.4,1.2-2.3,2.9-2.3c1.1,0,2.1,0.3,2.7,0.6v0.9c-1-0.5-1.7-0.7-2.7-0.7c-1.3,0-2.1,0.5-2.1,1.5c0,0.9,0.6,1.4,2.3,1.9
			c2,0.6,2.9,1.4,2.9,2.8c0,1.4-1.2,2.4-3,2.4C137.8,140.9,136.6,140.4,136,140.1z"/>
		<path class="st4" d="M145.3,137.8v-5.3H143v-0.8h2.2v-2.1h0.8v2.1h3.1v0.8h-3.1v5.3c0,1.5,0.7,2.1,2,2.1c0.4,0,0.7-0.1,1-0.2v0.8
			c-0.3,0.1-0.7,0.1-1,0.1C146.4,140.7,145.3,139.9,145.3,137.8z"/>
		<path class="st4" d="M151.5,140.6v-8.9h0.7v2c0.4-1,1.4-2.2,3.1-2.2c0.5,0,0.8,0.1,1,0.1v0.8c-0.3-0.1-0.6-0.2-1.1-0.2
			c-1.9,0-3,1.9-3,4.4v3.9H151.5z"/>
		<path class="st4" d="M156.8,136.2c0-2.6,2.1-4.6,4.6-4.6c1.7,0,3.1,1,3.8,2.2v-2h0.7v8.9h-0.7v-2c-0.7,1.2-2.1,2.2-3.8,2.2
			C158.8,140.8,156.8,138.8,156.8,136.2z M165.1,136.2c0-2.1-1.7-3.9-3.7-3.9c-2.1,0-3.7,1.8-3.7,3.9c0,2.1,1.7,3.9,3.7,3.9
			C163.4,140.1,165.1,138.3,165.1,136.2z"/>
		<path class="st4" d="M169.9,137.8v-5.3h-2.2v-0.8h2.2v-2.1h0.8v2.1h3.1v0.8h-3.1v5.3c0,1.5,0.7,2.1,2,2.1c0.4,0,0.7-0.1,1-0.2v0.8
			c-0.3,0.1-0.7,0.1-1,0.1C171,140.7,169.9,139.9,169.9,137.8z"/>
		<path class="st4" d="M174.7,136.2c0-2.6,2.1-4.6,4.6-4.6c2.5,0,4.6,2.1,4.6,4.6s-2.1,4.6-4.6,4.6
			C176.7,140.8,174.7,138.8,174.7,136.2z M183,136.2c0-2.1-1.7-3.9-3.7-3.9c-2.1,0-3.7,1.8-3.7,3.9c0,2.1,1.7,3.9,3.7,3.9
			C181.3,140.1,183,138.3,183,136.2z"/>
		<path class="st4" d="M186.2,140.6v-8.9h0.7v2c0.4-1,1.4-2.2,3.1-2.2c0.5,0,0.8,0.1,1,0.1v0.8c-0.3-0.1-0.6-0.2-1.1-0.2
			c-1.9,0-3,1.9-3,4.4v3.9H186.2z"/>
	</g>
</g>
<g id="Group_398_00000143589039108392661370000015409644061366353065_">
	<g id="Group_376_00000034786078897985368250000008603975490061006773_" transform="translate(562.53 1671.564)">
		<g id="Group_371_00000149351457150258490090000015166526019499547060_">
			<g id="Group_366-3_00000163777971414386393950000010725988712408322725_">
				<g id="Group_362-3_00000114075530162002258760000014161079468069017735_" transform="translate(0 69.431)">
					<g id="Ellipse_3-2_00000029735447542483844080000002285562799494642353_">
						<circle class="st1" cx="-340.3" cy="-1662.8" r="6.2"/>
					</g>
					<g id="Path_614-3_00000093151300815582109200000009593588706422243714_">
						<path class="st6" d="M-340.3-1655.3c-4.1,0-7.4-3.3-7.4-7.4s3.3-7.4,7.4-7.4s7.4,3.3,7.4,7.4l0,0
							C-332.8-1658.7-336.2-1655.4-340.3-1655.3z M-340.3-1667.8c-2.8,0-5,2.3-5,5c0,2.8,2.3,5,5,5c2.8,0,5-2.3,5-5
							C-335.2-1665.5-337.5-1667.8-340.3-1667.8z"/>
					</g>
				</g>
				<g id="Group_363-3_00000088837603936915566440000010709571714267771784_" transform="translate(8.042 0)">
					<g id="Path_615-3_00000090267063387164785040000010294637529523467399_">
						<path class="st4" d="M-302.6-1670.4h-30.3c-8.3,0-15,6.7-15,15v71.8c0,8.3,6.7,15,15,15h43.2c8.3,0,15-6.7,15-15v-58.9
							L-302.6-1670.4z"/>
					</g>
					<g id="Path_616-3_00000112606507213410992850000016623829879624117414_">
						<path class="st2" d="M-289.7-1567.5h-43.2c-8.9,0-16.1-7.2-16.2-16.2v-71.8c0-8.9,7.2-16.1,16.2-16.2h30.3
							c0.3,0,0.6,0.1,0.8,0.3l27.9,27.9c0.2,0.2,0.3,0.5,0.3,0.8v58.9C-273.6-1574.7-280.8-1567.5-289.7-1567.5z M-332.9-1669.2
							c-7.6,0-13.8,6.2-13.8,13.8v71.8c0,7.6,6.2,13.8,13.8,13.8h43.2c7.6,0,13.8-6.2,13.8-13.8v-58.4l-27.2-27.2L-332.9-1669.2z"/>
					</g>
				</g>
				<g id="Group_364-3_00000036226080605738857010000015972714725760911017_" transform="translate(53.287 0)">
					<g id="Path_617-3_00000169538778197825613960000015153663012575343744_">
						<path class="st8" d="M-347.9-1670.4l27.9,27.9h-21.9c-3.3,0-5.9-2.7-5.9-5.9c0,0,0,0,0,0L-347.9-1670.4z"/>
					</g>
					<g id="Path_618-3_00000117668525676422803250000005179273615825268906_">
						<path class="st2" d="M-320-1641.3h-21.9c-3.9,0-7.1-3.2-7.1-7.1v-21.9c0-0.7,0.5-1.2,1.2-1.2c0.3,0,0.6,0.1,0.8,0.3l27.8,27.8
							c0.5,0.4,0.5,1.2,0.1,1.7C-319.3-1641.4-319.6-1641.3-320-1641.3L-320-1641.3z M-346.7-1667.5v19.1c0,2.6,2.1,4.8,4.8,4.8
							h19.1L-346.7-1667.5z"/>
					</g>
				</g>
				<g id="Group_365-3_00000147221508267709049470000015435408327447536313_" transform="translate(1.486 41.157)">
					<g id="Path_619-3_00000179618150958513363850000003443621509810220956_">
						<path class="st1" d="M-341.2-1670.4c-3.7,0-6.7,3-6.7,6.7v28h0.1c0.6-3.1,3.4-5.4,6.6-5.4h67.4v-29.3L-341.2-1670.4z"/>
					</g>
					<g id="Path_620-3_00000020361009200970710880000006576985641105476251_">
						<path class="st2" d="M-347.7-1634.5h-0.1c-0.7,0-1.2-0.5-1.2-1.2v-28c0-4.4,3.5-7.9,7.9-7.9h67.4c0.7,0,1.2,0.5,1.2,1.2
							c0,0,0,0,0,0v29.3c0,0.7-0.5,1.2-1.2,1.2h-67.4c-2.6,0-4.9,1.9-5.4,4.5C-346.7-1634.9-347.2-1634.5-347.7-1634.5z
							 M-341.2-1669.2c-3,0-5.5,2.5-5.5,5.5v23.7c1.5-1.4,3.4-2.2,5.5-2.2h66.2v-26.9L-341.2-1669.2z"/>
					</g>
				</g>
			</g>
		</g>
		<g class="st5">
			<path class="st4" d="M-328-1607.8v-13.2h2v13.2H-328z"/>
			<path class="st4" d="M-323.5-1607.8v-13.5l9.2,9.3c0-1.3,0-2.5,0-4v-5h1.9v13.5l-9.1-9.3c0,1.3,0,2.6,0,4v5H-323.5z"/>
			<path class="st4" d="M-309.9-1607.8v-13.2h4c4.6,0,7.2,3.1,7.2,6.6c0,3.5-2.6,6.6-7.2,6.6H-309.9z M-308-1609.6h2.1
				c3.4,0,5.1-2.3,5.1-4.8c0-2.5-1.7-4.8-5.1-4.8h-2.1V-1609.6z"/>
			<path class="st4" d="M-296.6-1607.8v-13.2h4c4.6,0,7.2,3.1,7.2,6.6c0,3.5-2.6,6.6-7.2,6.6H-296.6z M-294.7-1609.6h2.1
				c3.4,0,5.1-2.3,5.1-4.8c0-2.5-1.7-4.8-5.1-4.8h-2.1V-1609.6z"/>
		</g>
	</g>
	<g class="st5">
		<path class="st4" d="M227.3,136.4v-13.2h0.8v13.2H227.3z"/>
		<path class="st4" d="M231.4,136.4v-8.6h0.7v1.9c0.5-1,1.5-2.1,3.2-2.1c1.8,0,3.3,1.2,3.3,3.4v5.4h-0.8v-5.4c0-1.8-1.2-2.7-2.5-2.7
			c-1.4,0-3.1,1.3-3.1,3.9v4.2H231.4z"/>
		<path class="st4" d="M241.7,136.4v-13.2h3.6c5.1,0,7.1,3.5,7.1,6.6c0,3.1-1.9,6.6-7.1,6.6H241.7z M242.5,135.7h2.8
			c4.7,0,6.2-3.2,6.2-5.9c0-2.6-1.6-5.9-6.2-5.9h-2.8V135.7z"/>
		<path class="st4" d="M254.9,132v0.2c0,2,1.3,3.7,3.5,3.7c1.5,0,2.5-0.7,3.3-1.4v1c-0.3,0.3-1.5,1.2-3.4,1.2c-2.6,0-4.3-2-4.3-4.5
			c0-2.5,1.7-4.6,4.2-4.6c2.5,0,4,2,4,3.7c0,0.3,0,0.5,0,0.7H254.9z M255,131.2h6.5c0-1.4-1.3-2.9-3.2-2.9
			C256.7,128.4,255.4,129.5,255,131.2z"/>
		<path class="st4" d="M264.1,136v-0.9c0.9,0.5,2,0.9,3,0.9c1.3,0,2.1-0.6,2.1-1.6s-0.6-1.5-2.2-2c-2-0.6-2.8-1.3-2.8-2.6
			c0-1.4,1.1-2.2,2.8-2.2c1.1,0,2,0.3,2.6,0.5v0.9c-0.9-0.5-1.7-0.7-2.6-0.7c-1.2,0-2,0.5-2,1.5c0,0.9,0.6,1.4,2.2,1.9
			c2,0.6,2.8,1.3,2.8,2.7c0,1.4-1.1,2.3-2.9,2.3C265.8,136.7,264.7,136.2,264.1,136z"/>
		<path class="st4" d="M272.1,124.9c0-0.4,0.3-0.7,0.7-0.7c0.4,0,0.8,0.3,0.8,0.7c0,0.4-0.3,0.7-0.8,0.7
			C272.5,125.7,272.1,125.3,272.1,124.9z M272.5,136.4v-8.6h0.8v8.6H272.5z"/>
		<path class="st4" d="M276.4,139.6v-1c0.8,0.8,2,1.5,3.6,1.5s3.7-0.8,3.7-3.9l0-1.7c-0.6,1.1-2,2.1-3.7,2.1c-2.4,0-4.4-2-4.4-4.5
			s2-4.5,4.4-4.5c1.6,0,3,1.1,3.7,2.1v-1.9h0.7v8.3c0,4-2.9,4.8-4.5,4.8C278.5,140.9,277.1,140.1,276.4,139.6z M283.8,132.1
			c0-2.1-1.6-3.8-3.6-3.8c-2,0-3.6,1.7-3.6,3.8s1.6,3.8,3.6,3.8C282.1,135.9,283.8,134.2,283.8,132.1z"/>
		<path class="st4" d="M287.7,136.4v-8.6h0.7v1.9c0.5-1,1.5-2.1,3.2-2.1c1.8,0,3.3,1.2,3.3,3.4v5.4h-0.8v-5.4c0-1.8-1.2-2.7-2.5-2.7
			c-1.4,0-3.1,1.3-3.1,3.9v4.2H287.7z"/>
	</g>
</g>
<g id="Group_399_00000048485082483269048010000014767347048080617120_">
	<g id="Group_375_00000011741928513892697650000016462862676593220738_" transform="translate(698.53 1671.564)">
		<g id="Group_372_00000016780193139531117140000013071136841703038863_">
			<g id="Group_366-4_00000021814910520524938330000001069859767773546640_">
				<g id="Group_362-4_00000010285915551390822710000011324038708079025557_" transform="translate(0 69.431)">
					<g id="Ellipse_3-3_00000096768698084675383200000012925671742247825286_">
						<circle class="st6" cx="-370.9" cy="-1659.9" r="6.4"/>
					</g>
					<g id="Path_614-4_00000039097452187962775200000000256083374513730747_">
						<path class="st6" d="M-370.9-1652.4c-4.2,0-7.6-3.4-7.6-7.6c0-4.2,3.4-7.6,7.6-7.6s7.6,3.4,7.6,7.6l0,0
							C-363.3-1655.8-366.7-1652.4-370.9-1652.4z M-370.9-1665.1c-2.8,0-5.2,2.3-5.2,5.2c0,2.8,2.3,5.2,5.2,5.2
							c2.8,0,5.2-2.3,5.2-5.2C-365.8-1662.8-368.1-1665.1-370.9-1665.1z"/>
					</g>
				</g>
				<g id="Group_363-4_00000080186907652986154310000009028102847194188701_" transform="translate(8.042 0)">
					<g id="Path_615-4_00000182526849762526821330000016321149727349482393_">
						<path class="st4" d="M-332.2-1669.4h-31c-8.5,0-15.3,6.9-15.3,15.3v73.5c0,8.5,6.9,15.3,15.3,15.3h44.2
							c8.5,0,15.3-6.9,15.3-15.3v-60.3L-332.2-1669.4z"/>
					</g>
					<g id="Path_616-4_00000049909769417543254710000015321157010218670227_">
						<path class="st2" d="M-318.9-1564h-44.2c-9.1,0-16.5-7.4-16.5-16.5v-73.5c0-9.1,7.4-16.5,16.5-16.5h31c0.3,0,0.6,0.1,0.9,0.4
							l28.6,28.6c0.2,0.2,0.4,0.5,0.4,0.9v60.3C-302.4-1571.4-309.8-1564-318.9-1564z M-363.2-1668.2c-7.8,0-14.1,6.3-14.1,14.1
							v73.5c0,7.8,6.3,14.1,14.1,14.1h44.2c7.8,0,14.1-6.3,14.1-14.1v-59.8l-27.8-27.8L-363.2-1668.2z"/>
					</g>
				</g>
				<g id="Group_364-4_00000028305241874268586170000002470525125585704113_" transform="translate(53.287 0)">
					<g id="Path_617-4_00000137846775063500566050000017593268277335773591_">
						<path class="st8" d="M-377.4-1669.4l28.6,28.6h-22.5c-3.4,0-6.1-2.7-6.1-6.1c0,0,0,0,0,0L-377.4-1669.4z"/>
					</g>
					<g id="Path_618-4_00000107576709356857772070000003253105924805349264_">
						<path class="st2" d="M-348.9-1639.6h-22.5c-4,0-7.3-3.3-7.3-7.3v-22.5c0-0.7,0.5-1.2,1.2-1.2c0.3,0,0.6,0.1,0.9,0.4l28.5,28.5
							c0.5,0.4,0.6,1.2,0.1,1.7C-348.2-1639.8-348.5-1639.6-348.9-1639.6L-348.9-1639.6z M-376.2-1666.5v19.5c0,2.7,2.2,4.9,4.9,4.9
							h19.5L-376.2-1666.5z"/>
					</g>
				</g>
				<g id="Group_365-4_00000016793580587655233470000016192670221933959072_" transform="translate(1.486 41.157)">
					<g id="Path_619-4_00000094606645943800487850000017232292610304195753_">
						<path class="st6" d="M-371.8-1668.4c-3.8,0-6.9,3.1-6.9,6.9v28.7h0.1c0.6-3.2,3.4-5.5,6.7-5.5h69v-30L-371.8-1668.4z"/>
					</g>
					<g id="Path_620-4_00000015326273994772225210000015602942728100939664_">
						<path class="st4" d="M-378.6-1631.6h-0.1c-0.7,0-1.2-0.5-1.2-1.2v-28.7c0-4.5,3.6-8.1,8.1-8.1h69c0.7,0,1.2,0.5,1.2,1.2
							c0,0,0,0,0,0v30c0,0.7-0.5,1.2-1.2,1.2h-69c-2.7,0-5,1.9-5.5,4.6C-377.5-1632.1-378-1631.6-378.6-1631.6z M-371.8-1667.2
							c-3.1,0-5.6,2.5-5.6,5.6v24.2c1.5-1.5,3.5-2.3,5.6-2.3h67.8v-27.6L-371.8-1667.2z"/>
					</g>
				</g>
			</g>
		</g>
		<g class="st5">
			<path class="st4" d="M-338-1605.3h-2.4l-3.7-5.5l-3.6,5.5h-2.4l4.9-7.2l-4.3-6.3h2.4l3.2,4.8l3.1-4.8h2.4l-4.3,6.5L-338-1605.3z"
				/>
			<path class="st4" d="M-336.7-1605.3v-13.5h4.1c4.7,0,7.3,3.2,7.3,6.8c0,3.6-2.6,6.8-7.3,6.8H-336.7z M-334.6-1607.2h2.1
				c3.5,0,5.2-2.3,5.2-4.9c0-2.6-1.7-4.9-5.2-4.9h-2.1V-1607.2z"/>
		</g>
	</g>
	<g class="st5">
		<path class="st4" d="M365.4,140.7h-1l-4.6-6.6l-4.6,6.6h-1l5.1-7.2l-4.5-6.3h1l4,5.7l4-5.7h1l-4.5,6.3L365.4,140.7z"/>
		<path class="st4" d="M365.6,136.3c0-2.6,2-4.6,4.5-4.6c1.7,0,3.1,1,3.7,2.2c0-0.7-0.1-1.5-0.1-2.3v-4.9h0.8v14.1h-0.7v-2
			c-0.7,1.1-2.1,2.2-3.7,2.2C367.6,140.9,365.6,138.8,365.6,136.3z M373.9,136.3c0-2.1-1.7-3.9-3.7-3.9c-2.1,0-3.7,1.8-3.7,3.9
			s1.7,3.9,3.7,3.9C372.2,140.1,373.9,138.4,373.9,136.3z"/>
	</g>
</g>
<g id="Group_400_00000121993852085740429380000004076409833413170317_">
	<g id="Group_374_00000074406795648177285940000000650270824929191563_" transform="translate(833.53 1671.595)">
		<g id="Group_373_00000151525686213198251000000016240507239179036850_">
			<g id="Group_366-5_00000010289944632434152700000002068363144307126166_">
				<g id="Group_362-5_00000173141456937523936550000015930131375060016290_" transform="translate(0 69.431)">
					<g id="Ellipse_3-4_00000171708909960179460790000010790697905025960068_">
						<circle class="st7" cx="-399.8" cy="-1659" r="6.3"/>
					</g>
					<g id="Path_614-5_00000159463535511876891440000001933470454986663308_">
						<path class="st6" d="M-399.8-1651.4c-4.2,0-7.6-3.4-7.6-7.6s3.4-7.6,7.6-7.6s7.6,3.4,7.6,7.6l0,0
							C-392.3-1654.8-395.6-1651.4-399.8-1651.4z M-399.8-1664.1c-2.8,0-5.1,2.3-5.1,5.1c0,2.8,2.3,5.1,5.1,5.1
							c2.8,0,5.1-2.3,5.1-5.1C-394.7-1661.8-397-1664.1-399.8-1664.1z"/>
					</g>
				</g>
				<g id="Group_363-5_00000088130083627926781250000015123828298953394560_" transform="translate(8.042 0)">
					<g id="Path_615-5_00000121971417404237890310000011719715862270351551_">
						<path class="st4" d="M-361.3-1668.1h-30.9c-8.4,0-15.3,6.8-15.3,15.3v73.2c0,8.4,6.8,15.3,15.3,15.3h44.1
							c8.4,0,15.3-6.8,15.3-15.3v-60L-361.3-1668.1z"/>
					</g>
					<g id="Path_616-5_00000163763263542720570570000004584113386530445708_">
						<path class="st2" d="M-348.1-1563.2h-44.1c-9.1,0-16.5-7.4-16.5-16.5v-73.2c0-9.1,7.4-16.5,16.5-16.5h30.9
							c0.3,0,0.6,0.1,0.9,0.4l28.4,28.4c0.2,0.2,0.4,0.5,0.4,0.9v60C-331.6-1570.5-339-1563.2-348.1-1563.2z M-392.1-1666.9
							c-7.8,0-14,6.3-14.1,14.1v73.2c0,7.8,6.3,14,14.1,14.1h44.1c7.8,0,14-6.3,14.1-14.1v-59.5l-27.7-27.7H-392.1z"/>
					</g>
				</g>
				<g id="Group_364-5_00000125563703611585873970000013396576453487304625_" transform="translate(53.287 0)">
					<g id="Path_617-5_00000016773548988397277100000006042115374648941440_">
						<path class="st8" d="M-406.5-1668.1l28.4,28.4h-22.4c-3.3,0-6.1-2.7-6.1-6.1c0,0,0,0,0,0L-406.5-1668.1z"/>
					</g>
					<g id="Path_618-5_00000172421657963810596380000004359062541944367259_">
						<path class="st2" d="M-378.1-1638.5h-22.4c-4,0-7.3-3.3-7.3-7.3v-22.4c0-0.7,0.5-1.2,1.2-1.2c0.3,0,0.6,0.1,0.9,0.4l28.4,28.4
							c0.5,0.4,0.6,1.2,0.1,1.7C-377.4-1638.6-377.7-1638.5-378.1-1638.5L-378.1-1638.5z M-405.3-1665.2v19.4c0,2.7,2.2,4.9,4.9,4.9
							h19.4L-405.3-1665.2z"/>
					</g>
				</g>
				<g id="Group_365-5_00000019662633710200683070000014781681809104944773_" transform="translate(1.486 41.157)">
					<g id="Path_619-5_00000181053859846468145870000013058432814256288172_">
						<path class="st7" d="M-400.7-1667.3c-3.8,0-6.8,3.1-6.8,6.8v28.6h0.1c0.6-3.2,3.4-5.5,6.7-5.5h68.7v-29.9L-400.7-1667.3z"/>
					</g>
					<g id="Path_620-5_00000183937022426778907760000012506997056604877215_">
						<path class="st2" d="M-407.4-1630.7h-0.1c-0.7,0-1.2-0.5-1.2-1.2v-28.6c0-4.4,3.6-8,8-8h68.7c0.7,0,1.2,0.5,1.2,1.2
							c0,0,0,0,0,0v29.9c0,0.7-0.5,1.2-1.2,1.2h-68.7c-2.7,0-5,1.9-5.5,4.5C-406.3-1631.1-406.8-1630.7-407.4-1630.7z
							 M-400.7-1666.1c-3.1,0-5.6,2.5-5.6,5.6v24.1c1.5-1.5,3.5-2.3,5.6-2.3h67.5v-27.5L-400.7-1666.1z"/>
					</g>
				</g>
			</g>
		</g>
		<g class="st5">
			<path class="st4" d="M-399.9-1604.3v-13.5h4c3.1,0,5,1.9,5,4.3c0,2.4-1.9,4.3-5,4.3h-2v4.9H-399.9z M-397.8-1611h2
				c1.9,0,2.9-1.1,2.9-2.4c0-1.3-0.9-2.4-2.9-2.4h-2V-1611z"/>
			<path class="st4" d="M-378.9-1604.3h-2.6l-4.3-5.1h-1v5.1h-2v-13.5h3.8c3,0,4.9,1.8,4.9,4.2c0,1.9-1.3,3.5-3.4,4L-378.9-1604.3z
				 M-386.8-1615.9v4.8h1.8c1.8,0,2.8-1.1,2.8-2.4c0-1.3-1-2.4-2.8-2.4H-386.8z"/>
			<path class="st4" d="M-377.6-1604.3v-13.5h4c3.1,0,5,1.9,5,4.3c0,2.4-1.9,4.3-5,4.3h-2v4.9H-377.6z M-375.6-1611h2
				c1.9,0,2.9-1.1,2.9-2.4c0-1.3-0.9-2.4-2.9-2.4h-2V-1611z"/>
			<path class="st4" d="M-356.6-1604.3h-2.6l-4.3-5.1h-1v5.1h-2v-13.5h3.8c3,0,4.9,1.8,4.9,4.2c0,1.9-1.3,3.5-3.4,4L-356.6-1604.3z
				 M-364.5-1615.9v4.8h1.8c1.8,0,2.8-1.1,2.8-2.4c0-1.3-1-2.4-2.8-2.4H-364.5z"/>
			<path class="st4" d="M-356.2-1611c0-3.9,3.2-7,7-7c3.9,0,7.1,3.1,7.1,7c0,3.9-3.2,7-7.1,7C-353-1604-356.2-1607.1-356.2-1611z
				 M-344.2-1611c0-2.9-2.2-5.1-5-5.1c-2.8,0-4.9,2.2-4.9,5.1c0,2.9,2.1,5.1,4.9,5.1C-346.4-1605.9-344.2-1608.1-344.2-1611z"/>
			<path class="st4" d="M-341.7-1604.9v-2.3c0.6,0.5,1.4,1.1,2.3,1.1c1,0,1.7-0.7,1.7-1.8v-9.8h2v9.8c0,2.3-1.5,3.8-3.6,3.8
				C-340.4-1604.1-341.3-1604.6-341.7-1604.9z"/>
		</g>
	</g>
	<g class="st5">
		<path class="st4" d="M425.9,140.7v-11.6h3.2c2.5,0,4,1.6,4,3.5c0,1.9-1.6,3.5-4,3.5h-2.5v4.7H425.9z M426.6,135.3h2.5
			c2.1,0,3.3-1.3,3.3-2.8c0-1.5-1.2-2.8-3.3-2.8h-2.5V135.3z"/>
		<path class="st4" d="M434.8,140.7v-7.6h0.6v1.7c0.4-0.9,1.2-1.9,2.7-1.9c0.4,0,0.7,0.1,0.9,0.1v0.7c-0.2-0.1-0.5-0.2-0.9-0.2
			c-1.6,0-2.6,1.6-2.6,3.8v3.3H434.8z"/>
		<path class="st4" d="M440.1,136.8v0.2c0,1.8,1.2,3.3,3.1,3.3c1.3,0,2.2-0.6,2.9-1.2v0.8c-0.3,0.2-1.3,1-3,1
			c-2.3,0-3.8-1.8-3.8-3.9c0-2.2,1.5-4,3.7-4c2.2,0,3.5,1.8,3.5,3.2c0,0.2,0,0.4,0,0.6H440.1z M440.2,136.1h5.7
			c0-1.3-1.2-2.5-2.8-2.5C441.7,133.6,440.5,134.6,440.2,136.1z"/>
		<path class="st4" d="M448.7,140.7v-7.6h0.6v1.7c0.4-0.9,1.4-1.8,2.8-1.8c1.6,0,2.2,1.1,2.5,1.7c0.2-0.5,0.9-1.7,2.8-1.7
			c1.9,0,3,1.3,3,3.3v4.5h-0.7v-4.5c0-1.6-0.7-2.7-2.3-2.7c-1.6,0-2.5,1.1-2.5,2.7v4.4h-0.7v-4.5c0-1.3-0.6-2.7-2.1-2.7
			c-1.5,0-2.8,1.6-2.8,3.4v3.7H448.7z"/>
		<path class="st4" d="M462.9,130.6c0-0.3,0.3-0.6,0.6-0.6c0.4,0,0.7,0.3,0.7,0.6c0,0.4-0.3,0.6-0.7,0.6
			C463.2,131.2,462.9,130.9,462.9,130.6z M463.2,140.7v-7.6h0.7v7.6H463.2z"/>
		<path class="st4" d="M466.7,136.8v0.2c0,1.8,1.2,3.3,3.1,3.3c1.3,0,2.2-0.6,2.9-1.2v0.8c-0.3,0.2-1.3,1-3,1
			c-2.3,0-3.8-1.8-3.8-3.9c0-2.2,1.5-4,3.7-4c2.2,0,3.5,1.8,3.5,3.2c0,0.2,0,0.4,0,0.6H466.7z M466.8,136.1h5.7
			c0-1.3-1.2-2.5-2.8-2.5C468.3,133.6,467.1,134.6,466.8,136.1z"/>
		<path class="st4" d="M475.4,140.7v-7.6h0.6v1.7c0.4-0.9,1.2-1.9,2.7-1.9c0.4,0,0.7,0.1,0.9,0.1v0.7c-0.2-0.1-0.5-0.2-0.9-0.2
			c-1.6,0-2.6,1.6-2.6,3.8v3.3H475.4z"/>
		<path class="st4" d="M480.6,136.8v0.2c0,1.8,1.2,3.3,3.1,3.3c1.3,0,2.2-0.6,2.9-1.2v0.8c-0.3,0.2-1.3,1-3,1
			c-2.3,0-3.8-1.8-3.8-3.9c0-2.2,1.5-4,3.7-4c2.2,0,3.5,1.8,3.5,3.2c0,0.2,0,0.4,0,0.6H480.6z M480.7,136.1h5.7
			c0-1.3-1.2-2.5-2.8-2.5C482.2,133.6,481,134.6,480.7,136.1z"/>
		<path class="st4" d="M489.3,140.7v-11.6h3.2c2.5,0,4,1.6,4,3.5c0,1.9-1.6,3.5-4,3.5H490v4.7H489.3z M490,135.3h2.5
			c2.1,0,3.3-1.3,3.3-2.8c0-1.5-1.2-2.8-3.3-2.8H490V135.3z"/>
		<path class="st4" d="M498.2,140.7v-7.6h0.6v1.7c0.4-0.9,1.2-1.9,2.7-1.9c0.4,0,0.7,0.1,0.9,0.1v0.7c-0.2-0.1-0.5-0.2-0.9-0.2
			c-1.6,0-2.6,1.6-2.6,3.8v3.3H498.2z"/>
		<path class="st4" d="M502.8,136.9c0-2.2,1.8-4,3.9-4c2.1,0,3.9,1.8,3.9,4s-1.8,4-3.9,4C504.5,140.9,502.8,139.1,502.8,136.9z
			 M509.9,136.9c0-1.8-1.4-3.3-3.2-3.3c-1.8,0-3.2,1.5-3.2,3.3s1.4,3.3,3.2,3.3C508.4,140.2,509.9,138.7,509.9,136.9z"/>
	</g>
</g>
<g id="Group_401_00000060018239704449840180000017530131398978965151_">
	<g id="Group_378_00000129916087085921657680000007326140306256994722_" transform="translate(969.53 1671.564)">
		<g id="Group_370-2_00000104665624161214750510000014694208118949636770_">
			<g id="Group_366-6_00000082366356924779950900000007859911805370126222_">
				<g id="Group_362-6_00000124133042717637131690000004972242757981267598_" transform="translate(0 69.431)">
					<g id="Ellipse_3-5_00000065073091650071692620000013689825830267074489_">
						<circle class="st3" cx="-428.8" cy="-1658.7" r="6.2"/>
					</g>
					<g id="Path_614-6_00000072984159319684373440000010790912617496469161_">
						<path class="st6" d="M-428.8-1651.3c-4.1,0-7.4-3.3-7.4-7.4s3.3-7.4,7.4-7.4s7.4,3.3,7.4,7.4l0,0
							C-421.4-1654.6-424.7-1651.3-428.8-1651.3z M-428.8-1663.8c-2.8,0-5,2.3-5,5c0,2.8,2.3,5,5,5c2.8,0,5-2.3,5-5
							C-423.8-1661.5-426-1663.8-428.8-1663.8z"/>
					</g>
				</g>
				<g id="Group_363-6_00000152964114618509924230000016609604054436336560_" transform="translate(8.042 0)">
					<g id="Path_615-6_00000097468585904849988780000011989899320273376399_">
						<path class="st4" d="M-391.2-1666.3h-30.3c-8.3,0-15,6.7-15,15v71.8c0,8.3,6.7,15,15,15h43.2c8.3,0,15-6.7,15-15v-58.9
							L-391.2-1666.3z"/>
					</g>
					<g id="Path_616-6_00000037677887872415378720000003702409697682544822_">
						<path class="st2" d="M-378.3-1563.4h-43.2c-8.9,0-16.1-7.2-16.2-16.2v-71.8c0-8.9,7.2-16.1,16.2-16.2h30.3
							c0.3,0,0.6,0.1,0.8,0.3l27.9,27.9c0.2,0.2,0.3,0.5,0.3,0.8v58.9C-362.1-1570.7-369.3-1563.4-378.3-1563.4z M-421.5-1665.2
							c-7.6,0-13.8,6.2-13.8,13.8v71.8c0,7.6,6.2,13.8,13.8,13.8h43.2c7.6,0,13.8-6.2,13.8-13.8v-58.4l-27.2-27.2L-421.5-1665.2z"/>
					</g>
				</g>
				<g id="Group_364-6_00000064331419292848259240000008097267240786115225_" transform="translate(53.287 0)">
					<g id="Path_617-6_00000159435268631322175600000013348514585335134861_">
						<path class="st8" d="M-436.4-1666.3l27.9,27.9h-21.9c-3.3,0-5.9-2.7-5.9-5.9c0,0,0,0,0,0L-436.4-1666.3z"/>
					</g>
					<g id="Path_618-6_00000164514212193040069710000004295403516312067000_">
						<path class="st2" d="M-408.5-1637.3h-21.9c-3.9,0-7.1-3.2-7.1-7.1v-21.9c0-0.7,0.5-1.2,1.2-1.2c0.3,0,0.6,0.1,0.8,0.3
							l27.8,27.8c0.5,0.4,0.5,1.2,0.1,1.7C-407.9-1637.4-408.2-1637.3-408.5-1637.3L-408.5-1637.3z M-435.2-1663.5v19.1
							c0,2.6,2.1,4.8,4.8,4.8h19.1L-435.2-1663.5z"/>
					</g>
				</g>
				<g id="Group_365-6_00000116915873005663941290000004048523117742498204_" transform="translate(1.486 41.157)">
					<g id="Path_619-6_00000124864929688328734190000008140629188548206269_">
						<path class="st3" d="M-429.7-1666.3c-3.7,0-6.7,3-6.7,6.7v28h0.1c0.6-3.1,3.4-5.4,6.6-5.4h67.4v-29.3L-429.7-1666.3z"/>
					</g>
					<g id="Path_620-6_00000072266950432930467800000013226161761479912099_">
						<path class="st2" d="M-436.3-1630.4h-0.1c-0.7,0-1.2-0.5-1.2-1.2v-28c0-4.4,3.5-7.9,7.9-7.9h67.4c0.7,0,1.2,0.5,1.2,1.2
							c0,0,0,0,0,0v29.3c0,0.7-0.5,1.2-1.2,1.2h-67.4c-2.6,0-4.9,1.9-5.4,4.5C-435.2-1630.8-435.7-1630.4-436.3-1630.4z
							 M-429.7-1665.1c-3,0-5.5,2.5-5.5,5.5v23.7c1.5-1.4,3.4-2.2,5.5-2.2h66.2v-26.9L-429.7-1665.1z"/>
					</g>
				</g>
			</g>
		</g>
		<g class="st5">
			<path class="st4" d="M-418.3-1603.7v-13.2h2v5.6h6.5v-5.6h2v13.2h-2v-5.8h-6.5v5.8H-418.3z"/>
			<path class="st4" d="M-402.5-1603.7v-11.3h-3.8v-1.8h9.6v1.8h-3.8v11.3H-402.5z"/>
			<path class="st4" d="M-396.8-1603.7l2.1-13.5l5.2,9.9l5.2-9.9l2.1,13.5h-2.1l-1.1-7.6l-4.1,7.9l-4.1-7.9l-1.2,7.6H-396.8z"/>
			<path class="st4" d="M-380.2-1603.7v-13.2h2v11.3h5.4v1.8H-380.2z"/>
		</g>
	</g>
	<g class="st5">
		<path class="st4" d="M558.6,140.5v-13.2h0.8v6.1h8.2v-6.1h0.8v13.2h-0.8v-6.4h-8.2v6.4H558.6z"/>
		<path class="st4" d="M574.4,140.5V128h-4.2v-0.7h9.3v0.7h-4.2v12.5H574.4z"/>
		<path class="st4" d="M579.9,140.5l1.4-13.6l5.6,12.3l5.6-12.3l1.4,13.6h-0.8l-1-10.9l-5.1,11.3l-5.2-11.3l-1,10.9H579.9z"/>
		<path class="st4" d="M596.6,140.5v-13.2h0.8v12.5h6.1v0.7H596.6z"/>
	</g>
</g>
<g id="Group_402_00000141434379218777466770000010431676353965185964_">
	<g id="Group_379_00000140704847839319355410000013393951576171328176_" transform="translate(1104.53 1671.564)">
		<g id="Group_370-3_00000132074269429798123260000011127929195377059483_">
			<g id="Group_366-7_00000052074577969821862020000012542846187020251839_">
				<g id="Group_362-7_00000152958285074012803940000003643614366265039780_" transform="translate(0 69.431)">
					<g id="Ellipse_3-6_00000063624078871284474450000014090763065745771434_">
						<circle class="st1" cx="-457.7" cy="-1658.6" r="6.2"/>
					</g>
					<g id="Path_614-7_00000135678844610180149440000003872606862925376897_">
						<path class="st6" d="M-457.7-1651.2c-4.1,0-7.4-3.3-7.4-7.4s3.3-7.4,7.4-7.4s7.4,3.3,7.4,7.4l0,0
							C-450.2-1654.5-453.6-1651.2-457.7-1651.2z M-457.7-1663.6c-2.8,0-5,2.3-5,5c0,2.8,2.3,5,5,5c2.8,0,5-2.3,5-5
							C-452.6-1661.4-454.9-1663.6-457.7-1663.6z"/>
					</g>
				</g>
				<g id="Group_363-7_00000175280188214829181960000008181164524830549922_" transform="translate(8.042 0)">
					<g id="Path_615-7_00000127032752614925953780000007164151454958410912_">
						<path class="st4" d="M-420-1666.2h-30.3c-8.3,0-15,6.7-15,15v71.8c0,8.3,6.7,15,15,15h43.2c8.3,0,15-6.7,15-15v-58.9
							L-420-1666.2z"/>
					</g>
					<g id="Path_616-7_00000057832113441356329130000016802212712431301798_">
						<path class="st2" d="M-407.1-1563.3h-43.2c-8.9,0-16.1-7.2-16.2-16.2v-71.8c0-8.9,7.2-16.1,16.2-16.2h30.3
							c0.3,0,0.6,0.1,0.8,0.3l27.9,27.9c0.2,0.2,0.3,0.5,0.3,0.8v58.9C-391-1570.5-398.2-1563.3-407.1-1563.3z M-450.3-1665
							c-7.6,0-13.8,6.2-13.8,13.8v71.8c0,7.6,6.2,13.8,13.8,13.8h43.2c7.6,0,13.8-6.2,13.8-13.8v-58.4l-27.2-27.2L-450.3-1665z"/>
					</g>
				</g>
				<g id="Group_364-7_00000067938112886176120190000001564280343149356183_" transform="translate(53.287 0)">
					<g id="Path_617-7_00000121274219099479672370000017524044874790744246_">
						<path class="st8" d="M-465.3-1666.2l27.9,27.9h-21.9c-3.3,0-5.9-2.7-5.9-5.9c0,0,0,0,0,0L-465.3-1666.2z"/>
					</g>
					<g id="Path_618-7_00000053535168233506447950000018404573399696093109_">
						<path class="st2" d="M-437.4-1637.1h-21.9c-3.9,0-7.1-3.2-7.1-7.1v-21.9c0-0.7,0.5-1.2,1.2-1.2c0.3,0,0.6,0.1,0.8,0.3
							l27.8,27.8c0.5,0.4,0.5,1.2,0.1,1.7C-436.7-1637.3-437-1637.1-437.4-1637.1L-437.4-1637.1z M-464.1-1663.3v19.1
							c0,2.6,2.1,4.8,4.8,4.8h19.1L-464.1-1663.3z"/>
					</g>
				</g>
				<g id="Group_365-7_00000103962906870233347070000000499866548661531276_" transform="translate(1.486 41.157)">
					<g id="Path_619-7_00000134221455384374106600000010324326660590203318_">
						<path class="st1" d="M-458.6-1666.2c-3.7,0-6.7,3-6.7,6.7v28h0.1c0.6-3.1,3.4-5.4,6.6-5.4h67.4v-29.3L-458.6-1666.2z"/>
					</g>
					<g id="Path_620-7_00000035501449361128868690000009729128815532081815_">
						<path class="st2" d="M-465.1-1630.3h-0.1c-0.7,0-1.2-0.5-1.2-1.2v-28c0-4.4,3.5-7.9,7.9-7.9h67.4c0.7,0,1.2,0.5,1.2,1.2
							c0,0,0,0,0,0v29.3c0,0.7-0.5,1.2-1.2,1.2h-67.4c-2.6,0-4.9,1.9-5.4,4.5C-464.1-1630.7-464.6-1630.3-465.1-1630.3z
							 M-458.6-1665c-3,0-5.5,2.5-5.5,5.5v23.7c1.5-1.4,3.4-2.2,5.5-2.2h66.2v-26.9L-458.6-1665z"/>
					</g>
				</g>
			</g>
		</g>
		<g class="st5">
			<path class="st4" d="M-440.5-1610.2c0-3.9,3.1-6.8,7.1-6.8c1.9,0,3.4,0.6,4.3,1.2v2.3c-1-1-2.7-1.7-4.3-1.7c-2.9,0-5,2.2-5,5
				s2.1,5,5,5c1.6,0,3.2-0.7,4.3-1.7v2.3c-0.9,0.6-2.4,1.2-4.3,1.2C-437.4-1603.4-440.5-1606.3-440.5-1610.2z"/>
			<path class="st4" d="M-427.5-1604.6v-2.2c1.2,0.8,2.6,1.6,4.3,1.6c1.4,0,2.3-0.8,2.3-2c0-1.3-0.8-1.7-2.6-2.3
				c-1.8-0.6-3.8-1.5-3.8-4.1c0-2.4,2.1-3.5,4.2-3.5c1.8,0,3.1,0.5,3.9,0.8v2.2c-1.3-0.8-2.6-1.2-3.9-1.2c-1.2,0-2.1,0.6-2.1,1.7
				c0,1.2,0.8,1.7,2.6,2.3c1.8,0.6,3.9,1.4,3.9,4.1c0,2.4-2.2,3.8-4.4,3.8C-425.1-1603.4-426.6-1604-427.5-1604.6z"/>
			<path class="st4" d="M-417.7-1604.6v-2.2c1.2,0.8,2.6,1.6,4.3,1.6c1.4,0,2.3-0.8,2.3-2c0-1.3-0.8-1.7-2.6-2.3
				c-1.8-0.6-3.8-1.5-3.8-4.1c0-2.4,2.1-3.5,4.2-3.5c1.8,0,3.1,0.5,3.9,0.8v2.2c-1.3-0.8-2.6-1.2-3.9-1.2c-1.2,0-2.1,0.6-2.1,1.7
				c0,1.2,0.8,1.7,2.6,2.3c1.8,0.6,3.9,1.4,3.9,4.1c0,2.4-2.2,3.8-4.4,3.8C-415.2-1603.4-416.7-1604-417.7-1604.6z"/>
		</g>
	</g>
	<g class="st5">
		<path class="st4" d="M669.3,134c0-3.8,3.1-6.9,6.8-6.9c1.5,0,3,0.5,4.2,1.4v1.1c-1.1-1.1-2.6-1.8-4.2-1.8c-3.3,0-6,2.8-6,6.1
			s2.7,6.1,6,6.1c1.6,0,3.1-0.7,4.2-1.8v1.1c-1.2,0.9-2.7,1.4-4.2,1.4C672.4,140.9,669.3,137.8,669.3,134z"/>
		<path class="st4" d="M682.1,139.4v-1.1c0.9,0.9,2.3,1.8,4,1.8c1.8,0,3.3-1.1,3.3-2.9c0-1.9-1.5-2.6-3.4-3.2
			c-1.9-0.6-3.7-1.5-3.7-3.7c0-2.1,1.9-3.2,3.8-3.2c1.8,0,2.9,0.7,3.6,1.2v1c-0.9-0.9-2-1.5-3.6-1.5c-1.5,0-3,0.8-3,2.5
			c0,1.7,1.4,2.3,3.2,3s3.9,1.5,3.9,3.9c0,2.3-2.1,3.6-4.1,3.6C684.2,140.9,682.8,140,682.1,139.4z"/>
		<path class="st4" d="M691.8,139.4v-1.1c0.9,0.9,2.3,1.8,4,1.8c1.8,0,3.3-1.1,3.3-2.9c0-1.9-1.5-2.6-3.4-3.2
			c-1.9-0.6-3.7-1.5-3.7-3.7c0-2.1,1.9-3.2,3.8-3.2c1.8,0,2.9,0.7,3.6,1.2v1c-0.9-0.9-2-1.5-3.6-1.5c-1.5,0-3,0.8-3,2.5
			c0,1.7,1.4,2.3,3.2,3c1.9,0.7,3.9,1.5,3.9,3.9c0,2.3-2.1,3.6-4.1,3.6C693.9,140.9,692.5,140,691.8,139.4z"/>
	</g>
</g>
</svg>
