<?xml version="1.0" encoding="utf-8"?>
<!-- Generator: Adobe Illustrator 25.4.1, SVG Export Plug-In . SVG Version: 6.00 Build 0)  -->
<svg version="1.1" id="Layer_1" xmlns="http://www.w3.org/2000/svg" xmlns:xlink="http://www.w3.org/1999/xlink" x="0px" y="0px"
	 viewBox="0 0 86.1 140.9" style="enable-background:new 0 0 86.1 140.9;" xml:space="preserve">
<style type="text/css">
	.st0{fill:#393E40;}
	.st1{fill:#E79B31;}
	.st2{fill:none;}
	.st3{fill:#3F88C5;}
	.st4{fill:#FBFBF2;}
	.st5{enable-background:new    ;}
	.st6{fill:#393E41;}
	.st7{fill:#E3322E;}
	.st8{fill:#DCDCC3;}
</style>
<g id="Group_399">
	<g id="Group_375" transform="translate(698.53 1671.564)">
		<g id="Group_372">
			<g id="Group_366-4">
				<g id="Group_362-4" transform="translate(0 69.431)">
					<g id="Ellipse_3-3">
						<circle class="st6" cx="-689.9" cy="-1660.4" r="6.4"/>
					</g>
					<g id="Path_614-4">
						<path class="st6" d="M-689.9-1652.8c-4.2,0-7.6-3.4-7.6-7.6c0-4.2,3.4-7.6,7.6-7.6s7.6,3.4,7.6,7.6l0,0
							C-682.4-1656.2-685.7-1652.8-689.9-1652.8z M-689.9-1665.6c-2.8,0-5.2,2.3-5.2,5.2c0,2.8,2.3,5.2,5.2,5.2
							c2.8,0,5.2-2.3,5.2-5.2C-684.8-1663.3-687.1-1665.6-689.9-1665.6z"/>
					</g>
				</g>
				<g id="Group_363-4" transform="translate(8.042 0)">
					<g id="Path_615-4">
						<path class="st4" d="M-651.2-1669.9h-31c-8.5,0-15.3,6.9-15.3,15.3v73.5c0,8.5,6.9,15.3,15.3,15.3h44.2
							c8.5,0,15.3-6.9,15.3-15.3v-60.3L-651.2-1669.9z"/>
					</g>
					<g id="Path_616-4">
						<path class="st2" d="M-638-1564.5h-44.2c-9.1,0-16.5-7.4-16.5-16.5v-73.5c0-9.1,7.4-16.5,16.5-16.5h31c0.3,0,0.6,0.1,0.9,0.4
							l28.6,28.6c0.2,0.2,0.4,0.5,0.4,0.9v60.3C-621.4-1571.9-628.8-1564.5-638-1564.5z M-682.2-1668.7c-7.8,0-14.1,6.3-14.1,14.1
							v73.5c0,7.8,6.3,14.1,14.1,14.1h44.2c7.8,0,14.1-6.3,14.1-14.1v-59.8l-27.8-27.8L-682.2-1668.7z"/>
					</g>
				</g>
				<g id="Group_364-4" transform="translate(53.287 0)">
					<g id="Path_617-4">
						<path class="st8" d="M-696.4-1669.9l28.6,28.6h-22.5c-3.4,0-6.1-2.7-6.1-6.1c0,0,0,0,0,0L-696.4-1669.9z"/>
					</g>
					<g id="Path_618-4">
						<path class="st2" d="M-667.9-1640.1h-22.5c-4,0-7.3-3.3-7.3-7.3v-22.5c0-0.7,0.5-1.2,1.2-1.2c0.3,0,0.6,0.1,0.9,0.4l28.5,28.5
							c0.5,0.4,0.6,1.2,0.1,1.7C-667.2-1640.3-667.5-1640.1-667.9-1640.1L-667.9-1640.1z M-695.2-1666.9v19.5c0,2.7,2.2,4.9,4.9,4.9
							h19.5L-695.2-1666.9z"/>
					</g>
				</g>
				<g id="Group_365-4" transform="translate(1.486 41.157)">
					<g id="Path_619-4">
						<path class="st6" d="M-690.8-1668.9c-3.8,0-6.9,3.1-6.9,6.9v28.7h0.1c0.6-3.2,3.4-5.5,6.7-5.5h69v-30L-690.8-1668.9z"/>
					</g>
					<g id="Path_620-4">
						<path class="st4" d="M-697.6-1632.1h-0.1c-0.7,0-1.2-0.5-1.2-1.2v-28.7c0-4.5,3.6-8.1,8.1-8.1h69c0.7,0,1.2,0.5,1.2,1.2
							c0,0,0,0,0,0v30c0,0.7-0.5,1.2-1.2,1.2h-69c-2.7,0-5,1.9-5.5,4.6C-696.5-1632.5-697-1632.1-697.6-1632.1z M-690.8-1667.7
							c-3.1,0-5.6,2.5-5.6,5.6v24.2c1.5-1.5,3.5-2.3,5.6-2.3h67.8v-27.6L-690.8-1667.7z"/>
					</g>
				</g>
			</g>
		</g>
		<g class="st5">
			<path class="st4" d="M-657-1605.8h-2.4l-3.7-5.5l-3.6,5.5h-2.4l4.9-7.2l-4.3-6.3h2.4l3.2,4.8l3.1-4.8h2.4l-4.3,6.5L-657-1605.8z"
				/>
			<path class="st4" d="M-655.7-1605.8v-13.5h4.1c4.7,0,7.3,3.2,7.3,6.8c0,3.6-2.6,6.8-7.3,6.8H-655.7z M-653.6-1607.6h2.1
				c3.5,0,5.2-2.3,5.2-4.9c0-2.6-1.7-4.9-5.2-4.9h-2.1V-1607.6z"/>
		</g>
	</g>
	<g class="st5">
		<path class="st4" d="M46.3,140.2h-1l-4.6-6.6l-4.6,6.6h-1l5.1-7.2l-4.5-6.3h1l4,5.7l4-5.7h1l-4.5,6.3L46.3,140.2z"/>
		<path class="st4" d="M46.6,135.8c0-2.6,2-4.6,4.5-4.6c1.7,0,3.1,1,3.7,2.2c0-0.7-0.1-1.5-0.1-2.3v-4.9h0.8v14.1h-0.7v-2
			c-0.7,1.1-2.1,2.2-3.7,2.2C48.6,140.4,46.6,138.3,46.6,135.8z M54.8,135.8c0-2.1-1.7-3.9-3.7-3.9c-2.1,0-3.7,1.8-3.7,3.9
			s1.7,3.9,3.7,3.9C53.2,139.7,54.8,137.9,54.8,135.8z"/>
	</g>
</g>
</svg>
