<?xml version="1.0" encoding="utf-8"?>
<!-- Generator: Adobe Illustrator 25.4.1, SVG Export Plug-In . SVG Version: 6.00 Build 0)  -->
<svg version="1.1" id="Layer_1" xmlns="http://www.w3.org/2000/svg" xmlns:xlink="http://www.w3.org/1999/xlink" x="0px" y="0px"
	 viewBox="0 0 34 34.6" style="enable-background:new 0 0 34 34.6;" xml:space="preserve">
<style type="text/css">
	.st0{fill:#393E40;}
	.st1{fill:#E79B31;}
	.st2{fill:none;}
	.st3{fill:#3F88C5;}
	.st4{fill:#FBFBF2;}
</style>
<g id="Group_305" transform="translate(94.708)">
	<g id="Rectangle_318">
		<path class="st4" d="M-77.7,34.5c-9.3,0-16.8-7.6-16.8-16.8v-0.7c0-9.3,7.6-16.8,16.8-16.8c9.3,0,16.8,7.6,16.8,16.8v0.7
			C-60.9,27-68.4,34.5-77.7,34.5z M-77.7,1.6c-8.5,0-15.3,6.9-15.3,15.3v0.7c0,8.5,6.9,15.3,15.3,15.3c8.5,0,15.3-6.9,15.3-15.3
			v-0.7C-62.4,8.5-69.3,1.6-77.7,1.6z"/>
	</g>
	<g id="Group_304" transform="translate(7.021 10.557)">
		<g id="Path_589">
			<path class="st4" d="M-87.2,12.2c0.5-0.1,0.9-0.3,1.3-0.6c0.3-0.2,0.6-0.6,0.8-0.9c0.3-0.6,0.5-1.2,0.5-1.8
				c0-0.6-0.1-1.2-0.4-1.7c-0.3-0.5-0.8-0.8-1.3-1c0.3-0.2,0.6-0.4,0.9-0.7c0.4-0.5,0.6-1.1,0.5-1.7c0-0.6-0.2-1.2-0.5-1.8
				c-0.7-0.9-1.8-1.3-2.9-1.2h-5.4v11.5h5.1C-88.2,12.4-87.7,12.3-87.2,12.2z M-91.6,2.8h2.5c0.5,0,0.9,0,1.3,0.2
				c0.4,0.2,0.7,0.6,0.6,1.1c0,0.4-0.1,0.8-0.5,1c-0.4,0.2-0.8,0.3-1.2,0.3h-2.7L-91.6,2.8z M-91.6,10.4V7.3h2.8
				c0.4,0,0.8,0.1,1.1,0.2c0.5,0.2,0.8,0.7,0.7,1.2c0.1,0.6-0.2,1.2-0.7,1.4c-0.4,0.2-0.8,0.2-1.1,0.2L-91.6,10.4z"/>
		</g>
		<g id="Group_303" transform="translate(9.88 0.663)">
			<g id="Path_590">
				<path class="st4" d="M-92.6,10.9c0.8,0.7,1.9,1.1,2.9,1.1c1.2,0.1,2.3-0.4,3.1-1.2c0.4-0.4,0.7-1,0.8-1.5h-2.2
					c-0.1,0.2-0.3,0.4-0.4,0.6c-0.3,0.3-0.8,0.4-1.2,0.4c-0.4,0-0.8-0.1-1.2-0.3c-0.6-0.4-0.9-1.1-0.9-1.8h6.1c0-0.6,0-1.1-0.1-1.7
					c-0.1-0.6-0.3-1.2-0.7-1.8c-0.3-0.6-0.8-1-1.4-1.3c-0.6-0.3-1.3-0.4-2-0.4c-1.1,0-2.2,0.4-3,1.2c-0.8,0.9-1.2,2.2-1.1,3.4
					C-93.9,8.8-93.5,10.1-92.6,10.9z M-91,5.3c0.3-0.3,0.8-0.5,1.3-0.5c1-0.1,1.8,0.7,1.9,1.7c0,0,0,0.1,0,0.1h-3.8
					C-91.5,6.1-91.3,5.6-91,5.3z"/>
			</g>
			<g id="Rectangle_319">
				<rect x="-92.3" y="0.8" class="st4" width="4.9" height="1.2"/>
			</g>
		</g>
	</g>
</g>
</svg>
