<?xml version="1.0" encoding="utf-8"?>
<!-- Generator: Adobe Illustrator 25.4.1, SVG Export Plug-In . SVG Version: 6.00 Build 0)  -->
<svg version="1.1" id="Layer_1" xmlns="http://www.w3.org/2000/svg" xmlns:xlink="http://www.w3.org/1999/xlink" x="0px" y="0px"
	 viewBox="0 0 637.7 170.8" style="enable-background:new 0 0 637.7 170.8;" xml:space="preserve">
<style type="text/css">
	.st0{fill:#393E40;}
	.st1{fill:#E79B31;}
	.st2{fill:none;}
	.st3{fill:#3F88C5;}
	.st4{fill:#FBFBF2;}
	.st5{enable-background:new    ;}
	.st6{fill:#393E41;}
</style>
<g class="st5">
	<path class="st6" d="M4.6,145.3l1.8-11.5h0.7l-1.8,11.5H4.6z"/>
	<path class="st6" d="M8.2,145.3l1.2-7.5H10l-0.3,1.7c0.6-0.9,1.5-1.8,3-1.8c1.5,0,2.4,1.1,2.4,2.5c0,0.3,0,0.6-0.1,0.9l-0.7,4.3
		h-0.7l0.7-4.4c0.1-0.3,0.1-0.6,0.1-0.9c0-1-0.6-1.8-1.7-1.8c-1.2,0-2.9,1-3.3,3.6l-0.5,3.4H8.2z"/>
	<path class="st6" d="M17.6,143.5c0-0.2,0-0.4,0-0.5l0.7-4.6h-1.9l0.1-0.6h1.9l0.3-1.8h0.7l-0.3,1.8h2.6l-0.1,0.6h-2.6l-0.7,4.6
		c0,0.2,0,0.4,0,0.5c0,0.9,0.6,1.3,1.5,1.3c0.3,0,0.7-0.1,1-0.2l-0.1,0.7c-0.3,0.1-0.6,0.1-0.9,0.1
		C18.6,145.4,17.6,144.7,17.6,143.5z"/>
	<path class="st6" d="M22.9,141.4c0,0.2-0.1,0.4-0.1,0.7c0,1.6,0.9,2.8,2.5,2.8c1.2,0,2.2-0.5,3.1-1.1l-0.1,0.9
		c-0.6,0.4-1.7,0.9-3,0.9c-1.8,0-3.1-1.5-3.1-3.4c0-2.6,2-4.5,4.2-4.5c1.8,0,3,1.3,3,3c0,0.3,0,0.5,0,0.8H22.9z M23,140.7h5.7v-0.3
		c0-1.3-0.9-2.2-2.4-2.2C24.9,138.2,23.5,139.2,23,140.7z"/>
	<path class="st6" d="M30.8,145.3l1.2-7.5h0.7l-0.3,1.8c0.5-0.9,1.4-2,2.9-2c0.4,0,0.7,0.1,0.9,0.1l-0.1,0.7
		c-0.2-0.1-0.5-0.1-0.8-0.1c-1.6,0-2.9,1.8-3.2,3.8l-0.5,3.2H30.8z"/>
	<path class="st6" d="M36.1,142c0-2.6,2-4.5,4.2-4.5c1.4,0,2.4,0.9,2.8,1.9l0.3-1.7H44l-1.2,7.5h-0.6l0.3-1.7
		c-0.7,1-1.8,1.8-3.2,1.8C37.4,145.5,36.1,144,36.1,142z M42.8,140.9c0-1.5-0.9-2.7-2.5-2.7c-1.8,0-3.5,1.7-3.5,3.8
		c0,1.6,0.9,2.8,2.5,2.8C41.1,144.8,42.8,143.1,42.8,140.9z"/>
	<path class="st6" d="M45.5,142c0-2.5,2-4.5,4.3-4.5c1.2,0,2.1,0.5,2.8,0.9l-0.1,0.8c-0.9-0.7-1.8-1.1-2.6-1.1
		c-1.9,0-3.6,1.7-3.6,3.8c0,1.9,1.1,2.8,2.5,2.8c1.2,0,2.2-0.5,3.1-1.1l-0.1,0.9c-0.6,0.4-1.7,0.9-3,0.9
		C46.9,145.5,45.5,144.2,45.5,142z"/>
	<path class="st6" d="M54.5,143.5c0-0.2,0-0.4,0-0.5l0.7-4.6h-1.9l0.1-0.6h1.9l0.3-1.8h0.7l-0.3,1.8h2.6l-0.1,0.6H56l-0.7,4.6
		c0,0.2,0,0.4,0,0.5c0,0.9,0.6,1.3,1.5,1.3c0.3,0,0.7-0.1,1-0.2l-0.1,0.7c-0.3,0.1-0.6,0.1-0.9,0.1
		C55.5,145.4,54.5,144.7,54.5,143.5z"/>
	<path class="st6" d="M59.5,145.3l1.2-7.5h0.7l-1.2,7.5H59.5z M60.8,135.3c0-0.4,0.3-0.7,0.7-0.7c0.4,0,0.6,0.3,0.6,0.6
		c0,0.4-0.3,0.7-0.7,0.7C61,135.9,60.8,135.6,60.8,135.3z"/>
	<path class="st6" d="M65.4,145.6l-2.4-7.9h0.7l1.9,6.3l3.9-6.3h0.8L65.4,145.6z"/>
	<path class="st6" d="M71.2,141.4c0,0.2-0.1,0.4-0.1,0.7c0,1.6,0.9,2.8,2.5,2.8c1.2,0,2.2-0.5,3.1-1.1l-0.1,0.9
		c-0.6,0.4-1.7,0.9-3,0.9c-1.8,0-3.1-1.5-3.1-3.4c0-2.6,2-4.5,4.2-4.5c1.8,0,3,1.3,3,3c0,0.3,0,0.5,0,0.8H71.2z M71.4,140.7H77v-0.3
		c0-1.3-0.9-2.2-2.4-2.2C73.2,138.2,71.9,139.2,71.4,140.7z"/>
	<path class="st6" d="M82.1,145.3l3.1-11.9l3.2,10.7l6.6-10.7l-0.7,11.9h-0.7l0.6-9.6l-6.1,9.9l-2.9-9.9l-2.4,9.6H82.1z"/>
	<path class="st6" d="M97.2,141.4c0,0.2-0.1,0.4-0.1,0.7c0,1.6,0.9,2.8,2.5,2.8c1.2,0,2.2-0.5,3.1-1.1l-0.1,0.9
		c-0.6,0.4-1.7,0.9-3,0.9c-1.8,0-3.1-1.5-3.1-3.4c0-2.6,2-4.5,4.2-4.5c1.8,0,3,1.3,3,3c0,0.3,0,0.5,0,0.8H97.2z M97.4,140.7h5.7
		v-0.3c0-1.3-0.9-2.2-2.4-2.2C99.3,138.2,97.9,139.2,97.4,140.7z"/>
	<path class="st6" d="M105,142c0-2.6,2-4.5,4.2-4.5c1.4,0,2.4,0.9,2.8,1.9c0.1-0.6,0.1-1.2,0.2-2l0.7-4.2h0.7l-1.9,12h-0.6l0.3-1.7
		c-0.7,1-1.8,1.8-3.2,1.8C106.3,145.5,105,144,105,142z M111.8,140.9c0-1.5-0.9-2.7-2.5-2.7c-1.8,0-3.5,1.7-3.5,3.8
		c0,1.6,0.9,2.8,2.5,2.8C110.1,144.8,111.8,143.1,111.8,140.9z"/>
	<path class="st6" d="M114.6,145.3l1.2-7.5h0.7l-1.2,7.5H114.6z M115.8,135.3c0-0.4,0.3-0.7,0.7-0.7c0.4,0,0.6,0.3,0.6,0.6
		c0,0.4-0.3,0.7-0.7,0.7C116.1,135.9,115.8,135.6,115.8,135.3z"/>
	<path class="st6" d="M117.9,142c0-2.6,2-4.5,4.2-4.5c1.4,0,2.4,0.9,2.8,1.9l0.3-1.7h0.6l-1.2,7.5H124l0.3-1.7
		c-0.7,1-1.8,1.8-3.2,1.8C119.2,145.5,117.9,144,117.9,142z M124.7,140.9c0-1.5-0.9-2.7-2.5-2.7c-1.8,0-3.5,1.7-3.5,3.8
		c0,1.6,0.9,2.8,2.5,2.8C122.9,144.8,124.7,143.1,124.7,140.9z"/>
	<path class="st6" d="M130.9,145.3l1.8-11.5h3.1c3.9,0,5.4,2.5,5.4,5.1c0,2.3-1.6,6.5-7.1,6.5H130.9z M131.7,144.6h2.4
		c5,0,6.4-3.8,6.4-5.8c0-2.2-1.1-4.4-4.7-4.4h-2.5L131.7,144.6z"/>
	<path class="st6" d="M143.1,141.4c0,0.2-0.1,0.4-0.1,0.7c0,1.6,0.9,2.8,2.5,2.8c1.2,0,2.2-0.5,3.1-1.1l-0.1,0.9
		c-0.6,0.4-1.7,0.9-3,0.9c-1.8,0-3.1-1.5-3.1-3.4c0-2.6,2-4.5,4.2-4.5c1.8,0,3,1.3,3,3c0,0.3,0,0.5,0,0.8H143.1z M143.2,140.7h5.7
		v-0.3c0-1.3-0.9-2.2-2.4-2.2C145.1,138.2,143.7,139.2,143.2,140.7z"/>
	<path class="st6" d="M150.5,144.9l0.1-0.8c0.7,0.5,1.8,0.8,2.6,0.8c1.4,0,1.9-0.7,1.9-1.4c0-0.9-0.5-1.1-1.7-1.7
		c-1.4-0.7-2.1-1.3-2.1-2.3c0-1,0.9-1.9,2.6-1.9c1,0,1.9,0.3,2.4,0.5l-0.1,0.8c-0.8-0.4-1.5-0.6-2.3-0.6c-1.2,0-1.8,0.5-1.8,1.3
		c0,0.7,0.5,1.1,1.7,1.7c1.4,0.7,2.1,1.2,2.1,2.3c0,1-0.9,2.1-2.6,2.1C152,145.5,151,145.1,150.5,144.9z"/>
	<path class="st6" d="M157.8,145.3l1.2-7.5h0.7l-1.2,7.5H157.8z M159.1,135.3c0-0.4,0.3-0.7,0.7-0.7c0.4,0,0.6,0.3,0.6,0.6
		c0,0.4-0.3,0.7-0.7,0.7C159.3,135.9,159.1,135.6,159.1,135.3z"/>
	<path class="st6" d="M160.8,148l0.1-0.8c0.6,0.7,1.5,1.3,2.9,1.3c1.4,0,3-0.7,3.4-3.4c0-0.2,0.2-0.8,0.3-1.5
		c-0.7,1-1.8,1.8-3.2,1.8c-1.9,0-3.2-1.5-3.2-3.4c0-2.6,2-4.5,4.2-4.5c1.4,0,2.4,0.9,2.8,1.9l0.3-1.7h0.6l-1.1,7.3
		c-0.6,3.5-2.8,4.2-4.1,4.2C162.4,149.2,161.4,148.5,160.8,148z M167.9,140.9c0-1.5-0.9-2.7-2.5-2.7c-1.8,0-3.5,1.7-3.5,3.8
		c0,1.6,0.9,2.8,2.5,2.8C166.2,144.8,167.9,143.1,167.9,140.9z"/>
	<path class="st6" d="M170.7,145.3l1.2-7.5h0.7l-0.3,1.7c0.6-0.9,1.5-1.8,3-1.8c1.5,0,2.4,1.1,2.4,2.5c0,0.3,0,0.6-0.1,0.9l-0.7,4.3
		h-0.7l0.7-4.4c0.1-0.3,0.1-0.6,0.1-0.9c0-1-0.6-1.8-1.7-1.8c-1.2,0-2.9,1-3.3,3.6l-0.5,3.4H170.7z"/>
</g>
<g class="st5">
	<path class="st6" d="M14.1,166.3l-1.4-3H5.9l-1.4,3H3.8l5.5-11.9l5.5,11.9H14.1z M6.2,162.6h6.1l-3.1-6.7L6.2,162.6z"/>
	<path class="st6" d="M16.3,166.3v-12H17v12H16.3z"/>
	<path class="st6" d="M19.7,169v-0.8c0.7,0.7,1.8,1.3,3.1,1.3c1.4,0,3.2-0.7,3.2-3.4l0-1.5c-0.6,1-1.8,1.9-3.2,1.9
		c-2.1,0-3.9-1.8-3.9-3.9c0-2.2,1.8-4,3.9-4c1.4,0,2.6,1,3.2,1.8v-1.7h0.6v7.2c0,3.5-2.5,4.2-3.9,4.2
		C21.5,170.2,20.3,169.5,19.7,169z M26.1,162.5c0-1.8-1.4-3.3-3.2-3.3c-1.8,0-3.2,1.5-3.2,3.3c0,1.8,1.4,3.3,3.2,3.3
		C24.7,165.8,26.1,164.3,26.1,162.5z"/>
	<path class="st6" d="M28.9,162.5c0-2.2,1.8-4,3.9-4c2.1,0,3.9,1.8,3.9,4c0,2.2-1.8,3.9-3.9,3.9C30.6,166.5,28.9,164.7,28.9,162.5z
		 M35.9,162.5c0-1.8-1.4-3.3-3.2-3.3c-1.8,0-3.2,1.5-3.2,3.3c0,1.8,1.4,3.3,3.2,3.3C34.5,165.8,35.9,164.3,35.9,162.5z"/>
	<path class="st6" d="M38.7,166.3v-7.5h0.6v1.7c0.4-0.9,1.3-1.8,2.8-1.8c1.5,0,2.9,1.1,2.9,3v4.7h-0.7v-4.7c0-1.6-1.1-2.4-2.2-2.4
		c-1.2,0-2.7,1.1-2.7,3.4v3.6H38.7z"/>
	<path class="st6" d="M54,170v-3.4c0-0.7,0.1-1.4,0.1-2c-0.6,1-1.8,1.8-3.2,1.8c-2.1,0-3.9-1.8-3.9-3.9c0-2.2,1.8-4,3.9-4
		c1.4,0,2.6,0.9,3.2,1.8v-1.7h0.6V170H54z M54.1,162.5c0-1.8-1.4-3.3-3.2-3.3c-1.8,0-3.2,1.5-3.2,3.3c0,1.8,1.4,3.3,3.2,3.3
		C52.6,165.8,54.1,164.3,54.1,162.5z"/>
	<path class="st6" d="M57.5,163.4v-4.7h0.7v4.7c0,1.6,1,2.4,2.1,2.4c1.2,0,2.7-1.1,2.7-3.4v-3.6h0.7v7.5h-0.6v-1.7
		c-0.4,0.9-1.3,1.8-2.8,1.8C58.8,166.5,57.5,165.4,57.5,163.4z"/>
	<path class="st6" d="M66.2,156.2c0-0.3,0.3-0.6,0.6-0.6c0.4,0,0.7,0.3,0.7,0.6c0,0.4-0.3,0.6-0.7,0.6
		C66.5,156.9,66.2,156.6,66.2,156.2z M66.5,166.3v-7.5h0.7v7.5H66.5z"/>
	<path class="st6" d="M70,166.3v-7.5h0.6v1.7c0.4-0.9,1.3-1.8,2.8-1.8c1.5,0,2.9,1.1,2.9,3v4.7h-0.7v-4.7c0-1.6-1.1-2.4-2.2-2.4
		c-1.2,0-2.7,1.1-2.7,3.4v3.6H70z"/>
	<path class="st6" d="M81.9,160.5c0-3.3,2.7-6,6-6c1.3,0,2.6,0.4,3.6,1.3v0.9c-1-1-2.3-1.6-3.6-1.6c-2.9,0-5.3,2.5-5.3,5.4
		c0,2.9,2.4,5.4,5.3,5.4c1.4,0,2.7-0.6,3.6-1.6v1c-1.1,0.8-2.3,1.3-3.7,1.3C84.6,166.5,81.9,163.8,81.9,160.5z"/>
	<path class="st6" d="M92.8,162.5c0-2.2,1.8-4,3.9-4c2.1,0,3.9,1.8,3.9,4c0,2.2-1.8,3.9-3.9,3.9C94.6,166.5,92.8,164.7,92.8,162.5z
		 M99.9,162.5c0-1.8-1.4-3.3-3.2-3.3c-1.8,0-3.2,1.5-3.2,3.3c0,1.8,1.4,3.3,3.2,3.3C98.5,165.8,99.9,164.3,99.9,162.5z"/>
	<path class="st6" d="M102.7,166.3v-12h0.7v12H102.7z"/>
	<path class="st6" d="M106.2,166.3v-12h0.7v12H106.2z"/>
	<path class="st6" d="M109.7,162.4v0.2c0,1.8,1.2,3.3,3.1,3.3c1.3,0,2.2-0.6,2.9-1.2v0.8c-0.3,0.2-1.3,1-2.9,1
		c-2.2,0-3.8-1.8-3.8-3.9c0-2.2,1.5-4,3.7-4c2.2,0,3.5,1.8,3.5,3.2c0,0.2,0,0.4,0,0.6H109.7z M109.8,161.7h5.7
		c0-1.2-1.1-2.5-2.8-2.5C111.3,159.2,110.1,160.2,109.8,161.7z"/>
	<path class="st6" d="M118.2,169v-0.8c0.7,0.7,1.8,1.3,3.1,1.3s3.2-0.7,3.2-3.4l0-1.5c-0.6,1-1.8,1.9-3.2,1.9
		c-2.1,0-3.9-1.8-3.9-3.9c0-2.2,1.8-4,3.9-4c1.4,0,2.6,1,3.2,1.8v-1.7h0.6v7.2c0,3.5-2.5,4.2-3.9,4.2
		C120,170.2,118.8,169.5,118.2,169z M124.6,162.5c0-1.8-1.4-3.3-3.2-3.3c-1.8,0-3.2,1.5-3.2,3.3c0,1.8,1.4,3.3,3.2,3.3
		C123.2,165.8,124.6,164.3,124.6,162.5z"/>
	<path class="st6" d="M128,162.4v0.2c0,1.8,1.2,3.3,3.1,3.3c1.3,0,2.2-0.6,2.9-1.2v0.8c-0.3,0.2-1.3,1-2.9,1c-2.2,0-3.8-1.8-3.8-3.9
		c0-2.2,1.5-4,3.7-4c2.2,0,3.5,1.8,3.5,3.2c0,0.2,0,0.4,0,0.6H128z M128.1,161.7h5.7c0-1.2-1.1-2.5-2.8-2.5
		C129.6,159.2,128.5,160.2,128.1,161.7z"/>
</g>
<g class="st5">
	<path class="st6" d="M241.7,145.3l3.1-11.9l3.2,10.7l6.6-10.7l-0.7,11.9h-0.7l0.6-9.6l-6.1,9.9l-2.9-9.9l-2.4,9.6H241.7z"/>
	<path class="st6" d="M256.2,142c0-2.6,2-4.5,4.2-4.5c1.4,0,2.4,0.9,2.8,1.9l0.3-1.7h0.6l-1.2,7.5h-0.6l0.3-1.7
		c-0.7,1-1.8,1.8-3.2,1.8C257.4,145.5,256.2,144,256.2,142z M262.9,140.9c0-1.5-0.9-2.7-2.5-2.7c-1.8,0-3.5,1.7-3.5,3.8
		c0,1.6,0.9,2.8,2.5,2.8C261.2,144.8,262.9,143.1,262.9,140.9z"/>
	<path class="st6" d="M265.2,144.9l0.1-0.8c0.7,0.5,1.8,0.8,2.6,0.8c1.4,0,1.9-0.7,1.9-1.4c0-0.9-0.5-1.1-1.7-1.7
		c-1.4-0.7-2.1-1.3-2.1-2.3c0-1,0.9-1.9,2.6-1.9c1,0,1.9,0.3,2.4,0.5l-0.1,0.8c-0.8-0.4-1.5-0.6-2.3-0.6c-1.2,0-1.8,0.5-1.8,1.3
		c0,0.7,0.5,1.1,1.7,1.7c1.4,0.7,2.1,1.2,2.1,2.3c0,1-0.9,2.1-2.6,2.1C266.7,145.5,265.7,145.1,265.2,144.9z"/>
	<path class="st6" d="M273.3,143.5c0-0.2,0-0.4,0-0.5l0.7-4.6h-1.9l0.1-0.6h1.9l0.3-1.8h0.7l-0.3,1.8h2.6l-0.1,0.6h-2.6l-0.7,4.6
		c0,0.2,0,0.4,0,0.5c0,0.9,0.6,1.3,1.5,1.3c0.3,0,0.7-0.1,1-0.2l-0.1,0.7c-0.3,0.1-0.6,0.1-0.9,0.1
		C274.2,145.4,273.3,144.7,273.3,143.5z"/>
	<path class="st6" d="M278.5,141.4c0,0.2-0.1,0.4-0.1,0.7c0,1.6,0.9,2.8,2.5,2.8c1.2,0,2.2-0.5,3.1-1.1l-0.1,0.9
		c-0.6,0.4-1.7,0.9-3,0.9c-1.8,0-3.1-1.5-3.1-3.4c0-2.6,2-4.5,4.2-4.5c1.8,0,3,1.3,3,3c0,0.3,0,0.5,0,0.8H278.5z M278.6,140.7h5.7
		v-0.3c0-1.3-0.9-2.2-2.4-2.2C280.5,138.2,279.2,139.2,278.6,140.7z"/>
	<path class="st6" d="M286.4,145.3l1.2-7.5h0.7l-0.3,1.8c0.5-0.9,1.4-2,2.9-2c0.4,0,0.7,0.1,0.9,0.1l-0.1,0.7
		c-0.2-0.1-0.5-0.1-0.8-0.1c-1.6,0-2.9,1.8-3.2,3.8l-0.5,3.2H286.4z"/>
	<path class="st6" d="M291.8,144.9l0.1-0.8c0.7,0.5,1.8,0.8,2.6,0.8c1.4,0,1.9-0.7,1.9-1.4c0-0.9-0.5-1.1-1.7-1.7
		c-1.4-0.7-2.1-1.3-2.1-2.3c0-1,0.9-1.9,2.6-1.9c1,0,1.9,0.3,2.4,0.5l-0.1,0.8c-0.8-0.4-1.5-0.6-2.3-0.6c-1.2,0-1.8,0.5-1.8,1.3
		c0,0.7,0.5,1.1,1.7,1.7c1.4,0.7,2.1,1.2,2.1,2.3c0,1-0.9,2.1-2.6,2.1C293.3,145.5,292.3,145.1,291.8,144.9z"/>
	<path class="st6" d="M302.4,142c0-2.5,2-4.5,4.2-4.5c1.9,0,3.2,1.5,3.2,3.4c0,2.5-2,4.5-4.2,4.5C303.7,145.5,302.4,144,302.4,142z
		 M309.1,141c0-1.6-0.9-2.8-2.5-2.8c-1.8,0-3.5,1.7-3.5,3.8c0,1.6,0.9,2.8,2.5,2.8C307.4,144.8,309.1,143.2,309.1,141z"/>
	<path class="st6" d="M311.8,145.3l1.1-6.9h-1.9l0.1-0.6h1.9l0.3-2.1c0.3-1.7,1.4-2.4,2.8-2.4c0.3,0,0.7,0.1,0.9,0.2L317,134
		c-0.2-0.1-0.5-0.1-0.8-0.1c-1.2,0-1.9,0.6-2.1,1.8l-0.3,2h2.5l-0.1,0.6h-2.5l-1.1,6.9H311.8z"/>
	<path class="st6" d="M329.4,145.3l-0.9-3h-6.7l-1.9,3h-0.8l7.4-11.9l3.7,11.9H329.4z M322.2,141.6h6.1l-2-6.7L322.2,141.6z"/>
	<path class="st6" d="M331.6,145.3l1.2-7.5h0.7l-0.3,1.8c0.5-0.9,1.4-2,2.9-2c0.4,0,0.7,0.1,0.9,0.1l-0.1,0.7
		c-0.2-0.1-0.5-0.1-0.8-0.1c-1.6,0-2.9,1.8-3.2,3.8l-0.5,3.2H331.6z"/>
	<path class="st6" d="M338.8,143.5c0-0.2,0-0.4,0-0.5l0.7-4.6h-1.9l0.1-0.6h1.9l0.3-1.8h0.7l-0.3,1.8h2.6l-0.1,0.6h-2.6l-0.7,4.6
		c0,0.2,0,0.4,0,0.5c0,0.9,0.6,1.3,1.5,1.3c0.3,0,0.7-0.1,1-0.2l-0.1,0.7c-0.3,0.1-0.6,0.1-0.9,0.1
		C339.7,145.4,338.8,144.7,338.8,143.5z"/>
	<path class="st6" d="M347.2,145.3l1.8-11.5h0.7l-0.9,5.3h7.2l0.8-5.3h0.7l-1.8,11.5h-0.7l0.9-5.6h-7.2l-0.9,5.6H347.2z"/>
	<path class="st6" d="M358.7,145.3l1.2-7.5h0.7l-1.2,7.5H358.7z M360,135.3c0-0.4,0.3-0.7,0.7-0.7c0.3,0,0.6,0.3,0.6,0.6
		c0,0.4-0.3,0.7-0.7,0.7C360.2,135.9,360,135.6,360,135.3z"/>
	<path class="st6" d="M361.7,144.9l0.1-0.8c0.7,0.5,1.8,0.8,2.6,0.8c1.4,0,1.9-0.7,1.9-1.4c0-0.9-0.5-1.1-1.7-1.7
		c-1.4-0.7-2.1-1.3-2.1-2.3c0-1,0.9-1.9,2.6-1.9c1,0,1.9,0.3,2.4,0.5l-0.1,0.8c-0.8-0.4-1.5-0.6-2.3-0.6c-1.2,0-1.8,0.5-1.8,1.3
		c0,0.7,0.5,1.1,1.7,1.7c1.4,0.7,2.1,1.2,2.1,2.3c0,1-0.9,2.1-2.6,2.1C363.2,145.5,362.2,145.1,361.7,144.9z"/>
	<path class="st6" d="M369.8,143.5c0-0.2,0-0.4,0-0.5l0.7-4.6h-1.9l0.1-0.6h1.9l0.3-1.8h0.7l-0.3,1.8h2.6l-0.1,0.6h-2.6l-0.7,4.6
		c0,0.2,0,0.4,0,0.5c0,0.9,0.6,1.3,1.5,1.3c0.3,0,0.7-0.1,1-0.2l-0.1,0.7c-0.3,0.1-0.6,0.1-0.9,0.1
		C370.7,145.4,369.8,144.7,369.8,143.5z"/>
	<path class="st6" d="M374.3,142c0-2.5,2-4.5,4.2-4.5c1.9,0,3.2,1.5,3.2,3.4c0,2.5-2,4.5-4.2,4.5C375.5,145.5,374.3,144,374.3,142z
		 M381,141c0-1.6-0.9-2.8-2.5-2.8c-1.8,0-3.5,1.7-3.5,3.8c0,1.6,0.9,2.8,2.5,2.8C379.3,144.8,381,143.2,381,141z"/>
	<path class="st6" d="M383.1,145.3l1.2-7.5h0.7l-0.3,1.8c0.5-0.9,1.4-2,2.9-2c0.4,0,0.7,0.1,0.9,0.1l-0.1,0.7
		c-0.2-0.1-0.5-0.1-0.8-0.1c-1.6,0-2.9,1.8-3.2,3.8l-0.5,3.2H383.1z"/>
	<path class="st6" d="M388.9,149l2.4-4l-2.1-7.3h0.7l1.8,6.5l3.9-6.5h0.8l-4.4,7.2l-2.4,4.1H388.9z"/>
</g>
<g class="st5">
	<path class="st6" d="M248,162v-7.3h0.7v7.2c0,2.7,1.4,3.9,3.6,3.9c2.2,0,3.6-1.1,3.6-3.9v-7.2h0.7v7.3c0,3.1-1.7,4.5-4.3,4.5
		S248,165.1,248,162z"/>
	<path class="st6" d="M259.1,166.3v-7.5h0.6v1.7c0.4-0.9,1.3-1.8,2.8-1.8c1.5,0,2.9,1.1,2.9,3v4.7h-0.7v-4.7c0-1.6-1-2.4-2.2-2.4
		c-1.2,0-2.7,1.1-2.7,3.4v3.6H259.1z"/>
	<path class="st6" d="M267.8,156.2c0-0.3,0.3-0.6,0.6-0.6c0.4,0,0.7,0.3,0.7,0.6c0,0.4-0.3,0.6-0.7,0.6
		C268.1,156.9,267.8,156.6,267.8,156.2z M268.1,166.3v-7.5h0.7v7.5H268.1z"/>
	<path class="st6" d="M270.4,158.8h0.8l2.9,6.3l2.9-6.3h0.8l-3.6,7.9L270.4,158.8z"/>
	<path class="st6" d="M279,162.4v0.2c0,1.8,1.2,3.3,3.1,3.3c1.3,0,2.2-0.6,2.9-1.2v0.8c-0.3,0.2-1.3,1-2.9,1c-2.2,0-3.8-1.8-3.8-3.9
		c0-2.2,1.5-4,3.7-4c2.2,0,3.5,1.8,3.5,3.2c0,0.2,0,0.4,0,0.6H279z M279.1,161.7h5.7c0-1.2-1.1-2.5-2.8-2.5
		C280.6,159.2,279.4,160.2,279.1,161.7z"/>
	<path class="st6" d="M287.6,166.3v-7.5h0.6v1.7c0.4-0.9,1.2-1.9,2.6-1.9c0.4,0,0.7,0.1,0.9,0.1v0.7c-0.2-0.1-0.5-0.2-0.9-0.2
		c-1.6,0-2.6,1.6-2.6,3.7v3.3H287.6z"/>
	<path class="st6" d="M292.9,165.9v-0.8c0.8,0.5,1.8,0.8,2.6,0.8c1.1,0,1.8-0.6,1.8-1.4c0-0.8-0.5-1.3-1.9-1.7
		c-1.8-0.5-2.5-1.1-2.5-2.3c0-1.2,1-1.9,2.5-1.9c1,0,1.8,0.3,2.3,0.5v0.8c-0.8-0.4-1.5-0.6-2.3-0.6c-1.1,0-1.8,0.5-1.8,1.3
		c0,0.8,0.5,1.2,1.9,1.6c1.7,0.5,2.5,1.2,2.5,2.4c0,1.2-1,2-2.5,2C294.3,166.5,293.4,166.1,292.9,165.9z"/>
	<path class="st6" d="M299.9,156.2c0-0.3,0.3-0.6,0.6-0.6c0.4,0,0.7,0.3,0.7,0.6c0,0.4-0.3,0.6-0.7,0.6
		C300.2,156.9,299.9,156.6,299.9,156.2z M300.2,166.3v-7.5h0.7v7.5H300.2z"/>
	<path class="st6" d="M304.3,163.9v-4.5h-1.9v-0.6h1.9V157h0.7v1.8h2.6v0.6H305v4.5c0,1.2,0.6,1.8,1.7,1.8c0.3,0,0.6-0.1,0.9-0.1
		v0.7c-0.3,0.1-0.6,0.1-0.9,0.1C305.3,166.4,304.3,165.6,304.3,163.9z"/>
	<path class="st6" d="M309.8,170l1.8-3.9l-3.3-7.3h0.8l2.8,6.5l2.9-6.5h0.8l-3.2,7.2l-1.8,4.1H309.8z"/>
	<path class="st6" d="M319.9,162.5c0-2.2,1.8-4,3.9-4c2.1,0,3.9,1.8,3.9,4c0,2.2-1.8,3.9-3.9,3.9
		C321.6,166.5,319.9,164.7,319.9,162.5z M326.9,162.5c0-1.8-1.4-3.3-3.2-3.3c-1.8,0-3.2,1.5-3.2,3.3c0,1.8,1.4,3.3,3.2,3.3
		C325.5,165.8,326.9,164.3,326.9,162.5z"/>
	<path class="st6" d="M330.3,166.3v-6.9h-1.9v-0.6h1.9v-2.1c0-1.7,1-2.5,2.4-2.5c0.3,0,0.6,0,0.9,0.1v0.7c-0.3-0.1-0.6-0.1-0.9-0.1
		c-1.2,0-1.7,0.6-1.7,1.8v2.1h2.5v0.6H331v6.9H330.3z"/>
	<path class="st6" d="M341.3,166.3v-10.9h-3.7v-0.6h8.1v0.6H342v10.9H341.3z"/>
	<path class="st6" d="M344.8,162.5c0-2.2,1.8-4,3.9-4c2.1,0,3.9,1.8,3.9,4c0,2.2-1.8,3.9-3.9,3.9
		C346.5,166.5,344.8,164.7,344.8,162.5z M351.8,162.5c0-1.8-1.4-3.3-3.2-3.3c-1.8,0-3.2,1.5-3.2,3.3c0,1.8,1.4,3.3,3.2,3.3
		C350.4,165.8,351.8,164.3,351.8,162.5z"/>
	<path class="st6" d="M354.6,166.3v-7.5h0.6v1.7c0.4-0.9,1.2-1.9,2.6-1.9c0.4,0,0.7,0.1,0.9,0.1v0.7c-0.2-0.1-0.5-0.2-0.9-0.2
		c-1.6,0-2.6,1.6-2.6,3.7v3.3H354.6z"/>
	<path class="st6" d="M359.1,162.5c0-2.2,1.8-4,3.9-4c2.1,0,3.9,1.8,3.9,4c0,2.2-1.8,3.9-3.9,3.9
		C360.9,166.5,359.1,164.7,359.1,162.5z M366.2,162.5c0-1.8-1.4-3.3-3.2-3.3c-1.8,0-3.2,1.5-3.2,3.3c0,1.8,1.4,3.3,3.2,3.3
		C364.8,165.8,366.2,164.3,366.2,162.5z"/>
	<path class="st6" d="M369,166.3v-7.5h0.6v1.7c0.4-0.9,1.3-1.8,2.8-1.8c1.5,0,2.9,1.1,2.9,3v4.7h-0.7v-4.7c0-1.6-1.1-2.4-2.2-2.4
		c-1.2,0-2.7,1.1-2.7,3.4v3.6H369z"/>
	<path class="st6" d="M378.2,163.9v-4.5h-1.9v-0.6h1.9V157h0.7v1.8h2.6v0.6h-2.6v4.5c0,1.2,0.6,1.8,1.7,1.8c0.3,0,0.6-0.1,0.9-0.1
		v0.7c-0.3,0.1-0.6,0.1-0.9,0.1C379.2,166.4,378.2,165.6,378.2,163.9z"/>
	<path class="st6" d="M382.3,162.5c0-2.2,1.8-4,3.9-4c2.1,0,3.9,1.8,3.9,4c0,2.2-1.8,3.9-3.9,3.9C384,166.5,382.3,164.7,382.3,162.5
		z M389.3,162.5c0-1.8-1.4-3.3-3.2-3.3c-1.8,0-3.2,1.5-3.2,3.3c0,1.8,1.4,3.3,3.2,3.3C387.9,165.8,389.3,164.3,389.3,162.5z"/>
</g>
<g class="st5">
	<path class="st6" d="M464.3,145.3l1.8-11.5h3.1c2.2,0,3.3,1.1,3.3,2.7c0,1.7-1.3,2.6-2.4,2.9c1.1,0.3,2.1,1.1,2.1,2.6
		c0,1.7-1.4,3.4-4.5,3.4H464.3z M465.1,144.6h2.6c2.5,0,3.7-1.4,3.7-2.7c0-1.2-0.8-2.2-2.9-2.2h-2.7L465.1,144.6z M466,139.1h2.4
		c2.3,0,3.4-1.4,3.4-2.6c0-1.2-0.7-2.1-2.6-2.1h-2.4L466,139.1z"/>
	<path class="st6" d="M473.7,142c0-2.6,2-4.5,4.2-4.5c1.4,0,2.4,0.9,2.8,1.9l0.3-1.7h0.6l-1.2,7.5h-0.6l0.3-1.7
		c-0.7,1-1.8,1.8-3.2,1.8C475,145.5,473.7,144,473.7,142z M480.5,140.9c0-1.5-0.9-2.7-2.5-2.7c-1.8,0-3.5,1.7-3.5,3.8
		c0,1.6,0.9,2.8,2.5,2.8C478.7,144.8,480.5,143.1,480.5,140.9z"/>
	<path class="st6" d="M483.1,142c0-2.5,2-4.5,4.3-4.5c1.2,0,2.1,0.5,2.8,0.9l-0.1,0.8c-0.9-0.7-1.8-1.1-2.6-1.1
		c-1.9,0-3.6,1.7-3.6,3.8c0,1.9,1.1,2.8,2.5,2.8c1.2,0,2.2-0.5,3.1-1.1l-0.1,0.9c-0.6,0.4-1.7,0.9-3,0.9
		C484.5,145.5,483.1,144.2,483.1,142z"/>
	<path class="st6" d="M491.2,145.3l1.9-12h0.7l-0.7,4.2c-0.1,0.7-0.3,1.4-0.4,1.9c0.5-1,1.5-1.8,3-1.8c1.4,0,2.4,1.1,2.4,2.5
		c0,0.1,0,0.4-0.1,0.9l-0.7,4.3h-0.7l0.7-4.4c0.1-0.5,0.1-0.7,0.1-0.9c0-1-0.7-1.8-1.8-1.8c-1.2,0-2.9,1.1-3.2,3.4l-0.6,3.6H491.2z"
		/>
	<path class="st6" d="M500.7,141.4c0,0.2-0.1,0.4-0.1,0.7c0,1.6,0.9,2.8,2.5,2.8c1.2,0,2.2-0.5,3.1-1.1l-0.1,0.9
		c-0.6,0.4-1.7,0.9-3,0.9c-1.8,0-3.1-1.5-3.1-3.4c0-2.6,2-4.5,4.2-4.5c1.8,0,3,1.3,3,3c0,0.3,0,0.5,0,0.8H500.7z M500.9,140.7h5.7
		v-0.3c0-1.3-0.9-2.2-2.4-2.2C502.7,138.2,501.4,139.2,500.9,140.7z"/>
	<path class="st6" d="M508.6,145.3l1.9-12h0.7l-1.9,12H508.6z"/>
	<path class="st6" d="M512,142c0-2.5,2-4.5,4.2-4.5c1.9,0,3.2,1.5,3.2,3.4c0,2.5-2,4.5-4.2,4.5C513.3,145.5,512,144,512,142z
		 M518.7,141c0-1.6-0.9-2.8-2.5-2.8c-1.8,0-3.5,1.7-3.5,3.8c0,1.6,0.9,2.8,2.5,2.8C517.1,144.8,518.7,143.2,518.7,141z"/>
	<path class="st6" d="M520.9,145.3l1.2-7.5h0.7l-0.3,1.8c0.5-0.9,1.4-2,2.9-2c0.4,0,0.7,0.1,0.9,0.1l-0.1,0.7
		c-0.2-0.1-0.5-0.1-0.8-0.1c-1.6,0-2.9,1.8-3.2,3.8l-0.5,3.2H520.9z"/>
	<path class="st6" d="M526.3,144.9l0.1-0.8c0.7,0.5,1.8,0.8,2.6,0.8c1.4,0,1.9-0.7,1.9-1.4c0-0.9-0.5-1.1-1.7-1.7
		c-1.4-0.7-2.1-1.3-2.1-2.3c0-1,0.9-1.9,2.6-1.9c1,0,1.9,0.3,2.4,0.5l-0.1,0.8c-0.8-0.4-1.5-0.6-2.3-0.6c-1.2,0-1.8,0.5-1.8,1.3
		c0,0.7,0.5,1.1,1.7,1.7c1.4,0.7,2.1,1.2,2.1,2.3c0,1-0.9,2.1-2.6,2.1C527.8,145.5,526.7,145.1,526.3,144.9z"/>
	<path class="st6" d="M536.8,142c0-2.5,2-4.5,4.2-4.5c1.9,0,3.2,1.5,3.2,3.4c0,2.5-2,4.5-4.2,4.5C538.1,145.5,536.8,144,536.8,142z
		 M543.5,141c0-1.6-0.9-2.8-2.5-2.8c-1.8,0-3.5,1.7-3.5,3.8c0,1.6,0.9,2.8,2.5,2.8C541.9,144.8,543.5,143.2,543.5,141z"/>
	<path class="st6" d="M546.3,145.3l1.1-6.9h-1.9l0.1-0.6h1.9l0.3-2.1c0.3-1.7,1.4-2.4,2.8-2.4c0.3,0,0.7,0.1,0.9,0.2l-0.1,0.6
		c-0.2-0.1-0.5-0.1-0.8-0.1c-1.2,0-1.9,0.6-2.1,1.8l-0.3,2h2.5l-0.1,0.6h-2.5l-1.1,6.9H546.3z"/>
	<path class="st6" d="M554.9,145.3l1.8-11.5h6.5l-0.1,0.6h-5.8l-0.8,5.2h5.2l-0.1,0.6h-5.2l-0.8,5.1H554.9z"/>
	<path class="st6" d="M563.2,145.3l1.2-7.5h0.7l-1.2,7.5H563.2z M564.5,135.3c0-0.4,0.3-0.7,0.7-0.7c0.3,0,0.6,0.3,0.6,0.6
		c0,0.4-0.3,0.7-0.7,0.7C564.7,135.9,564.5,135.6,564.5,135.3z"/>
	<path class="st6" d="M566.7,145.3l1.2-7.5h0.7l-0.3,1.7c0.6-0.9,1.5-1.8,3-1.8c1.5,0,2.4,1.1,2.4,2.5c0,0.3,0,0.6-0.1,0.9l-0.7,4.3
		h-0.7l0.7-4.4c0.1-0.3,0.1-0.6,0.1-0.9c0-1-0.6-1.8-1.7-1.8c-1.2,0-2.9,1-3.3,3.6l-0.5,3.4H566.7z"/>
	<path class="st6" d="M576.2,141.4c0,0.2-0.1,0.4-0.1,0.7c0,1.6,0.9,2.8,2.5,2.8c1.2,0,2.2-0.5,3.1-1.1l-0.1,0.9
		c-0.6,0.4-1.7,0.9-3,0.9c-1.8,0-3.1-1.5-3.1-3.4c0-2.6,2-4.5,4.2-4.5c1.8,0,3,1.3,3,3c0,0.3,0,0.5,0,0.8H576.2z M576.3,140.7h5.7
		v-0.3c0-1.3-0.9-2.2-2.4-2.2C578.2,138.2,576.8,139.2,576.3,140.7z"/>
	<path class="st6" d="M596.5,145.3l-0.9-3h-6.7l-1.9,3h-0.8l7.4-11.9l3.7,11.9H596.5z M589.3,141.6h6.1l-2-6.7L589.3,141.6z"/>
	<path class="st6" d="M598.7,145.3l1.2-7.5h0.7l-0.3,1.8c0.5-0.9,1.4-2,2.9-2c0.4,0,0.7,0.1,0.9,0.1l-0.1,0.7
		c-0.2-0.1-0.5-0.1-0.8-0.1c-1.6,0-2.9,1.8-3.2,3.8l-0.5,3.2H598.7z"/>
	<path class="st6" d="M605.9,143.5c0-0.2,0-0.4,0-0.5l0.7-4.6h-1.9l0.1-0.6h1.9l0.3-1.8h0.7l-0.3,1.8h2.6l-0.1,0.6h-2.6l-0.7,4.6
		c0,0.2,0,0.4,0,0.5c0,0.9,0.6,1.3,1.5,1.3c0.3,0,0.7-0.1,1-0.2l-0.1,0.7c-0.3,0.1-0.6,0.1-0.9,0.1
		C606.8,145.4,605.9,144.7,605.9,143.5z"/>
	<path class="st6" d="M610.4,144.9l0.1-0.8c0.7,0.5,1.8,0.8,2.6,0.8c1.4,0,1.9-0.7,1.9-1.4c0-0.9-0.5-1.1-1.7-1.7
		c-1.4-0.7-2.1-1.3-2.1-2.3c0-1,0.9-1.9,2.6-1.9c1,0,1.9,0.3,2.4,0.5l-0.1,0.8c-0.8-0.4-1.5-0.6-2.3-0.6c-1.2,0-1.8,0.5-1.8,1.3
		c0,0.7,0.5,1.1,1.7,1.7c1.4,0.7,2.1,1.2,2.1,2.3c0,1-0.9,2.1-2.6,2.1C611.9,145.5,610.8,145.1,610.4,144.9z"/>
</g>
<g class="st5">
	<path class="st6" d="M471.3,162v-7.3h0.7v7.2c0,2.7,1.4,3.9,3.6,3.9c2.2,0,3.6-1.1,3.6-3.9v-7.2h0.7v7.3c0,3.1-1.7,4.5-4.3,4.5
		S471.3,165.1,471.3,162z"/>
	<path class="st6" d="M482.4,166.3v-7.5h0.6v1.7c0.4-0.9,1.3-1.8,2.8-1.8c1.5,0,2.9,1.1,2.9,3v4.7H488v-4.7c0-1.6-1-2.4-2.2-2.4
		c-1.2,0-2.7,1.1-2.7,3.4v3.6H482.4z"/>
	<path class="st6" d="M491.1,156.2c0-0.3,0.3-0.6,0.6-0.6c0.4,0,0.7,0.3,0.7,0.6c0,0.4-0.3,0.6-0.7,0.6
		C491.4,156.9,491.1,156.6,491.1,156.2z M491.4,166.3v-7.5h0.7v7.5H491.4z"/>
	<path class="st6" d="M493.7,158.8h0.8l2.9,6.3l2.9-6.3h0.8l-3.6,7.9L493.7,158.8z"/>
	<path class="st6" d="M502.3,162.4v0.2c0,1.8,1.2,3.3,3.1,3.3c1.3,0,2.2-0.6,2.9-1.2v0.8c-0.3,0.2-1.3,1-2.9,1
		c-2.2,0-3.8-1.8-3.8-3.9c0-2.2,1.5-4,3.7-4c2.2,0,3.5,1.8,3.5,3.2c0,0.2,0,0.4,0,0.6H502.3z M502.4,161.7h5.7
		c0-1.2-1.1-2.5-2.8-2.5C503.9,159.2,502.7,160.2,502.4,161.7z"/>
	<path class="st6" d="M510.9,166.3v-7.5h0.6v1.7c0.4-0.9,1.2-1.9,2.6-1.9c0.4,0,0.7,0.1,0.9,0.1v0.7c-0.2-0.1-0.5-0.2-0.9-0.2
		c-1.6,0-2.6,1.6-2.6,3.7v3.3H510.9z"/>
	<path class="st6" d="M516.1,165.9v-0.8c0.8,0.5,1.8,0.8,2.6,0.8c1.1,0,1.8-0.6,1.8-1.4c0-0.8-0.5-1.3-1.9-1.7
		c-1.8-0.5-2.5-1.1-2.5-2.3c0-1.2,1-1.9,2.5-1.9c1,0,1.8,0.3,2.3,0.5v0.8c-0.8-0.4-1.5-0.6-2.3-0.6c-1.1,0-1.8,0.5-1.8,1.3
		c0,0.8,0.5,1.2,1.9,1.6c1.7,0.5,2.5,1.2,2.5,2.4c0,1.2-1,2-2.5,2C517.6,166.5,516.6,166.1,516.1,165.9z"/>
	<path class="st6" d="M523.2,156.2c0-0.3,0.3-0.6,0.6-0.6c0.4,0,0.7,0.3,0.7,0.6c0,0.4-0.3,0.6-0.7,0.6
		C523.5,156.9,523.2,156.6,523.2,156.2z M523.5,166.3v-7.5h0.7v7.5H523.5z"/>
	<path class="st6" d="M527.6,163.9v-4.5h-1.9v-0.6h1.9V157h0.7v1.8h2.6v0.6h-2.6v4.5c0,1.2,0.6,1.8,1.7,1.8c0.3,0,0.6-0.1,0.9-0.1
		v0.7c-0.3,0.1-0.6,0.1-0.9,0.1C528.6,166.4,527.6,165.6,527.6,163.9z"/>
	<path class="st6" d="M533.1,170l1.8-3.9l-3.3-7.3h0.8l2.8,6.5l2.9-6.5h0.8l-3.2,7.2l-1.8,4.1H533.1z"/>
	<path class="st6" d="M543.2,162.5c0-2.2,1.8-4,3.9-4c2.1,0,3.9,1.8,3.9,4c0,2.2-1.8,3.9-3.9,3.9
		C544.9,166.5,543.2,164.7,543.2,162.5z M550.2,162.5c0-1.8-1.4-3.3-3.2-3.3c-1.8,0-3.2,1.5-3.2,3.3c0,1.8,1.4,3.3,3.2,3.3
		C548.8,165.8,550.2,164.3,550.2,162.5z"/>
	<path class="st6" d="M553.6,166.3v-6.9h-1.9v-0.6h1.9v-2.1c0-1.7,1-2.5,2.4-2.5c0.3,0,0.6,0,0.9,0.1v0.7c-0.3-0.1-0.6-0.1-0.9-0.1
		c-1.2,0-1.7,0.6-1.7,1.8v2.1h2.5v0.6h-2.5v6.9H553.6z"/>
	<path class="st6" d="M561.6,160.5c0-3.3,2.7-6,6-6s6,2.7,6,6c0,3.3-2.7,6-6,6S561.6,163.8,561.6,160.5z M572.9,160.5
		c0-2.9-2.4-5.4-5.3-5.4s-5.3,2.5-5.3,5.4c0,2.9,2.4,5.4,5.3,5.4S572.9,163.4,572.9,160.5z"/>
	<path class="st6" d="M576.4,163.9v-4.5h-1.9v-0.6h1.9V157h0.7v1.8h2.6v0.6h-2.6v4.5c0,1.2,0.6,1.8,1.7,1.8c0.3,0,0.6-0.1,0.9-0.1
		v0.7c-0.3,0.1-0.6,0.1-0.9,0.1C577.4,166.4,576.4,165.6,576.4,163.9z"/>
	<path class="st6" d="M582.5,163.9v-4.5h-1.9v-0.6h1.9V157h0.7v1.8h2.6v0.6h-2.6v4.5c0,1.2,0.6,1.8,1.7,1.8c0.3,0,0.6-0.1,0.9-0.1
		v0.7c-0.3,0.1-0.6,0.1-0.9,0.1C583.5,166.4,582.5,165.6,582.5,163.9z"/>
	<path class="st6" d="M586.6,162.5c0-2.2,1.8-4,3.9-4c1.4,0,2.6,0.9,3.2,1.8v-1.7h0.6v7.5h-0.6v-1.7c-0.6,1-1.8,1.9-3.2,1.9
		C588.3,166.5,586.6,164.7,586.6,162.5z M593.6,162.5c0-1.8-1.4-3.3-3.2-3.3c-1.8,0-3.2,1.5-3.2,3.3c0,1.8,1.4,3.3,3.2,3.3
		C592.2,165.8,593.6,164.3,593.6,162.5z"/>
	<path class="st6" d="M595.9,158.8h0.8l2.3,6.1l2.4-6.4l2.4,6.4l2.3-6.1h0.8l-3,7.9l-2.4-6.3l-2.4,6.3L595.9,158.8z"/>
	<path class="st6" d="M607.6,162.5c0-2.2,1.8-4,3.9-4c1.4,0,2.6,0.9,3.2,1.8v-1.7h0.6v7.5h-0.6v-1.7c-0.6,1-1.8,1.9-3.2,1.9
		C609.3,166.5,607.6,164.7,607.6,162.5z M614.6,162.5c0-1.8-1.4-3.3-3.2-3.3c-1.8,0-3.2,1.5-3.2,3.3c0,1.8,1.4,3.3,3.2,3.3
		C613.2,165.8,614.6,164.3,614.6,162.5z"/>
</g>
<g id="Path_612">
	<rect x="0" y="69.2" class="st6" width="637.7" height="3"/>
</g>
<g id="Group_359_00000120534207795627131260000011775033466736959679_" transform="translate(276.636 39.454)">
	<g id="Path_586_00000138544030659411146140000009215923944006096033_">
		<path class="st1" d="M0,30.4C0,9.6,14.6-5.2,36.4-5.2c21.5,0,36,15,36,35.8s-14.6,36-36.1,36C14.5,66.5,0,51.3,0,30.4z"/>
	</g>
</g>
<g id="Group_360_00000175296972236461783900000009814757685385672331_" transform="translate(539.238 35.454)">
	<g id="Path_586-2_00000040569790088809914400000003597267240138797497_">
		<path class="st1" d="M0,30.4C0,9.6,14.6-5.2,36.4-5.2c21.5,0,36,15,36,35.8s-14.6,36-36.1,36C14.5,66.5,0,51.3,0,30.4z"/>
	</g>
</g>
<g id="Path_613_00000100341930875186896170000014334918904997037982_">
	<path class="st6" d="M31.2,40c0,0-22.8,25.9-5.9,54.3c16.6,20.7,57.7,7.3,57.7,7.3L31.2,40z"/>
</g>
<g class="st5">
	<path class="st3" d="M290.8,15.8l4.7-6.1c1-1.3,2.4-2.9,2.4-4.6c0-1.5-0.9-2.3-2.4-2.3c-1.5,0-2.9,1.1-4,2V2.1
		c0.7-0.5,2.4-1.5,4.2-1.5c2.8,0,4.5,1.9,4.5,4.5c0,2.4-1.7,4.2-3.2,6l-2.1,2.6h5.7v2.1H290.8z"/>
	<path class="st3" d="M302.8,11V5.8c0-3,2.3-5.1,5.1-5.1c2.9,0,5.1,2.2,5.1,5.1V11c0,3-2.2,5.1-5.2,5.1
		C305,16.1,302.8,13.9,302.8,11z M310.8,11V5.8c0-1.9-1.2-3.1-2.9-3.1c-1.6,0-2.9,1.2-2.9,3.1V11c0,1.9,1.2,3.1,2.9,3.1
		C309.6,14.1,310.8,12.8,310.8,11z"/>
	<path class="st3" d="M318.1,15.8V4l-3.4,1.4V3.2l5.6-2.6v15.2H318.1z"/>
	<path class="st3" d="M322.2,15.8l4.7-6.1c1-1.3,2.4-2.9,2.4-4.6c0-1.5-0.9-2.3-2.4-2.3c-1.5,0-2.9,1.1-4,2V2.1
		c0.7-0.5,2.4-1.5,4.2-1.5c2.8,0,4.5,1.9,4.5,4.5c0,2.4-1.7,4.2-3.2,6l-2.1,2.6h5.7v2.1H322.2z"/>
</g>
<g class="st5">
	<path class="st3" d="M553.2,15.8l4.7-6.1c1-1.3,2.4-2.9,2.4-4.6c0-1.5-0.9-2.3-2.4-2.3c-1.5,0-2.9,1.1-4,2V2.1
		c0.7-0.5,2.4-1.5,4.2-1.5c2.8,0,4.5,1.9,4.5,4.5c0,2.4-1.7,4.2-3.2,6l-2.1,2.6h5.7v2.1H553.2z"/>
	<path class="st3" d="M565.1,11V5.8c0-3,2.3-5.1,5.1-5.1c2.9,0,5.2,2.2,5.2,5.1V11c0,3-2.2,5.1-5.2,5.1
		C567.4,16.1,565.1,13.9,565.1,11z M573.2,11V5.8c0-1.9-1.2-3.1-2.9-3.1c-1.6,0-2.9,1.2-2.9,3.1V11c0,1.9,1.2,3.1,2.9,3.1
		C572,14.1,573.2,12.8,573.2,11z"/>
	<path class="st3" d="M580.4,15.8V4L577,5.3V3.2l5.6-2.6v15.2H580.4z"/>
	<path class="st3" d="M588.1,15.8V4l-3.4,1.4V3.2l5.6-2.6v15.2H588.1z"/>
</g>
<g class="st5">
	<path class="st3" d="M11.4,16.8V1.2h4.7c3.6,0,5.8,2.2,5.8,5c0,2.8-2.2,5-5.8,5h-2.4v5.7H11.4z M13.8,9h2.4c2.2,0,3.4-1.3,3.4-2.8
		s-1.1-2.8-3.4-2.8h-2.4V9z"/>
	<path class="st3" d="M35.9,16.8h-3l-5.1-5.9h-1.1v5.9h-2.4V1.2h4.4c3.5,0,5.7,2.1,5.7,4.9c0,2.2-1.6,4-4,4.6L35.9,16.8z M26.7,3.3
		v5.6h2.1C30.9,8.8,32,7.5,32,6c0-1.5-1.1-2.8-3.3-2.8H26.7z"/>
	<path class="st3" d="M37.3,16.8V1.2h9.5v2.2h-7.1v4.4h5.9v2.1h-5.9v4.7h7.4v2.2H37.3z"/>
	<path class="st3" d="M48.4,15.6V13c1.4,1,3.1,1.9,5.1,1.9c1.6,0,2.7-0.9,2.7-2.3c0-1.5-1-2.1-3.1-2.8c-2.2-0.7-4.6-1.7-4.6-4.8
		c0-2.8,2.5-4.2,5-4.2c2.1,0,3.7,0.6,4.6,1v2.6c-1.6-1-3.1-1.5-4.6-1.5c-1.4,0-2.5,0.7-2.5,2c0,1.4,0.9,2,3.1,2.7
		c2.2,0.7,4.6,1.7,4.6,4.9c0,2.9-2.7,4.5-5.2,4.5C51.3,17.1,49.5,16.3,48.4,15.6z"/>
	<path class="st3" d="M60.8,16.8V1.2h9.5v2.2h-7.1v4.4h5.9v2.1h-5.9v4.7h7.4v2.2H60.8z"/>
	<path class="st3" d="M72.6,16.8v-16l10.9,11c0-1.6-0.1-3-0.1-4.7v-6h2.3v16.1l-10.8-11c0,1.6,0.1,3.1,0.1,4.7v5.9H72.6z"/>
	<path class="st3" d="M92,16.8V3.4h-4.5V1.2H99v2.2h-4.5v13.5H92z"/>
</g>
</svg>
