<?xml version="1.0" encoding="utf-8"?>
<!-- Generator: Adobe Illustrator 25.4.1, SVG Export Plug-In . SVG Version: 6.00 Build 0)  -->
<svg version="1.1" id="Layer_1" xmlns="http://www.w3.org/2000/svg" xmlns:xlink="http://www.w3.org/1999/xlink" x="0px" y="0px"
	 viewBox="0 0 34 34.6" style="enable-background:new 0 0 34 34.6;" xml:space="preserve">
<style type="text/css">
	.st0{fill:#393E40;}
	.st1{fill:#E79B31;}
	.st2{fill:none;}
	.st3{fill:#3F88C5;}
	.st4{fill:none;stroke:#FBFBF2;stroke-width:1.5;stroke-miterlimit:10;}
	.st5{fill:#FBFBF2;}
	.st6{fill:none;stroke:#FBFBF2;}
</style>
<g id="Group_310">
	<path id="Path_594" class="st4" d="M17,33.7L17,33.7C8.1,33.6,0.9,26.2,1,17.2l0,0C0.9,8.2,8.1,0.8,17,0.7l0,0
		c9,0.1,16.2,7.5,16.1,16.5l0,0C33.2,26.2,26,33.6,17,33.7z"/>
	<g id="Group_309" transform="translate(7.27 7.438)">
		<path id="Path_595" class="st5" d="M9.8,2.4c2.4,0,2.6,0,3.6,0.1c0.6,0,1.1,0.1,1.6,0.3c0.4,0.1,0.7,0.4,1,0.7
			c0.3,0.3,0.5,0.6,0.7,1C16.9,5,17,5.6,17,6.1c0,1,0.1,1.2,0.1,3.6s0,2.7-0.1,3.6c0,0.6-0.1,1.1-0.3,1.7c-0.1,0.4-0.4,0.7-0.7,1
			c-0.3,0.3-0.6,0.5-1,0.7c-0.5,0.2-1.1,0.3-1.6,0.3c-0.9,0-1.2,0.1-3.6,0.1s-2.6,0-3.6-0.1c-0.6,0-1.1-0.1-1.6-0.3
			c-0.4-0.1-0.7-0.4-1-0.7c-0.3-0.3-0.5-0.6-0.7-1c-0.2-0.5-0.3-1.1-0.3-1.7c0-1-0.1-1.2-0.1-3.6s0-2.7,0.1-3.6
			c0-0.6,0.1-1.1,0.3-1.7c0.1-0.4,0.4-0.7,0.7-1c0.3-0.3,0.6-0.5,1-0.7c0.5-0.2,1.1-0.3,1.6-0.3C7.1,2.4,7.4,2.4,9.8,2.4 M9.8,0.7
			c-2.4,0-2.7,0-3.6,0.1C5.4,0.8,4.7,1,4,1.2c-0.6,0.2-1.1,0.6-1.6,1c-0.5,0.5-0.8,1-1,1.6C1.2,4.6,1,5.3,1,6.1C1,7,1,7.3,1,9.8
			s0,2.8,0.1,3.7c0,0.7,0.2,1.5,0.4,2.2c0.2,0.6,0.6,1.1,1,1.6c0.4,0.5,1,0.8,1.6,1c0.7,0.3,1.4,0.4,2.1,0.4c0.9,0,1.2,0.1,3.6,0.1
			s2.7,0,3.6-0.1c0.7,0,1.5-0.2,2.1-0.4c0.6-0.2,1.1-0.6,1.6-1c0.5-0.5,0.8-1,1-1.6c0.3-0.7,0.4-1.4,0.4-2.2c0-1,0.1-1.3,0.1-3.7
			s0-2.8-0.1-3.7c0-0.7-0.2-1.5-0.4-2.2c-0.2-0.6-0.6-1.1-1-1.6c-0.4-0.5-1-0.8-1.6-1c-0.7-0.3-1.4-0.4-2.1-0.4
			C12.5,0.8,12.2,0.7,9.8,0.7"/>
		<path id="Path_596" class="st5" d="M9.8,5.1C7.2,5.1,5.1,7.1,5,9.7c-0.1,2.6,2,4.7,4.5,4.7c2.6,0.1,4.7-2,4.7-4.5c0,0,0-0.1,0-0.1
			C14.3,7.2,12.3,5.2,9.8,5.1 M9.8,12.8c-1.7,0-3-1.3-3.1-2.9c0-1.7,1.3-3,2.9-3.1c1.7,0,3,1.3,3.1,2.9c0,0,0,0,0,0.1
			C12.7,11.4,11.4,12.8,9.8,12.8"/>
		<path id="Path_597" class="st5" d="M15.5,5c0,0.6-0.5,1-1.1,1c-0.6,0-1-0.5-1-1.1c0-0.6,0.5-1,1.1-1C15.1,3.9,15.6,4.4,15.5,5
			C15.5,5,15.5,5,15.5,5"/>
	</g>
</g>
</svg>
