<?xml version="1.0" encoding="utf-8"?>
<!-- Generator: Adobe Illustrator 25.4.1, SVG Export Plug-In . SVG Version: 6.00 Build 0)  -->
<svg version="1.1" id="Layer_1" xmlns="http://www.w3.org/2000/svg" xmlns:xlink="http://www.w3.org/1999/xlink" x="0px" y="0px"
	 viewBox="0 0 34 34.6" style="enable-background:new 0 0 34 34.6;" xml:space="preserve">
<style type="text/css">
	.st0{fill:#393E40;}
	.st1{fill:#E79B31;}
	.st2{fill:none;}
	.st3{fill:#3F88C5;}
	.st4{fill:none;stroke:#FBFBF2;stroke-width:1.5;stroke-miterlimit:10;}
	.st5{fill:#FBFBF2;}
	.st6{fill:none;stroke:#FBFBF2;}
</style>
<g id="Group_404" transform="translate(47.354)">
	<path id="Rectangle_316" class="st4" d="M-30.4,0.8L-30.4,0.8c8.9,0,16.1,7.2,16.1,16.1v0.7c0,8.9-7.2,16.1-16.1,16.1l0,0
		c-8.9,0-16.1-7.2-16.1-16.1v-0.7C-46.5,8-39.3,0.8-30.4,0.8z"/>
	<g id="Group_301" transform="translate(8.305 7.292)">
		<g id="Group_300">
			<rect id="Rectangle_317" x="-46.1" y="6.3" class="st5" width="3.3" height="11"/>
			<path id="Path_587" class="st5" d="M-44.5,4.9c1.1,0,2.1-0.8,2.1-2s-0.8-2.1-2-2.1c-1.1,0-2.1,0.8-2.1,2c0,0,0,0,0,0.1
				C-46.5,4-45.6,4.9-44.5,4.9C-44.5,4.9-44.5,4.9-44.5,4.9z"/>
		</g>
		<path id="Path_588" class="st5" d="M-37.5,11.6c0-1.5,0.7-2.5,2-2.5c1.2,0,1.8,0.9,1.8,2.5v5.8h3.3v-7c0-2.9-1.6-4.4-3.9-4.4
			c-1.3,0-2.6,0.7-3.2,1.8V6.3h-3.2v11h3.2V11.6z"/>
	</g>
</g>
</svg>
