<svg xmlns="http://www.w3.org/2000/svg" width="45" height="66.712" viewBox="0 0 45 66.712"><g transform="translate(-247.87 -309.807)"><path d="M270.482,370.72c-6.058-7.418-12.09-14.407-17.7-21.772-7.4-9.721-6.268-23.952,2.247-32.583a21.271,21.271,0,0,1,30.316-.413,25.394,25.394,0,0,1,2.988,32.531c-2.3,3.269-4.914,6.277-7.413,9.377C277.5,362.107,274.049,366.329,270.482,370.72Zm10.823-36.654c0-6.557-4.9-11.842-10.954-11.818-5.981.024-10.834,5.241-10.876,11.693-.043,6.563,4.816,11.9,10.858,11.929S281.3,340.608,281.305,334.065Z" fill="#393e41"/><path d="M272,455.644a77.011,77.011,0,0,1-16.031-1.292,25.976,25.976,0,0,1-4.163-1.19c-2.218-.862-2.255-1.733-.054-2.578a47.493,47.493,0,0,1,4.7-1.312,13.11,13.11,0,0,1,1.311-.224c7.139-1.1,7.139-1.1,12.034,1.964,2.2,1.374,2.515,1.376,4.7.028a17.6,17.6,0,0,0,2.2-1.385c1.434-1.246,3.341-1.583,5.81-1.119,3.141.59,6.446,1,9.387,1.806,3.145.866,3.049,2.047.045,3.068-4.718,1.6-10.066,1.969-15.435,2.223C275.02,455.7,273.505,455.644,272,455.644Z" transform="translate(-1.76 -79.149)" fill="#393e41"/><path d="M294.613,351.916a4.392,4.392,0,1,1-4.449-4.368A4.381,4.381,0,0,1,294.613,351.916Z" transform="translate(-19.826 -21.154)" fill="#393e41"/></g></svg>