<?xml version="1.0" encoding="utf-8"?>
<!-- Generator: Adobe Illustrator 25.4.1, SVG Export Plug-In . SVG Version: 6.00 Build 0)  -->
<svg version="1.1" id="Layer_1" xmlns="http://www.w3.org/2000/svg" xmlns:xlink="http://www.w3.org/1999/xlink" x="0px" y="0px"
	 viewBox="0 0 73.9 62.2" style="enable-background:new 0 0 73.9 62.2;" xml:space="preserve">
<style type="text/css">
	.st0{enable-background:new    ;}
	.st1{fill:#393E40;}
	.st2{fill:#E79B31;}
	.st3{fill:none;}
</style>
<g class="st0">
	<path class="st1" d="M43.6,40.1v-0.9c0.4,0.2,0.8,0.3,1.3,0.3c0.7,0,1-0.3,1-0.8c0-0.1,0-0.2,0-0.2c-0.2,0.3-0.6,0.4-1,0.4
		c-0.9,0-1.6-0.7-1.6-1.7c0-1,0.7-1.7,1.6-1.7c0.4,0,0.8,0.2,1,0.5v-0.4h1v3.1c0,1.2-0.9,1.7-1.9,1.7C44.3,40.4,43.8,40.2,43.6,40.1
		z M45.8,37.2c0-0.4-0.3-0.8-0.7-0.8c-0.4,0-0.7,0.4-0.7,0.8c0,0.4,0.3,0.8,0.7,0.8C45.5,38,45.8,37.7,45.8,37.2z"/>
	<path class="st1" d="M47.4,37.3c0-1,0.8-1.7,1.8-1.7c1,0,1.8,0.7,1.8,1.7c0,1-0.8,1.7-1.8,1.7C48.2,39,47.4,38.3,47.4,37.3z
		 M50,37.3c0-0.5-0.3-0.8-0.8-0.8c-0.4,0-0.8,0.3-0.8,0.8c0,0.5,0.3,0.8,0.8,0.8C49.6,38.1,50,37.7,50,37.3z"/>
	<path class="st1" d="M51.6,38.9v-5.3h1v5.3H51.6z"/>
	<path class="st1" d="M53.2,37.3c0-1,0.7-1.7,1.6-1.7c0.4,0,0.7,0.2,1,0.4c0-0.3,0-0.7,0-1v-1.3h1v5.3h-1v-0.4
		c-0.2,0.3-0.6,0.5-1,0.5C53.9,39,53.2,38.3,53.2,37.3z M55.7,37.3c0-0.5-0.3-0.8-0.7-0.8c-0.4,0-0.7,0.4-0.7,0.8s0.3,0.8,0.7,0.8
		C55.4,38.1,55.7,37.7,55.7,37.3z"/>
	<path class="st1" d="M60.6,37.6h-2.4c0.1,0.3,0.4,0.5,0.9,0.5c0.4,0,0.8-0.1,1.2-0.2v0.9c-0.2,0.1-0.7,0.2-1.2,0.2
		c-1.2,0-1.9-0.8-1.9-1.7c0-1,0.7-1.7,1.7-1.7c0.9,0,1.7,0.6,1.7,1.7C60.7,37.3,60.7,37.5,60.6,37.6z M59.7,36.9
		c0-0.2-0.2-0.5-0.7-0.5c-0.4,0-0.6,0.2-0.7,0.5H59.7z"/>
	<path class="st1" d="M61.2,38.9v-3.3h1V36c0.1-0.2,0.4-0.5,1-0.5c0.6,0,1.2,0.4,1.2,1.4v2h-1v-2c0-0.3-0.2-0.5-0.5-0.5
		c-0.2,0-0.6,0.2-0.6,0.7v1.7H61.2z"/>
</g>
<g class="st0">
	<path class="st1" d="M43.3,44.9c0-1,0.8-1.8,1.9-1.8c0.4,0,0.7,0.1,0.9,0.2v1c-0.3-0.2-0.6-0.2-0.9-0.2c-0.5,0-0.9,0.4-0.9,0.8
		c0,0.5,0.3,0.8,0.9,0.8c0.3,0,0.7-0.1,0.9-0.2v1c-0.2,0.1-0.5,0.2-0.9,0.2C44.1,46.7,43.3,45.9,43.3,44.9z"/>
	<path class="st1" d="M46.7,46.6v-5.3h1v1.3c0,0.4,0,0.7,0,1c0.1-0.2,0.4-0.4,0.9-0.4c0.6,0,1.2,0.4,1.2,1.4v2h-1v-2
		c0-0.3-0.2-0.5-0.5-0.5c-0.2,0-0.6,0.2-0.6,0.7v1.7H46.7z"/>
	<path class="st1" d="M50.4,42.2c0-0.4,0.3-0.6,0.6-0.6c0.3,0,0.6,0.2,0.6,0.6c0,0.4-0.3,0.6-0.6,0.6C50.7,42.8,50.4,42.6,50.4,42.2
		z M50.5,46.6v-3.3h1v3.3H50.5z"/>
	<path class="st1" d="M52.3,46.6v-5.3h1v5.3H52.3z"/>
	<path class="st1" d="M53.9,44.9c0-1,0.7-1.7,1.6-1.7c0.4,0,0.7,0.2,1,0.4c0-0.3,0-0.7,0-1v-1.3h1v5.3h-1v-0.4
		c-0.2,0.3-0.6,0.5-1,0.5C54.6,46.6,53.9,45.9,53.9,44.9z M56.4,44.9c0-0.5-0.3-0.8-0.7-0.8c-0.4,0-0.7,0.4-0.7,0.8s0.3,0.8,0.7,0.8
		C56.1,45.7,56.4,45.4,56.4,44.9z"/>
</g>
<g class="st0">
	<path class="st1" d="M43.3,52.6c0-1,0.8-1.8,1.9-1.8c0.4,0,0.7,0.1,0.9,0.2v1c-0.3-0.2-0.6-0.2-0.9-0.2c-0.5,0-0.9,0.4-0.9,0.8
		c0,0.5,0.3,0.8,0.9,0.8c0.3,0,0.7-0.1,0.9-0.2v1c-0.2,0.1-0.5,0.2-0.9,0.2C44.1,54.3,43.3,53.5,43.3,52.6z"/>
	<path class="st1" d="M46.7,54.2v-3.3h1v0.6c0.1-0.3,0.5-0.7,1-0.7c0.1,0,0.2,0,0.3,0v1c-0.1,0-0.2,0-0.3,0c-0.5,0-0.9,0.3-0.9,1
		v1.4H46.7z"/>
	<path class="st1" d="M52.4,52.9h-2.4c0.1,0.3,0.4,0.5,0.9,0.5c0.4,0,0.8-0.1,1.2-0.2V54c-0.2,0.1-0.7,0.2-1.2,0.2
		c-1.2,0-1.9-0.8-1.9-1.7c0-1,0.7-1.7,1.7-1.7c0.9,0,1.7,0.6,1.7,1.7C52.5,52.6,52.4,52.8,52.4,52.9z M51.5,52.2
		c0-0.2-0.2-0.5-0.7-0.5c-0.4,0-0.6,0.2-0.7,0.5H51.5z"/>
	<path class="st1" d="M52.8,52.6c0-1,0.7-1.7,1.6-1.7c0.4,0,0.8,0.2,1,0.5v-0.4h1v3.3h-1v-0.4c-0.2,0.3-0.6,0.5-1,0.5
		C53.5,54.3,52.8,53.6,52.8,52.6z M55.3,52.6c0-0.5-0.3-0.8-0.7-0.8c-0.4,0-0.7,0.4-0.7,0.8c0,0.5,0.3,0.8,0.7,0.8
		C55,53.4,55.3,53,55.3,52.6z"/>
	<path class="st1" d="M57.5,53.1v-1.3h-0.6v-0.8h0.6v-0.8h1v0.8h0.8v0.8h-0.8V53c0,0.2,0.1,0.4,0.3,0.4c0.2,0,0.3,0,0.5-0.1v0.9
		c-0.2,0-0.4,0.1-0.7,0.1C58,54.3,57.5,53.8,57.5,53.1z"/>
	<path class="st1" d="M59.8,49.8c0-0.4,0.3-0.6,0.6-0.6c0.3,0,0.6,0.2,0.6,0.6c0,0.4-0.3,0.6-0.6,0.6C60.1,50.4,59.8,50.2,59.8,49.8
		z M59.9,54.2v-3.3h1v3.3H59.9z"/>
	<path class="st1" d="M61.5,52.6c0-1,0.8-1.7,1.8-1.7c1,0,1.8,0.7,1.8,1.7c0,1-0.8,1.7-1.8,1.7C62.3,54.3,61.5,53.6,61.5,52.6z
		 M64,52.6c0-0.5-0.3-0.8-0.8-0.8c-0.4,0-0.8,0.3-0.8,0.8c0,0.5,0.3,0.8,0.8,0.8C63.7,53.4,64,53,64,52.6z"/>
	<path class="st1" d="M65.6,54.2v-3.3h1v0.4c0.1-0.2,0.4-0.5,1-0.5c0.6,0,1.2,0.4,1.2,1.4v2h-1v-2c0-0.3-0.2-0.5-0.5-0.5
		c-0.2,0-0.6,0.2-0.6,0.7v1.7H65.6z"/>
	<path class="st1" d="M69.3,54.1v-0.9c0.4,0.2,0.9,0.3,1.3,0.3c0.2,0,0.3-0.1,0.3-0.2c0-0.1-0.1-0.2-0.4-0.3
		c-0.9-0.2-1.2-0.6-1.2-1.1c0-0.6,0.5-1,1.4-1c0.4,0,0.8,0.1,1.1,0.2v0.9c-0.4-0.2-0.8-0.3-1.1-0.3c-0.2,0-0.3,0.1-0.3,0.2
		c0,0.1,0.1,0.2,0.4,0.3c0.8,0.2,1.2,0.5,1.2,1.1c0,0.6-0.5,1.1-1.4,1.1C70.1,54.3,69.6,54.2,69.3,54.1z"/>
	<path class="st2" d="M72.5,53.7c0-0.4,0.3-0.6,0.6-0.6c0.3,0,0.6,0.3,0.6,0.6c0,0.4-0.3,0.6-0.6,0.6C72.9,54.3,72.5,54.1,72.5,53.7
		z"/>
</g>
<g>
	<path class="st3" d="M12.4,55.5c6.3,6.7,14.1-0.6,14.1-0.6L13.1,42.2C13.1,42.2,7.4,48.6,12.4,55.5z"/>
</g>
<g>
	<path class="st3" d="M39.4,10.7c-0.1,4.9,2.7,9.3,6.8,9.3c0.2,0,0.4,0,0.5,0c-0.8-1.5-1.2-3.4-1.2-5.4c0-1.5,0.2-2.8,0.6-4.1
		l-5.3-4.8C39.9,6.3,39.4,9.4,39.4,10.7z"/>
</g>
<g>
	<path class="st3" d="M54.2,10.7C54.1,15.6,56.9,20,61,20c0.7,0,1.3-0.1,1.9-0.3c-1.1-1-1.9-2.4-1.9-4c0-0.2,0-0.3,0-0.5
		c-0.1-1.4,0.4-2.7,1.2-3.7l-6.5-5.9C54.8,6.3,54.2,9.4,54.2,10.7z"/>
</g>
<g>
	<path class="st3" d="M19.1,4.4c-2.2,0-2.9,0.4-2.9,9.3c0,8.8,0.7,9.3,2.9,9.3s2.8-0.3,2.8-9.3C21.9,4.6,21.3,4.4,19.1,4.4z"/>
</g>
<g>
	<path class="st1" d="M34.5,5.6c-1-1.2-2.2-2.3-3.7-3.1h32.3V0.8H26.3C23.9,0.2,21.4,0,19,0C7.5,0,1.3,4.9,1.3,13.7
		c0,6.2,3,10.3,9.1,12.1l-8.2,6.8l8.7,7.3C2.6,40.5,0,44.8,0,49c0,6.7,8.2,14.2,21.5,13.1C35,61,40.1,50.3,40.1,41.7
		c0-6-3.3-9.8-9.7-10.7l-18.6-2.8l0.2-1.9c2.3,0.4,4.7,0.7,7,0.6c6.8,0,11.7-1.5,14.7-4.3c-2-1.9-3.1-4.6-3.1-8
		C30.6,10.8,32.1,7.7,34.5,5.6z M13.1,42.2l13.4,12.7c0,0-7.8,7.3-14.1,0.6C7.4,48.6,13.1,42.2,13.1,42.2z M19.1,23.1
		c-2.2,0-2.9-0.5-2.9-9.3c0-8.9,0.7-9.3,2.9-9.3s2.8,0.2,2.8,9.3C21.9,22.8,21.3,23.1,19.1,23.1z"/>
</g>
<g>
	<path class="st1" d="M46.8,20c-4.1,0-6.9-4.4-6.8-9.3c0-1.3,0.6-4.4,1.4-5l5.3,4.8c0.6-1.8,1.6-3.3,2.8-4.5c0-0.6,0.1-1.3,0.1-2
		c-2.2-0.7-4.4-1.1-6.7-1.1c-3.2,0-5.9,1-7.9,2.7c-2.4,2-3.9,5.2-3.9,8.9c0,3.4,1.2,6.1,3.1,8c1.7,1.7,4.1,2.6,6.9,2.6
		c2.9,0.1,5.6-1.1,7.3-3.2c-0.5-0.6-1-1.2-1.3-1.9C47.1,20,46.9,20,46.8,20z"/>
</g>
<g>
	<path class="st1" d="M62.5,20c-4.1,0-6.9-4.4-6.8-9.3c0-1.3,0.6-4.4,1.4-5l6.5,5.9c0.4-0.5,0.8-0.9,1.3-1.2C65.1,8,65.3,6.2,65.4,4
		c-2.2-0.7-4.4-1.1-6.7-1.1c-3.4,0-6.2,1.1-8.3,3c-1.3,1.2-2.3,2.7-2.8,4.5C47.2,11.6,47,13,47,14.5c0,2,0.4,3.9,1.2,5.4
		c0.4,0.7,0.8,1.4,1.3,1.9c1.8,2,4.4,3.2,7.5,3.2c3.5,0.1,6.7-1.7,8.4-4.7c-0.3-0.2-0.7-0.4-1-0.7C63.8,19.9,63.1,20,62.5,20z"/>
</g>
<g>
	<path class="st2" d="M73.9,14.7c-0.1-3-2.7-5.4-5.7-5.3c-0.2,0-0.4,0-0.6,0c-1,0.1-2,0.4-2.8,0.9c-0.5,0.3-0.9,0.7-1.3,1.2
		c-0.8,1-1.2,2.3-1.2,3.7c0,0.2,0,0.3,0,0.5c0.1,1.6,0.8,3,1.9,4c0.3,0.3,0.6,0.5,1,0.7c0.8,0.5,1.8,0.7,2.9,0.7c0.2,0,0.3,0,0.5,0
		c3.1-0.2,5.4-2.8,5.2-5.8C73.9,15,73.9,14.9,73.9,14.7z"/>
</g>
</svg>
