<?xml version="1.0" encoding="utf-8"?>
<!-- Generator: Adobe Illustrator 25.4.1, SVG Export Plug-In . SVG Version: 6.00 Build 0)  -->
<svg version="1.1" id="Layer_1" xmlns="http://www.w3.org/2000/svg" xmlns:xlink="http://www.w3.org/1999/xlink" x="0px" y="0px"
	 viewBox="0 0 41 40.6" style="enable-background:new 0 0 41 40.6;" xml:space="preserve">
<style type="text/css">
	.st0{fill:#393E40;}
	.st1{fill:#E79B31;}
	.st2{fill:none;}
	.st3{fill:#3F88C5;}
	.st4{fill:#FBFBF2;}
	.st5{enable-background:new    ;}
</style>
<g id="Group_451">
	<g id="Path_586_00000054950163581517870450000013426860069138165666_">
		<path class="st1" d="M0,20.2C0,8.4,8.3,0,20.6,0C32.8,0,41,8.5,41,20.3s-8.3,20.4-20.4,20.4C8.2,40.6,0,32,0,20.2z"/>
	</g>
</g>
<g class="st5">
	<path class="st4" d="M23.5,22.3l-2.4-6.8h-0.1l-2.4,6.8H13l6.1-15.7h4l6.1,15.7H23.5z"/>
</g>
<g class="st5">
	<path class="st0" d="M11,27.5H8.2v-1.7h7.5v1.7h-2.8v7H11V27.5z"/>
	<path class="st0" d="M16.1,30.2c0-2.5,2-4.5,4.5-4.5c2.6,0,4.5,1.9,4.5,4.5c0,2.5-2,4.5-4.5,4.5C18,34.7,16.1,32.7,16.1,30.2z
		 M23.2,30.2c0-1.5-1.1-2.7-2.6-2.7c-1.5,0-2.6,1.2-2.6,2.7s1.1,2.7,2.6,2.7C22.1,32.9,23.2,31.7,23.2,30.2z"/>
	<path class="st0" d="M26.3,25.8h2.6c1,0,1.9,0.1,2.6,0.5c0.8,0.4,1.4,1.1,1.4,2.3c0,1.1-0.5,1.8-1.2,2.3c-0.7,0.4-1.5,0.5-2.8,0.5
		h-0.6v3.1h-1.9V25.8z M29,29.9c0.8,0,1.2,0,1.5-0.2c0.3-0.2,0.5-0.5,0.5-0.9c0-0.5-0.2-0.8-0.6-1c-0.3-0.2-0.8-0.2-1.5-0.2h-0.6
		v2.4H29z"/>
</g>
</svg>
