<?xml version="1.0" encoding="utf-8"?>
<!-- Generator: Adobe Illustrator 25.4.1, SVG Export Plug-In . SVG Version: 6.00 Build 0)  -->
<svg version="1.1" id="Layer_1" xmlns="http://www.w3.org/2000/svg" xmlns:xlink="http://www.w3.org/1999/xlink" x="0px" y="0px"
	 viewBox="0 0 300.7 400.5" style="enable-background:new 0 0 300.7 400.5;" xml:space="preserve">
<style type="text/css">
	.st0{fill:#393E40;}
	.st1{fill:#E79B31;}
	.st2{fill:none;}
	.st3{fill:#3F88C5;}
	.st4{fill:#FBFBF2;}
	.st5{enable-background:new    ;}
	.st6{fill:#393E41;}
</style>
<g id="Group_395" transform="translate(-34.483 -1709.688)">
	<g id="Path_624">
		<rect x="69.2" y="1709.7" class="st6" width="3" height="400.5"/>
	</g>
	<g id="Path_613">
		<path class="st6" d="M51.2,1728.6c0,0-22.8,25.9-5.9,54.3c16.6,20.7,57.7,7.3,57.7,7.3L51.2,1728.6z"/>
	</g>
	<g id="Group_359" transform="translate(34.483 1864)">
		<g id="Path_586_00000118365359925397336690000016442484043932211614_">
			<path class="st1" d="M0,35.6C0,14.8,14.6,0,36.4,0c21.5,0,36,15,36,35.8s-14.6,36-36.1,36C14.5,71.7,0,56.5,0,35.6z"/>
		</g>
	</g>
	<g id="Group_360" transform="translate(34.483 2004)">
		<g id="Path_586-2">
			<path class="st1" d="M0,35.6C0,14.8,14.6,0,36.4,0c21.5,0,36,15,36,35.8s-14.6,36-36.1,36C14.5,71.7,0,56.5,0,35.6z"/>
		</g>
	</g>
	<g id="Group_392" transform="translate(-2)">
		<g class="st5">
			<path class="st3" d="M139.6,1753v-14.8h4.8c3.6,0,5.7,2.2,5.7,4.9c0,2.7-2.1,4.9-5.7,4.9h-1.7v5.1H139.6z M142.7,1745.2h1.7
				c1.8,0,2.6-1,2.6-2.1s-0.8-2.1-2.6-2.1h-1.7V1745.2z"/>
			<path class="st3" d="M163.6,1753h-3.7l-4-5.4H155v5.4h-3.1v-14.8h4.6c3.5,0,5.6,2.1,5.6,4.7c0,2-1.2,3.6-3.2,4.3L163.6,1753z
				 M155,1740.9v4.2h1.5c1.7,0,2.5-0.9,2.5-2.1s-0.8-2.1-2.5-2.1H155z"/>
			<path class="st3" d="M164.6,1753v-14.8h9.5v2.8h-6.4v3.1h5.2v2.8h-5.2v3.4h6.7v2.8H164.6z"/>
			<path class="st3" d="M175.5,1752.1v-3.2c1.5,0.9,3.1,1.5,4.8,1.5c1.3,0,2-0.6,2-1.6c0-1.2-1.1-1.6-2.9-2.1
				c-1.8-0.6-4.1-1.7-4.1-4.6c0-2.7,2.2-4.3,5.1-4.3c1.9,0,3.3,0.5,4.4,0.8v3.2c-1.4-0.7-3-1.2-4.3-1.2c-1.3,0-2,0.5-2,1.4
				c0,1.1,1,1.5,2.9,2.1c1.8,0.6,4.1,1.6,4.1,4.6c0,2.8-2.5,4.5-5.1,4.5C178.5,1753.3,176.9,1752.8,175.5,1752.1z"/>
			<path class="st3" d="M187.2,1753v-14.8h9.5v2.8h-6.4v3.1h5.2v2.8h-5.2v3.4h6.7v2.8H187.2z"/>
			<path class="st3" d="M198.5,1753v-15h0.8l9,9.1c0-1.2,0-2.3,0-3.6v-5.3h3v15.1h-0.9l-8.9-9c0,1.2,0,2.4,0,3.6v5.2H198.5z"/>
			<path class="st3" d="M216.8,1753v-12h-4v-2.8h11v2.8h-4v12H216.8z"/>
		</g>
		<g class="st5">
			<path class="st6" d="M139.4,1782.8l2.1-13.2h0.8l-2.1,13.2H139.4z"/>
			<path class="st6" d="M143.5,1782.8l1.4-8.6h0.8l-0.3,1.9c0.6-1.1,1.7-2.1,3.4-2.1c1.7,0,2.7,1.2,2.7,2.8c0,0.3,0,0.7-0.1,1
				l-0.8,4.9h-0.8l0.8-5c0.1-0.4,0.1-0.7,0.1-1c0-1.2-0.7-2.1-2-2.1c-1.4,0-3.3,1.2-3.8,4.1l-0.6,3.9H143.5z"/>
			<path class="st6" d="M154.3,1780.7c0-0.2,0-0.5,0-0.6l0.8-5.2H153l0.1-0.7h2.1l0.3-2h0.8l-0.3,2h3l-0.1,0.7h-3l-0.8,5.2
				c0,0.2,0,0.4,0,0.6c0,1,0.6,1.5,1.7,1.5c0.4,0,0.8-0.1,1.1-0.2l-0.1,0.8c-0.3,0.1-0.7,0.1-1.1,0.1
				C155.4,1782.9,154.3,1782.2,154.3,1780.7z"/>
			<path class="st6" d="M160.3,1778.3c0,0.2-0.1,0.5-0.1,0.8c0,1.8,1,3.2,2.8,3.2c1.4,0,2.5-0.5,3.5-1.3l-0.2,1
				c-0.7,0.4-1.9,1-3.4,1c-2.1,0-3.6-1.7-3.6-3.9c0-2.9,2.3-5.1,4.8-5.1c2.1,0,3.5,1.4,3.5,3.4c0,0.3,0,0.6,0,0.9H160.3z
				 M160.4,1777.6h6.5v-0.3c0-1.4-1-2.5-2.7-2.5C162.6,1774.7,161,1775.9,160.4,1777.6z"/>
			<path class="st6" d="M169.3,1782.8l1.4-8.6h0.8l-0.4,2.1c0.6-1,1.6-2.2,3.3-2.2c0.5,0,0.8,0.1,1,0.1l-0.1,0.8
				c-0.3-0.1-0.6-0.2-0.9-0.2c-1.8,0-3.3,2-3.7,4.3l-0.6,3.7H169.3z"/>
			<path class="st6" d="M175.4,1779.1c0-2.9,2.3-5.1,4.8-5.1c1.6,0,2.7,1,3.2,2.1l0.3-1.9h0.7l-1.4,8.6h-0.7l0.4-1.9
				c-0.8,1.2-2,2.1-3.7,2.1C176.8,1783,175.4,1781.3,175.4,1779.1z M183.1,1777.8c0-1.7-1-3.1-2.8-3.1c-2.1,0-4,1.9-4,4.4
				c0,1.8,1,3.2,2.8,3.2C181.1,1782.3,183.1,1780.4,183.1,1777.8z"/>
			<path class="st6" d="M186.1,1779.1c0-2.9,2.3-5.1,4.9-5.1c1.3,0,2.4,0.5,3.2,1.1l-0.1,0.9c-1-0.8-2.1-1.2-3-1.2
				c-2.2,0-4.1,1.9-4.1,4.4c0,2.1,1.3,3.2,2.8,3.2c1.4,0,2.5-0.5,3.5-1.3l-0.2,1c-0.7,0.4-1.9,1-3.4,1
				C187.7,1783,186.1,1781.6,186.1,1779.1z"/>
			<path class="st6" d="M196.5,1780.7c0-0.2,0-0.5,0-0.6l0.8-5.2h-2.1l0.1-0.7h2.1l0.3-2h0.8l-0.3,2h3l-0.1,0.7h-3l-0.8,5.2
				c0,0.2,0,0.4,0,0.6c0,1,0.6,1.5,1.7,1.5c0.4,0,0.8-0.1,1.1-0.2l-0.1,0.8c-0.3,0.1-0.7,0.1-1.1,0.1
				C197.5,1782.9,196.5,1782.2,196.5,1780.7z"/>
			<path class="st6" d="M202.1,1782.8l1.4-8.6h0.8l-1.4,8.6H202.1z M203.6,1771.4c0-0.4,0.4-0.8,0.8-0.8c0.4,0,0.7,0.3,0.7,0.7
				c0,0.4-0.4,0.8-0.8,0.8C203.9,1772,203.6,1771.7,203.6,1771.4z"/>
			<path class="st6" d="M208.9,1783.2l-2.7-9h0.8l2.1,7.2l4.4-7.2h0.9L208.9,1783.2z"/>
			<path class="st6" d="M215.5,1778.3c0,0.2-0.1,0.5-0.1,0.8c0,1.8,1,3.2,2.8,3.2c1.4,0,2.5-0.5,3.5-1.3l-0.2,1
				c-0.7,0.4-1.9,1-3.4,1c-2.1,0-3.6-1.7-3.6-3.9c0-2.9,2.3-5.1,4.8-5.1c2.1,0,3.5,1.4,3.5,3.4c0,0.3,0,0.6,0,0.9H215.5z
				 M215.7,1777.6h6.5v-0.3c0-1.4-1-2.5-2.7-2.5C217.8,1774.7,216.3,1775.9,215.7,1777.6z"/>
			<path class="st6" d="M228,1782.8l3.6-13.6l3.6,12.3l7.5-12.3l-0.8,13.6h-0.8l0.7-10.9l-6.9,11.3l-3.4-11.3l-2.8,10.9H228z"/>
			<path class="st6" d="M245.3,1778.3c0,0.2-0.1,0.5-0.1,0.8c0,1.8,1,3.2,2.8,3.2c1.4,0,2.5-0.5,3.5-1.3l-0.2,1
				c-0.7,0.4-1.9,1-3.4,1c-2.1,0-3.6-1.7-3.6-3.9c0-2.9,2.3-5.1,4.8-5.1c2.1,0,3.5,1.4,3.5,3.4c0,0.3,0,0.6,0,0.9H245.3z
				 M245.4,1777.6h6.5v-0.3c0-1.4-1-2.5-2.7-2.5C247.6,1774.7,246,1775.9,245.4,1777.6z"/>
			<path class="st6" d="M254.2,1779.1c0-2.9,2.3-5.1,4.8-5.1c1.6,0,2.7,1,3.2,2.1c0.1-0.7,0.1-1.4,0.3-2.3l0.8-4.8h0.8l-2.2,13.8
				h-0.7l0.4-1.9c-0.8,1.2-2,2.1-3.7,2.1C255.6,1783,254.2,1781.3,254.2,1779.1z M261.9,1777.8c0-1.7-1-3.1-2.8-3.1
				c-2.1,0-4,1.9-4,4.4c0,1.8,1,3.2,2.8,3.2C259.9,1782.3,261.9,1780.4,261.9,1777.8z"/>
			<path class="st6" d="M265.1,1782.8l1.4-8.6h0.8l-1.4,8.6H265.1z M266.5,1771.4c0-0.4,0.4-0.8,0.8-0.8c0.4,0,0.7,0.3,0.7,0.7
				c0,0.4-0.4,0.8-0.8,0.8C266.8,1772,266.5,1771.7,266.5,1771.4z"/>
			<path class="st6" d="M268.9,1779.1c0-2.9,2.3-5.1,4.8-5.1c1.6,0,2.7,1,3.2,2.1l0.3-1.9h0.7l-1.4,8.6h-0.7l0.4-1.9
				c-0.8,1.2-2,2.1-3.7,2.1C270.4,1783,268.9,1781.3,268.9,1779.1z M276.6,1777.8c0-1.7-1-3.1-2.8-3.1c-2.1,0-4,1.9-4,4.4
				c0,1.8,1,3.2,2.8,3.2C274.6,1782.3,276.6,1780.4,276.6,1777.8z"/>
			<path class="st6" d="M283.8,1782.8l2.1-13.2h3.5c4.4,0,6.1,2.9,6.1,5.8c0,2.6-1.8,7.4-8.2,7.4H283.8z M284.7,1782.1h2.8
				c5.7,0,7.3-4.3,7.3-6.7c0-2.5-1.3-5.1-5.4-5.1h-2.8L284.7,1782.1z"/>
			<path class="st6" d="M297.6,1778.3c0,0.2-0.1,0.5-0.1,0.8c0,1.8,1,3.2,2.8,3.2c1.4,0,2.5-0.5,3.5-1.3l-0.2,1
				c-0.7,0.4-1.9,1-3.4,1c-2.1,0-3.6-1.7-3.6-3.9c0-2.9,2.3-5.1,4.8-5.1c2.1,0,3.5,1.4,3.5,3.4c0,0.3,0,0.6,0,0.9H297.6z
				 M297.8,1777.6h6.5v-0.3c0-1.4-1-2.5-2.7-2.5C299.9,1774.7,298.4,1775.9,297.8,1777.6z"/>
			<path class="st6" d="M306.2,1782.3l0.1-0.9c0.8,0.5,2,0.9,2.9,0.9c1.6,0,2.2-0.8,2.2-1.6c0-1-0.5-1.3-1.9-2
				c-1.6-0.8-2.4-1.5-2.4-2.6c0-1.2,1-2.2,2.9-2.2c1.1,0,2.2,0.3,2.7,0.6l-0.1,0.9c-0.9-0.5-1.8-0.7-2.7-0.7c-1.4,0-2.1,0.6-2.1,1.4
				c0,0.8,0.5,1.2,1.9,1.9c1.6,0.8,2.4,1.3,2.4,2.7c0,1.2-1,2.4-3,2.4C307.9,1783,306.7,1782.6,306.2,1782.3z"/>
			<path class="st6" d="M314.5,1782.8l1.4-8.6h0.8l-1.4,8.6H314.5z M315.9,1771.4c0-0.4,0.4-0.8,0.8-0.8c0.4,0,0.7,0.3,0.7,0.7
				c0,0.4-0.4,0.8-0.8,0.8C316.2,1772,315.9,1771.7,315.9,1771.4z"/>
			<path class="st6" d="M318,1785.9l0.1-0.9c0.7,0.8,1.7,1.5,3.3,1.5c1.6,0,3.4-0.8,3.9-3.9c0-0.2,0.2-0.9,0.3-1.7
				c-0.8,1.2-2,2.1-3.7,2.1c-2.2,0-3.6-1.7-3.6-3.9c0-2.9,2.3-5.1,4.8-5.1c1.6,0,2.7,1,3.2,2.1l0.3-1.9h0.7l-1.3,8.3
				c-0.6,4-3.2,4.8-4.7,4.8C319.7,1787.2,318.6,1786.5,318,1785.9z M326,1777.8c0-1.7-1-3.1-2.8-3.1c-2.1,0-4,1.9-4,4.4
				c0,1.8,1,3.2,2.8,3.2C324.1,1782.3,326,1780.4,326,1777.8z"/>
			<path class="st6" d="M329.2,1782.8l1.4-8.6h0.8l-0.3,1.9c0.6-1.1,1.7-2.1,3.4-2.1c1.7,0,2.7,1.2,2.7,2.8c0,0.3,0,0.7-0.1,1
				l-0.8,4.9h-0.8l0.8-5c0.1-0.4,0.1-0.7,0.1-1c0-1.2-0.7-2.1-2-2.1c-1.4,0-3.3,1.2-3.8,4.1l-0.6,3.9H329.2z"/>
		</g>
		<g class="st5">
			<path class="st6" d="M150.2,1806.8l-1.6-3.5h-7.7l-1.6,3.5h-0.9l6.3-13.6l6.3,13.6H150.2z M141.3,1802.6h7l-3.5-7.7L141.3,1802.6
				z"/>
			<path class="st6" d="M152.8,1806.8V1793h0.8v13.8H152.8z"/>
			<path class="st6" d="M156.7,1809.9v-1c0.8,0.8,2,1.5,3.6,1.5s3.7-0.8,3.7-3.9l0-1.7c-0.6,1.1-2,2.1-3.6,2.1c-2.4,0-4.4-2-4.4-4.5
				s2-4.5,4.4-4.5c1.6,0,3,1.1,3.6,2.1v-1.9h0.7v8.3c0,4-2.9,4.8-4.5,4.8C158.7,1811.2,157.4,1810.5,156.7,1809.9z M164,1802.5
				c0-2.1-1.6-3.8-3.6-3.8c-2,0-3.6,1.7-3.6,3.8s1.6,3.8,3.6,3.8C162.4,1806.3,164,1804.6,164,1802.5z"/>
			<path class="st6" d="M167.2,1802.5c0-2.5,2-4.5,4.4-4.5c2.4,0,4.4,2,4.4,4.5s-2,4.5-4.4,4.5C169.2,1807,167.2,1805,167.2,1802.5z
				 M175.2,1802.5c0-2.1-1.6-3.8-3.6-3.8c-2,0-3.6,1.7-3.6,3.8s1.6,3.8,3.6,3.8C173.6,1806.3,175.2,1804.6,175.2,1802.5z"/>
			<path class="st6" d="M178.4,1806.8v-8.6h0.7v1.9c0.5-1,1.5-2.1,3.2-2.1c1.8,0,3.3,1.2,3.3,3.4v5.4h-0.8v-5.4
				c0-1.8-1.2-2.7-2.5-2.7c-1.4,0-3.1,1.3-3.1,3.9v4.2H178.4z"/>
			<path class="st6" d="M195.9,1811v-3.9c0-0.8,0.1-1.6,0.1-2.3c-0.6,1.1-2,2.1-3.6,2.1c-2.4,0-4.4-2-4.4-4.5s2-4.5,4.4-4.5
				c1.6,0,3,1,3.6,2.1v-1.9h0.7v12.8H195.9z M195.9,1802.5c0-2.1-1.6-3.8-3.6-3.8c-2,0-3.6,1.7-3.6,3.8s1.6,3.8,3.6,3.8
				C194.3,1806.3,195.9,1804.6,195.9,1802.5z"/>
			<path class="st6" d="M199.9,1803.6v-5.4h0.8v5.4c0,1.8,1.2,2.7,2.4,2.7c1.4,0,3.1-1.3,3.1-3.9v-4.2h0.8v8.6h-0.7v-1.9
				c-0.5,1-1.5,2.1-3.2,2.1C201.3,1807,199.9,1805.7,199.9,1803.6z"/>
			<path class="st6" d="M209.8,1795.3c0-0.4,0.3-0.7,0.7-0.7c0.4,0,0.8,0.3,0.8,0.7c0,0.4-0.3,0.7-0.8,0.7
				C210.2,1796,209.8,1795.7,209.8,1795.3z M210.2,1806.8v-8.6h0.8v8.6H210.2z"/>
			<path class="st6" d="M214.2,1806.8v-8.6h0.7v1.9c0.5-1,1.5-2.1,3.2-2.1c1.8,0,3.3,1.2,3.3,3.4v5.4h-0.8v-5.4
				c0-1.8-1.2-2.7-2.5-2.7c-1.4,0-3.1,1.3-3.1,3.9v4.2H214.2z"/>
			<path class="st6" d="M227.7,1800.2c0-3.8,3.1-6.9,6.8-6.9c1.5,0,3,0.5,4.2,1.4v1.1c-1.1-1.1-2.6-1.8-4.2-1.8c-3.3,0-6,2.8-6,6.1
				s2.7,6.1,6,6.1c1.6,0,3.1-0.7,4.2-1.8v1.1c-1.2,0.9-2.7,1.4-4.2,1.4C230.8,1807.1,227.7,1804,227.7,1800.2z"/>
			<path class="st6" d="M240.2,1802.5c0-2.5,2-4.5,4.4-4.5c2.4,0,4.4,2,4.4,4.5s-2,4.5-4.4,4.5C242.2,1807,240.2,1805,240.2,1802.5z
				 M248.3,1802.5c0-2.1-1.6-3.8-3.6-3.8c-2,0-3.6,1.7-3.6,3.8s1.6,3.8,3.6,3.8C246.7,1806.3,248.3,1804.6,248.3,1802.5z"/>
			<path class="st6" d="M251.5,1806.8V1793h0.8v13.8H251.5z"/>
			<path class="st6" d="M255.5,1806.8V1793h0.8v13.8H255.5z"/>
			<path class="st6" d="M259.5,1802.3v0.2c0,2,1.3,3.7,3.5,3.7c1.5,0,2.5-0.7,3.3-1.4v1c-0.3,0.3-1.5,1.2-3.4,1.2
				c-2.6,0-4.3-2-4.3-4.5c0-2.5,1.7-4.6,4.2-4.6c2.5,0,4,2,4,3.7c0,0.3,0,0.5,0,0.7H259.5z M259.6,1801.6h6.5c0-1.4-1.3-2.9-3.2-2.9
				C261.3,1798.7,260,1799.9,259.6,1801.6z"/>
			<path class="st6" d="M269.2,1809.9v-1c0.8,0.8,2,1.5,3.6,1.5s3.7-0.8,3.7-3.9l0-1.7c-0.6,1.1-2,2.1-3.6,2.1c-2.4,0-4.4-2-4.4-4.5
				s2-4.5,4.4-4.5c1.6,0,3,1.1,3.6,2.1v-1.9h0.7v8.3c0,4-2.9,4.8-4.5,4.8C271.3,1811.2,269.9,1810.5,269.2,1809.9z M276.5,1802.5
				c0-2.1-1.6-3.8-3.6-3.8c-2,0-3.6,1.7-3.6,3.8s1.6,3.8,3.6,3.8C274.9,1806.3,276.5,1804.6,276.5,1802.5z"/>
			<path class="st6" d="M280.5,1802.3v0.2c0,2,1.3,3.7,3.5,3.7c1.5,0,2.5-0.7,3.3-1.4v1c-0.3,0.3-1.5,1.2-3.4,1.2
				c-2.6,0-4.3-2-4.3-4.5c0-2.5,1.7-4.6,4.2-4.6c2.5,0,4,2,4,3.7c0,0.3,0,0.5,0,0.7H280.5z M280.6,1801.6h6.5c0-1.4-1.3-2.9-3.2-2.9
				C282.3,1798.7,280.9,1799.9,280.6,1801.6z"/>
		</g>
	</g>
	<g id="Group_393" transform="translate(-2 7.374)">
		<g class="st5">
			<path class="st3" d="M138.6,1885.6l4.9-6.7c0.9-1.3,1.9-2.5,1.9-3.9c0-1.2-0.7-1.8-1.9-1.8c-1.3,0-2.7,1-4.1,2.1v-3.4
				c0.8-0.6,2.5-1.5,4.5-1.5c2.9,0,4.7,1.9,4.7,4.6c0,2.5-1.7,4.2-2.9,5.8l-1.6,2h5.1v2.8H138.6z"/>
			<path class="st3" d="M150.8,1880.7v-4.9c0-3,2.4-5.3,5.5-5.3c3,0,5.5,2.2,5.5,5.3v4.9c0,3-2.4,5.3-5.5,5.3
				C153.1,1886,150.8,1883.7,150.8,1880.7z M158.6,1880.7v-4.9c0-1.5-1-2.5-2.3-2.5c-1.3,0-2.3,1-2.3,2.5v4.9c0,1.5,1,2.5,2.3,2.5
				C157.6,1883.1,158.6,1882.2,158.6,1880.7z"/>
			<path class="st3" d="M166.2,1885.6v-11l-3.1,1.1v-2.8l6.2-2.6v15.3H166.2z"/>
			<path class="st3" d="M170.8,1885.6l4.9-6.7c0.9-1.3,1.9-2.5,1.9-3.9c0-1.2-0.7-1.8-1.9-1.8c-1.3,0-2.7,1-4.1,2.1v-3.4
				c0.8-0.6,2.5-1.5,4.5-1.5c2.9,0,4.7,1.9,4.7,4.6c0,2.5-1.7,4.2-2.9,5.8l-1.6,2h5.1v2.8H170.8z"/>
		</g>
		<g class="st5">
			<path class="st6" d="M138.7,1915.1l3.6-13.6l3.6,12.3l7.5-12.3l-0.8,13.6h-0.8l0.7-10.9l-6.9,11.3l-3.4-11.3l-2.8,10.9H138.7z"/>
			<path class="st6" d="M155.2,1911.4c0-2.9,2.3-5.1,4.8-5.1c1.6,0,2.7,1,3.2,2.1l0.3-1.9h0.7l-1.4,8.6h-0.7l0.4-1.9
				c-0.8,1.2-2,2.1-3.7,2.1C156.6,1915.3,155.2,1913.6,155.2,1911.4z M162.9,1910.1c0-1.7-1-3.1-2.8-3.1c-2.1,0-4,1.9-4,4.4
				c0,1.8,1,3.2,2.8,3.2C160.9,1914.6,162.9,1912.7,162.9,1910.1z"/>
			<path class="st6" d="M165.5,1914.6l0.1-0.9c0.8,0.5,2,0.9,2.9,0.9c1.6,0,2.2-0.8,2.2-1.6c0-1-0.5-1.3-1.9-2
				c-1.6-0.8-2.4-1.5-2.4-2.6c0-1.2,1-2.2,2.9-2.2c1.1,0,2.2,0.3,2.7,0.6l-0.1,0.9c-0.9-0.5-1.8-0.7-2.7-0.7c-1.4,0-2.1,0.6-2.1,1.4
				c0,0.8,0.5,1.2,1.9,1.9c1.6,0.8,2.4,1.3,2.4,2.7c0,1.2-1,2.4-3,2.4C167.3,1915.3,166.1,1914.9,165.5,1914.6z"/>
			<path class="st6" d="M174.8,1913c0-0.2,0-0.5,0-0.6l0.8-5.2h-2.1l0.1-0.7h2.1l0.3-2h0.8l-0.3,2h3l-0.1,0.7h-3l-0.8,5.2
				c0,0.2,0,0.4,0,0.6c0,1,0.6,1.5,1.7,1.5c0.4,0,0.8-0.1,1.1-0.2l-0.1,0.8c-0.3,0.1-0.7,0.1-1.1,0.1
				C175.8,1915.2,174.8,1914.5,174.8,1913z"/>
			<path class="st6" d="M180.7,1910.6c0,0.2-0.1,0.5-0.1,0.8c0,1.8,1,3.2,2.8,3.2c1.4,0,2.5-0.5,3.5-1.3l-0.2,1
				c-0.7,0.4-1.9,1-3.4,1c-2.1,0-3.6-1.7-3.6-3.9c0-2.9,2.3-5.1,4.8-5.1c2.1,0,3.5,1.4,3.5,3.4c0,0.3,0,0.6,0,0.9H180.7z
				 M180.9,1909.9h6.5v-0.3c0-1.4-1-2.5-2.7-2.5C183,1907,181.5,1908.2,180.9,1909.9z"/>
			<path class="st6" d="M189.8,1915.1l1.4-8.6h0.8l-0.4,2.1c0.6-1,1.6-2.2,3.3-2.2c0.5,0,0.8,0.1,1,0.1l-0.1,0.8
				c-0.3-0.1-0.6-0.2-0.9-0.2c-1.8,0-3.3,2-3.7,4.3l-0.6,3.7H189.8z"/>
			<path class="st6" d="M196,1914.6l0.1-0.9c0.8,0.5,2,0.9,2.9,0.9c1.6,0,2.2-0.8,2.2-1.6c0-1-0.5-1.3-1.9-2
				c-1.6-0.8-2.4-1.5-2.4-2.6c0-1.2,1-2.2,2.9-2.2c1.1,0,2.2,0.3,2.7,0.6l-0.1,0.9c-0.9-0.5-1.8-0.7-2.7-0.7c-1.4,0-2.1,0.6-2.1,1.4
				c0,0.8,0.5,1.2,1.9,1.9c1.6,0.8,2.4,1.3,2.4,2.7c0,1.2-1,2.4-3,2.4C197.7,1915.3,196.5,1914.9,196,1914.6z"/>
			<path class="st6" d="M208,1911.4c0-2.9,2.3-5.1,4.8-5.1c2.2,0,3.6,1.7,3.6,3.9c0,2.9-2.3,5.1-4.8,5.1
				C209.5,1915.3,208,1913.6,208,1911.4z M215.7,1910.2c0-1.8-1.1-3.2-2.9-3.2c-2.1,0-4,1.9-4,4.4c0,1.8,1.1,3.2,2.9,3.2
				C213.8,1914.6,215.7,1912.7,215.7,1910.2z"/>
			<path class="st6" d="M218.8,1915.1l1.3-7.9H218l0.1-0.7h2.1l0.4-2.4c0.3-2,1.6-2.8,3.2-2.8c0.3,0,0.8,0.1,1,0.2l-0.1,0.7
				c-0.3-0.1-0.6-0.2-0.9-0.2c-1.4,0-2.1,0.7-2.4,2.1l-0.4,2.3h2.9l-0.1,0.7h-2.9l-1.3,7.9H218.8z"/>
			<path class="st6" d="M238.9,1915.1l-1-3.5h-7.7l-2.1,3.5h-0.9l8.4-13.6l4.2,13.6H238.9z M230.6,1910.9h7l-2.3-7.7L230.6,1910.9z"
				/>
			<path class="st6" d="M241.4,1915.1l1.4-8.6h0.8l-0.4,2.1c0.6-1,1.6-2.2,3.3-2.2c0.5,0,0.8,0.1,1,0.1l-0.1,0.8
				c-0.3-0.1-0.6-0.2-0.9-0.2c-1.8,0-3.3,2-3.7,4.3l-0.6,3.7H241.4z"/>
			<path class="st6" d="M249.6,1913c0-0.2,0-0.5,0-0.6l0.8-5.2h-2.1l0.1-0.7h2.1l0.3-2h0.8l-0.3,2h3l-0.1,0.7h-3l-0.8,5.2
				c0,0.2,0,0.4,0,0.6c0,1,0.6,1.5,1.7,1.5c0.4,0,0.8-0.1,1.1-0.2l-0.1,0.8c-0.3,0.1-0.7,0.1-1.1,0.1
				C250.7,1915.2,249.6,1914.5,249.6,1913z"/>
			<path class="st6" d="M259.3,1915.1l2.1-13.2h0.8l-1,6.1h8.2l1-6.1h0.8l-2.1,13.2h-0.8l1-6.4h-8.2l-1,6.4H259.3z"/>
			<path class="st6" d="M272.4,1915.1l1.4-8.6h0.8l-1.4,8.6H272.4z M273.8,1903.7c0-0.4,0.4-0.8,0.8-0.8c0.4,0,0.7,0.3,0.7,0.7
				c0,0.4-0.4,0.8-0.8,0.8C274.1,1904.3,273.8,1904,273.8,1903.7z"/>
			<path class="st6" d="M275.8,1914.6l0.1-0.9c0.8,0.5,2,0.9,2.9,0.9c1.6,0,2.2-0.8,2.2-1.6c0-1-0.5-1.3-1.9-2
				c-1.6-0.8-2.4-1.5-2.4-2.6c0-1.2,1-2.2,2.9-2.2c1.1,0,2.2,0.3,2.7,0.6l-0.1,0.9c-0.9-0.5-1.8-0.7-2.7-0.7c-1.4,0-2.1,0.6-2.1,1.4
				c0,0.8,0.5,1.2,1.9,1.9c1.6,0.8,2.4,1.3,2.4,2.7c0,1.2-1,2.4-3,2.4C277.6,1915.3,276.4,1914.9,275.8,1914.6z"/>
			<path class="st6" d="M285.1,1913c0-0.2,0-0.5,0-0.6l0.8-5.2h-2.1l0.1-0.7h2.1l0.3-2h0.8l-0.3,2h3l-0.1,0.7h-3l-0.8,5.2
				c0,0.2,0,0.4,0,0.6c0,1,0.6,1.5,1.7,1.5c0.4,0,0.8-0.1,1.1-0.2l-0.1,0.8c-0.3,0.1-0.7,0.1-1.1,0.1
				C286.1,1915.2,285.1,1914.5,285.1,1913z"/>
			<path class="st6" d="M290.2,1911.4c0-2.9,2.3-5.1,4.8-5.1c2.2,0,3.6,1.7,3.6,3.9c0,2.9-2.3,5.1-4.8,5.1
				C291.7,1915.3,290.2,1913.6,290.2,1911.4z M297.8,1910.2c0-1.8-1.1-3.2-2.9-3.2c-2.1,0-4,1.9-4,4.4c0,1.8,1.1,3.2,2.9,3.2
				C295.9,1914.6,297.8,1912.7,297.8,1910.2z"/>
			<path class="st6" d="M300.3,1915.1l1.4-8.6h0.8l-0.4,2.1c0.6-1,1.6-2.2,3.3-2.2c0.5,0,0.8,0.1,1,0.1l-0.1,0.8
				c-0.3-0.1-0.6-0.2-0.9-0.2c-1.8,0-3.3,2-3.7,4.3l-0.6,3.7H300.3z"/>
			<path class="st6" d="M306.9,1919.3l2.8-4.5l-2.4-8.3h0.8l2.1,7.4l4.5-7.4h0.9l-5,8.2l-2.8,4.7H306.9z"/>
		</g>
		<g class="st5">
			<path class="st6" d="M139.7,1934.2v-8.3h0.8v8.3c0,3.1,1.6,4.4,4.1,4.4c2.5,0,4.1-1.3,4.1-4.4v-8.3h0.8v8.3c0,3.5-2,5.2-4.9,5.2
				C141.7,1939.4,139.7,1937.7,139.7,1934.2z"/>
			<path class="st6" d="M152.5,1939.1v-8.6h0.7v1.9c0.5-1,1.5-2.1,3.2-2.1c1.8,0,3.3,1.2,3.3,3.4v5.4h-0.8v-5.4
				c0-1.8-1.2-2.7-2.5-2.7c-1.4,0-3.1,1.3-3.1,3.9v4.2H152.5z"/>
			<path class="st6" d="M162.4,1927.6c0-0.4,0.3-0.7,0.7-0.7c0.4,0,0.8,0.3,0.8,0.7c0,0.4-0.3,0.7-0.8,0.7
				C162.7,1928.3,162.4,1928,162.4,1927.6z M162.7,1939.1v-8.6h0.8v8.6H162.7z"/>
			<path class="st6" d="M165.4,1930.5h0.9l3.3,7.2l3.3-7.2h0.9l-4.1,9L165.4,1930.5z"/>
			<path class="st6" d="M175.2,1934.6v0.2c0,2,1.3,3.7,3.5,3.7c1.5,0,2.5-0.7,3.3-1.4v1c-0.3,0.3-1.5,1.2-3.4,1.2
				c-2.6,0-4.3-2-4.3-4.5c0-2.5,1.7-4.6,4.2-4.6c2.5,0,4,2,4,3.7c0,0.3,0,0.5,0,0.7H175.2z M175.3,1933.9h6.5c0-1.4-1.3-2.9-3.2-2.9
				C177,1931,175.7,1932.2,175.3,1933.9z"/>
			<path class="st6" d="M185,1939.1v-8.6h0.7v2c0.4-1,1.3-2.1,3-2.1c0.5,0,0.8,0.1,1,0.1v0.8c-0.3-0.1-0.6-0.2-1-0.2
				c-1.8,0-2.9,1.8-2.9,4.3v3.8H185z"/>
			<path class="st6" d="M191,1938.6v-0.9c0.9,0.5,2,0.9,3,0.9c1.3,0,2.1-0.6,2.1-1.6s-0.6-1.5-2.2-2c-2-0.6-2.8-1.3-2.8-2.6
				c0-1.4,1.1-2.2,2.8-2.2c1.1,0,2,0.3,2.6,0.5v0.9c-0.9-0.5-1.7-0.7-2.6-0.7c-1.2,0-2,0.5-2,1.5c0,0.9,0.6,1.4,2.2,1.9
				c2,0.6,2.8,1.3,2.8,2.7c0,1.4-1.1,2.3-2.9,2.3C192.7,1939.3,191.6,1938.9,191,1938.6z"/>
			<path class="st6" d="M199.1,1927.6c0-0.4,0.3-0.7,0.7-0.7c0.4,0,0.8,0.3,0.8,0.7c0,0.4-0.3,0.7-0.8,0.7
				C199.4,1928.3,199.1,1928,199.1,1927.6z M199.4,1939.1v-8.6h0.8v8.6H199.4z"/>
			<path class="st6" d="M204.1,1936.4v-5.2H202v-0.7h2.1v-2h0.8v2h3v0.7h-3v5.2c0,1.4,0.6,2.1,2,2.1c0.4,0,0.7-0.1,1-0.2v0.8
				c-0.3,0.1-0.7,0.1-1,0.1C205.3,1939.2,204.1,1938.4,204.1,1936.4z"/>
			<path class="st6" d="M210.4,1943.3l2-4.5l-3.7-8.3h0.9l3.2,7.4l3.3-7.4h0.9l-3.7,8.2l-2,4.7H210.4z"/>
			<path class="st6" d="M221.9,1934.8c0-2.5,2-4.5,4.4-4.5c2.4,0,4.4,2,4.4,4.5s-2,4.5-4.4,4.5
				C223.9,1939.3,221.9,1937.3,221.9,1934.8z M230,1934.8c0-2.1-1.6-3.8-3.6-3.8c-2,0-3.6,1.7-3.6,3.8s1.6,3.8,3.6,3.8
				C228.4,1938.6,230,1936.9,230,1934.8z"/>
			<path class="st6" d="M233.9,1939.1v-7.9h-2.1v-0.7h2.1v-2.4c0-2,1.2-2.8,2.8-2.8c0.3,0,0.7,0,1,0.1v0.8c-0.3-0.1-0.7-0.2-1-0.2
				c-1.3,0-2,0.7-2,2.1v2.4h2.9v0.7h-2.9v7.9H233.9z"/>
			<path class="st6" d="M246.4,1939.1v-12.5h-4.2v-0.7h9.3v0.7h-4.2v12.5H246.4z"/>
			<path class="st6" d="M250.4,1934.8c0-2.5,2-4.5,4.4-4.5c2.4,0,4.4,2,4.4,4.5s-2,4.5-4.4,4.5
				C252.4,1939.3,250.4,1937.3,250.4,1934.8z M258.4,1934.8c0-2.1-1.6-3.8-3.6-3.8c-2,0-3.6,1.7-3.6,3.8s1.6,3.8,3.6,3.8
				C256.8,1938.6,258.4,1936.9,258.4,1934.8z"/>
			<path class="st6" d="M261.6,1939.1v-8.6h0.7v2c0.4-1,1.3-2.1,3-2.1c0.5,0,0.8,0.1,1,0.1v0.8c-0.3-0.1-0.6-0.2-1-0.2
				c-1.8,0-2.9,1.8-2.9,4.3v3.8H261.6z"/>
			<path class="st6" d="M266.8,1934.8c0-2.5,2-4.5,4.4-4.5c2.4,0,4.4,2,4.4,4.5s-2,4.5-4.4,4.5
				C268.8,1939.3,266.8,1937.3,266.8,1934.8z M274.8,1934.8c0-2.1-1.6-3.8-3.6-3.8c-2,0-3.6,1.7-3.6,3.8s1.6,3.8,3.6,3.8
				C273.2,1938.6,274.8,1936.9,274.8,1934.8z"/>
			<path class="st6" d="M278,1939.1v-8.6h0.7v1.9c0.5-1,1.5-2.1,3.2-2.1c1.8,0,3.3,1.2,3.3,3.4v5.4h-0.8v-5.4c0-1.8-1.2-2.7-2.5-2.7
				c-1.4,0-3.1,1.3-3.1,3.9v4.2H278z"/>
			<path class="st6" d="M288.6,1936.4v-5.2h-2.1v-0.7h2.1v-2h0.8v2h3v0.7h-3v5.2c0,1.4,0.6,2.1,2,2.1c0.4,0,0.7-0.1,1-0.2v0.8
				c-0.3,0.1-0.7,0.1-1,0.1C289.7,1939.2,288.6,1938.4,288.6,1936.4z"/>
			<path class="st6" d="M293.3,1934.8c0-2.5,2-4.5,4.4-4.5c2.4,0,4.4,2,4.4,4.5s-2,4.5-4.4,4.5
				C295.3,1939.3,293.3,1937.3,293.3,1934.8z M301.3,1934.8c0-2.1-1.6-3.8-3.6-3.8c-2,0-3.6,1.7-3.6,3.8s1.6,3.8,3.6,3.8
				C299.7,1938.6,301.3,1936.9,301.3,1934.8z"/>
		</g>
	</g>
	<g id="Group_394" transform="translate(-2 0.243)">
		<g class="st5">
			<path class="st3" d="M138.6,2032.8l4.9-6.7c0.9-1.3,1.9-2.5,1.9-3.9c0-1.2-0.7-1.8-1.9-1.8c-1.3,0-2.7,1-4.1,2.1v-3.4
				c0.8-0.6,2.5-1.5,4.5-1.5c2.9,0,4.7,1.9,4.7,4.6c0,2.5-1.7,4.2-2.9,5.8l-1.6,2h5.1v2.8H138.6z"/>
			<path class="st3" d="M150.8,2027.8v-4.9c0-3,2.4-5.3,5.5-5.3c3,0,5.5,2.2,5.5,5.3v4.9c0,3-2.4,5.3-5.5,5.3
				C153.1,2033.1,150.8,2030.8,150.8,2027.8z M158.6,2027.8v-4.9c0-1.5-1-2.5-2.3-2.5c-1.3,0-2.3,1-2.3,2.5v4.9c0,1.5,1,2.5,2.3,2.5
				C157.6,2030.3,158.6,2029.3,158.6,2027.8z"/>
			<path class="st3" d="M166.2,2032.8v-11l-3.1,1.1v-2.8l6.2-2.6v15.3H166.2z"/>
			<path class="st3" d="M174.2,2032.8v-11l-3.1,1.1v-2.8l6.2-2.6v15.3H174.2z"/>
		</g>
		<g class="st5">
			<path class="st6" d="M139.4,2062.2l2.1-13.2h3.5c2.5,0,3.7,1.3,3.7,3.1c0,1.9-1.5,2.9-2.8,3.3c1.3,0.4,2.4,1.3,2.4,2.9
				c0,1.9-1.6,3.9-5.1,3.9H139.4z M140.3,2061.5h3c2.9,0,4.2-1.6,4.2-3.1c0-1.4-0.9-2.5-3.3-2.5h-3.1L140.3,2061.5z M141.3,2055.1
				h2.8c2.6,0,3.9-1.6,3.9-3c0-1.4-0.8-2.4-3-2.4h-2.8L141.3,2055.1z"/>
			<path class="st6" d="M150.2,2058.5c0-2.9,2.3-5.1,4.8-5.1c1.6,0,2.7,1,3.2,2.1l0.3-1.9h0.7l-1.4,8.6h-0.7l0.4-1.9
				c-0.8,1.2-2,2.1-3.7,2.1C151.6,2062.4,150.2,2060.8,150.2,2058.5z M157.8,2057.3c0-1.7-1-3.1-2.8-3.1c-2.1,0-4,1.9-4,4.4
				c0,1.8,1,3.2,2.8,3.2C155.9,2061.7,157.8,2059.8,157.8,2057.3z"/>
			<path class="st6" d="M160.9,2058.5c0-2.9,2.3-5.1,4.9-5.1c1.3,0,2.4,0.5,3.2,1.1l-0.1,0.9c-1-0.8-2.1-1.2-3-1.2
				c-2.2,0-4.1,1.9-4.1,4.4c0,2.1,1.3,3.2,2.8,3.2c1.4,0,2.5-0.5,3.5-1.3l-0.2,1c-0.7,0.4-1.9,1-3.4,1
				C162.5,2062.4,160.9,2061,160.9,2058.5z"/>
			<path class="st6" d="M170.1,2062.2l2.2-13.8h0.8l-0.8,4.8c-0.1,0.8-0.3,1.6-0.4,2.2c0.6-1.1,1.7-2.1,3.4-2.1
				c1.6,0,2.8,1.2,2.8,2.8c0,0.2,0,0.5-0.1,1l-0.8,4.9h-0.8l0.8-5c0.1-0.6,0.1-0.8,0.1-1c0-1.2-0.8-2.1-2-2.1
				c-1.4,0-3.3,1.3-3.7,3.9l-0.7,4.1H170.1z"/>
			<path class="st6" d="M181,2057.8c0,0.2-0.1,0.5-0.1,0.8c0,1.8,1,3.2,2.8,3.2c1.4,0,2.5-0.5,3.5-1.3l-0.2,1c-0.7,0.4-1.9,1-3.4,1
				c-2.1,0-3.6-1.7-3.6-3.9c0-2.9,2.3-5.1,4.8-5.1c2.1,0,3.5,1.4,3.5,3.4c0,0.3,0,0.6,0,0.9H181z M181.2,2057h6.5v-0.3
				c0-1.4-1-2.5-2.7-2.5C183.3,2054.2,181.7,2055.3,181.2,2057z"/>
			<path class="st6" d="M190.1,2062.2l2.2-13.8h0.8l-2.2,13.8H190.1z"/>
			<path class="st6" d="M193.9,2058.5c0-2.9,2.3-5.1,4.8-5.1c2.2,0,3.6,1.7,3.6,3.9c0,2.9-2.3,5.1-4.8,5.1
				C195.4,2062.4,193.9,2060.8,193.9,2058.5z M201.6,2057.3c0-1.8-1.1-3.2-2.9-3.2c-2.1,0-4,1.9-4,4.4c0,1.8,1.1,3.2,2.9,3.2
				C199.7,2061.7,201.6,2059.8,201.6,2057.3z"/>
			<path class="st6" d="M204,2062.2l1.4-8.6h0.8l-0.4,2.1c0.6-1,1.6-2.2,3.3-2.2c0.5,0,0.8,0.1,1,0.1l-0.1,0.8
				c-0.3-0.1-0.6-0.2-0.9-0.2c-1.8,0-3.3,2-3.7,4.3l-0.6,3.7H204z"/>
			<path class="st6" d="M210.2,2061.7l0.1-0.9c0.8,0.5,2,0.9,2.9,0.9c1.6,0,2.2-0.8,2.2-1.6c0-1-0.5-1.3-1.9-2
				c-1.6-0.8-2.4-1.5-2.4-2.6c0-1.2,1-2.2,2.9-2.2c1.1,0,2.2,0.3,2.7,0.6l-0.1,0.9c-0.9-0.5-1.8-0.7-2.7-0.7c-1.4,0-2.1,0.6-2.1,1.4
				c0,0.8,0.5,1.2,1.9,1.9c1.6,0.8,2.4,1.3,2.4,2.7c0,1.2-1,2.4-3,2.4C211.9,2062.5,210.7,2062,210.2,2061.7z"/>
			<path class="st6" d="M222.3,2058.5c0-2.9,2.3-5.1,4.8-5.1c2.2,0,3.6,1.7,3.6,3.9c0,2.9-2.3,5.1-4.8,5.1
				C223.7,2062.4,222.3,2060.8,222.3,2058.5z M229.9,2057.3c0-1.8-1.1-3.2-2.9-3.2c-2.1,0-4,1.9-4,4.4c0,1.8,1.1,3.2,2.9,3.2
				C228,2061.7,229.9,2059.8,229.9,2057.3z"/>
			<path class="st6" d="M233.1,2062.2l1.3-7.9h-2.1l0.1-0.7h2.1l0.4-2.4c0.3-2,1.6-2.8,3.2-2.8c0.3,0,0.8,0.1,1,0.2l-0.1,0.7
				c-0.3-0.1-0.6-0.2-0.9-0.2c-1.4,0-2.1,0.7-2.4,2.1l-0.4,2.3h2.9l-0.1,0.7h-2.9l-1.3,7.9H233.1z"/>
			<path class="st6" d="M243,2062.2l2.1-13.2h7.4l-0.1,0.7h-6.6l-0.9,5.9h5.9l-0.1,0.7h-5.9l-0.9,5.8H243z"/>
			<path class="st6" d="M252.4,2062.2l1.4-8.6h0.8l-1.4,8.6H252.4z M253.9,2050.8c0-0.4,0.4-0.8,0.8-0.8c0.4,0,0.7,0.3,0.7,0.7
				c0,0.4-0.4,0.8-0.8,0.8C254.1,2051.5,253.9,2051.2,253.9,2050.8z"/>
			<path class="st6" d="M256.4,2062.2l1.4-8.6h0.8l-0.3,1.9c0.6-1.1,1.7-2.1,3.4-2.1c1.7,0,2.7,1.2,2.7,2.8c0,0.3,0,0.7-0.1,1
				l-0.8,4.9h-0.8l0.8-5c0.1-0.4,0.1-0.7,0.1-1c0-1.2-0.7-2.1-2-2.1c-1.4,0-3.3,1.2-3.8,4.1l-0.6,3.9H256.4z"/>
			<path class="st6" d="M267.2,2057.8c0,0.2-0.1,0.5-0.1,0.8c0,1.8,1,3.2,2.8,3.2c1.4,0,2.5-0.5,3.5-1.3l-0.2,1
				c-0.7,0.4-1.9,1-3.4,1c-2.1,0-3.6-1.7-3.6-3.9c0-2.9,2.3-5.1,4.8-5.1c2.1,0,3.5,1.4,3.5,3.4c0,0.3,0,0.6,0,0.9H267.2z
				 M267.4,2057h6.5v-0.3c0-1.4-1-2.5-2.7-2.5C269.5,2054.2,268,2055.3,267.4,2057z"/>
			<path class="st6" d="M290.5,2062.2l-1-3.5h-7.7l-2.1,3.5h-0.9l8.4-13.6l4.2,13.6H290.5z M282.2,2058h7l-2.3-7.7L282.2,2058z"/>
			<path class="st6" d="M293,2062.2l1.4-8.6h0.8l-0.4,2.1c0.6-1,1.6-2.2,3.3-2.2c0.5,0,0.8,0.1,1,0.1l-0.1,0.8
				c-0.3-0.1-0.6-0.2-0.9-0.2c-1.8,0-3.3,2-3.7,4.3l-0.6,3.7H293z"/>
			<path class="st6" d="M301.2,2060.2c0-0.2,0-0.5,0-0.6l0.8-5.2h-2.1l0.1-0.7h2.1l0.3-2h0.8l-0.3,2h3l-0.1,0.7h-3l-0.8,5.2
				c0,0.2,0,0.4,0,0.6c0,1,0.6,1.5,1.7,1.5c0.4,0,0.8-0.1,1.1-0.2l-0.1,0.8c-0.3,0.1-0.7,0.1-1.1,0.1
				C302.2,2062.3,301.2,2061.6,301.2,2060.2z"/>
			<path class="st6" d="M306.3,2061.7l0.1-0.9c0.8,0.5,2,0.9,2.9,0.9c1.6,0,2.2-0.8,2.2-1.6c0-1-0.5-1.3-1.9-2
				c-1.6-0.8-2.4-1.5-2.4-2.6c0-1.2,1-2.2,2.9-2.2c1.1,0,2.2,0.3,2.7,0.6l-0.1,0.9c-0.9-0.5-1.8-0.7-2.7-0.7c-1.4,0-2.1,0.6-2.1,1.4
				c0,0.8,0.5,1.2,1.9,1.9c1.6,0.8,2.4,1.3,2.4,2.7c0,1.2-1,2.4-3,2.4C308,2062.5,306.8,2062,306.3,2061.7z"/>
		</g>
		<g class="st5">
			<path class="st6" d="M139.7,2081.3v-8.3h0.8v8.3c0,3.1,1.6,4.4,4.1,4.4c2.5,0,4.1-1.3,4.1-4.4v-8.3h0.8v8.3c0,3.5-2,5.2-4.9,5.2
				C141.7,2086.5,139.7,2084.8,139.7,2081.3z"/>
			<path class="st6" d="M152.5,2086.2v-8.6h0.7v1.9c0.5-1,1.5-2.1,3.2-2.1c1.8,0,3.3,1.2,3.3,3.4v5.4h-0.8v-5.4
				c0-1.8-1.2-2.7-2.5-2.7c-1.4,0-3.1,1.3-3.1,3.9v4.2H152.5z"/>
			<path class="st6" d="M162.4,2074.7c0-0.4,0.3-0.7,0.7-0.7c0.4,0,0.8,0.3,0.8,0.7c0,0.4-0.3,0.7-0.8,0.7
				C162.7,2075.5,162.4,2075.1,162.4,2074.7z M162.7,2086.2v-8.6h0.8v8.6H162.7z"/>
			<path class="st6" d="M165.4,2077.6h0.9l3.3,7.2l3.3-7.2h0.9l-4.1,9L165.4,2077.6z"/>
			<path class="st6" d="M175.2,2081.8v0.2c0,2,1.3,3.7,3.5,3.7c1.5,0,2.5-0.7,3.3-1.4v1c-0.3,0.3-1.5,1.2-3.4,1.2
				c-2.6,0-4.3-2-4.3-4.5c0-2.5,1.7-4.6,4.2-4.6c2.5,0,4,2,4,3.7c0,0.3,0,0.5,0,0.7H175.2z M175.3,2081h6.5c0-1.4-1.3-2.9-3.2-2.9
				C177,2078.2,175.7,2079.3,175.3,2081z"/>
			<path class="st6" d="M185,2086.2v-8.6h0.7v2c0.4-1,1.3-2.1,3-2.1c0.5,0,0.8,0.1,1,0.1v0.8c-0.3-0.1-0.6-0.2-1-0.2
				c-1.8,0-2.9,1.8-2.9,4.3v3.8H185z"/>
			<path class="st6" d="M191,2085.8v-0.9c0.9,0.5,2,0.9,3,0.9c1.3,0,2.1-0.6,2.1-1.6s-0.6-1.5-2.2-2c-2-0.6-2.8-1.3-2.8-2.6
				c0-1.4,1.1-2.2,2.8-2.2c1.1,0,2,0.3,2.6,0.5v0.9c-0.9-0.5-1.7-0.7-2.6-0.7c-1.2,0-2,0.5-2,1.5c0,0.9,0.6,1.4,2.2,1.9
				c2,0.6,2.8,1.3,2.8,2.7c0,1.4-1.1,2.3-2.9,2.3C192.7,2086.5,191.6,2086,191,2085.8z"/>
			<path class="st6" d="M199.1,2074.7c0-0.4,0.3-0.7,0.7-0.7c0.4,0,0.8,0.3,0.8,0.7c0,0.4-0.3,0.7-0.8,0.7
				C199.4,2075.5,199.1,2075.1,199.1,2074.7z M199.4,2086.2v-8.6h0.8v8.6H199.4z"/>
			<path class="st6" d="M204.1,2083.5v-5.2H202v-0.7h2.1v-2h0.8v2h3v0.7h-3v5.2c0,1.4,0.6,2.1,2,2.1c0.4,0,0.7-0.1,1-0.2v0.8
				c-0.3,0.1-0.7,0.1-1,0.1C205.3,2086.3,204.1,2085.5,204.1,2083.5z"/>
			<path class="st6" d="M210.4,2090.5l2-4.5l-3.7-8.3h0.9l3.2,7.4l3.3-7.4h0.9l-3.7,8.2l-2,4.7H210.4z"/>
			<path class="st6" d="M221.9,2081.9c0-2.5,2-4.5,4.4-4.5c2.4,0,4.4,2,4.4,4.5s-2,4.5-4.4,4.5
				C223.9,2086.4,221.9,2084.4,221.9,2081.9z M230,2081.9c0-2.1-1.6-3.8-3.6-3.8c-2,0-3.6,1.7-3.6,3.8s1.6,3.8,3.6,3.8
				C228.4,2085.7,230,2084,230,2081.9z"/>
			<path class="st6" d="M233.9,2086.2v-7.9h-2.1v-0.7h2.1v-2.4c0-2,1.2-2.8,2.8-2.8c0.3,0,0.7,0,1,0.1v0.8c-0.3-0.1-0.7-0.2-1-0.2
				c-1.3,0-2,0.7-2,2.1v2.4h2.9v0.7h-2.9v7.9H233.9z"/>
			<path class="st6" d="M243,2079.6c0-3.8,3.1-6.9,6.8-6.9s6.8,3.1,6.8,6.9c0,3.8-3.1,6.9-6.8,6.9S243,2083.4,243,2079.6z
				 M255.9,2079.6c0-3.3-2.7-6.1-6-6.1s-6,2.8-6,6.1s2.7,6.1,6,6.1S255.9,2083,255.9,2079.6z"/>
			<path class="st6" d="M259.9,2083.5v-5.2h-2.1v-0.7h2.1v-2h0.8v2h3v0.7h-3v5.2c0,1.4,0.6,2.1,2,2.1c0.4,0,0.7-0.1,1-0.2v0.8
				c-0.3,0.1-0.7,0.1-1,0.1C261.1,2086.3,259.9,2085.5,259.9,2083.5z"/>
			<path class="st6" d="M266.8,2083.5v-5.2h-2.1v-0.7h2.1v-2h0.8v2h3v0.7h-3v5.2c0,1.4,0.6,2.1,2,2.1c0.4,0,0.7-0.1,1-0.2v0.8
				c-0.3,0.1-0.7,0.1-1,0.1C268,2086.3,266.8,2085.5,266.8,2083.5z"/>
			<path class="st6" d="M271.5,2081.9c0-2.5,2-4.5,4.4-4.5c1.6,0,3,1,3.6,2.1v-1.9h0.7v8.6h-0.7v-1.9c-0.6,1.1-2,2.1-3.6,2.1
				C273.5,2086.4,271.5,2084.4,271.5,2081.9z M279.6,2081.9c0-2.1-1.6-3.8-3.6-3.8c-2,0-3.6,1.7-3.6,3.8s1.6,3.8,3.6,3.8
				C277.9,2085.7,279.6,2084,279.6,2081.9z"/>
			<path class="st6" d="M282.2,2077.6h0.9l2.6,7l2.8-7.3l2.8,7.3l2.6-7h0.9l-3.5,9l-2.8-7.2l-2.8,7.2L282.2,2077.6z"/>
			<path class="st6" d="M295.5,2081.9c0-2.5,2-4.5,4.4-4.5c1.6,0,3,1,3.6,2.1v-1.9h0.7v8.6h-0.7v-1.9c-0.6,1.1-2,2.1-3.6,2.1
				C297.5,2086.4,295.5,2084.4,295.5,2081.9z M303.6,2081.9c0-2.1-1.6-3.8-3.6-3.8c-2,0-3.6,1.7-3.6,3.8s1.6,3.8,3.6,3.8
				C302,2085.7,303.6,2084,303.6,2081.9z"/>
		</g>
	</g>
</g>
</svg>
