<?xml version="1.0" encoding="utf-8"?>
<!-- Generator: Adobe Illustrator 25.4.1, SVG Export Plug-In . SVG Version: 6.00 Build 0)  -->
<svg version="1.1" id="Layer_1" xmlns="http://www.w3.org/2000/svg" xmlns:xlink="http://www.w3.org/1999/xlink" x="0px" y="0px"
	 viewBox="0 0 34 34.6" style="enable-background:new 0 0 34 34.6;" xml:space="preserve">
<style type="text/css">
	.st0{fill:#393E40;}
	.st1{fill:#E79B31;}
	.st2{fill:none;}
	.st3{fill:#3F88C5;}
	.st4{fill:#FBFBF2;}
</style>
<g id="Group_311" transform="translate(189.416)">
	<g id="Path_598">
		<path class="st4" d="M-172.4,34.5L-172.4,34.5c-9.4-0.1-17-7.8-16.8-17.2c-0.1-9.4,7.4-17.1,16.8-17.2c9.4,0.1,17,7.8,16.8,17.2
			C-155.5,26.7-163,34.4-172.4,34.5L-172.4,34.5z M-172.4,1.6c-8.5,0.1-15.4,7.1-15.3,15.7c-0.1,8.6,6.8,15.6,15.3,15.7
			c8.6-0.1,15.4-7.2,15.3-15.7C-157,8.7-163.9,1.7-172.4,1.6z"/>
	</g>
	<g id="Path_599">
		<path class="st4" d="M-181,22.8c1.6,1.1,3.5,1.6,5.4,1.6c5.6,0,10.1-4.6,10-10.2c0-0.2,0-0.4,0-0.6c0.7-0.5,1.3-1.1,1.8-1.9
			c-0.6,0.3-1.3,0.5-2,0.6c0.7-0.5,1.3-1.2,1.5-2c-0.7,0.4-1.4,0.7-2.2,0.9c-0.7-0.7-1.6-1.1-2.6-1.1c-2,0-3.6,1.7-3.5,3.6
			c0,0.3,0,0.5,0.1,0.8c-2.8-0.2-5.5-1.5-7.3-3.8c-0.9,1.6-0.5,3.7,1.1,4.8c-0.6,0-1.1-0.2-1.6-0.5c0,1.7,1.1,3.2,2.8,3.6
			c-0.5,0.1-1.1,0.2-1.6,0.1c0.4,1.5,1.8,2.5,3.3,2.5C-177.3,22.5-179.1,23-181,22.8z"/>
	</g>
</g>
</svg>
