<svg xmlns="http://www.w3.org/2000/svg" width="55.462" height="40.671" viewBox="0 0 55.462 40.671">
  <path id="noun-heart-email-504693" d="M87.875,165.2a1.266,1.266,0,0,0-1.075,1.232v32.041a1.249,1.249,0,0,0,1.18,1.232h37.638l5.163,5.777a1.156,1.156,0,0,0,1.728,0l8.208-9.188a6.445,6.445,0,0,0,0-8.373,5.065,5.065,0,0,0-5.532-1.485v-20a1.249,1.249,0,0,0-1.18-1.232Zm3.277,2.465h39.682l-19.841,18.056Zm-1.991,1.463,14.383,13.116L89.16,195.7Zm43.665,0v19.025l-1.18,1.331-1.38-1.562a5.019,5.019,0,0,0-6.68-.869l-5.142-4.808Zm-27.47,14.733,4.868,4.445a1.183,1.183,0,0,0,1.549,0l4.868-4.445,5.29,4.951a6.451,6.451,0,0,0,.643,7.493l.853.946H91.057Zm31.505,4.709a2.856,2.856,0,0,1,2.118,1.023,3.906,3.906,0,0,1,0,5.028l-7.344,8.219-7.344-8.219a3.906,3.906,0,0,1,0-5.028,2.768,2.768,0,0,1,4.225,0l2.255,2.52a1.191,1.191,0,0,0,1.728,0l2.255-2.52a2.852,2.852,0,0,1,2.107-1.023Z" transform="translate(-86.8 -165.2)" fill="#50514f"/>
</svg>
