<svg xmlns="http://www.w3.org/2000/svg" width="82.362" height="60.396" viewBox="0 0 82.362 60.396">
  <path id="noun-heart-email-504693" d="M88.4,165.2a1.88,1.88,0,0,0-1.6,1.83v47.581a1.855,1.855,0,0,0,1.753,1.83h55.892l7.667,8.578a1.717,1.717,0,0,0,2.566,0l12.189-13.644a9.571,9.571,0,0,0,0-12.435,7.522,7.522,0,0,0-8.215-2.206V167.03a1.855,1.855,0,0,0-1.753-1.83Zm4.866,3.66H152.19l-29.464,26.814ZM90.3,171.033l21.359,19.477L90.3,210.494Zm64.843,0v28.252l-1.752,1.977-2.05-2.32c-3.051-3.17-6.947-3.3-9.92-1.291l-7.636-7.14Zm-40.793,21.879,7.229,6.6a1.756,1.756,0,0,0,2.3,0l7.229-6.6,7.855,7.353a9.58,9.58,0,0,0,.955,11.127l1.267,1.405H93.122Zm46.786,6.993a4.241,4.241,0,0,1,3.145,1.52,5.8,5.8,0,0,1,0,7.467L153.379,221.1l-10.906-12.206a5.8,5.8,0,0,1,0-7.467,4.111,4.111,0,0,1,6.275,0l3.349,3.742a1.768,1.768,0,0,0,2.566,0l3.349-3.742a4.235,4.235,0,0,1,3.129-1.52Z" transform="translate(-86.8 -165.2)" fill="#50514f"/>
</svg>
