<svg xmlns="http://www.w3.org/2000/svg" width="47.391" height="46.999" viewBox="0 0 47.391 46.999">
  <g id="Group_64" data-name="Group 64" transform="translate(-308.92 -158.952)">
    <rect id="Rectangle_937" data-name="Rectangle 937" width="44.257" height="44.257" rx="12" transform="translate(312.053 161.693)" fill="#0a6877"/>
    <rect id="Rectangle_938" data-name="Rectangle 938" width="44.257" height="44.257" rx="12" transform="translate(308.92 158.952)" fill="#078ba8"/>
    <path id="Path_537" data-name="Path 537" d="M331.583,170.661c.764-.026,1.527-.006,2.294-.007h.315v-3.976c-.408-.04-.836-.1-1.262-.119-.784-.035-1.569-.074-2.355-.056a5.762,5.762,0,0,0-3.322,1.027,4.968,4.968,0,0,0-2,3.318,11.567,11.567,0,0,0-.139,1.706c-.022.892,0,1.783,0,2.676v.334h-3.8V180h3.781v11.16h4.621V180.022h3.769c.194-1.476.382-2.938.581-4.461-.3,0-.575,0-.848,0-1.072,0-3.532,0-3.532,0s.011-2.2.038-3.156C329.76,171.1,330.536,170.7,331.583,170.661Z" transform="translate(2.703 1.646)" fill="#0a6877" fill-rule="evenodd"/>
  </g>
</svg>
