<svg xmlns="http://www.w3.org/2000/svg" width="47.4" height="47.027" viewBox="0 0 47.4 47.027">
  <g id="Group_66" data-name="Group 66" transform="translate(-1348.41 -848)">
    <rect id="Rectangle_943" data-name="Rectangle 943" width="44.301" height="43.775" rx="12" transform="translate(1351.509 851.252)" fill="#c14d4d"/>
    <rect id="Rectangle_944" data-name="Rectangle 944" width="44.301" height="43.775" rx="12" transform="translate(1348.41 848)" fill="#f25f5c"/>
    <g id="Group_66-2" data-name="Group 66" transform="translate(1358.147 857.259)">
      <path id="Path_538" data-name="Path 538" d="M389.782,172.365a6.707,6.707,0,0,0-2.043-4.313,7,7,0,0,0-4.632-1.881,90.906,90.906,0,0,0-12.5.14,6.375,6.375,0,0,0-5.466,4.906c-.6,2.151-.483,12.059-.131,14.184a6.4,6.4,0,0,0,5.076,5.511c1.994.516,11.789.449,13.986.093a6.406,6.406,0,0,0,5.535-5.053C390.187,183.746,389.985,174.355,389.782,172.365Zm-2.325,12.625a4.278,4.278,0,0,1-4.022,3.817c-2.038.223-11.141.346-13.031-.182a4.143,4.143,0,0,1-3.142-3.57,84.544,84.544,0,0,1,0-12.75,4.27,4.27,0,0,1,4-3.8,88.841,88.841,0,0,1,12.437.049,4.279,4.279,0,0,1,3.81,4.029A90.824,90.824,0,0,1,387.457,184.99Zm-10.1-12.811a6.479,6.479,0,1,0,6.476,6.483A6.479,6.479,0,0,0,377.356,172.18Zm-.045,10.665a4.19,4.19,0,1,1,4.228-4.152A4.191,4.191,0,0,1,377.311,182.844Zm8.293-10.909a1.517,1.517,0,1,1-1.513-1.52A1.516,1.516,0,0,1,385.6,171.935Z" transform="translate(-364.72 -166.028)" fill="#c14d4d"/>
      <path id="Path_539" data-name="Path 539" d="M389.782,172.365a6.707,6.707,0,0,0-2.043-4.313,7,7,0,0,0-4.632-1.881,90.906,90.906,0,0,0-12.5.14,6.375,6.375,0,0,0-5.466,4.906c-.6,2.151-.483,12.059-.131,14.184a6.4,6.4,0,0,0,5.076,5.511c1.994.516,11.789.449,13.986.093a6.406,6.406,0,0,0,5.535-5.053C390.187,183.746,389.985,174.355,389.782,172.365Zm-2.325,12.625a4.278,4.278,0,0,1-4.022,3.817c-2.038.223-11.141.346-13.031-.182a4.143,4.143,0,0,1-3.142-3.57,84.544,84.544,0,0,1,0-12.75,4.27,4.27,0,0,1,4-3.8,88.841,88.841,0,0,1,12.437.049,4.279,4.279,0,0,1,3.81,4.029A90.824,90.824,0,0,1,387.457,184.99Zm-10.1-12.811a6.479,6.479,0,1,0,6.476,6.483A6.479,6.479,0,0,0,377.356,172.18Zm-.045,10.665a4.19,4.19,0,1,1,4.228-4.152A4.191,4.191,0,0,1,377.311,182.844Zm8.293-10.909a1.517,1.517,0,1,1-1.513-1.52A1.516,1.516,0,0,1,385.6,171.935Z" transform="translate(-364.72 -166.028)" fill="#c14d4d"/>
    </g>
  </g>
</svg>
