<?xml version="1.0" encoding="utf-8"?>
<!-- Generator: Adobe Illustrator 25.4.1, SVG Export Plug-In . SVG Version: 6.00 Build 0)  -->
<svg version="1.1" id="Layer_1" xmlns="http://www.w3.org/2000/svg" xmlns:xlink="http://www.w3.org/1999/xlink" x="0px" y="0px"
	 viewBox="0 0 248.17 259.34" style="enable-background:new 0 0 248.17 259.34;" xml:space="preserve">
<style type="text/css">
	.st0{fill:#F15F5D;}
	.st1{fill:none;stroke:#F15F5D;stroke-width:2;stroke-miterlimit:10;}
	.st2{fill:none;stroke:#F15F5D;stroke-width:2;stroke-miterlimit:10;stroke-dasharray:11.863,11.863;}
	.st3{fill:#E5DFBD;stroke:#50514F;stroke-width:2;stroke-miterlimit:10;}
	.st4{fill:#AB9EBB;stroke:#50514F;stroke-width:2;stroke-miterlimit:10;}
	.st5{fill:#7F6B94;stroke:#50514F;stroke-width:2;stroke-miterlimit:10;}
	.st6{opacity:0.79;}
	.st7{fill:#8E8D8D;}
	.st8{fill:#E5DFBD;}
	.st9{fill:#68B0AC;}
	.st10{fill:#AB9EBB;}
	.st11{fill:#E3E41A;}
	.st12{fill:#D0BCDB;}
	.st13{fill:#7F6B94;}
	.st14{fill:#A5CDCB;}
	.st15{opacity:0.5;}
	.st16{fill:#078BA8;}
	.st17{fill:#C3D34D;}
	.st18{fill:#68B1AB;}
	.st19{fill:#EAE7AF;}
	.st20{fill:none;stroke:#50504E;stroke-miterlimit:10;}
	.st21{fill:#FFFFFF;stroke:#50504E;stroke-width:3;stroke-miterlimit:10;}
	.st22{fill:#AB9EBA;stroke:#7F6B94;stroke-width:2;stroke-miterlimit:10;}
	.st23{fill:#50504E;}
	.st24{font-family:'Acre-Medium';}
	.st25{font-size:27.5314px;}
</style>
<path class="st0" d="M120.51,23.92c-0.97,0.06-1.84-0.08-2.58-0.48C102.45,15.01,87.28,7.73,69.52,5.55
	C33.4,1.18,3.7,29.09,3.08,65.95c-0.71,41.85,35.48,87.74,60,118.59c18.38,23.13,38.42,45.22,59.99,65.44
	c0.03,0.03,0.73,0.68,0.73,0.68c17.7-18.7,34.47-38.38,50.59-58.45c25.25-31.42,53.48-66.28,66.29-105.1
	c9.22-27.96,0.67-59.89-26.01-74.53c-15.43-8.46-33.4-9.55-50.4-6.12c-8.87,1.79-17.48,4.76-25.72,8.46
	C134.44,16.78,125.99,23.58,120.51,23.92z"/>
<g>
	<g class="st6">
		<path class="st7" d="M92.11,253.5l0.78,0.41c1.46,0.77,3.28,0.2,4.05-1.27l70.68-134.91c0.77-1.46,0.2-3.28-1.27-4.05l-0.78-0.41
			c-1.46-0.77-3.28-0.2-4.05,1.27L90.85,249.45C90.08,250.91,90.65,252.73,92.11,253.5z"/>
	</g>
	<g>
		<path class="st8" d="M90.11,246.5l0.78,0.41c1.46,0.77,3.28,0.2,4.05-1.27l70.68-134.91c0.77-1.46,0.2-3.28-1.27-4.05l-0.78-0.41
			c-1.46-0.77-3.28-0.2-4.05,1.27L88.85,242.45C88.08,243.91,88.65,245.73,90.11,246.5z"/>
	</g>
</g>
<g>
	<g class="st6">
		<path class="st7" d="M164.85,252.98l0.76-0.44c1.43-0.82,1.92-2.67,1.1-4.1l-76.15-131.9c-0.82-1.43-2.67-1.92-4.1-1.1l-0.76,0.44
			c-1.43,0.83-1.92,2.67-1.1,4.1l76.15,131.9C161.58,253.31,163.43,253.81,164.85,252.98z"/>
	</g>
	<g>
		<path class="st8" d="M162.85,245.98l0.76-0.44c1.43-0.82,1.92-2.67,1.1-4.1l-76.15-131.9c-0.82-1.43-2.67-1.92-4.1-1.1l-0.76,0.44
			c-1.43,0.83-1.92,2.67-1.1,4.1l76.15,131.9C159.58,246.31,161.43,246.81,162.85,245.98z"/>
	</g>
</g>
<g>
	<g class="st6">
		<circle class="st7" cx="64.96" cy="71.99" r="54.39"/>
	</g>
	<g>
		<circle class="st9" cx="62.96" cy="64.99" r="54.39"/>
	</g>
</g>
<g>
	<g class="st6">
		<circle class="st7" cx="186.45" cy="72.73" r="54.39"/>
	</g>
	<g>
		<circle class="st10" cx="184.45" cy="65.73" r="54.39"/>
	</g>
</g>
<rect x="44.04" y="30.72" transform="matrix(0.9254 0.3789 -0.3789 0.9254 16.9984 -18.0526)" class="st11" width="20.65" height="6.88"/>
<rect x="17.68" y="44.78" transform="matrix(-0.5563 0.831 -0.831 -0.5563 83.6515 51.7708)" class="st0" width="20.65" height="6.88"/>
<rect x="45.08" y="55.19" transform="matrix(0.5415 0.8407 -0.8407 0.5415 74.6947 -19.6987)" class="st12" width="20.65" height="6.88"/>
<rect x="28.09" y="61.04" transform="matrix(-0.1483 0.9889 -0.9889 -0.1483 107.8909 36.0584)" class="st11" width="20.65" height="6.88"/>
<polygon class="st12" points="29.8,91.54 15.86,76.31 22.69,73.42 36.64,88.65 "/>
<path class="st13" d="M239.13,66.77c-0.25,6.05-4.51,20.23-8.28,20.85c-9.97,1.64-10.63-24.48-20.11-20.77
	c-7.27,2.85-8.01,24.11-16.31,23.53c-13.02-0.9,0.71-18.7-8.11-26.99c-5.29-4.97-19.07,19.79-25.84,17
	c-8.56-3.53,1.67-28.57-5.99-32.12c-6.21-2.88-24.77,10.03-24.49,5.94c2.08-29.97,28.62-44.48,58.64-45.46
	C217.79,7.8,240.65,30.68,239.13,66.77z"/>
<path class="st10" d="M144.15,39.42c1.74,7.9,5.94-7.67,17.06-12.96c18.97-9.04,26.3,3.55,24.56-4.35
	c-1.74-7.9-19.62-5.05-20.87-4.77C152.48,20.07,142.41,31.52,144.15,39.42z"/>
<path class="st14" d="M67.12,20.86c-6.01,5.41,6.51,3.25,16.6,10.31c17.23,12.04,12.98,22.75,18.99,17.34s-8.44-19.38-9.3-20.33
	C84.91,18.73,73.13,15.45,67.12,20.86z"/>
<rect x="66.17" y="42.3" transform="matrix(-1.836970e-16 1 -1 -1.836970e-16 122.2355 -30.7531)" class="st0" width="20.65" height="6.88"/>
<g>
	<g class="st15">
		<path class="st7" d="M238.14,205.44c0,0-83.91,16.4-113.05,16.4c-28.56,0-117.74-16.4-117.74-16.4l18.74-27.53L7.35,144.52
			c0,0,81.42,9.96,111.3,9.96c37.53,0,119.5-9.96,119.5-9.96l-16.99,33.39L238.14,205.44z"/>
	</g>
	<g>
		<path class="st16" d="M238.14,202.44c0,0-83.91,16.4-113.05,16.4c-28.56,0-117.74-16.4-117.74-16.4l18.74-27.53L7.35,141.52
			c0,0,81.42,9.96,111.3,9.96c37.53,0,119.5-9.96,119.5-9.96l-16.99,33.39L238.14,202.44z"/>
	</g>
</g>
<g>
	<g>
		<path class="st17" d="M66.44,158.19c-0.11,0.51-0.06,1.01,0.17,1.48c0.23,0.47,0.56,0.94,1.01,1.39c0.45,0.46,0.97,0.91,1.57,1.36
			c0.6,0.45,1.22,0.91,1.85,1.37c0.63,0.47,1.25,0.96,1.85,1.46c0.6,0.51,1.12,1.04,1.57,1.62c0.45,0.57,0.78,1.19,1,1.85
			c0.22,0.66,0.26,1.38,0.13,2.16c-0.12,0.71-0.36,1.34-0.71,1.89c-0.35,0.55-0.79,1.02-1.3,1.42c-0.52,0.39-1.11,0.72-1.77,0.97
			c-0.66,0.25-1.36,0.43-2.1,0.53c-0.74,0.1-1.5,0.14-2.28,0.11c-0.79-0.03-1.56-0.13-2.33-0.29c-1.08-0.22-2.11-0.57-3.07-1.03
			c-0.97-0.46-1.79-1.02-2.47-1.68c-0.68-0.66-1.17-1.41-1.47-2.24c-0.3-0.83-0.33-1.73-0.1-2.69c0.12-0.5,0.31-0.91,0.57-1.25
			c0.26-0.34,0.55-0.6,0.86-0.79c0.31-0.19,0.64-0.32,0.97-0.38c0.33-0.06,0.62-0.06,0.88,0c0.27,0.06,0.47,0.18,0.62,0.36
			c0.15,0.18,0.19,0.41,0.13,0.7c-0.03,0.13-0.08,0.27-0.14,0.41c-0.07,0.14-0.14,0.29-0.21,0.46c-0.08,0.17-0.15,0.35-0.23,0.55
			c-0.08,0.2-0.15,0.43-0.21,0.68c-0.12,0.55-0.1,1.05,0.08,1.5c0.18,0.46,0.47,0.87,0.86,1.22c0.39,0.36,0.87,0.66,1.43,0.91
			c0.56,0.25,1.16,0.44,1.79,0.58c0.75,0.16,1.51,0.23,2.29,0.21c0.78-0.01,1.49-0.13,2.15-0.33c0.65-0.21,1.21-0.51,1.66-0.91
			c0.45-0.4,0.74-0.9,0.85-1.5c0.1-0.56,0.03-1.08-0.21-1.58c-0.24-0.5-0.59-0.99-1.06-1.46c-0.46-0.47-1-0.94-1.61-1.41
			c-0.61-0.46-1.23-0.94-1.86-1.42c-0.63-0.48-1.24-0.98-1.82-1.49c-0.59-0.51-1.09-1.05-1.51-1.61c-0.42-0.56-0.73-1.15-0.91-1.77
			c-0.19-0.62-0.2-1.28-0.04-1.98c0.15-0.65,0.46-1.26,0.93-1.82c0.47-0.56,1.09-1.02,1.85-1.38c0.76-0.36,1.66-0.59,2.7-0.7
			c1.04-0.11,2.2-0.03,3.51,0.23c0.83,0.16,1.62,0.44,2.37,0.83c0.75,0.39,1.4,0.87,1.94,1.43c0.55,0.56,0.96,1.18,1.24,1.87
			c0.28,0.69,0.35,1.41,0.22,2.16c-0.08,0.45-0.23,0.9-0.48,1.34c-0.24,0.44-0.58,0.89-1.03,1.34c-0.43,0.43-0.88,0.74-1.33,0.9
			c-0.45,0.17-0.85,0.22-1.18,0.16c-0.25-0.05-0.44-0.15-0.57-0.32c-0.13-0.17-0.17-0.39-0.12-0.66c0.04-0.2,0.13-0.44,0.28-0.7
			c0.15-0.26,0.38-0.55,0.69-0.86c0.29-0.3,0.51-0.6,0.67-0.88c0.16-0.28,0.27-0.55,0.31-0.81c0.07-0.4,0.02-0.77-0.14-1.11
			c-0.17-0.34-0.43-0.65-0.79-0.93c-0.36-0.28-0.8-0.52-1.33-0.73c-0.53-0.21-1.12-0.38-1.78-0.51c-0.72-0.14-1.37-0.19-1.94-0.14
			c-0.57,0.05-1.06,0.16-1.47,0.34c-0.41,0.18-0.74,0.4-0.98,0.68C66.66,157.59,66.51,157.88,66.44,158.19z"/>
		<path class="st17" d="M81.96,176.94c-0.81-0.12-1.5-0.36-2.06-0.73c-0.56-0.37-1.01-0.81-1.34-1.34
			c-0.33-0.53-0.54-1.11-0.64-1.75c-0.1-0.64-0.1-1.29,0.01-1.96c0.07-0.44,0.24-0.94,0.52-1.51c0.27-0.57,0.54-1.08,0.81-1.52
			c0.26-0.44,0.57-0.84,0.92-1.22c0.35-0.38,0.74-0.7,1.17-0.97c0.43-0.26,0.89-0.46,1.38-0.58c0.5-0.12,1.03-0.14,1.6-0.06
			c0.47,0.07,0.89,0.2,1.27,0.4c0.38,0.2,0.7,0.44,0.96,0.74c0.26,0.3,0.45,0.64,0.57,1.02c0.12,0.39,0.15,0.8,0.09,1.25
			c-0.06,0.48-0.3,1-0.73,1.54c-0.42,0.55-0.89,1.01-1.41,1.37c-0.52,0.36-1.12,0.66-1.81,0.9c-0.69,0.24-1.42,0.4-2.19,0.47
			c0.1,0.23,0.2,0.42,0.3,0.58c0.1,0.16,0.21,0.28,0.33,0.38c0.12,0.1,0.25,0.17,0.38,0.22c0.14,0.05,0.29,0.09,0.45,0.11
			c0.52,0.07,1.07,0.06,1.67-0.05c0.6-0.11,1.18-0.26,1.76-0.47c0.58-0.21,1.13-0.44,1.65-0.71c0.52-0.27,0.96-0.53,1.33-0.78
			c0.49,0.59,0.97,1.17,1.47,1.76c-0.84,0.65-1.73,1.21-2.65,1.68c-0.4,0.2-0.83,0.39-1.29,0.57c-0.46,0.18-0.94,0.33-1.43,0.45
			c-0.5,0.12-1.01,0.2-1.53,0.24C83,177.04,82.48,177.02,81.96,176.94z M81.08,171.05c0.31,0.05,0.65,0.03,1.04-0.06
			c0.38-0.09,0.75-0.22,1.09-0.4c0.34-0.18,0.69-0.44,1.04-0.77c0.35-0.34,0.54-0.63,0.58-0.88c0.05-0.35,0.02-0.64-0.09-0.89
			c-0.11-0.24-0.26-0.38-0.46-0.41c-0.36-0.05-0.68-0.03-0.95,0.05c-0.28,0.09-0.51,0.21-0.72,0.39c-0.2,0.17-0.37,0.37-0.52,0.61
			c-0.14,0.24-0.31,0.53-0.51,0.88c-0.2,0.35-0.32,0.64-0.37,0.88C81.15,170.67,81.11,170.88,81.08,171.05z"/>
		<path class="st17" d="M87.72,175.2c0.07-0.52,0.18-1.12,0.33-1.8c0.15-0.68,0.33-1.42,0.54-2.23c0.2-0.81,0.41-1.53,0.62-2.17
			c0.21-0.64,0.4-1.19,0.57-1.64c0.14-0.35,0.35-0.64,0.64-0.85c0.29-0.21,0.66-0.29,1.11-0.24c0.45,0.05,0.75,0.22,0.89,0.5
			c0.15,0.28,0.19,0.64,0.15,1.08c-0.01,0.12-0.04,0.28-0.09,0.48c-0.05,0.2-0.1,0.42-0.17,0.66c-0.07,0.24-0.13,0.48-0.2,0.74
			c-0.07,0.25-0.14,0.54-0.22,0.87c-0.08,0.33-0.14,0.57-0.18,0.73c-0.04,0.16-0.07,0.27-0.08,0.32c0.09,0.01,0.17,0.02,0.26,0.03
			c0.06-0.08,0.16-0.21,0.29-0.4c0.13-0.18,0.29-0.45,0.47-0.8c0.18-0.35,0.37-0.66,0.57-0.92c0.2-0.26,0.38-0.52,0.55-0.76
			c0.17-0.24,0.32-0.46,0.46-0.64c0.14-0.19,0.24-0.32,0.31-0.41c0.31-0.4,0.65-0.66,1.01-0.79c0.36-0.12,0.75-0.17,1.16-0.13
			c0.42,0.04,0.73,0.24,0.95,0.59c0.22,0.36,0.3,0.83,0.24,1.42c-0.01,0.09-0.04,0.23-0.1,0.44c-0.06,0.2-0.13,0.45-0.21,0.73
			c-0.09,0.28-0.19,0.64-0.3,1.09c-0.11,0.45-0.22,0.85-0.31,1.2c-0.09,0.35-0.18,0.7-0.25,1.05c-0.07,0.35-0.12,0.67-0.15,0.96
			c-0.05,0.49-0.02,0.9,0.09,1.24c0.1,0.33,0.3,0.51,0.58,0.53c0.1,0.01,0.25-0.01,0.45-0.07c0.29-0.07,0.48-0.14,0.57-0.2
			c0.4-0.24,0.61-0.35,0.63-0.34c0.03,0.01,0.33-0.12,0.91-0.4c0.72-0.35,1.58-0.78,2.57-1.3c-0.07,0.89-0.14,1.78-0.21,2.67
			c-0.23,0.14-0.45,0.27-0.68,0.41c-0.05,0.04-0.48,0.21-1.27,0.52c-1.14,0.45-1.87,0.72-2.15,0.8c-0.7,0.22-1.14,0.34-1.31,0.36
			c-0.45,0.09-0.91,0.11-1.39,0.06c-0.48-0.05-0.85-0.4-1.11-1.07c-0.26-0.66-0.33-1.6-0.2-2.82c0.05-0.48,0.14-0.99,0.26-1.53
			c0.12-0.54,0.27-1.13,0.44-1.75c-0.07-0.01-0.14-0.01-0.2-0.02c-1.33,1.95-2.68,3.89-4.05,5.82c-0.22,0.31-0.44,0.51-0.66,0.6
			c-0.23,0.09-0.49,0.12-0.78,0.09c-0.36-0.04-0.64-0.15-0.84-0.31c-0.2-0.17-0.34-0.37-0.43-0.62c-0.09-0.25-0.13-0.52-0.13-0.82
			C87.66,175.83,87.68,175.52,87.72,175.2z"/>
		<path class="st17" d="M111.07,176.99c-0.85,0.41-1.61,0.77-2.28,1.07c-0.67,0.3-1.27,0.55-1.79,0.74
			c-0.52,0.19-0.99,0.33-1.39,0.42c-0.4,0.09-0.77,0.12-1.09,0.1c-0.66-0.04-1.23-0.27-1.71-0.67c-0.48-0.4-0.86-0.96-1.14-1.67
			c-0.28-0.71-0.47-1.57-0.56-2.56c-0.09-0.99-0.08-2.1,0.01-3.33c0.04-0.48,0.1-0.98,0.18-1.52c0.08-0.54,0.19-1.07,0.3-1.6
			c-0.25-0.06-0.44-0.1-0.58-0.15c-0.14-0.04-0.28-0.09-0.43-0.13c-0.15-0.04-0.35-0.09-0.59-0.15c-0.24-0.06-0.58-0.13-1.03-0.22
			c-0.2-0.04-0.35-0.11-0.45-0.19c-0.1-0.09-0.17-0.18-0.22-0.29c-0.04-0.11-0.06-0.22-0.06-0.33c0-0.11,0.01-0.21,0.01-0.29
			c0.01-0.13,0.1-0.21,0.27-0.26c0.17-0.05,0.38-0.08,0.64-0.09c0.26-0.01,0.54,0,0.84,0.02c0.31,0.02,0.6,0.05,0.88,0.08
			c0.28,0.03,0.53,0.06,0.75,0.08c0.22,0.02,0.37,0.03,0.46,0.02c0.31-1.05,0.67-2.07,1.08-3.05c0.41-0.98,0.86-1.84,1.33-2.6
			c0.47-0.75,0.97-1.35,1.49-1.79c0.52-0.44,1.05-0.65,1.59-0.61c0.35,0.02,0.66,0.13,0.93,0.34c0.28,0.21,0.51,0.47,0.69,0.8
			c0.19,0.33,0.32,0.71,0.41,1.14c0.09,0.43,0.12,0.88,0.1,1.34c-0.02,0.38-0.1,0.78-0.23,1.2c-0.14,0.42-0.32,0.84-0.54,1.27
			c-0.22,0.43-0.48,0.86-0.77,1.3c-0.29,0.44-0.6,0.87-0.93,1.3c0.08-0.02,0.2-0.02,0.38,0.01c0.17,0.03,0.38,0.05,0.61,0.07
			c0.23,0.02,0.48,0.04,0.74,0.06c0.27,0.02,0.52,0.04,0.77,0.06c0.25,0.02,0.48,0.04,0.7,0.06c0.22,0.02,0.4,0.03,0.54,0.05
			c0.17,0.02,0.28,0.11,0.35,0.28c0.07,0.17,0.1,0.39,0.09,0.64c-0.01,0.3-0.11,0.54-0.28,0.72c-0.18,0.18-0.37,0.27-0.57,0.26
			c-1.61-0.07-3.23-0.16-4.84-0.26c-0.26,0.3-0.53,0.6-0.8,0.89c-0.27,0.29-0.52,0.55-0.75,0.78c-0.07,0.49-0.13,0.97-0.19,1.45
			c-0.02,0.21-0.05,0.42-0.07,0.64c-0.02,0.22-0.05,0.43-0.07,0.65c-0.02,0.21-0.04,0.42-0.06,0.62c-0.02,0.2-0.03,0.38-0.04,0.55
			c-0.03,0.43-0.01,0.8,0.05,1.1c0.07,0.3,0.18,0.55,0.33,0.75c0.15,0.2,0.34,0.35,0.58,0.45c0.23,0.1,0.5,0.16,0.79,0.18
			c0.18,0.01,0.41-0.01,0.69-0.08c0.28-0.06,0.58-0.16,0.91-0.28c0.33-0.12,0.68-0.27,1.05-0.44c0.37-0.17,0.73-0.36,1.09-0.57
			c0.36-0.21,0.7-0.43,1.03-0.67c0.33-0.24,0.63-0.48,0.9-0.73C111.15,174.95,111.11,175.97,111.07,176.99z M107.78,161.65
			c0.01-0.09,0-0.18,0-0.29c-0.01-0.11-0.03-0.21-0.06-0.31c-0.04-0.1-0.09-0.18-0.18-0.25c-0.08-0.07-0.2-0.11-0.36-0.12
			c-0.21-0.01-0.44,0.16-0.68,0.51c-0.24,0.35-0.48,0.8-0.72,1.35c-0.24,0.55-0.47,1.16-0.69,1.83c-0.22,0.67-0.43,1.32-0.63,1.95
			c0.12,0.02,0.25,0.04,0.37,0.06c0.12,0.02,0.25,0.04,0.39,0.06c0.28-0.39,0.57-0.8,0.87-1.25c0.3-0.45,0.57-0.9,0.81-1.34
			c0.24-0.44,0.44-0.85,0.61-1.24C107.67,162.22,107.76,161.9,107.78,161.65z"/>
		<path class="st17" d="M117.96,177.32c-0.32,0.26-0.71,0.53-1.18,0.82c-0.47,0.29-0.98,0.55-1.53,0.79
			c-0.55,0.24-1.1,0.43-1.67,0.58c-0.57,0.15-1.11,0.21-1.61,0.19c-0.45-0.02-0.83-0.09-1.14-0.22c-0.3-0.13-0.55-0.3-0.73-0.52
			c-0.18-0.22-0.31-0.48-0.38-0.78c-0.07-0.3-0.09-0.63-0.08-0.99c0.02-0.5,0.11-1.09,0.26-1.75c0.31-1.37,0.5-2.15,0.58-2.31
			c0.13-0.34,0.4-1.08,0.79-2.23c0.36-0.94,0.58-1.55,0.67-1.84c0.05-0.2,0.17-0.38,0.37-0.53c0.18-0.14,0.38-0.25,0.6-0.33
			c0.22-0.09,0.45-0.15,0.69-0.18c0.24-0.04,0.45-0.05,0.64-0.05c0.35,0.01,0.58,0.08,0.7,0.21c0.12,0.13,0.18,0.29,0.17,0.5
			c0,0.18-0.06,0.42-0.15,0.74c-0.1,0.32-0.21,0.68-0.33,1.09c-0.12,0.41-0.3,0.93-0.54,1.57c-0.24,0.64-0.41,1.18-0.5,1.63
			c-0.1,0.45-0.21,0.9-0.35,1.34c-0.14,0.44-0.22,0.85-0.23,1.22c-0.01,0.36,0.02,0.65,0.1,0.86c0.08,0.21,0.25,0.33,0.52,0.33
			c0.31,0.01,0.66-0.08,1.05-0.27c0.39-0.19,0.78-0.42,1.17-0.69c0.4-0.27,0.78-0.56,1.16-0.85c0.38-0.3,0.71-0.55,0.99-0.76
			C117.99,175.7,117.97,176.51,117.96,177.32z M112.63,164.61c0.01-0.19,0.06-0.39,0.15-0.62c0.09-0.23,0.23-0.45,0.43-0.64
			c0.19-0.2,0.45-0.36,0.76-0.49c0.31-0.13,0.7-0.19,1.16-0.18c0.29,0.01,0.56,0.05,0.81,0.12c0.25,0.07,0.47,0.18,0.66,0.31
			c0.19,0.14,0.33,0.32,0.44,0.54c0.11,0.22,0.16,0.48,0.15,0.78c-0.01,0.27-0.06,0.54-0.15,0.79c-0.1,0.26-0.25,0.48-0.45,0.68
			c-0.2,0.2-0.46,0.35-0.77,0.47c-0.31,0.12-0.67,0.17-1.1,0.16c-0.73-0.02-1.27-0.21-1.61-0.56
			C112.77,165.61,112.61,165.16,112.63,164.61z"/>
		<path class="st17" d="M122.45,177.74c0-0.1,0.01-0.25,0.03-0.44c0.02-0.19,0.04-0.41,0.08-0.66c0.04-0.25,0.07-0.51,0.12-0.79
			c0.04-0.28,0.09-0.55,0.13-0.82c0.09-0.64,0.21-1.33,0.35-2.07c-0.06,0-0.13,0-0.19,0c-0.1,0.12-0.22,0.3-0.35,0.54
			c-0.13,0.24-0.32,0.59-0.56,1.06c-0.24,0.47-0.55,1.07-0.93,1.81c-0.38,0.74-0.87,1.65-1.49,2.72c-0.18,0.32-0.38,0.53-0.62,0.64
			c-0.23,0.11-0.49,0.16-0.77,0.16c-0.36-0.01-0.65-0.08-0.86-0.22c-0.22-0.14-0.38-0.33-0.49-0.56c-0.11-0.23-0.19-0.49-0.22-0.78
			c-0.03-0.29-0.05-0.59-0.04-0.9c0.01-0.33,0.04-0.72,0.09-1.17c0.05-0.45,0.12-0.92,0.2-1.42c0.08-0.5,0.19-1.06,0.34-1.7
			c0.14-0.64,0.27-1.19,0.38-1.66c0.11-0.47,0.21-0.91,0.32-1.3c0.11-0.39,0.21-0.71,0.29-0.96c0.09-0.26,0.17-0.46,0.25-0.61
			c0.08-0.15,0.17-0.27,0.26-0.35c0.1-0.08,0.21-0.14,0.35-0.16c0.13-0.03,0.31-0.04,0.52-0.04c0.32,0,0.57,0.02,0.75,0.04
			c0.18,0.02,0.31,0.07,0.4,0.15c0.09,0.08,0.14,0.19,0.16,0.33c0.02,0.15,0.02,0.34,0.02,0.59c0,0.14-0.01,0.29-0.02,0.47
			c-0.01,0.18-0.03,0.37-0.06,0.57c-0.02,0.2-0.05,0.41-0.08,0.62c-0.06,0.4-0.1,0.61-0.11,0.63c-0.12,0.55-0.25,1.16-0.39,1.83
			c0.05,0.05,0.09,0.1,0.14,0.15c0.02-0.02,0.13-0.24,0.34-0.64c0.21-0.4,0.44-0.8,0.68-1.19c0.24-0.39,0.51-0.81,0.79-1.24
			c0.28-0.43,0.55-0.81,0.8-1.14c0.24-0.33,0.5-0.61,0.77-0.82c0.27-0.22,0.6-0.33,0.97-0.33c0.35,0,0.65,0.09,0.91,0.29
			c0.25,0.19,0.38,0.47,0.39,0.84c0,0.31-0.01,0.61-0.05,0.89c-0.05,0.36-0.09,0.64-0.14,0.82c-0.06,0.21-0.12,0.47-0.2,0.78
			c-0.06,0.27-0.16,0.65-0.31,1.15c-0.02,0.08-0.05,0.2-0.07,0.35c-0.01,0.05-0.01,0.08-0.01,0.1c0.05,0.05,0.09,0.1,0.14,0.14
			c0.02-0.02,0.13-0.24,0.35-0.64c0.22-0.4,0.45-0.8,0.71-1.2c0.25-0.4,0.52-0.82,0.81-1.26c0.28-0.44,0.55-0.83,0.79-1.16
			c0.24-0.33,0.48-0.6,0.71-0.83c0.24-0.23,0.53-0.34,0.88-0.35c0.39-0.01,0.73,0.08,1.01,0.27c0.28,0.19,0.42,0.46,0.43,0.83
			c0.02,0.56,0,1.08-0.04,1.58c-0.04,0.5-0.12,1.06-0.22,1.66c-0.1,0.61-0.18,1.16-0.22,1.66c-0.05,0.5-0.06,1.02-0.05,1.58
			c0.01,0.43,0.08,0.79,0.21,1.06c0.13,0.27,0.28,0.4,0.45,0.4c0.18-0.01,0.37-0.05,0.57-0.13c0.2-0.08,0.4-0.18,0.6-0.3
			c0.2-0.12,0.4-0.26,0.59-0.41c0.19-0.16,0.38-0.32,0.55-0.49c0.41-0.39,0.81-0.82,1.2-1.31c0.11,0.94,0.23,1.88,0.34,2.83
			c-0.37,0.29-0.74,0.58-1.1,0.89c-0.37,0.31-0.76,0.58-1.17,0.84c-0.41,0.25-0.87,0.46-1.37,0.63c-0.5,0.17-1.07,0.26-1.71,0.27
			c-0.31,0.01-0.58-0.08-0.8-0.26c-0.22-0.18-0.4-0.43-0.53-0.76c-0.14-0.33-0.24-0.71-0.3-1.16c-0.07-0.44-0.1-0.93-0.11-1.45
			c-0.01-0.51,0-1.05,0.03-1.61c0.03-0.57,0.07-1.14,0.13-1.72c-0.06,0-0.13,0-0.19,0c-0.83,2.07-1.67,4.13-2.54,6.19
			c-0.22,0.34-0.47,0.56-0.75,0.68c-0.28,0.12-0.6,0.18-0.97,0.18c-0.28,0-0.5-0.07-0.67-0.2c-0.17-0.14-0.29-0.31-0.39-0.52
			c-0.09-0.21-0.15-0.45-0.18-0.7C122.47,178.23,122.45,177.98,122.45,177.74z"/>
		<path class="st17" d="M138.34,179.49c-0.82,0.04-1.54-0.06-2.16-0.3c-0.62-0.25-1.15-0.6-1.57-1.05
			c-0.43-0.45-0.75-0.98-0.98-1.58c-0.23-0.6-0.35-1.24-0.38-1.92c-0.02-0.44,0.05-0.97,0.21-1.59c0.15-0.62,0.32-1.17,0.49-1.65
			c0.17-0.48,0.39-0.94,0.66-1.38c0.27-0.44,0.58-0.83,0.95-1.18c0.37-0.34,0.78-0.62,1.24-0.84c0.46-0.22,0.98-0.34,1.55-0.37
			c0.47-0.03,0.91,0.02,1.32,0.14c0.41,0.12,0.77,0.3,1.09,0.54c0.32,0.24,0.57,0.53,0.76,0.89c0.19,0.35,0.31,0.76,0.34,1.21
			c0.03,0.48-0.1,1.04-0.4,1.66c-0.3,0.62-0.67,1.16-1.11,1.62c-0.44,0.46-0.96,0.87-1.59,1.25c-0.62,0.37-1.3,0.67-2.05,0.9
			c0.14,0.2,0.28,0.37,0.41,0.51c0.13,0.13,0.27,0.24,0.4,0.31c0.13,0.07,0.27,0.12,0.42,0.14c0.15,0.02,0.3,0.03,0.46,0.02
			c0.52-0.03,1.06-0.15,1.62-0.38c0.56-0.22,1.11-0.49,1.63-0.81c0.52-0.32,1.01-0.66,1.47-1.03c0.46-0.37,0.84-0.71,1.15-1.03
			c0.59,0.48,1.19,0.95,1.79,1.43c-0.69,0.81-1.45,1.53-2.26,2.17c-0.35,0.27-0.74,0.55-1.15,0.81c-0.41,0.27-0.85,0.51-1.31,0.73
			c-0.46,0.22-0.95,0.39-1.45,0.54C139.38,179.37,138.87,179.46,138.34,179.49z M136.31,173.88c0.31-0.02,0.64-0.1,1-0.27
			c0.36-0.16,0.69-0.37,0.99-0.61c0.3-0.24,0.59-0.57,0.86-0.96c0.28-0.4,0.41-0.72,0.39-0.97c-0.02-0.35-0.11-0.63-0.26-0.85
			c-0.15-0.22-0.33-0.32-0.53-0.31c-0.36,0.02-0.67,0.1-0.92,0.24c-0.25,0.14-0.46,0.31-0.62,0.52c-0.16,0.21-0.29,0.44-0.39,0.7
			c-0.09,0.26-0.2,0.58-0.32,0.96c-0.12,0.38-0.19,0.69-0.19,0.93C136.3,173.51,136.31,173.71,136.31,173.88z"/>
		<path class="st17" d="M143.63,176.64c-0.04-0.53-0.05-1.13-0.03-1.83c0.02-0.69,0.05-1.46,0.08-2.29c0.04-0.83,0.1-1.58,0.17-2.25
			c0.08-0.67,0.15-1.24,0.23-1.72c0.06-0.37,0.22-0.69,0.46-0.96c0.24-0.27,0.59-0.42,1.04-0.46c0.45-0.04,0.78,0.07,0.97,0.31
			c0.2,0.25,0.32,0.59,0.36,1.03c0.01,0.12,0.01,0.28,0,0.49c-0.01,0.21-0.02,0.43-0.03,0.68c-0.02,0.25-0.03,0.5-0.05,0.76
			c-0.02,0.26-0.03,0.56-0.04,0.89c-0.01,0.33-0.02,0.58-0.03,0.75c-0.01,0.17-0.01,0.28-0.01,0.33c0.09-0.01,0.17-0.01,0.26-0.02
			c0.04-0.09,0.11-0.24,0.2-0.45c0.09-0.2,0.2-0.5,0.31-0.87c0.11-0.38,0.24-0.72,0.37-1.01c0.14-0.3,0.27-0.58,0.39-0.85
			c0.12-0.27,0.23-0.51,0.33-0.72c0.1-0.21,0.17-0.37,0.22-0.47c0.23-0.45,0.5-0.78,0.83-0.97c0.33-0.19,0.7-0.31,1.12-0.35
			c0.42-0.04,0.77,0.09,1.05,0.39c0.28,0.31,0.46,0.75,0.52,1.34c0.01,0.09,0.01,0.24-0.01,0.45c-0.02,0.21-0.04,0.46-0.07,0.75
			c-0.03,0.29-0.05,0.67-0.08,1.13c-0.02,0.46-0.05,0.87-0.07,1.24c-0.02,0.36-0.03,0.72-0.03,1.08c0,0.35,0.01,0.68,0.04,0.97
			c0.05,0.49,0.16,0.89,0.33,1.19c0.17,0.3,0.39,0.44,0.68,0.41c0.1-0.01,0.25-0.06,0.43-0.16c0.27-0.13,0.44-0.23,0.51-0.31
			c0.35-0.31,0.53-0.47,0.55-0.46c0.03,0,0.3-0.19,0.81-0.58c0.64-0.49,1.4-1.08,2.27-1.79c0.11,0.89,0.22,1.77,0.33,2.66
			c-0.2,0.18-0.39,0.36-0.59,0.53c-0.05,0.05-0.43,0.3-1.14,0.77c-1.03,0.67-1.69,1.07-1.95,1.22c-0.65,0.35-1.05,0.56-1.21,0.62
			c-0.42,0.17-0.87,0.29-1.35,0.34c-0.48,0.05-0.91-0.23-1.3-0.82c-0.39-0.6-0.64-1.51-0.76-2.72c-0.05-0.48-0.06-0.99-0.05-1.55
			c0.01-0.56,0.04-1.16,0.08-1.81c-0.07,0.01-0.14,0.01-0.2,0.02c-0.91,2.17-1.85,4.34-2.81,6.51c-0.15,0.35-0.33,0.59-0.53,0.72
			c-0.21,0.14-0.46,0.22-0.74,0.24c-0.36,0.03-0.65-0.02-0.88-0.14c-0.23-0.12-0.41-0.3-0.55-0.52c-0.14-0.23-0.23-0.49-0.29-0.78
			C143.7,177.26,143.66,176.96,143.63,176.64z"/>
		<path class="st17" d="M166.89,173.73c-0.75,0.57-1.43,1.07-2.03,1.5c-0.6,0.43-1.13,0.79-1.61,1.09c-0.47,0.29-0.9,0.52-1.28,0.69
			c-0.38,0.17-0.73,0.27-1.05,0.31c-0.66,0.09-1.26-0.02-1.81-0.31c-0.55-0.3-1.03-0.77-1.45-1.41c-0.42-0.64-0.77-1.44-1.06-2.4
			c-0.29-0.95-0.5-2.04-0.65-3.26c-0.06-0.48-0.1-0.99-0.12-1.53c-0.02-0.54-0.03-1.09-0.02-1.63c-0.26,0-0.46-0.01-0.6-0.03
			c-0.14-0.01-0.29-0.03-0.45-0.04c-0.16-0.01-0.36-0.02-0.6-0.03c-0.24-0.01-0.6-0.01-1.05-0.01c-0.2,0-0.37-0.04-0.48-0.1
			c-0.12-0.06-0.21-0.14-0.27-0.24c-0.06-0.1-0.1-0.2-0.12-0.31c-0.02-0.11-0.03-0.2-0.04-0.28c-0.01-0.13,0.06-0.23,0.21-0.31
			c0.16-0.08,0.36-0.16,0.61-0.22c0.25-0.06,0.53-0.11,0.83-0.15c0.3-0.04,0.6-0.07,0.88-0.1c0.28-0.03,0.53-0.05,0.75-0.07
			c0.22-0.02,0.37-0.05,0.45-0.07c0.09-1.09,0.24-2.16,0.46-3.2c0.21-1.04,0.48-1.98,0.79-2.81c0.31-0.83,0.68-1.52,1.11-2.05
			c0.43-0.54,0.9-0.84,1.44-0.92c0.35-0.05,0.67,0,0.99,0.15c0.31,0.15,0.59,0.36,0.84,0.65c0.25,0.29,0.46,0.63,0.63,1.04
			c0.17,0.41,0.29,0.84,0.36,1.29c0.06,0.38,0.06,0.79,0.01,1.22c-0.05,0.44-0.14,0.89-0.27,1.36c-0.13,0.47-0.3,0.94-0.5,1.43
			c-0.2,0.49-0.42,0.97-0.66,1.46c0.07-0.04,0.19-0.06,0.37-0.07c0.18-0.01,0.38-0.03,0.61-0.05c0.23-0.03,0.48-0.06,0.74-0.09
			c0.27-0.03,0.52-0.07,0.77-0.1c0.25-0.03,0.48-0.06,0.7-0.08c0.22-0.03,0.4-0.05,0.54-0.06c0.17-0.02,0.3,0.05,0.4,0.21
			c0.1,0.15,0.17,0.36,0.21,0.61c0.05,0.29,0,0.55-0.13,0.76c-0.14,0.21-0.31,0.33-0.51,0.36c-1.6,0.25-3.2,0.49-4.81,0.71
			c-0.2,0.35-0.4,0.69-0.61,1.03c-0.21,0.34-0.4,0.64-0.58,0.92c0.03,0.49,0.07,0.98,0.1,1.46c0.02,0.21,0.04,0.42,0.06,0.64
			c0.02,0.22,0.04,0.44,0.06,0.65c0.02,0.22,0.04,0.42,0.06,0.62c0.02,0.2,0.04,0.38,0.07,0.55c0.06,0.43,0.15,0.78,0.27,1.06
			c0.12,0.28,0.28,0.5,0.47,0.67c0.19,0.16,0.41,0.27,0.66,0.32c0.25,0.05,0.52,0.06,0.81,0.01c0.18-0.03,0.4-0.1,0.66-0.21
			c0.26-0.12,0.54-0.27,0.84-0.45c0.3-0.18,0.62-0.4,0.94-0.64c0.33-0.24,0.65-0.5,0.96-0.78c0.31-0.28,0.61-0.57,0.88-0.86
			c0.28-0.3,0.52-0.6,0.73-0.9C166.56,171.72,166.72,172.73,166.89,173.73z M160.6,159.36c-0.01-0.09-0.03-0.18-0.06-0.29
			c-0.03-0.1-0.07-0.2-0.12-0.29c-0.05-0.09-0.13-0.16-0.22-0.21c-0.09-0.05-0.22-0.06-0.37-0.04c-0.21,0.03-0.4,0.24-0.57,0.63
			c-0.17,0.39-0.31,0.88-0.43,1.47c-0.12,0.59-0.23,1.23-0.32,1.93c-0.09,0.7-0.16,1.38-0.23,2.03c0.13,0,0.25-0.01,0.38-0.02
			c0.13-0.01,0.26-0.01,0.39-0.02c0.2-0.43,0.4-0.9,0.6-1.4c0.2-0.5,0.38-0.99,0.53-1.47c0.15-0.48,0.27-0.92,0.35-1.33
			C160.61,159.94,160.63,159.61,160.6,159.36z"/>
		<path class="st17" d="M179.31,171.17c-0.14,0.29-0.34,0.64-0.6,1.05c-0.26,0.41-0.56,0.81-0.91,1.2
			c-0.35,0.39-0.74,0.74-1.17,1.05c-0.43,0.31-0.89,0.5-1.36,0.59c-0.57,0.11-1.08,0.03-1.53-0.23c-0.44-0.26-0.86-0.68-1.25-1.26
			c-0.17,0.25-0.38,0.52-0.65,0.8c-0.26,0.28-0.56,0.54-0.89,0.79c-0.33,0.25-0.68,0.46-1.05,0.64c-0.37,0.18-0.76,0.31-1.15,0.37
			c-0.42,0.07-0.83,0.06-1.25-0.03c-0.42-0.09-0.8-0.26-1.15-0.5c-0.35-0.24-0.64-0.56-0.89-0.95c-0.24-0.39-0.41-0.85-0.49-1.37
			c-0.09-0.59-0.09-1.21-0.01-1.86c0.08-0.65,0.26-1.36,0.52-2.15c0.26-0.78,0.56-1.47,0.9-2.06c0.34-0.59,0.73-1.13,1.17-1.61
			c0.44-0.48,0.91-0.88,1.43-1.21c0.51-0.33,1.06-0.54,1.63-0.65c0.19-0.03,0.35-0.03,0.47,0.03c0.12,0.05,0.23,0.12,0.31,0.2
			c0.09,0.08,0.17,0.15,0.26,0.23c0.08,0.07,0.18,0.12,0.29,0.14c0.11,0.02,0.21,0.03,0.32,0.02c0.11-0.01,0.21-0.02,0.32-0.04
			c0.09-0.02,0.19-0.04,0.28-0.06c0.1-0.02,0.19-0.04,0.28-0.06c0.13-0.02,0.24-0.03,0.36-0.03c0.11,0,0.22,0.04,0.32,0.1
			c0.1,0.06,0.18,0.16,0.26,0.3c0.07,0.13,0.13,0.32,0.18,0.57c0.07,0.37,0.11,0.8,0.11,1.27c0,0.47,0,0.96-0.02,1.46
			c-0.02,0.5-0.04,1.07-0.06,1.71c-0.02,0.64,0,1.17,0.08,1.59c0.07,0.36,0.16,0.63,0.27,0.82c0.11,0.19,0.29,0.26,0.53,0.22
			c0.18-0.03,0.36-0.11,0.54-0.23c0.18-0.12,0.36-0.26,0.53-0.44c0.17-0.17,0.35-0.36,0.51-0.57c0.17-0.21,0.32-0.42,0.46-0.63
			c0.33-0.5,0.66-1.06,0.97-1.67C178.54,169.53,178.92,170.35,179.31,171.17z M168.17,172.29c0.03,0.2,0.08,0.4,0.14,0.58
			c0.06,0.19,0.14,0.35,0.25,0.48c0.1,0.14,0.23,0.24,0.37,0.31c0.14,0.07,0.32,0.09,0.51,0.06c0.32-0.05,0.58-0.23,0.8-0.53
			c0.21-0.3,0.38-0.64,0.51-1.03c0.13-0.39,0.21-0.78,0.26-1.18c0.05-0.4,0.07-0.73,0.06-0.99c0.09-1.33,0.17-2.67,0.25-4
			c-0.34,0.06-0.66,0.2-0.96,0.42c-0.3,0.22-0.57,0.49-0.81,0.81c-0.24,0.32-0.45,0.68-0.64,1.07c-0.18,0.39-0.35,0.87-0.5,1.42
			c-0.15,0.55-0.24,1.04-0.28,1.44C168.1,171.57,168.11,171.94,168.17,172.29z"/>
		<path class="st17" d="M181.74,173.69c-0.46,0.1-0.93,0.01-1.41-0.27c-0.47-0.28-0.92-0.7-1.34-1.26c-0.42-0.56-0.79-1.22-1.12-2
			c-0.33-0.78-0.58-1.62-0.76-2.51c-0.15-0.77-0.24-1.82-0.26-3.15c-0.02-1.33-0.03-1.99-0.03-1.99c0,0,0.05-0.68,0.14-2.03
			c0.09-1.35,0.24-2.45,0.43-3.3c0.19-0.85,0.42-1.65,0.69-2.41c0.27-0.76,0.57-1.44,0.91-2.03c0.34-0.6,0.72-1.09,1.14-1.49
			c0.42-0.39,0.88-0.65,1.38-0.77c0.37-0.08,0.68-0.09,0.95-0.01c0.27,0.08,0.5,0.22,0.69,0.41c0.19,0.19,0.35,0.42,0.47,0.7
			c0.12,0.27,0.22,0.55,0.29,0.85c0.18,0.73,0.27,1.5,0.27,2.31c0,0.8-0.06,1.63-0.18,2.47c-0.13,0.84-0.3,1.7-0.53,2.57
			c-0.23,0.87-0.48,1.74-0.75,2.6c-0.27,0.86-0.56,1.72-0.85,2.56c-0.29,0.84-0.55,1.66-0.79,2.45c-0.03,0.09-0.05,0.2-0.07,0.34
			c-0.02,0.14-0.03,0.28-0.05,0.44c-0.01,0.15-0.02,0.32-0.03,0.49c-0.01,0.17-0.01,0.34,0,0.51c0.01,0.06,0.02,0.11,0.04,0.17
			c0.04,0.2,0.11,0.4,0.2,0.58c0.09,0.18,0.18,0.34,0.28,0.48c0.1,0.14,0.2,0.25,0.3,0.32c0.1,0.07,0.18,0.1,0.25,0.09
			c0.17-0.04,0.35-0.11,0.55-0.22c0.2-0.11,0.41-0.24,0.62-0.4c0.22-0.16,0.43-0.34,0.65-0.53c0.22-0.19,0.43-0.39,0.63-0.58
			c0.47-0.45,0.95-0.97,1.45-1.54c0.56,0.73,1.13,1.46,1.7,2.19c-0.66,0.66-1.34,1.26-2.02,1.8c-0.3,0.23-0.61,0.46-0.93,0.7
			c-0.32,0.23-0.65,0.45-0.99,0.65c-0.34,0.2-0.67,0.37-1,0.52C182.36,173.52,182.04,173.63,181.74,173.69z M179.77,164.41
			c0.24-0.71,0.48-1.5,0.73-2.38c0.25-0.88,0.46-1.77,0.64-2.69c0.18-0.92,0.31-1.82,0.39-2.71c0.08-0.89,0.07-1.7-0.02-2.43
			c-0.05-0.23-0.1-0.42-0.15-0.58c-0.05-0.16-0.1-0.23-0.16-0.22c-0.22,0.05-0.42,0.25-0.61,0.6c-0.19,0.35-0.35,0.81-0.49,1.37
			c-0.14,0.56-0.27,1.45-0.37,2.67c-0.11,1.22-0.17,1.83-0.17,1.83c0,0,0.01,0.55,0.01,1.66
			C179.58,162.64,179.64,163.6,179.77,164.41z"/>
	</g>
</g>
<g>
	<g>
		<path class="st17" d="M92.88,188.46c-0.1,0.52-0.04,1.01,0.2,1.48c0.24,0.47,0.59,0.93,1.05,1.38c0.46,0.45,1.01,0.89,1.63,1.33
			c0.62,0.44,1.26,0.88,1.92,1.33c0.66,0.45,1.31,0.92,1.94,1.41c0.63,0.49,1.18,1.01,1.66,1.57c0.48,0.56,0.85,1.16,1.1,1.82
			c0.25,0.65,0.33,1.37,0.23,2.15c-0.09,0.71-0.31,1.35-0.64,1.91c-0.34,0.56-0.77,1.05-1.29,1.46c-0.52,0.41-1.12,0.75-1.8,1.02
			c-0.68,0.27-1.4,0.47-2.17,0.59c-0.77,0.12-1.56,0.17-2.38,0.16c-0.82-0.02-1.64-0.1-2.45-0.25c-1.14-0.21-2.22-0.55-3.24-1.01
			c-1.02-0.46-1.89-1.02-2.61-1.69c-0.72-0.66-1.24-1.42-1.56-2.25c-0.32-0.83-0.36-1.73-0.13-2.7c0.12-0.5,0.31-0.91,0.58-1.25
			c0.27-0.33,0.56-0.6,0.88-0.79c0.32-0.19,0.65-0.32,0.99-0.37c0.34-0.06,0.64-0.06,0.91,0c0.28,0.06,0.49,0.18,0.65,0.36
			c0.16,0.18,0.2,0.41,0.14,0.7c-0.03,0.13-0.08,0.27-0.14,0.41c-0.07,0.14-0.14,0.3-0.21,0.46c-0.08,0.17-0.15,0.35-0.23,0.56
			c-0.08,0.2-0.15,0.43-0.2,0.68c-0.12,0.55-0.08,1.05,0.11,1.51c0.2,0.46,0.5,0.87,0.92,1.22c0.42,0.36,0.92,0.66,1.51,0.91
			c0.59,0.25,1.22,0.43,1.88,0.56c0.78,0.15,1.57,0.21,2.38,0.18c0.81-0.03,1.55-0.16,2.22-0.38c0.67-0.22,1.23-0.54,1.68-0.95
			c0.45-0.41,0.72-0.92,0.82-1.53c0.08-0.56-0.01-1.09-0.28-1.58c-0.27-0.49-0.65-0.97-1.14-1.43c-0.49-0.46-1.05-0.92-1.69-1.37
			c-0.64-0.45-1.29-0.91-1.94-1.38c-0.65-0.47-1.28-0.96-1.89-1.47c-0.61-0.51-1.13-1.04-1.57-1.6c-0.44-0.56-0.75-1.15-0.95-1.76
			c-0.2-0.62-0.22-1.28-0.06-1.98c0.15-0.66,0.45-1.26,0.92-1.83c0.47-0.56,1.08-1.03,1.84-1.4c0.76-0.37,1.65-0.61,2.68-0.74
			c1.03-0.13,2.19-0.08,3.5,0.15c0.83,0.14,1.62,0.39,2.38,0.76c0.76,0.37,1.42,0.82,1.99,1.36c0.57,0.54,1,1.14,1.31,1.82
			c0.31,0.68,0.42,1.39,0.32,2.15c-0.06,0.45-0.2,0.9-0.42,1.36c-0.22,0.45-0.55,0.92-0.98,1.38c-0.42,0.45-0.86,0.77-1.31,0.95
			c-0.45,0.18-0.85,0.25-1.19,0.2c-0.25-0.04-0.45-0.14-0.59-0.3c-0.14-0.16-0.19-0.38-0.15-0.66c0.03-0.2,0.12-0.44,0.26-0.7
			c0.14-0.26,0.37-0.56,0.66-0.89c0.28-0.31,0.49-0.61,0.65-0.9c0.15-0.29,0.25-0.56,0.28-0.82c0.06-0.4-0.01-0.77-0.19-1.11
			c-0.18-0.34-0.46-0.64-0.82-0.9c-0.37-0.27-0.82-0.49-1.35-0.68c-0.54-0.19-1.13-0.34-1.79-0.46c-0.73-0.13-1.38-0.16-1.95-0.1
			c-0.57,0.06-1.06,0.18-1.47,0.37c-0.41,0.18-0.74,0.41-0.97,0.69C93.09,187.86,92.94,188.15,92.88,188.46z"/>
		<path class="st17" d="M111.3,200.89c-0.32,0.85-0.69,1.62-1.1,2.31c-0.41,0.69-0.84,1.28-1.3,1.76c-0.45,0.48-0.91,0.85-1.37,1.1
			c-0.46,0.25-0.9,0.35-1.32,0.3c-0.69-0.07-1.14-0.59-1.36-1.53c-0.21-0.95-0.21-2.31-0.01-4.1c0.1-0.88,0.19-1.66,0.27-2.34
			c0.08-0.68,0.16-1.35,0.25-2.03c0.09-0.67,0.11-0.89,0.08-0.65c-0.04,0.24-0.07,0.46-0.1,0.67c-0.01,0.05-0.02,0.14-0.04,0.26
			c-0.02,0.12,0.02,0.07,0.12-0.17c0.1-0.23,0.22-0.48,0.37-0.73c0.15-0.25,0.32-0.47,0.52-0.67c0.2-0.2,0.44-0.35,0.69-0.46
			c0.26-0.11,0.56-0.15,0.9-0.12c0.11,0.02,0.22,0.04,0.33,0.06c0.4,0.04,0.71,0.14,0.91,0.3c0.2,0.16,0.29,0.35,0.27,0.58
			c-0.56,2.28-1.14,4.56-1.73,6.83c0.06,0,0.12,0,0.17,0.01c0.47-0.77,0.91-1.56,1.32-2.36c0.41-0.8,0.75-1.46,1.04-1.97
			c0.29-0.51,0.55-0.96,0.81-1.34c0.25-0.38,0.52-0.69,0.79-0.93c0.28-0.24,0.58-0.42,0.91-0.53c0.33-0.11,0.72-0.15,1.16-0.12
			c0.37,0.03,0.66,0.11,0.85,0.26c0.19,0.15,0.28,0.34,0.27,0.57c-0.54,2.29-1.09,4.58-1.66,6.87c0.07,0,0.13,0,0.2,0
			c1.26-2.21,2.47-4.44,3.65-6.68c0.11-0.22,0.34-0.41,0.69-0.56c0.35-0.16,0.76-0.23,1.23-0.21c0.49,0.02,0.87,0.12,1.17,0.32
			c0.29,0.2,0.44,0.44,0.43,0.74c-0.01,0.22-0.05,0.46-0.14,0.71c-0.09,0.25-0.18,0.49-0.28,0.7c-0.1,0.22-0.2,0.4-0.29,0.55
			c-0.09,0.15-0.14,0.24-0.15,0.25c-0.2,0.31-0.41,0.68-0.63,1.11c-0.22,0.42-0.4,0.74-0.53,0.94c-0.16,0.23-0.3,0.45-0.42,0.65
			c0.11,0.32,0.26,0.6,0.45,0.86c0.16,0.21,0.36,0.41,0.61,0.6c0.24,0.18,0.54,0.28,0.89,0.29c0.29,0.01,0.63-0.05,1.02-0.18
			c0.39-0.13,0.75-0.28,1.09-0.45c0.4-0.19,0.81-0.42,1.23-0.67c-0.01,0.96-0.02,1.93-0.02,2.89c-0.6,0.35-1.22,0.62-1.86,0.82
			c-0.64,0.2-1.26,0.29-1.85,0.27c-0.46-0.01-0.9-0.08-1.3-0.19c-0.41-0.12-0.76-0.29-1.06-0.52c-0.3-0.23-0.54-0.53-0.7-0.88
			c-0.17-0.36-0.24-0.78-0.23-1.28c-0.33,0.62-0.68,1.19-1.04,1.7c-0.36,0.51-0.73,0.95-1.11,1.31c-0.38,0.36-0.76,0.64-1.13,0.83
			c-0.38,0.19-0.75,0.27-1.12,0.25c-0.13-0.01-0.23-0.1-0.32-0.28c-0.08-0.18-0.15-0.41-0.19-0.71c-0.04-0.3-0.07-0.64-0.08-1.03
			c-0.01-0.39-0.01-0.8,0-1.23c0.01-0.43,0.03-0.87,0.06-1.33c0.03-0.45,0.06-0.9,0.09-1.33
			C111.55,200.95,111.43,200.92,111.3,200.89z"/>
		<path class="st17" d="M127.26,207.34c-0.85,0.01-1.6-0.12-2.24-0.4c-0.64-0.28-1.17-0.65-1.59-1.12
			c-0.42-0.47-0.73-1.02-0.93-1.63c-0.2-0.62-0.29-1.26-0.28-1.94c0.01-0.44,0.11-0.97,0.3-1.57c0.19-0.61,0.39-1.15,0.59-1.62
			c0.2-0.47,0.45-0.92,0.74-1.35c0.3-0.43,0.64-0.8,1.03-1.13c0.39-0.33,0.82-0.59,1.3-0.78c0.48-0.2,1.01-0.3,1.6-0.31
			c0.48-0.01,0.92,0.05,1.34,0.19c0.41,0.13,0.78,0.32,1.09,0.57c0.31,0.25,0.56,0.55,0.75,0.91c0.19,0.36,0.29,0.77,0.3,1.22
			c0.02,0.48-0.14,1.03-0.47,1.64c-0.33,0.61-0.74,1.14-1.2,1.58c-0.47,0.44-1.03,0.84-1.69,1.18c-0.66,0.35-1.38,0.62-2.16,0.81
			c0.14,0.21,0.27,0.39,0.4,0.53c0.13,0.14,0.27,0.25,0.4,0.32c0.14,0.08,0.28,0.13,0.43,0.16c0.15,0.03,0.31,0.04,0.48,0.04
			c0.54-0.01,1.11-0.11,1.7-0.31c0.59-0.2,1.17-0.45,1.72-0.75c0.55-0.3,1.07-0.63,1.56-0.98c0.48-0.35,0.89-0.69,1.22-1
			c0.6,0.49,1.2,0.98,1.81,1.47c-0.74,0.79-1.55,1.5-2.41,2.12c-0.38,0.26-0.79,0.52-1.22,0.78c-0.44,0.26-0.91,0.48-1.4,0.68
			c-0.49,0.2-1,0.36-1.53,0.48C128.35,207.27,127.81,207.33,127.26,207.34z M125.42,201.65c0.32,0,0.67-0.07,1.04-0.22
			c0.38-0.15,0.72-0.34,1.04-0.57c0.32-0.23,0.63-0.54,0.93-0.93c0.3-0.39,0.45-0.71,0.44-0.96c-0.01-0.35-0.09-0.64-0.24-0.86
			c-0.15-0.22-0.33-0.33-0.53-0.33c-0.37,0.01-0.69,0.07-0.95,0.2c-0.26,0.13-0.48,0.29-0.66,0.49c-0.18,0.2-0.32,0.43-0.43,0.68
			c-0.11,0.25-0.23,0.57-0.38,0.94c-0.14,0.38-0.22,0.68-0.24,0.93C125.42,201.27,125.42,201.48,125.42,201.65z"/>
		<path class="st17" d="M137.59,206.91c-0.85,0.06-1.61-0.03-2.26-0.27c-0.65-0.24-1.2-0.58-1.65-1.03
			c-0.45-0.45-0.79-0.97-1.02-1.58c-0.24-0.6-0.37-1.24-0.4-1.92c-0.02-0.44,0.05-0.97,0.21-1.59c0.16-0.62,0.32-1.17,0.49-1.65
			c0.17-0.48,0.39-0.94,0.66-1.39c0.27-0.44,0.59-0.84,0.96-1.19c0.37-0.35,0.79-0.63,1.25-0.86c0.47-0.22,0.99-0.36,1.58-0.4
			c0.48-0.04,0.93,0,1.35,0.11c0.42,0.11,0.8,0.28,1.12,0.51c0.33,0.23,0.59,0.52,0.8,0.87c0.21,0.35,0.33,0.75,0.38,1.2
			c0.05,0.48-0.08,1.04-0.38,1.67c-0.3,0.63-0.67,1.18-1.11,1.65c-0.44,0.47-0.98,0.9-1.62,1.28c-0.64,0.38-1.34,0.7-2.11,0.93
			c0.15,0.2,0.29,0.37,0.43,0.5c0.14,0.13,0.28,0.23,0.42,0.3c0.14,0.07,0.29,0.11,0.44,0.13c0.15,0.02,0.31,0.02,0.48,0.01
			c0.54-0.04,1.1-0.18,1.68-0.41c0.58-0.24,1.14-0.52,1.68-0.85c0.54-0.33,1.04-0.69,1.5-1.07c0.46-0.38,0.85-0.74,1.16-1.07
			c0.62,0.46,1.25,0.91,1.89,1.36c-0.69,0.84-1.46,1.59-2.29,2.25c-0.36,0.29-0.75,0.57-1.18,0.85c-0.42,0.28-0.88,0.54-1.36,0.76
			c-0.48,0.23-0.98,0.42-1.5,0.57C138.67,206.77,138.13,206.87,137.59,206.91z M135.42,201.33c0.32-0.02,0.66-0.11,1.03-0.28
			c0.37-0.17,0.7-0.38,1.01-0.63c0.31-0.25,0.6-0.58,0.87-0.98c0.28-0.41,0.4-0.73,0.38-0.98c-0.03-0.35-0.12-0.63-0.28-0.85
			c-0.16-0.21-0.35-0.31-0.55-0.3c-0.37,0.03-0.69,0.11-0.94,0.26c-0.26,0.14-0.47,0.32-0.63,0.53c-0.16,0.21-0.29,0.45-0.39,0.71
			c-0.09,0.26-0.2,0.58-0.32,0.97c-0.12,0.38-0.18,0.7-0.19,0.94C135.4,200.96,135.41,201.16,135.42,201.33z"/>
		<path class="st17" d="M154.17,202.23c-0.78,0.59-1.49,1.09-2.11,1.53c-0.62,0.44-1.18,0.8-1.68,1.1c-0.5,0.3-0.95,0.53-1.34,0.7
			c-0.4,0.17-0.77,0.27-1.1,0.32c-0.69,0.09-1.32-0.02-1.88-0.32c-0.57-0.3-1.06-0.78-1.49-1.42c-0.43-0.65-0.77-1.45-1.05-2.41
			c-0.28-0.96-0.48-2.05-0.61-3.27c-0.05-0.48-0.08-0.99-0.1-1.53c-0.01-0.54-0.01-1.09,0.01-1.63c-0.26-0.01-0.46-0.02-0.61-0.04
			c-0.15-0.02-0.3-0.03-0.46-0.05c-0.16-0.02-0.37-0.03-0.61-0.04c-0.25-0.01-0.61-0.02-1.07-0.03c-0.21-0.01-0.37-0.04-0.49-0.11
			c-0.12-0.07-0.21-0.15-0.27-0.24c-0.06-0.1-0.1-0.2-0.12-0.31c-0.02-0.11-0.03-0.2-0.04-0.28c-0.01-0.13,0.06-0.23,0.22-0.31
			c0.16-0.08,0.37-0.15,0.62-0.21c0.26-0.06,0.54-0.1,0.85-0.14c0.31-0.03,0.61-0.06,0.89-0.08c0.28-0.02,0.54-0.04,0.76-0.06
			c0.23-0.02,0.38-0.04,0.46-0.07c0.11-1.09,0.28-2.16,0.51-3.2c0.23-1.04,0.5-1.97,0.83-2.8c0.32-0.83,0.7-1.51,1.12-2.04
			c0.43-0.53,0.9-0.84,1.44-0.91c0.34-0.05,0.67,0,0.98,0.15c0.31,0.15,0.59,0.36,0.84,0.65c0.25,0.28,0.46,0.63,0.63,1.03
			c0.17,0.4,0.3,0.84,0.37,1.29c0.06,0.38,0.06,0.79,0.01,1.22c-0.05,0.44-0.14,0.89-0.27,1.36c-0.13,0.47-0.3,0.94-0.51,1.43
			c-0.21,0.49-0.43,0.97-0.67,1.46c0.07-0.04,0.2-0.06,0.38-0.07c0.18-0.01,0.38-0.03,0.62-0.06c0.23-0.03,0.48-0.06,0.75-0.09
			c0.27-0.03,0.53-0.07,0.79-0.1c0.25-0.03,0.49-0.06,0.71-0.09c0.22-0.03,0.4-0.05,0.55-0.07c0.17-0.02,0.31,0.05,0.41,0.2
			c0.1,0.15,0.18,0.36,0.22,0.61c0.05,0.29,0.01,0.55-0.13,0.76c-0.14,0.21-0.31,0.34-0.52,0.37c-1.63,0.27-3.27,0.51-4.91,0.73
			c-0.21,0.35-0.42,0.69-0.63,1.03c-0.21,0.34-0.42,0.64-0.6,0.92c0.03,0.5,0.06,0.98,0.09,1.46c0.02,0.21,0.03,0.42,0.05,0.64
			c0.02,0.22,0.04,0.44,0.05,0.65c0.02,0.22,0.04,0.42,0.06,0.62c0.02,0.2,0.04,0.38,0.06,0.55c0.05,0.43,0.14,0.78,0.27,1.07
			c0.13,0.28,0.29,0.51,0.48,0.67c0.19,0.16,0.42,0.27,0.68,0.32c0.26,0.05,0.54,0.06,0.84,0.01c0.19-0.03,0.42-0.1,0.69-0.21
			c0.27-0.12,0.56-0.27,0.88-0.46c0.31-0.19,0.64-0.4,0.98-0.65c0.34-0.24,0.67-0.51,0.99-0.79c0.32-0.28,0.63-0.57,0.91-0.87
			c0.29-0.3,0.54-0.6,0.76-0.91C153.83,200.21,154,201.22,154.17,202.23z M147.74,187.89c-0.01-0.09-0.03-0.18-0.06-0.29
			c-0.03-0.1-0.07-0.2-0.12-0.29c-0.05-0.09-0.13-0.16-0.22-0.21c-0.09-0.05-0.22-0.07-0.37-0.04c-0.21,0.03-0.4,0.24-0.57,0.63
			c-0.17,0.39-0.32,0.88-0.44,1.47c-0.13,0.59-0.24,1.23-0.33,1.93c-0.09,0.7-0.18,1.38-0.25,2.03c0.13,0,0.26-0.01,0.38-0.02
			c0.13-0.01,0.26-0.01,0.4-0.02c0.2-0.43,0.41-0.9,0.62-1.4c0.21-0.5,0.39-0.99,0.55-1.47c0.15-0.48,0.27-0.92,0.36-1.33
			C147.75,188.47,147.78,188.14,147.74,187.89z"/>
		<path class="st17" d="M152.47,200.65c0.43-0.46,0.78-0.85,1.04-1.15c0.26-0.31,0.52-0.65,0.77-1.05c0.25-0.39,0.44-0.71,0.58-0.96
			c0.14-0.25,0.3-0.54,0.49-0.87c0.19-0.34,0.42-0.75,0.68-1.24c0.26-0.49,0.61-1.1,1.03-1.84c0.08-0.16,0.18-0.33,0.29-0.49
			c0.11-0.16,0.23-0.31,0.38-0.45c0.14-0.14,0.31-0.26,0.49-0.37c0.18-0.11,0.4-0.19,0.64-0.24c0.4-0.08,0.72-0.11,0.96-0.07
			c0.24,0.04,0.42,0.1,0.54,0.2c0.13,0.1,0.21,0.21,0.26,0.33c0.05,0.13,0.08,0.24,0.1,0.33c0.04,0.19,0.01,0.42-0.1,0.68
			c-0.11,0.26-0.24,0.52-0.39,0.78c-0.15,0.25-0.29,0.49-0.43,0.7c-0.14,0.21-0.21,0.37-0.22,0.46c0.05,0.24,0.12,0.46,0.2,0.66
			c0.08,0.19,0.18,0.38,0.28,0.56c0.11,0.18,0.22,0.37,0.33,0.57c0.12,0.2,0.24,0.44,0.36,0.71c0.13,0.27,0.22,0.66,0.27,1.17
			c0.06,0.51,0.14,1.01,0.25,1.52c0.28-0.26,0.58-0.5,0.91-0.73c0.33-0.23,0.68-0.48,1.03-0.73c0.36-0.25,0.72-0.53,1.09-0.83
			c0.37-0.3,0.73-0.64,1.08-1.02c0.22,0.88,0.43,1.76,0.65,2.63c-0.46,0.49-1.02,0.98-1.67,1.46c-0.65,0.48-1.35,0.93-2.11,1.34
			c-0.75,0.41-1.53,0.77-2.32,1.08c-0.8,0.3-1.56,0.52-2.3,0.66c-0.53,0.1-1.04,0.15-1.51,0.15c-0.47,0-0.9-0.06-1.28-0.18
			c-0.38-0.12-0.7-0.3-0.96-0.55c-0.26-0.25-0.45-0.58-0.56-0.98c-0.12,0.04-0.24,0.08-0.36,0.11c-0.12,0.03-0.24,0.05-0.35,0.07
			c-0.14,0.02-0.28,0.04-0.4,0.05c-0.13,0.01-0.24,0-0.34-0.04c-0.1-0.04-0.18-0.11-0.25-0.22c-0.07-0.11-0.12-0.27-0.16-0.48
			c-0.03-0.19,0-0.38,0.08-0.56c0.08-0.18,0.18-0.34,0.3-0.49c0.12-0.15,0.25-0.28,0.37-0.4
			C152.31,200.81,152.4,200.71,152.47,200.65z M154.38,201.9c0.11-0.02,0.23,0.02,0.38,0.12c0.15,0.1,0.32,0.2,0.52,0.32
			c0.19,0.11,0.41,0.21,0.66,0.29c0.24,0.08,0.51,0.09,0.8,0.04c0.35-0.06,0.63-0.17,0.84-0.31c0.21-0.15,0.36-0.32,0.46-0.51
			c0.1-0.2,0.16-0.41,0.17-0.65c0.01-0.24-0.01-0.48-0.06-0.72c-0.04-0.21-0.1-0.43-0.17-0.64c-0.07-0.22-0.12-0.49-0.15-0.83
			c-0.02-0.34-0.08-0.59-0.17-0.76c-0.09-0.17-0.17-0.31-0.24-0.43C156.42,199.18,155.41,200.55,154.38,201.9z"/>
	</g>
</g>
<g>
	<text transform="matrix(1 0 0 1 19.6738 242)" class="st23 st24 st25">cake</text>
</g>
<g>
	<text transform="matrix(1 0 0 1 171.8305 243.4463)" class="st23 st24 st25">pops</text>
</g>
</svg>
