<svg id="noun-love-call-1544745" xmlns="http://www.w3.org/2000/svg" width="71.836" height="75" viewBox="0 0 71.836 75">
  <path id="Path_1432" data-name="Path 1432" d="M150.936,103.7a11.637,11.637,0,0,0-11.383,11.8c0,4.734,2.93,8.813,6.282,12.359a66.685,66.685,0,0,0,10.334,8.66,2.369,2.369,0,0,0,2.711,0,66.685,66.685,0,0,0,10.334-8.66c3.352-3.546,6.267-7.625,6.267-12.359a12.434,12.434,0,0,0-.905-4.6,11.325,11.325,0,0,0-10.463-7.2,10.722,10.722,0,0,0-6.588,2.314,10.754,10.754,0,0,0-6.588-2.314Zm0,5.114a6.146,6.146,0,0,1,4.752,2.344,2.378,2.378,0,0,0,3.673,0,6.1,6.1,0,0,1,4.752-2.344,6.506,6.506,0,0,1,5.186,2.657,6.6,6.6,0,0,1,1.286,4.024c0,2.283-1.924,5.632-4.868,8.767a59.748,59.748,0,0,1-8.191,6.986,57.686,57.686,0,0,1-8.191-6.986c-2.959-3.135-4.868-6.484-4.868-8.767a6.529,6.529,0,0,1,6.472-6.682Zm-33.232,1.7a2.4,2.4,0,0,0-1.428.746l-11.908,12.42a2.644,2.644,0,0,0-.714,2.024c.86,11.278,6.909,24.322,17.185,35.053s22.767,17.032,33.567,17.93a2.333,2.333,0,0,0,1.909-.746l11.908-12.42a2.59,2.59,0,0,0,.714-1.811,2.656,2.656,0,0,0-.714-1.811l-11.908-12.42a2.4,2.4,0,0,0-1.72-.746,2.341,2.341,0,0,0-1.72.746l-6.865,7.169a56.71,56.71,0,0,1-12.083-9.589,58.359,58.359,0,0,1-9.153-12.6l6.865-7.169a2.59,2.59,0,0,0,.714-1.811,2.656,2.656,0,0,0-.714-1.811l-11.908-12.42a2.431,2.431,0,0,0-2.026-.731Zm.277,6.149,8.439,8.813-6.5,6.788a2.561,2.561,0,0,0-.685,1.446,2.678,2.678,0,0,0,.277,1.583,65.58,65.58,0,0,0,10.961,15.373,62.77,62.77,0,0,0,14.721,11.446,2.3,2.3,0,0,0,1.516.289,2.463,2.463,0,0,0,1.385-.715l6.5-6.788,8.425,8.8-9.241,9.665c-9.081-1.065-20.275-6.621-29.486-16.256-9.212-9.619-14.532-21.309-15.567-30.791Z" transform="translate(-103.645 -103.7)" fill="#50514f"/>
</svg>
