<svg xmlns="http://www.w3.org/2000/svg" width="48.374" height="50.505" viewBox="0 0 48.374 50.505">
  <path id="Path_1432" data-name="Path 1432" d="M135.491,103.7a7.836,7.836,0,0,0-7.666,7.943c0,3.188,1.973,5.934,4.23,8.323a44.9,44.9,0,0,0,6.959,5.832,1.6,1.6,0,0,0,1.826,0,44.9,44.9,0,0,0,6.959-5.832c2.257-2.388,4.221-5.135,4.221-8.323a8.373,8.373,0,0,0-.61-3.1,7.627,7.627,0,0,0-7.046-4.846,7.22,7.22,0,0,0-4.436,1.558,7.242,7.242,0,0,0-4.436-1.558Zm0,3.444a4.139,4.139,0,0,1,3.2,1.578,1.6,1.6,0,0,0,2.473,0,4.109,4.109,0,0,1,3.2-1.578,4.381,4.381,0,0,1,3.492,1.789,4.447,4.447,0,0,1,.866,2.71c0,1.537-1.3,3.792-3.278,5.9a40.235,40.235,0,0,1-5.516,4.7,38.846,38.846,0,0,1-5.516-4.7c-1.992-2.111-3.278-4.366-3.278-5.9a4.4,4.4,0,0,1,4.358-4.5Zm-22.379,1.148a1.618,1.618,0,0,0-.962.5l-8.019,8.364a1.781,1.781,0,0,0-.481,1.363c.579,7.595,4.652,16.379,11.572,23.6s15.331,11.469,22.6,12.074a1.571,1.571,0,0,0,1.286-.5l8.019-8.364a1.744,1.744,0,0,0,.481-1.22,1.788,1.788,0,0,0-.481-1.22l-8.019-8.364a1.616,1.616,0,0,0-1.158-.5,1.576,1.576,0,0,0-1.158.5l-4.623,4.827a38.188,38.188,0,0,1-8.137-6.457,39.3,39.3,0,0,1-6.164-8.487l4.623-4.828a1.744,1.744,0,0,0,.481-1.22,1.788,1.788,0,0,0-.481-1.22l-8.019-8.364a1.637,1.637,0,0,0-1.364-.492Zm.186,4.141,5.683,5.934-4.378,4.571a1.725,1.725,0,0,0-.461.974,1.8,1.8,0,0,0,.186,1.066,44.161,44.161,0,0,0,7.381,10.352,42.269,42.269,0,0,0,9.913,7.708,1.552,1.552,0,0,0,1.021.195,1.659,1.659,0,0,0,.932-.482l4.378-4.571,5.673,5.924-6.223,6.508c-6.115-.717-13.653-4.459-19.856-10.946s-9.786-14.349-10.483-20.735Z" transform="translate(-103.645 -103.7)" fill="#50514f"/>
</svg>
