<svg xmlns="http://www.w3.org/2000/svg" width="47.419" height="47.027" viewBox="0 0 47.419 47.027">
  <g id="Group_65" data-name="Group 65" transform="translate(-1401.291 -880.487)">
    <rect id="Rectangle_941" data-name="Rectangle 941" width="44.284" height="44.284" rx="12" transform="translate(1404.426 883.23)" fill="#598e89"/>
    <rect id="Rectangle_942" data-name="Rectangle 942" width="44.284" height="44.284" rx="12" transform="translate(1401.291 880.487)" fill="#68b0ab"/>
    <path id="Path_540" data-name="Path 540" d="M424.284,184.843a4.705,4.705,0,0,1-4.364-3.255,4.662,4.662,0,0,0,2.011-.061.5.5,0,0,0,.067-.03,4.689,4.689,0,0,1-3.047-2.152,4.554,4.554,0,0,1-.686-2.494,4.624,4.624,0,0,0,2.087.568,4.719,4.719,0,0,1-1.931-2.845,4.652,4.652,0,0,1,.5-3.4,13.424,13.424,0,0,0,9.673,4.9c-.027-.186-.056-.35-.074-.514a4.69,4.69,0,0,1,7.972-3.879.236.236,0,0,0,.25.076,9.458,9.458,0,0,0,2.728-1.049.506.506,0,0,1,.062-.032s.012,0,.032,0a4.8,4.8,0,0,1-2.009,2.553,9.026,9.026,0,0,0,2.612-.7l.018.021c-.179.235-.352.475-.539.7a9.187,9.187,0,0,1-1.705,1.621.156.156,0,0,0-.077.147,12.936,12.936,0,0,1-.088,2.083,13.8,13.8,0,0,1-1.209,4.176,13.528,13.528,0,0,1-2.535,3.7,12.541,12.541,0,0,1-6.445,3.592,14.171,14.171,0,0,1-2.613.311,13.252,13.252,0,0,1-7.507-2.015c-.029-.017-.058-.038-.11-.072a9.471,9.471,0,0,0,4.692-.647A9.334,9.334,0,0,0,424.284,184.843Z" transform="translate(995.839 723.668)" fill="#598e89" fill-rule="evenodd"/>
  </g>
</svg>
